<svg width="57" height="24" viewBox="0 0 57 24" xmlns="http://www.w3.org/2000/svg"><title>global/logos/horizontal/alipay</title><g fill="#139AD6"><path d="M4.855 12.867c-.5.052-1.438.272-1.95.723-1.536 1.34-.615 3.792 2.491 3.792 1.807 0 3.613-1.157 5.028-3.006-2.02-.989-3.728-1.694-5.569-1.509z"/><path d="M16.442 14.56c2.876.966 3.526 1.018 3.526 1.018V5.202A3.2 3.2 0 0 0 16.769 2H3.2A3.2 3.2 0 0 0 0 5.202v13.596A3.2 3.2 0 0 0 3.199 22h13.57a3.2 3.2 0 0 0 3.199-3.202v-.133s-5.195-2.168-7.818-3.434c-1.76 2.168-4.027 3.486-6.386 3.486-3.986 0-5.338-3.492-3.451-5.792.414-.503 1.11-.977 2.197-1.249 1.697-.416 4.401.26 6.938 1.099.455-.844.84-1.77 1.128-2.752H4.763v-.792H8.79V7.81H3.918v-.792h4.878v-2.03s0-.34.345-.34h1.962v2.37h4.82v.791h-4.82v1.422h3.935a16.054 16.054 0 0 1-1.668 4.22c1.196.428 2.272.838 3.072 1.11v-.001zm31.945-9.427h5.718v1.139h2.043V4.919a.55.55 0 0 0-.53-.555h-3.302V3.306h-2.134v1.058H46.35v1.908h2.043v-1.14h-.006v.001zM36.018 3.399l-2.094 4.97h1.605v5.92h1.755v-7.85h-.639L37.97 3.4l-1.952-.001zm20.36 10.624l-.645-2.18a.328.328 0 0 0-.316-.236H53.72l.495 1.67h-1.997V10.04h3.924v-.768h-3.924V7.746h3.924V6.97h-9.797v.769h3.923v1.526h-3.923v.769h3.923v3.237h-3.923v.768h10.033l-.006-.028.006.011v.001zM40.511 7.48a.401.401 0 0 0-.362-.231H38.63l1.185 3.745h1.8L40.512 7.48h-.001z"/><path d="M44.36 3.491h-1.824v1.914h-4.498v.768h4.498v6.885a.315.315 0 0 1-.293.289h-.926v.798h2.364a.73.73 0 0 0 .685-.717V6.179h.742V5.41h-.742V3.491h-.006zM32.975 6.983h-3.503v-1.26h4.061v-.787h-4.061v-1.6H27.66a.363.363 0 0 0-.357.375v1.225H23.27v.787h4.033v1.26h-3.406v.786h6.783s-.374 1.474-2.238 3.058c-1.668-1.266-2.226-2.278-2.226-2.278h-1.824c.736 1.283 1.783 2.306 2.91 3.122-1.035.676-2.375 1.329-4.112 1.85v.941s2.675-.508 5.263-2.04c2.59 1.52 5.195 2.04 5.195 2.04v-.89c-1.662-.612-2.985-1.283-4.021-1.93 1.502-1.116 2.819-2.63 3.348-4.66v.001zM27.222 19.55l.305.918h.852l-1.674-4.566h-.65l-1.669 4.566h.852l.316-.919h1.668v.001zm-.822-2.47l.627 1.891H25.75l.65-1.89v-.001zm4.654-1.178v4.566h2.75v-.624H31.87v-3.942h-.816zm5.746 0h.818v4.566H36.8v-4.566zm5.897 0h-1.766v4.566h.817v-1.757h.95c.88 0 1.495-.578 1.495-1.405 0-.826-.615-1.404-1.496-1.404zm-.046 2.185h-.903v-1.561h.903c.455 0 .725.399.725.786 0 .376-.253.775-.725.775zm6.34 1.463l.305.918h.851l-1.674-4.566h-.65l-1.668 4.566h.851l.317-.919h1.668v.001zm-.823-2.47l.627 1.891h-1.277l.65-1.89v-.001zm6.53-1.178l-.892 1.942-.903-1.942h-.886l1.375 2.688v1.872h.811V18.59l.006-.012 1.369-2.682h-.88v.006z"/></g></svg>