<svg width="24" height="24" viewBox="0 0 24 24" xmlns="http://www.w3.org/2000/svg"><path d="M15.281 2.98A5.992 5.992 0 0 1 18 8H6a5.992 5.992 0 0 1 2.719-5.02L7.584 1.277a.5.5 0 1 1 .832-.554l1.186 1.779a5.975 5.975 0 0 1 4.796 0L15.584.723a.5.5 0 1 1 .832.554L15.281 2.98zM6 19V9h12v10a1 1 0 0 1-1 1h-1v3a1 1 0 0 1-2 0v-3h-4v3a1 1 0 0 1-2 0v-3H7a1 1 0 0 1-1-1zM4 9a1 1 0 0 1 1 1v5a1 1 0 0 1-2 0v-5a1 1 0 0 1 1-1zm16 0a1 1 0 0 1 1 1v5a1 1 0 0 1-2 0v-5a1 1 0 0 1 1-1zM10 6a1 1 0 1 0 0-2 1 1 0 0 0 0 2zm4 0a1 1 0 1 0 0-2 1 1 0 0 0 0 2z" fill="#151922"/></svg>