<svg width="90" height="96" viewBox="0 0 90 96" xmlns="http://www.w3.org/2000/svg"><g fill="none"><path d="M32 29h13v4H32v-4zM9 47h71v4H9v-4zm23 18h13v4H32v-4zM9 83h71v4H9v-4z" fill="#D0D1D2"/><path d="M49.186 20a34.801 34.801 0 0 0 1.68 4H6a2 2 0 0 0-2 2v28a2 2 0 0 0 2 2h78a2 2 0 0 0 2-2V26a2 2 0 0 0-1.001-1.733A34.538 34.538 0 0 0 86.6 20.59 6 6 0 0 1 90 26v28c0 1.5-.5 2.9-1.5 4 .9 1.1 1.5 2.5 1.5 4v28c0 3.3-2.7 6-6 6H6c-3.3 0-6-2.7-6-6V62c0-1.5.5-2.9 1.5-4a7.122 7.122 0 0 1-.372-.497A5.973 5.973 0 0 1 0 54V26a6 6 0 0 1 6-6h43.186zM86 90V62c0-1.1-.9-2-2-2H6c-1.1 0-2 .9-2 2v28c0 1.1.9 2 2 2h78c1.1 0 2-.9 2-2zM11 33a2 2 0 1 1 0-4 2 2 0 0 1 0 4zm7 0a2 2 0 1 1 0-4 2 2 0 0 1 0 4zm7 0a2 2 0 1 1 0-4 2 2 0 0 1 0 4zM11 69a2 2 0 1 1 0-4 2 2 0 0 1 0 4zm7 0a2 2 0 1 1 0-4 2 2 0 0 1 0 4zm7 0a2 2 0 1 1 0-4 2 2 0 0 1 0 4z" fill="#151922"/><path d="M84.362 4.91c-5.165 0-11.233-1.818-15.454-4.634a1.629 1.629 0 0 0-1.815 0C62.87 3.092 56.803 4.91 51.636 4.91c-.903 0-1.636.732-1.636 1.636 0 13.703 6.488 24.665 17.355 29.321a1.636 1.636 0 0 0 1.29 0C79.51 31.211 85.998 20.25 85.998 6.547c0-.905-.733-1.637-1.637-1.637zM68 32.572V18H55.14c-1.063-3.011-1.691-6.328-1.834-9.872C58.303 7.809 63.814 6.108 68 3.577V18h12.86C78.52 24.619 74.07 29.759 68 32.57z" fill="#F64F64"/></g></svg>