<svg width="110" height="96" viewBox="0 0 110 96" xmlns="http://www.w3.org/2000/svg"><title>global/illustrations/features/automatic-kill-switch</title><g fill="none" fill-rule="evenodd"><path d="M79 58.6v4H62.5l3.1 3.2-2.8 2.8-7.8-7.8 7.8-7.8 2.8 2.9-2.7 2.7H79zM58 72.2h17l-2.7-2.8 2.8-2.8 7.8 7.8-7.8 7.8-2.8-2.9 3.2-3.1H58v-4z" fill="#D0D1D2" fill-rule="nonzero"/><path d="M105.147 61.067a19.087 19.087 0 0 0 3.358-2.702A28.466 28.466 0 0 1 110 67.5C110 83.24 97.24 96 81.5 96h-53C12.76 96 0 83.24 0 67.5S12.76 39 28.5 39h48.467a18.898 18.898 0 0 0-.863 4H28.5C14.969 43 4 53.969 4 67.5S14.969 92 28.5 92h53C95.031 92 106 81.031 106 67.5a24.53 24.53 0 0 0-.853-6.433zM30 51c9.407 0 17 7.593 17 17s-7.593 17-17 17-17-7.593-17-17 7.593-17 17-17zm0 4c-7.09 0-13 5.79-13 13s5.79 13 13 13 13-5.79 13-13-5.79-13-13-13z" fill="#151922"/><path d="M95 30c8.3 0 15 6.7 15 15s-6.7 15-15 15-15-6.7-15-15 6.7-15 15-15zm3.6 20.5h3.9L96.8 37h-3.6l-5.7 13.5h3.9l1-2.4h5.2l1 2.4zm-5.1-5.3l1.5-3.8 1.5 3.8h-3z" fill="#F64F64" fill-rule="nonzero"/></g></svg>