<svg width="132" height="60" viewBox="0 0 132 60" xmlns="http://www.w3.org/2000/svg"><path d="M54.417 29.36l.001-2.44c0-.087.015-.174.025-.287h9.713c0 .734.008 1.456-.009 2.178-.002.108-.11.223-.186.32-1.673 2.123-3.348 4.243-5.022 6.365-.082.104-.156.216-.285.395h.488c1.58 0 3.162.007 4.743-.005.294-.003.403.07.395.383-.022.787-.007 1.576-.007 2.387h-9.847c0-.786-.006-1.56.008-2.332.002-.097.104-.198.173-.286a7222.71 7222.71 0 0 1 4.822-6.132l.42-.545h-5.432zm-5.289-.002h-5.39v-2.73h9.744c0 .515-.026 1.033.007 1.547.031.473-.113.84-.412 1.211-1.62 2.016-3.215 4.053-4.819 6.083-.086.11-.167.222-.301.398h5.59v2.782h-9.838c0-.76-.011-1.519.01-2.278.004-.13.135-.266.227-.383 1.645-2.095 3.293-4.187 4.94-6.28.068-.088.127-.183.242-.35zm56.426 6.738h1.752c2.054 0 3.347-1.158 3.577-3.202.166-1.467-.628-2.927-1.892-3.445-1.114-.456-2.277-.214-3.436-.278v6.925zm-3.033 2.553V27.044c0-.489 0-.493.505-.489 1.746.016 3.499-.058 5.235.077 2.475.191 4.412 1.306 5.329 3.748.931 2.482.221 5.315-1.672 6.867-1.116.915-2.428 1.365-3.842 1.416-1.795.065-3.594.02-5.392.022-.036 0-.073-.016-.163-.036zm-36.349.007V22.02h11.57v1.614c0 .357-.024.716.007 1.07.03.353-.111.422-.436.42-2.283-.013-4.566-.007-6.849-.007h-.722v3.503h.43c1.723 0 3.445.01 5.166-.008.348-.004.43.107.422.435-.022.877-.008 1.754-.008 2.675h-6.036v6.933h-3.544zM36.138 39c-.383-.078-.768-.146-1.148-.237-2.353-.56-3.743-2.322-3.745-4.743-.002-2.321 0-4.642 0-6.963v-.416h3.18v.443c0 2.193.007 4.387-.003 6.58-.004.995.3 1.838 1.243 2.27 1.022.47 2.068.453 3.013-.22.693-.493.889-1.248.89-2.059.004-2.18.001-4.361.001-6.542v-.48h3.147v7.317c-.002 2.77-1.726 4.674-4.49 4.964-.136.015-.27.057-.404.086h-1.684zm56.65-7.543h5.857c.076-1.452-1.318-2.606-3.07-2.572-1.554.03-2.9 1.26-2.788 2.572zM95.373 39c-.52-.105-1.048-.179-1.558-.32-2.435-.671-4.115-2.73-4.336-5.247-.209-2.374.48-4.386 2.385-5.884 2.888-2.27 8.564-1.755 9.691 3.615.081.385.129.78.153 1.172.026.417.006.837.006 1.32h-8.949c.078.67.339 1.21.771 1.657.99 1.021 2.225 1.214 3.56.98.85-.15 1.635-.473 2.342-1.078l1.44 2.112c-.375.25-.714.516-1.088.72-.927.508-1.931.775-2.983.874-.122.011-.242.052-.362.079h-1.072zm-9.665-7.54c.063-1.499-1.365-2.643-3.172-2.572-1.504.06-2.84 1.333-2.68 2.571h5.852zM82.44 39c-.422-.079-.85-.139-1.266-.239-3.268-.783-4.933-3.595-4.647-6.703.239-2.602 1.55-4.504 4.049-5.385 3.488-1.23 7.533.43 8.13 5.072.079.613.075 1.237.112 1.91H79.81c.21 1.144.786 1.946 1.791 2.372 1.634.693 3.165.348 4.608-.58.085-.056.164-.12.246-.18.009-.006.025 0 .083 0l1.41 2.075c-.466.29-.894.603-1.362.839-.862.433-1.788.662-2.75.742-.11.01-.216.05-.324.077H82.44zM21.568 28.62c1.044 0 2.035.003 3.027 0 .19-.001.385 0 .57-.037.7-.14 1.228-.5 1.411-1.229.292-1.163-.449-2.168-1.652-2.227-.56-.028-1.122-.008-1.682-.009h-1.649c-.011.12-.024.194-.024.268v3.235zm.025 6.889c.046.016.092.045.139.045 1.12.002 2.241.042 3.359-.011 1.156-.055 1.843-.766 1.874-1.813.03-1.052-.604-1.81-1.737-1.947-.715-.086-1.447-.046-2.17-.056-.48-.007-.96-.002-1.465-.002v3.784zM18 22.009c2.703.004 5.406-.036 8.107.026 2.083.047 3.714 1.462 4.065 3.394.398 2.186-.737 4.054-2.487 4.555-.045.012-.081.054-.14.095 1.668.478 2.664 1.582 2.944 3.237.462 2.73-1.043 4.973-3.888 5.29-.631.07-1.272.069-1.908.072-2.23.012-4.462.012-6.693.016V22.01z" fill="#EE3222"/></svg>