<svg width="132" height="60" viewBox="0 0 132 60" xmlns="http://www.w3.org/2000/svg"><path d="M54.418 28.836l.001-2.464c0-.088.015-.175.025-.29h9.713c0 .741.008 1.47-.008 2.199-.003.11-.11.225-.187.323-1.672 2.143-3.348 4.283-5.021 6.425-.083.105-.157.218-.285.4h.487c1.581 0 3.162.006 4.743-.007.294-.002.404.07.395.387-.021.795-.007 1.59-.007 2.41h-9.846c0-.794-.007-1.574.008-2.354.001-.098.103-.2.172-.29 1.606-2.064 3.215-4.126 4.822-6.19.123-.157.243-.317.42-.55l-5.432.001zm-5.289-.003H43.74v-2.755h9.743c0 .52-.026 1.042.008 1.56.03.479-.114.848-.413 1.223-1.62 2.036-3.215 4.092-4.818 6.141-.086.11-.168.223-.302.402h5.59v2.808H43.71c0-.767-.01-1.534.011-2.3.004-.131.135-.268.227-.386 1.645-2.115 3.293-4.227 4.939-6.34.069-.088.127-.185.242-.353zm56.427 6.802h1.751c2.054-.001 3.348-1.17 3.578-3.233.165-1.48-.629-2.954-1.893-3.477-1.113-.46-2.277-.216-3.436-.281v6.99zm-3.034 2.577V26.497c0-.493.001-.498.505-.493 1.746.016 3.499-.059 5.236.077 2.474.193 4.411 1.318 5.328 3.784.932 2.506.221 5.365-1.672 6.932-1.115.923-2.428 1.377-3.842 1.429-1.795.065-3.594.02-5.392.022-.036 0-.073-.016-.163-.036zm-36.348.006V21.427h11.57v1.629c0 .36-.024.723.006 1.08.03.357-.11.426-.436.424-2.283-.013-4.566-.007-6.849-.007h-.722v3.536h.431c1.722 0 3.444.01 5.166-.008.348-.004.43.108.421.44-.021.884-.007 1.77-.007 2.699h-6.037v6.998h-3.543zm-30.034.348c-.383-.08-.769-.148-1.149-.24-2.353-.565-3.743-2.343-3.745-4.787-.002-2.343 0-4.686 0-7.029v-.42h3.18v.448c0 2.214.007 4.428-.002 6.642-.005 1.004.3 1.855 1.242 2.292 1.022.473 2.069.456 3.014-.223.692-.498.888-1.26.89-2.078.003-2.201 0-4.403 0-6.604v-.484h3.147v7.385c-.002 2.796-1.726 4.718-4.489 5.012-.136.014-.27.056-.405.086H36.14zm56.649-7.614h5.858c.075-1.466-1.319-2.63-3.07-2.596-1.555.03-2.9 1.271-2.788 2.596zm2.587 7.614c-.52-.106-1.049-.18-1.559-.322-2.435-.678-4.115-2.757-4.336-5.298-.208-2.396.48-4.427 2.386-5.94 2.888-2.29 8.563-1.77 9.69 3.65.082.389.13.787.153 1.184.026.42.006.844.006 1.331h-8.948c.077.678.338 1.222.77 1.673.99 1.031 2.225 1.225 3.56.989.85-.15 1.636-.477 2.342-1.088l1.44 2.132c-.374.253-.714.521-1.087.727-.928.512-1.932.783-2.984.882-.122.012-.241.053-.362.08h-1.071zm-9.666-7.612c.063-1.512-1.365-2.667-3.172-2.595-1.504.06-2.84 1.345-2.68 2.595h5.852zm-3.268 7.612c-.423-.08-.85-.14-1.267-.241-3.268-.79-4.933-3.63-4.647-6.766.24-2.627 1.55-4.547 4.05-5.436 3.487-1.241 7.532.434 8.13 5.12.078.618.074 1.248.112 1.928h-9.008c.208 1.154.785 1.964 1.79 2.394 1.634.7 3.165.351 4.608-.586.085-.056.164-.121.247-.181.008-.006.024 0 .082 0l1.41 2.094c-.465.292-.894.61-1.362.847-.861.437-1.787.669-2.75.75-.11.009-.216.05-.324.077h-1.071zM21.57 28.089c1.044 0 2.035.002 3.026-.002.19 0 .386.001.571-.036.7-.142 1.227-.504 1.41-1.24.293-1.175-.449-2.19-1.652-2.25-.56-.027-1.121-.007-1.682-.008h-1.649c-.01.122-.023.196-.023.27-.002 1.067-.001 2.133-.001 3.266zm.024 6.953c.047.016.093.046.139.046 1.12.002 2.242.042 3.359-.012 1.156-.055 1.844-.772 1.874-1.83.031-1.062-.604-1.828-1.736-1.965-.716-.087-1.447-.047-2.171-.057-.48-.007-.96-.001-1.465-.001v3.819zm-3.593-13.626c2.703.003 5.406-.038 8.108.025 2.082.048 3.713 1.476 4.065 3.426.397 2.207-.738 4.092-2.488 4.598-.045.013-.08.054-.14.096 1.668.482 2.664 1.597 2.944 3.267.463 2.756-1.043 5.02-3.888 5.34-.63.072-1.271.07-1.908.073-2.23.012-4.462.012-6.693.016V21.416z" fill="#8A8C98"/></svg>