<svg width="132" height="60" viewBox="0 0 132 60" xmlns="http://www.w3.org/2000/svg"><g fill="none"><path d="M35.3 30c.1 9.2-7.6 16.8-16.8 16.8-9.2 0-16.8-7.5-16.8-16.9 0-9.2 7.6-16.8 16.9-16.7 9.3.1 16.8 7.6 16.7 16.8zm-6.9-6.9H8.8V37H25V26.6h3.4v-3.5z" fill="#28A9E1"/><path d="M28.4 23.1v3.4H25v10.4H8.8V23c6.5.1 13 .1 19.6.1zm-7.1 13.8s.1-.1 0 0c.1-3.5.1-6.9.1-10.3h-9.2v6.9h5.4c.2 0 .4.1.6.2 1 1.1 2.1 2.1 3.1 3.2z" fill="#FDFDFE"/><path d="M21.3 36.9c-1-1.1-2.1-2.1-3.1-3.2-.2-.2-.3-.2-.6-.2h-5.4v-6.9h9.2c0 3.4 0 6.8-.1 10.3.1-.1 0 0 0 0zm31.1-3.3h.2c.1 0 .2.1.2.2l1.4 1.5c-.6.8-1.4 1.4-2.3 1.8-.9.4-2 .6-3.3.6-1.1 0-2.2-.2-3.1-.6-.9-.4-1.7-.9-2.3-1.6-.6-.7-1.1-1.5-1.5-2.5-.3-.9-.5-2-.5-3.1s.2-2.2.6-3.1c.4-.9.9-1.8 1.6-2.4.7-.7 1.5-1.2 2.5-1.6 1-.4 2-.6 3.2-.6.6 0 1.1.1 1.6.2s1 .2 1.4.4l1.2.6c.4.2.7.5 1 .8l-1.2 1.6-.3.3c-.1.1-.2.1-.4.1-.1 0-.2 0-.4-.1.2-.1 0-.1-.1-.2s-.3-.2-.4-.3c-.1-.1-.3-.2-.5-.3-.2-.1-.4-.1-.7-.2-.3-.1-.6-.1-1-.1-.6 0-1.2.1-1.7.3-.5.2-1 .5-1.4 1-.4.4-.7.9-.9 1.5-.2.6-.3 1.3-.3 2 0 .8.1 1.5.3 2.1.2.6.5 1.1.9 1.5.4.4.8.7 1.3.9.5.2 1 .3 1.6.3h.9c.3 0 .5-.1.7-.2l.6-.3c.2-.1.4-.3.6-.5.1-.1.2-.1.3-.2 0 .2.1.2.2.2zm10.5 3.9c-.3 0-.5 0-.7-.1-.2-.1-.3-.3-.4-.5l-.2-.6c-.3.2-.5.4-.8.6-.2.2-.5.3-.8.4l-.9.3c-.3.1-.6.1-1 .1-.5 0-.9-.1-1.3-.2s-.7-.3-1-.6c-.3-.2-.5-.6-.6-.9-.2-.4-.2-.8-.2-1.3 0-.4.1-.8.3-1.2.2-.4.5-.8 1-1.1.5-.3 1.1-.6 1.9-.8.8-.2 1.8-.3 3.1-.3v-.5c0-.6-.1-1.1-.4-1.4-.3-.3-.6-.4-1.1-.4-.4 0-.7 0-.9.1-.2.1-.5.2-.6.3l-.6.3c-.2.1-.4.1-.6.1-.2 0-.4-.1-.6-.2-.2-.1-.3-.2-.4-.4l-.6-1c.7-.6 1.4-1 2.2-1.3.8-.3 1.6-.4 2.6-.4.7 0 1.2.1 1.8.3.5.2 1 .5 1.3.9.4.4.6.8.8 1.3.2.5.3 1.1.3 1.7v6.7l-1.6.1zm-3.7-2c.4 0 .8-.1 1.1-.2.3-.1.6-.4.9-.7v-1.5c-.6 0-1.2 0-1.6.1-.4.1-.7.2-1 .3-.2.1-.4.3-.5.4-.1.3-.1.4-.1.6 0 .4.1.6.3.8.2.2.5.2.9.2zm6.9 2V26.7h2c.2 0 .4 0 .5.1.1.1.2.2.3.4l.2.6c.2-.2.4-.4.6-.5.2-.2.5-.3.7-.4.3-.1.5-.2.8-.3.3-.1.6-.1 1-.1.6 0 1.1.1 1.6.3.5.2.8.5 1.1.9.3.4.5.8.7 1.3.2.5.2 1 .2 1.6v6.8h-3.2v-6.8c0-.5-.1-.9-.4-1.2-.2-.3-.5-.4-1-.4-.4 0-.7.1-1 .2l-.9.6v7.7h-3.2zm18.8 0c-.3 0-.5 0-.7-.1-.2-.1-.3-.3-.4-.5l-.2-.6c-.3.2-.5.4-.8.6-.2.2-.5.3-.8.4l-.9.3c-.3.1-.6.1-1 .1-.5 0-.9-.1-1.3-.2s-.7-.3-1-.6c-.3-.2-.5-.6-.6-.9-.2-.4-.2-.8-.2-1.3 0-.4.1-.8.3-1.2.2-.4.5-.8 1-1.1.5-.3 1.1-.6 1.9-.8.8-.2 1.8-.3 3.1-.3v-.5c0-.6-.1-1.1-.4-1.4-.3-.3-.6-.4-1.1-.4-.4 0-.7 0-.9.1-.2.1-.5.2-.6.3l-.6.3c-.2.1-.4.1-.6.1-.2 0-.4-.1-.6-.2-.2-.1-.3-.2-.4-.4l-.6-1c.7-.6 1.4-1 2.2-1.3.8-.3 1.6-.4 2.6-.4.7 0 1.2.1 1.8.3.5.2 1 .5 1.3.9.4.4.6.8.8 1.3.2.5.3 1.1.3 1.7v6.7l-1.6.1zm-3.7-2c.4 0 .8-.1 1.1-.2.3-.1.6-.4.9-.7v-1.5c-.6 0-1.2 0-1.6.1-.4.1-.7.2-1 .3-.2.1-.4.3-.5.4-.1.2-.1.3-.1.5 0 .4.1.6.3.8.2.3.5.3.9.3zm10.2-13.6v15.6h-3.2V21.9zM97 37.7c-.5 0-1-.1-1.4-.2-.4-.1-.7-.4-1-.6-.3-.3-.5-.6-.6-1-.1-.4-.2-.8-.2-1.3V29H93c-.2 0-.3-.1-.4-.2-.1-.1-.2-.3-.2-.5V27l1.7-.3.6-2.6c.1-.3.3-.5.7-.5h1.7v3.1h2.6v2.2h-2.6v5.4c0 .2.1.5.2.6.1.2.3.2.5.2h.3c.1 0 .1-.1.2-.1s.1-.1.2-.1h.2c.1 0 .2 0 .2.1.1 0 .1.1.2.2l1 1.5c-.4.3-.9.5-1.4.7-.6.2-1.1.3-1.7.3zm8.3-11.1c.7 0 1.4.1 2 .3.6.2 1.1.5 1.5 1 .4.4.8.9 1 1.6.2.6.4 1.3.4 2.1v.6c0 .2-.1.3-.1.4-.1.1-.1.2-.2.2s-.2.1-.4.1h-6.2c.1.9.4 1.6.8 2 .4.4 1 .6 1.7.6.4 0 .7 0 1-.1.3-.1.5-.2.7-.3l.6-.3c.2-.1.4-.1.6-.1.3 0 .5.1.6.3l.9 1.2c-.3.4-.7.7-1.1.9l-1.2.6-1.2.3c-.4.1-.8.1-1.2.1-.8 0-1.5-.1-2.1-.4-.7-.2-1.2-.6-1.7-1.1-.5-.5-.9-1.1-1.2-1.8-.3-.7-.4-1.6-.4-2.5 0-.7.1-1.4.4-2 .2-.6.6-1.2 1.1-1.7.5-.5 1-.9 1.7-1.2.5-.7 1.2-.8 2-.8zm.1 2.2c-.6 0-1.1.2-1.4.5-.3.4-.6.9-.7 1.5h4c0-.3 0-.5-.1-.7-.1-.2-.2-.5-.3-.6-.1-.2-.3-.3-.6-.5s-.5-.2-.9-.2zm13.9.5l-.3.3c-.1.1-.2.1-.4.1s-.3 0-.4-.1c-.1-.1-.3-.2-.4-.3-.2-.1-.3-.2-.6-.3-.2-.1-.5-.1-.8-.1-.4 0-.7.1-1 .2-.3.1-.5.4-.7.6-.2.3-.3.6-.4 1-.1.4-.1.8-.1 1.3 0 1 .2 1.8.6 2.4.4.6.9.8 1.6.8.4 0 .7 0 .9-.1l.6-.3c.2-.1.3-.2.4-.3.1-.1.3-.1.5-.1.3 0 .5.1.6.3l.9 1.2c-.3.4-.7.7-1 .9-.4.2-.7.4-1.1.6l-1.2.3c-.4.1-.8.1-1.1.1-.7 0-1.3-.1-1.9-.4-.6-.2-1.1-.6-1.6-1.1-.5-.5-.8-1.1-1.1-1.8-.3-.7-.4-1.5-.4-2.4 0-.8.1-1.5.3-2.2.2-.7.6-1.3 1-1.8s1-.9 1.7-1.2c.7-.3 1.4-.4 2.3-.4.8 0 1.6.1 2.2.4.6.3 1.2.7 1.7 1.2l-.8 1.2zm1.7 8.2V21.9h3.2v5.7c.4-.3.8-.6 1.3-.8.5-.2 1-.3 1.6-.3.6 0 1.1.1 1.6.3.5.2.8.5 1.1.9.3.4.5.8.7 1.3.2.5.2 1 .2 1.6v6.8h-3.2v-6.8c0-.5-.1-.9-.4-1.2-.2-.3-.6-.4-1.1-.4-.4 0-.7.1-1 .2l-.9.6v7.7H121z" fill="#232424"/></g></svg>