<svg width="132" height="60" viewBox="0 0 132 60" xmlns="http://www.w3.org/2000/svg"><path d="M104 23v4.1s0 .8-.8.8H92.5c-.8 0-.8-.8-.8-.8V23c0-.1.1-.8.8-.8h10.7c.7 0 .8.8.8.8zm8-7.6v21.1h-12v8.2H20V15.4h92zm-67.3 19c0-.1 0-.8-.8-.8h-2.7c-.6 0-.8.5-.8.9v.8c0 1.2-1.1 1.4-1.4 1.4h-5.8c-1.1-.1-1.3-1.1-1.3-1.4v-4.2l-3.8-3.8v-3.7c.1-1.3 1.3-1.4 1.4-1.4h9.4c1.5.1 1.5 1.5 1.5 1.5v1.2s0 .8.8.8h2.7s.8 0 .8-.8v-5c0-1.1-.9-1.7-1.7-1.7H25.4c-.2 0-1.5.1-1.6 1.7V39c0 1.5 1.5 1.7 1.7 1.7h17.7c.6 0 1.6-.2 1.7-1.7-.2-1.4-.2-4.5-.2-4.6zm25.8-15.2c0-.1-.1-.8-.8-.8H67c-.8 0-.8.8-.8.8v7.5c0 1.3-1.2 1.4-1.4 1.4h-9.6c-.1 0-1.4-.1-1.4-1.4v-7.5c0-.1-.1-.8-.9-.8h-2.7c-.7 0-.8.7-.8.8v19.9c0 .4.3 1.6 1.7 1.7H56c.5 0 1.6-.3 1.7-1.7v-5.7c0-.2.1-1.4 1.4-1.4h5.7c1.2 0 1.4 1.2 1.4 1.3v6.6c.1.7.6.8.9.8h2.7c.8 0 .8-.7.8-.7v-.1c-.1 0-.1-20.7-.1-20.7zm12.8 12l-3.8-3.8v-8.2c0-.1-.1-.8-.8-.8h-2.8c-.8 0-.9.7-.9.8v19.9c0 .4.3 1.7 1.7 1.7h5c.2 0 1.7-.1 1.7-1.7-.1-1.6-.1-7.9-.1-7.9zm25-11.2c0-.6-.5-1.7-1.7-1.7H88.8c-1.6 0-1.7 1.5-1.7 1.7v19.1c0 .3.2 1.7 1.7 1.7h5c.5 0 1.6-.2 1.7-1.7v-5.7c0-.2.1-1.3 1.4-1.4h9.6c1.5-.1 1.7-1.3 1.7-1.7.1-.4.1-10.3.1-10.3z" fill="#EA453F"/></svg>