<svg width="24" height="24" viewBox="0 0 24 24" xmlns="http://www.w3.org/2000/svg"><path d="M12 16a4 4 0 1 1 0-8 4 4 0 0 1 0 8zm-5.61-6L3 4.077C5.154 1.584 8.316 0 11.844 0 16.181 0 19.965 2.388 22 5.922H11.967c-2.6 0-4.806 1.713-5.577 4.078zM13 18.032L9.664 24C4.182 23.007 0 18.068 0 12.126 0 9.889.604 7.798 1.635 6l5.11 9.143.007-.003c1.011 1.802 2.894 3.02 5.052 3.02.41 0 .81-.045 1.196-.128zM16.504 8h6.788c.45 1.254.708 2.597.708 4.002C24 18.578 18.628 23.93 12 24l5.248-8.997-.006-.003a5.911 5.911 0 0 0 .82-2.998A5.938 5.938 0 0 0 16.503 8z" fill="#151922"/></svg>