<svg width="132" height="60" viewBox="0 0 132 60" xmlns="http://www.w3.org/2000/svg"><path d="M85.886 38.14v-1.78s-.964-.012-1.478-.008c-.652.008-1.215-.302-1.263-1.22l.007-9.61-.007-.017h2.315v-1.742h-2.322l.013-.028v-3.727H80.73V34.94c.075 1.293.482 2.454 1.557 2.937l-.005-.002c-.024-.01-.022-.01 0 0l.017.008-.012-.006c.12.05.7.275 1.292.27.396-.01 2.308-.008 2.308-.008zm-7.11-3.16v-1.716h-2.407v1.833c0 1.778-3.097 1.806-3.13 0V31.28l5.09.003c.24 0 .439-.197.439-.441v-3.925c.149-4.754-7.992-4.747-7.928-.118v8.182c-.064 4.63 8.085 4.746 7.936 0zm-8.692 1.38h-1.525v-9.686c-.078-1.298-.487-2.461-1.571-2.94.195.085-1.15-.674-2.526.088-1.085.6-1.499 1.215-1.499 1.215l-.009-1.302H59.56v1.77l1.324.008V36.36l-1.116-.004v1.781h3.519V26.564c.11-1.64 2.872-1.665 2.872-.002l.003 11.575h3.922V36.36zm-13.517 8.573h1.741V16.545h-1.741v28.388zm-1.606-9.952v-1.717h-2.408v1.833c0 1.778-3.096 1.806-3.128 0V26.8l-.004.087c.03-1.809 3.132-1.86 3.132-.087l.028 1.538h2.37v-1.42c.154-4.754-7.993-4.747-7.93-.118v8.182c-.063 4.629 8.086 4.746 7.94 0zM91 30.004c0 13.808-11.192 25-25 25-13.81 0-25-11.192-25-25C41 16.194 52.19 5 66 5c13.808 0 25 11.193 25 25.004zm-14.638-.53l-3.123.003v-2.69c.042-1.777 3.13-1.762 3.13.012l-.007 2.676z" fill="#C62227"/></svg>