<svg width="132" height="60" viewBox="0 0 132 60" xmlns="http://www.w3.org/2000/svg"><g fill="#CA2027"><path d="M40.5 16.8c-2.8.6-4.8 1.7-6.6 3.5-1.8 1.8-2.9 4-3.5 6.8-.2.8-.2 1.2-.2 2.8 0 1.6 0 2 .2 2.8 1 4.6 4 8.1 8.1 9.5 2.5.9 3.1.9 11 .9h6.6l.3-.2c.2-.1.4-.4.5-.5.2-.3.2-.4.2-13V16.7l.3-.5c.4-.7.9-1 1.7-1.1.8 0 1.3.1 1.8.7.2.2 1.2 1.8 2.3 3.4 1.7 3 10.8 17.5 13.5 21.8.6.9 1.1 1.8 1.3 1.9.4.5 1 .4 1.3-.1.2-.3.2-.6.2-13 0-12.1 0-12.7.1-13.1.4-.9 1.1-1.4 2-1.4.7 0 1.2.2 1.6.7.2.2.8 1.2 1.5 2.3 1.5 2.5 8 12.8 12.3 19.6 3.2 5.1 3.4 5.4 3.9 5.4.3 0 .7-.3.8-.7.3-10.8-.2-21.7 0-32.5h-5v18.4l-.3-.5c-2.7-4.6-7.9-13.4-8.3-13.9-.6-.8-1.6-1.9-2.3-2.5-.7-.5-1.8-1.1-2.6-1.3-3.8-1-7.6 1.2-8.6 5.2-.2.7-.2.9-.2 6.9v6.1l-8.6-14.6c-1.1-1.5-2.8-2.8-4.3-3.4-3.4-1.2-7.1.3-8.6 3.5-.9 1.7-.9.9-.9 13v10.7l-.2.3c-.5.5-.6.5-4.2.5-1.8 0-3.8 0-4.3-.1-2.8-.3-5.1-1.4-6.6-3.3-.6-.7-1.2-2-1.4-2.9-1.1-4.2 1.3-8.7 5.3-10.1 1.3-.5 1.5-.5 5.9-.5l4.1-.1v-4.9l-4.6.1c-4.3-.1-4.6-.1-5.5.1z"/><path d="M108 10h-5l.1 16.2c.1 18.3.1 16.8-.7 17.6-.5.5-1 .7-1.7.6-.5-.1-1.1-.4-1.4-.7C93.5 35.4 88.6 26.4 83 18c-.4-.6-.8-1.1-.9-1.2-.3-.2-.8-.2-1 0-.5.4-.4-.3-.4 13.5v12.8l-.3.4c-.7 1.2-2.3 1.5-3.3.5-.2-.2-1-1.4-1.8-2.6-.8-1.3-3.6-5.7-6.1-9.8-2.6-4.1-5.7-9-6.8-10.9-1.2-1.9-2.2-3.5-2.4-3.7-.5-.4-1.2-.3-1.5.3-.1.1-.1 3.6-.1 12.5 0 13.5.1 13-.5 13.8-.3.4-.9.9-1.4 1-.5.1-13.4.2-14.5 0-2.9-.3-5.5-1.3-7.5-2.8-2.8-2.1-4.6-5-5.3-8.6-.2-1.2-.4-3.7-.2-5 .3-2.3 1.1-4.6 2.2-6.4 1.7-2.7 4.3-4.7 7.2-5.7 2.1-.7 3-.8 8.1-.8h4.2v-5h-3.9c-4.7 0-6.1.1-8.4.7-1.5.4-2.5.8-4 1.5-2.2 1.1-3.5 2-5.2 3.8-2.7 2.9-4.5 6.5-5.1 10.7-.2 1.5-.2 4.3 0 5.8.2 1.4.7 3.2 1.1 4.4 2.4 6.3 7.6 10.6 14.4 12 2.4.5 2.7.5 10.4.5 7.2 0 7.2 0 8.1-.2.5-.1 1.2-.4 1.7-.6.7-.3 1-.6 1.6-1.1.8-.8 1.2-1.5 1.5-2.4.5-1.4.5-1.4.5-7.5v-5.7l9 14.7c1.7 2.2 4.4 3.5 7 3.3 1.8-.1 3.1-.7 4.3-1.9.9-.9 1.4-1.8 1.8-3.1.2-.7.2-.9.2-6.9v-6.1l4.1 6.7c2.2 3.7 4.3 7 4.6 7.5.9 1.3 2.3 2.5 3.7 3.1 1.1.5 1.9.7 3.2.7 1.4 0 2-.1 3.2-.7 1.1-.5 2.2-1.7 2.7-2.8.4-.8.6-1.6.8-2.5.2-11.6-.1-22.9 0-34.2z"/></g></svg>