<svg width="132" height="60" viewBox="0 0 132 60" xmlns="http://www.w3.org/2000/svg"><path d="M120.2 23.3h-.4v13.4h.3c.9 0 1.3-.2 1.3-6.5 0-6.6-.3-6.9-1.2-6.9zm-.5 16.2h-3.1V20.4h3c4.6 0 5.5 1.6 5.5 9.7-.1 8.2-1.3 9.4-5.4 9.4zm-10.4 0V20.4h3.3v16h3l.5 3h-6.8v.1zm-5.4-16.1h-.4v4.1h.3c.9 0 1.4-.6 1.4-2 .1-1.6-.5-2.1-1.3-2.1zm1.4 16.1l-1.2-9h-.5v9h-3.2V20.4h3.7c4.2 0 4.6 3 4.6 5.1 0 2-.2 3.6-1.6 4.4l1.8 9.6h-3.6zm-10-16.2c-.7 0-.9.4-.9 6.7 0 6.2.1 6.7.9 6.7s.9-.5.9-6.7c0-6.4-.2-6.7-.9-6.7zm0 16.4c-2.9 0-4.1-1.9-4.1-9.7 0-8.4 1.4-9.7 4.2-9.7 2.8 0 4.2 1.2 4.2 9.7-.1 8.4-1.5 9.7-4.3 9.7zm-6.6-.2h-3.1l-.9-8c-.1-1.2-.2-1.9-.3-2.7 0 .8-.1 1.4-.3 2.7l-1 7.9h-3l-3-19.1h3l1.5 9.1c.1.4.1 1 .1 2.4.1-1.2.2-1.8.2-2.4l1.1-9.1h2.5l1.2 9.2c.1.4.2 1.1.2 2.3.1-1.2.1-1.9.2-2.4l1.1-9.1h3.1l-2.6 19.2zM72.5 23.4h-.4v4.1h.3c.9 0 1.4-.6 1.4-2 .1-1.6-.4-2.1-1.3-2.1zm1.4 16.1l-1.2-9h-.5v9H69V20.4h3.7c4.2 0 4.6 3 4.6 5.1 0 2-.2 3.6-1.6 4.4l1.8 9.6h-3.6zm-12.6 0V20.4h7.2l-.6 3h-3.3v4.3h2.9v3h-2.9v5.9H68l.6 2.9h-7.3zm-2.8-16v16h-3.3v-16h-2.8v-3H61v3h-2.5zM48 39.7c-2.9 0-4.2-1.8-4.2-6.4V20.4h3.3v13c0 2.5 0 3.2.9 3.2.8 0 .9-.8.9-3.2v-13h3.3v12.8c-.1 4.3-1.2 6.5-4.2 6.5zm-9.3-16.2h-.4v5.7h.3c.9 0 1.3-.6 1.3-2.7s-.3-3-1.2-3zm.3 8.6h-.7v7.4H35V20.4h3.8c2.3 0 4.4 1 4.4 5.9 0 5-2 5.8-4.2 5.8zm-8.1 7.4V28.4l-.3 2.9-1 8.3h-2.1l-1.1-8.4-.4-2.8v11.2h-3.1V20.4h3.4l1.3 6.1.9 6.1.8-6.1 1.1-6H34v19.1l-3.1-.1zm-13-16.2c-.7 0-.9.4-.9 6.7 0 6.2.1 6.7.9 6.7s.9-.5.9-6.7c0-6.4-.2-6.7-.9-6.7zm0 16.4c-2.9 0-4.1-1.9-4.1-9.7 0-8.4 1.4-9.7 4.2-9.7 2.8 0 4.2 1.2 4.2 9.7-.1 8.4-1.6 9.7-4.3 9.7zM10 27c-.1-3.3-.1-3.7-.8-3.7-.8 0-.9.5-.9 6.7 0 5.9-.1 6.7.9 6.7.7 0 .9-.4.9-4.3l3.2.7c-.1 5.2-1.5 6.6-4.1 6.6C5.8 39.7 5 36.9 5 30c0-8.4 1.5-9.7 4.2-9.7 3.1 0 3.8 1.9 4 6L10 27z" fill="#231F20"/></svg>