<svg width="98" height="96" viewBox="0 0 98 96" xmlns="http://www.w3.org/2000/svg"><g fill="none"><path d="M11 79h18v4H11v-4zM7 6v5H3V2h9v4H7zm65 0h-5V2h9v9h-4V6zM7 48h5v4H3v-9h4v5zm65 0v-5h4v9h-9v-4h5z" fill="#D0D1D2"/><path d="M4 74.35V88h52.457v4H0V74.35c0-4.367 2.615-8.304 6.68-10.056C15.565 60.464 27.33 58 42.115 58c5.006 0 9.714.282 14.127.817l1.985.241-.481 3.97-1.986-.24c-4.253-.516-8.8-.788-13.646-.788-14.235 0-25.463 2.35-33.85 5.967C5.658 69.09 4 71.587 4 74.35zM37 68a2 2 0 1 1 4 0 2 2 0 0 1-4 0zm0 7a2 2 0 1 1 4 0 2 2 0 0 1-4 0zm0 7a2 2 0 1 1 4 0 2 2 0 0 1-4 0zm2.5-29C24.864 53 13 41.136 13 26.5S24.864 0 39.5 0 66 11.864 66 26.5 54.136 53 39.5 53zm0-4C51.926 49 62 38.926 62 26.5S51.926 4 39.5 4 17 14.074 17 26.5 27.074 49 39.5 49z" fill="#151922"/><path d="M92.037 60l-6.548 6.548c-2.126-1.02-4.507-1.616-6.973-1.616-10.545 0-19.048 11.905-19.388 12.33-.17.17-.17.51 0 .766.17.255 2.976 4.167 7.228 7.483l-6.463 6.463 2.126 2.126 32.059-32.06L92.037 60zm-20.92 17.688a7.404 7.404 0 0 1 7.4-7.398c.934 0 1.87.17 2.72.51l-9.609 9.524a6.93 6.93 0 0 1-.51-2.636zm26.788.34c-.34.51-8.93 12.33-19.389 12.33-2.381 0-4.592-.595-6.633-1.53l4.252-4.252c.765.255 1.53.425 2.381.425a7.404 7.404 0 0 0 7.398-7.398c0-.85-.17-1.616-.425-2.381l5.358-5.358c4.166 3.317 6.888 7.058 7.058 7.314.17.34.17.595 0 .85z" fill="#F64F64"/></g></svg>