<svg width="104" height="96" viewBox="0 0 104 96" xmlns="http://www.w3.org/2000/svg"><title>global/illustrations/features/customer-support</title><g fill="none" fill-rule="evenodd"><path d="M85.315 88A17.925 17.925 0 0 1 74 92h-6.801a47.927 47.927 0 0 0 7.327-4h10.789zM28.8 4H22C12.059 4 4 12.059 4 22v6.801a47.927 47.927 0 0 1 4.01-7.343c.278-7.301 6.147-13.17 13.448-13.448A47.927 47.927 0 0 1 28.801 4zm38.398 0H74c9.941 0 18 8.059 18 18v6.801a47.927 47.927 0 0 0-4.01-7.343c-.278-7.301-6.147-13.17-13.448-13.448A47.927 47.927 0 0 0 67.199 4zM28.801 92H22c-9.941 0-18-8.059-18-18v-6.801a47.927 47.927 0 0 0 4.01 7.343c.278 7.301 6.147 13.17 13.448 13.448A47.927 47.927 0 0 0 28.801 92zm28.448-66.158a23.91 23.91 0 0 0-3.811-1.22l6.191-19.051c1.294.356 2.564.764 3.807 1.23l-6.187 19.04zM24.435 43.445l-19.1-6.206a43.88 43.88 0 0 1 1.162-3.829l19.015 6.18a23.862 23.862 0 0 0-1.076 3.855zm47.063-.357a23.743 23.743 0 0 0-1.143-3.836l19.032-6.185a44.15 44.15 0 0 1 1.189 3.82l-19.078 6.2zM36.022 5.67l6.187 19.034c-1.31.323-2.577.753-3.79 1.28l-6.192-19.05a43.4 43.4 0 0 1 3.796-1.264zm21.516 79.152A18.923 18.923 0 0 0 62.5 87.15l.69 2.12a43.437 43.437 0 0 1-3.81 1.22l-1.842-5.667zM38.653 70.12c1.22.514 2.493.924 3.806 1.233L36.27 90.4a43.402 43.402 0 0 1-3.803-1.239l6.187-19.04zM24.77 54.065a23.761 23.761 0 0 0 1.332 3.773L7.038 64.034a43.594 43.594 0 0 1-1.29-3.787l19.023-6.182z" fill="#D0D1D2"/><path d="M68 88h6.513C66.913 93.051 57.8 96 48 96 21.51 96 0 74.49 0 48S21.51 0 48 0s48 21.51 48 48c0 1.114-.052 2.216-.127 3.312a18.811 18.811 0 0 0-3.93-1.059A45.47 45.47 0 0 0 92 48C92 23.738 72.262 4 48 4S4 23.738 4 48s19.738 44 44 44a43.729 43.729 0 0 0 18.468-4.078c.507.041 1.015.078 1.532.078zM48 24c13.28 0 24 10.72 24 24 0 .674-.035 1.34-.089 2H68c-.034 0-.067.005-.102.005A19.82 19.82 0 0 0 68 48c0-11.028-8.972-20-20-20s-20 8.972-20 20 8.972 20 20 20c.355 0 .702-.035 1.054-.054-.02.351-.054.699-.054 1.054 0 1.012.103 1.998.257 2.968-.417.02-.835.032-1.257.032-13.28 0-24-10.72-24-24s10.72-24 24-24z" fill="#151922"/><path d="M89 84H68c-8.2 0-15-6.7-15-15 0-8.2 6.7-15 15-15h21c8.2 0 15 6.7 15 15s-6.7 15-15 15zm-24-7.488h11.641v-2.888h-7.384c.181-.683 1.17-1.268 1.594-1.521l2.481-1.445c1.755-1.034 3.208-2.458 3.208-4.721 0-2.673-2.078-4.937-5.649-4.937-2.885 0-5.709 1.541-5.77 5.327l3.309.429c-.101-2.049 1.291-2.79 2.4-2.79 1.412 0 2.341.936 2.341 2.029 0 1.269-1.11 1.951-2.3 2.634l-1.998 1.151C65.787 71.556 65 73.741 65 75.595v.917zm24.35 0v-3.043h2.24v-2.83h-2.24v-9.405h-3.894l-7.081 8.8v3.454h7.787v3.024h3.188zm-7.828-5.873l4.64-5.756v5.756h-4.64z" fill="#F64F64"/></g></svg>