<svg width="128" height="96" viewBox="0 0 128 96" xmlns="http://www.w3.org/2000/svg"><title>global/illustrations/features/cyber-sec</title><g fill="none" fill-rule="evenodd"><path d="M118 29a4.978 4.978 0 0 0-3-1h-1V13a1 1 0 0 0-1-1h-3V8h3a5 5 0 0 1 5 5v16zm2 7h3a5 5 0 0 1 5 5v50a5 5 0 0 1-5 5h-7.915a5.002 5.002 0 0 0 4.815-4h3.1a1 1 0 0 0 1-1V41a1 1 0 0 0-1-1h-3v-4zm-24 0h9v4h-9v-4z" fill="#D0D1D2"/><path d="M80 76h-3.586a1 1 0 0 0-.707.293l-3.414 3.414a1 1 0 0 1-.707.293H48.414a1 1 0 0 1-.707-.293l-3.414-3.414a1 1 0 0 0-.707-.293H5a1 1 0 0 0-1 1v6a1 1 0 0 0 1 1h75v-8zm0 12H5a5 5 0 0 1-5-5v-6a5 5 0 0 1 5-5h5.1a5.023 5.023 0 0 1-.1-1V5a5 5 0 0 1 5-5h90a5 5 0 0 1 5 5v23h5a5 5 0 0 1 5 5v58a5 5 0 0 1-5 5H85a5 5 0 0 1-5-5v-3zm26-60V5a1 1 0 0 0-1-1H15a1 1 0 0 0-1 1v66a1 1 0 0 0 1 1h29.586a1 1 0 0 1 .707.293l3.414 3.414a1 1 0 0 0 .707.293h21.172a1 1 0 0 0 .707-.293l3.414-3.414a1 1 0 0 1 .707-.293H80V33a5 5 0 0 1 5-5h21zm-21 4a1 1 0 0 0-1 1v58a1 1 0 0 0 1 1h30a1 1 0 0 0 1-1V33a1 1 0 0 0-1-1H85zM60 12a2 2 0 1 1 0-4 2 2 0 0 1 0 4zm40 76a2 2 0 1 1 0-4 2 2 0 0 1 0 4z" fill="#151922"/><path d="M60.517 24h-.004c.465.004.913.203 1.231.54a16.73 16.73 0 0 0 12.131 5.22c.866 0 1.593.64 1.71 1.5 1.645 12.553-1.856 20.386-5.921 24.9-4.065 4.512-8.72 5.782-8.72 5.782a1.75 1.75 0 0 1-.896 0s-4.647-1.27-8.712-5.783c-4.065-4.516-7.566-12.346-5.92-24.9a1.722 1.722 0 0 1 1.696-1.498c4.62-.026 8.879-1.861 12.152-5.234A1.736 1.736 0 0 1 60.517 24zM59.7 44.1l-3.6-3.6-2.1 2.1 3.5 3.6 2.2 2.1 9.1-9.2-2.1-2.1-7 7.1z" fill="#F64F64" fill-rule="nonzero"/></g></svg>