<svg width="92" height="96" viewBox="0 0 92 96" xmlns="http://www.w3.org/2000/svg"><title>global/illustrations/features/dedicated-ip-address</title><g fill="none" fill-rule="evenodd"><path d="M60.736 15.599a16.541 16.541 0 0 0-1.547 4.904C55.85 14.821 51.612 11.047 47 10.192V27.5h12.592c.37 1.373.91 2.718 1.622 4H47V49h19.473a71.695 71.695 0 0 0-1.467-12.731l4.87 4.808c.326 2.565.528 5.213.596 7.923h15.477c.032.663.051 1.329.051 2s-.019 1.337-.051 2H70.472c-.156 6.248-1.029 12.167-2.484 17.5h13.071a41.081 41.081 0 0 1-2.493 4H66.748c-2.218 6.377-5.311 11.698-8.984 15.455a40.838 40.838 0 0 1-25.528 0c-3.672-3.757-6.766-9.078-8.984-15.455H11.434a41.081 41.081 0 0 1-2.493-4h13.071c-1.455-5.333-2.328-11.252-2.484-17.5H4.051A41.449 41.449 0 0 1 4 51c0-.671.019-1.337.051-2h15.477c.156-6.248 1.029-12.167 2.484-17.5H8.941a41.081 41.081 0 0 1 2.493-4h11.818c2.218-6.377 5.312-11.698 8.984-15.455a40.838 40.838 0 0 1 25.528 0 31.177 31.177 0 0 1 2.972 3.554zM63.817 70.5c1.54-5.28 2.489-11.23 2.656-17.5H47v17.5h16.817zM47 91.808c6.309-1.17 11.918-7.801 15.484-17.308H47v17.308zM43 27.5V10.192c-6.309 1.17-11.918 7.801-15.484 17.308H43zM43 49V31.5H26.183c-1.54 5.28-2.489 11.23-2.656 17.5H43zm0 21.5V53H23.527c.167 6.27 1.116 12.22 2.656 17.5H43zm0 21.308V74.5H27.516C31.082 84.007 36.691 90.638 43 91.808z" fill="#D0D1D2"/><path d="M64.659 10.51A44.82 44.82 0 0 0 45 6C20.147 6 0 26.147 0 51s20.147 45 45 45 45-20.147 45-45c0-4.522-.667-8.889-1.908-13.007l-3.27 3.229A40.953 40.953 0 0 1 86 51c0 22.607-18.393 41-41 41S4 73.607 4 51s18.393-41 41-41a40.762 40.762 0 0 1 16.886 3.64 16.929 16.929 0 0 1 2.773-3.13z" fill="#151922"/><path d="M87.39 13.38c-5.377-5.84-14.628-5.84-19.937 0-5.937 5.096-5.937 14.092 0 19.685l9.969 9.842 9.968-9.842c5.96-5.593 5.96-14.589 0-19.684zm-9.968 14.316c-2.538 0-4.532-1.968-4.532-4.473 0-2.506 1.994-4.474 4.532-4.474 2.537 0 4.53 1.968 4.53 4.474 0 2.505-1.993 4.473-4.53 4.473z" fill="#F64F64" fill-rule="nonzero"/></g></svg>