<svg width="130" height="96" viewBox="0 0 130 96" xmlns="http://www.w3.org/2000/svg"><title>global/illustrations/features/dns-leak-protection</title><g fill="none" fill-rule="evenodd"><path d="M52.21 56l8.519 3.953-.022.047H21v-4h31.21zm23.57 0H107v4H73.93l1.85-4zM65 95.833c-5.523 0-10-4.283-10-9.568 0-3.522 3.333-8.944 10-16.265 6.667 7.32 10 12.743 10 16.265 0 5.285-4.477 9.568-10 9.568zm-6-9.568c0 3.035 2.648 5.568 6 5.568s6-2.533 6-5.568c0-1.787-1.976-5.324-6-10.178-4.024 4.854-6 8.391-6 10.178zM6 63h6v3H6v-3zm112 0h6v3h-6v-3z" fill="#D0D1D2"/><path d="M83.317 20a368.083 368.083 0 0 1-2.174 3.712l-.084.15a8.7 8.7 0 0 0-.073.138H18v40h40.856l-1.82 3.936.138.064H18v4H0V16h18v4h65.317zm32.1-4H130v56h-18v-4H70.228l1.85-4H112V37h.127a9.113 9.113 0 0 0 3.873-.942V68h10V20h-8.281l-2.302-4zM4 20v48h10V20H4zm57.407 48l4.63-9.994-8.69-4.032 7.675-16.628 3.632 1.676-6.002 13.004 8.693 4.034L65.815 68h-4.408z" fill="#151922" fill-rule="nonzero"/><path d="M88.857 33c-2.765-.062-4.763-2.291-4.855-4.764a5.018 5.018 0 0 1 .58-2.483C88.56 19.05 92.3 12.198 96.245 5.47A4.914 4.914 0 0 1 100.492 3c1.827 0 3.41 1.018 4.248 2.47 3.892 6.761 7.785 13.523 11.674 20.283 1.74 3.234-.602 7.165-4.287 7.247h-23.27zM99 11v11h4V11h-4zm0 13v4h4v-4h-4z" fill="#F64F64" fill-rule="nonzero"/></g></svg>