<svg width="102" height="96" viewBox="0 0 102 96" xmlns="http://www.w3.org/2000/svg"><g fill="none"><path d="M87 83h2v5c0 4.4-3.6 8-8 8H33v-4h48c2.2 0 4-1.8 4-4v-5h2zm-2-38v-2c0-2.2-1.8-4-4-4H33V21c0-11 9-20 20-20s20 9 20 20v14h8c4.4 0 8 3.6 8 8v2h-4zM69 35V21c0-8.8-7.2-16-16-16s-16 7.2-16 16v14h32zM9 49h10v4H9v-4zm0 14h10v4H9v-4zm0 14h10v4H9v-4z" fill="#D0D1D2"/><path d="M68 83h4v5c0 4.4-3.6 8-8 8H8c-4.4 0-8-3.6-8-8V43c0-4.4 3.6-8 8-8h8V21c0-11 9-20 20-20s20 9 20 20v14h8c4.4 0 8 3.6 8 8v2h-4v-2c0-2.2-1.8-4-4-4H8c-2.2 0-4 1.8-4 4v45c0 2.2 1.8 4 4 4h56c2.2 0 4-1.8 4-4v-5zM20 21v14h32V21c0-8.8-7.2-16-16-16s-16 7.2-16 16zm25 41c0 4.3-3 7.9-7 8.8V78h-4v-7.2c-4-.9-7-4.5-7-8.8 0-5 4-9 9-9s9 4 9 9zm-9 5c2.8 0 5-2.2 5-5s-2.2-5-5-5-5 2.2-5 5 2.2 5 5 5z" fill="#151922"/><path d="M87 79H69c-8.2 0-15-6.7-15-15 0-8.2 6.7-15 15-15h18c8.2 0 15 6.7 15 15s-6.7 15-15 15zM69.9 65.9l3.4 3.4 2.5-2.5-3.3-3.3 3.3-3.3-2.5-2.5L70 61l-3.5-3.4-2.5 2.5 3.4 3.3-3.3 3.3 2.5 2.5 3.3-3.3zm7.8 2.1v3.1h12.1v-3.5h-6.3l2.6-1.8c2.2-1.7 3.5-3 3.5-5.4 0-2.9-2.3-4.9-5.6-4.9-2.9 0-4.6 1.2-6.2 3.3l2.9 2.4c1.2-1.4 2-2 3-2s1.7.6 1.7 1.6-.6 1.7-2 2.8L77.7 68z" fill="#F64F64"/></g></svg>