<svg width="89" height="96" viewBox="0 0 89 96" xmlns="http://www.w3.org/2000/svg"><title>global/illustrations/features/easiest-vpn-ever</title><g fill="none"><path d="M42 1h4v10h-4V1zM10 43v4H0v-4h10zm79 0v4H79v-4h10zM20 18.14l-2.828 2.829-7.071-7.071 2.828-2.829L20 18.14z" fill="#D0D1D2"/><path d="M34 84h21v4H34v-4zm3 8h15v4H37v-4zm32.3-52.2c1.4-.2 2.7-.6 3.9-1.1.5 2.2.8 4.5.8 6.8 0 11.8-7 22-17 26.7V80H32v-7.8c-10-4.7-17-14.9-17-26.7C15 29.2 28.2 16 44.5 16.1c1.5 0 2.9.1 4.3.3-.4 1.2-.6 2.5-.7 3.9-1.2-.2-2.4-.3-3.6-.3C30.4 20 19 31.4 19 45.5c0 9.8 5.8 18.9 14.7 23.1l2.3 1.1V76h17v-6.3l2.3-1.1C64.2 64.4 70 55.3 70 45.5c0-1.9-.3-3.9-.7-5.7zM51.1 60.7L45 55.6l-6.1 5.1-8.3-8.3 2.8-2.8 5.7 5.7 5.9-4.9 5.9 4.9 5.7-5.7 2.8 2.8-8.3 8.3z" fill="#151922"/><path d="M66.5 36C58.492 36 52 29.508 52 21.5S58.492 7 66.5 7 81 13.492 81 21.5 74.508 36 66.5 36zm-1.8-13.2l-3.6-3.6-2.1 2.1 3.5 3.6 2.2 2.1 9.1-9.2-2.1-2.1-7 7.1z" fill="#F64F64"/></g></svg>