<svg width="132" height="60" viewBox="0 0 132 60" xmlns="http://www.w3.org/2000/svg"><path d="M6.088 21L6 22.525l1.702.22v14.077l-1.525.243-.066 1.569h10.827l-.177-4.442-2.231-.066-.31 2.917h-3.314v-6.718h1.436l.354 1.503h1.48v-4.376l-1.48-.044-.332 1.459h-1.436v-6.342h3.292l.133 2.674 2.121.066L16.74 21H6.09zm11.756 17.59l.066-1.304 1.194-.243V28.16l-1.392-.133v-1.326l3.491-.508.265.751v.508c.84-.883 1.856-1.414 3.16-1.414 1.9 0 3.315 1.15 3.315 3.425v7.558l1.26.243-.067 1.303h-4.154v-8.44c0-1.216-.442-1.901-1.547-1.901-.376 0-.641.066-.928.177a4.286 4.286 0 0 0-.508.574v8.088l1.26.243-.09 1.304h-5.325v-.022zm66.756 0l.045-1.304 1.193-.243V28.16l-1.392-.133v-1.326l3.491-.508.265.751v.508c.84-.883 1.856-1.414 3.16-1.414 1.9 0 3.315 1.15 3.315 3.425v7.558l1.26.243-.067 1.303h-4.132v-8.44c0-1.216-.442-1.901-1.547-1.901-.376 0-.64.066-.928.177a4.286 4.286 0 0 0-.508.574v8.088l1.26.243-.09 1.304H84.6v-.022zm-48.813-.244c-.486.2-1.348.42-2.475.42-1.48 0-2.85-.663-2.85-2.828V28.16l-1.414-.221.066-1.547 1.59-.067.686-2.364 2.033-.088v2.54h2.187l-.154 1.548-2.011.22v7.779c0 .64.354 1.06 1.016 1.06h1.194l.132 1.326zm82.71.244l.045-1.282 1.127-.265V28.16l-1.326-.133v-1.326l3.624-.508.243.862v.287c.95-.707 2.232-1.171 3.779-1.171l.53.464-.376 3.359-1.988-.067-.2-1.79c-.463.067-.905.2-1.28.464v8.464l1.259.265-.089 1.282h-5.347v-.022zm-52.039 0l.067-1.282 1.127-.265V28.16l-1.326-.133v-1.326l3.624-.508.243.862v.287c.95-.707 2.232-1.171 3.779-1.171l.53.464-.42 3.359-1.989-.067-.199-1.79c-.464.067-.906.2-1.281.464v8.464l1.26.265-.09 1.282h-5.325v-.022zm-29.787 0l.066-1.282 1.127-.265V28.16l-1.325-.133v-1.326l3.624-.508.243.862v.287c.95-.707 2.231-1.171 3.756-1.171l.53.464-.375 3.359-1.989-.067-.199-1.79c-.464.067-.906.2-1.281.464v8.464l1.26.265-.09 1.282h-5.347v-.022zm11.447-5.414c0 2.121.928 3.756 2.762 3.756.95 0 1.701-.199 2.585-.619l.508 1.172c-.906.729-2.231 1.281-3.889 1.281-3.226 0-5.082-2.784-5.082-6.364 0-3.05 1.348-6.386 5.038-6.386 3.226 0 4.442 2.983 4.442 6.298l-.31.795-6.054.067zm51.354 0c0 2.121.928 3.756 2.762 3.756.95 0 1.702-.199 2.585-.619l.509 1.172c-.906.729-2.232 1.281-3.89 1.281-3.226 0-5.082-2.784-5.082-6.364 0-3.05 1.348-6.386 5.038-6.386 3.227 0 4.442 2.983 4.442 6.298l-.31.795-6.054.067zm-21.567 0c0 2.121.928 3.756 2.762 3.756.95 0 1.702-.199 2.585-.619l.509 1.172c-.906.729-2.232 1.281-3.89 1.281-3.226 0-5.082-2.784-5.082-6.364 0-3.05 1.348-6.386 5.038-6.386 3.227 0 4.442 2.983 4.442 6.298l-.31.795-6.054.067zm3.668-1.591c-.066-1.48-.376-3.823-1.834-3.823-.354 0-.597.066-1.039.287-.596 1.017-.861 2.85-.84 3.712l3.713-.176zm32.616 7.005l-.31-1.061c-.817.773-1.613 1.237-2.85 1.237-1.9 0-3.602-.95-3.602-3.58V27.85l-1.392-.132v-1.172l4.022-.464.309 1.061v7.69c0 1.348.552 2.055 1.635 2.055.31 0 .707-.044 1.06-.177.2-.199.399-.442.553-.685V27.85l-1.436-.132v-1.172l4.066-.464.31 1.061v9.9l1.259.243-.155 1.304h-3.47zm-48.725-6.475c0-3.734-1.105-6.077-3.867-6.077-1.834 0-2.696 1.06-3.05 1.503v-.42l-.309-1.06-3.602.508v1.281l1.392.177v15.07l-1.193.243-.066 1.26h5.325l.089-1.26-1.26-.243v-4.773c.508.288 1.216.464 1.989.464 4.508 0 4.552-4.574 4.552-6.673zm-4.95 4.884c-.64 0-1.149-.111-1.547-.332v-7.8c.177-.266.376-.509.575-.73a3.13 3.13 0 0 1 1.105-.176c1.657 0 1.944 1.68 1.944 4.684 0 2.895-.442 3.69-.552 4.022-.464.221-.95.332-1.525.332zm42.626-5.414c-.066-1.48-.376-3.823-1.834-3.823-.354 0-.597.066-1.039.287-.596 1.017-.84 2.85-.84 3.712l3.713-.176zm-51.354 0c-.067-1.48-.376-3.823-1.834-3.823-.354 0-.597.066-1.039.287-.597 1.017-.84 2.85-.84 3.712l3.713-.176z" fill="#231F1F"/></svg>