<svg width="96" height="96" viewBox="0 0 96 96" xmlns="http://www.w3.org/2000/svg"><title>global/illustrations/features/extensions</title><g fill="none"><path d="M18 16h14.064a2 2 0 1 0 0-4H16a2 2 0 0 0-2 2v8.021a2 2 0 1 0 4 0V16zm64-2a2 2 0 0 0-2-2H58.95a10.1 10.1 0 0 0 .05-1c0-6.076-4.924-11-11-11-2.671 0-5.2.958-7.181 2.667a10.984 10.984 0 0 0-3.708 6.765 2 2 0 1 0 3.96.566 6.985 6.985 0 0 1 2.36-4.302A6.964 6.964 0 0 1 48 4a7 7 0 0 1 7 7c0 .753-.147 1.518-.436 2.328A2 2 0 0 0 56.448 16H78v21.552a2 2 0 0 0 2.672 1.884c.81-.29 1.575-.436 2.328-.436a7 7 0 0 1 7 7 6.967 6.967 0 0 1-1.867 4.76 6.979 6.979 0 0 1-4.18 2.176 2 2 0 1 0 .539 3.963 10.978 10.978 0 0 0 6.574-3.419A10.966 10.966 0 0 0 94 46c0-6.076-4.924-11-11-11a10.1 10.1 0 0 0-1 .05V14z" fill="#CED7DD"/><path d="M81.214 63.078A10.988 10.988 0 0 0 86 54c0-6.076-4.924-11-11-11a10.1 10.1 0 0 0-1 .05V22a2 2 0 0 0-2-2H50.95a10.1 10.1 0 0 0 .05-1c0-6.076-4.924-11-11-11s-11 4.924-11 11c0 .335.017.668.05 1H8a2 2 0 0 0-2 2v23a2 2 0 0 0 2 2 7 7 0 0 1 7 7 7 7 0 0 1-7 7 2 2 0 0 0-2 2v23a2 2 0 0 0 2 2h23a2 2 0 0 0 2-2 7 7 0 0 1 7-7 7 7 0 0 1 7 7 2 2 0 0 0 2 2h13.174a18.377 18.377 0 0 1-1.007-4H50.82c-.94-5.12-5.426-9-10.819-9-5.393 0-9.878 3.88-10.819 9H10V64.819c5.12-.94 9-5.426 9-10.819 0-5.393-3.88-9.878-9-10.819V24h21.552a2 2 0 0 0 1.884-2.672C33.146 20.518 33 19.753 33 19a7 7 0 0 1 7-7 7 7 0 0 1 7 7c0 .753-.147 1.518-.436 2.328A2 2 0 0 0 48.448 24H70v21.552a2 2 0 0 0 2.672 1.884c.81-.29 1.575-.436 2.328-.436a7 7 0 0 1 7 7 7 7 0 0 1-7 7c-.753 0-1.518-.147-2.328-.436A2 2 0 0 0 70 62.448v3.174A18.414 18.414 0 0 1 79.5 63c.578 0 1.15.026 1.714.078z" fill="#151922"/><path d="M79.5 96C71.492 96 65 89.508 65 81.5S71.492 67 79.5 67 94 73.492 94 81.5 87.508 96 79.5 96zm-1.8-13.2l-3.6-3.6-2.1 2.1 3.5 3.6 2.2 2.1 9.1-9.2-2.1-2.1-7 7.1z" fill="#F64F64"/></g></svg>