<svg width="24" height="24" viewBox="0 0 24 24" xmlns="http://www.w3.org/2000/svg"><title>global/icons/24/firefox</title><path d="M12.092 23.264c-2.527 0-4.78-.672-6.757-2.015-1.978-1.344-3.449-3.123-4.413-5.338-.518-1.17-.817-2.513-.897-4.031-.08-1.518.035-3.002.348-4.453a17.144 17.144 0 0 1 1.487-4.18C2.538 1.914 3.337.83 4.257 0L4.11 3.764c.098-.125.401-.195.91-.208.51-.013.822.056.938.208.375-.724 1.091-1.34 2.15-1.849 1.058-.509 2.105-.772 3.14-.79-.482.402-1.015 1.065-1.6 1.989-.585.924-.846 1.654-.784 2.19.224.071.503.131.837.18.335.05.616.083.844.101.228.018.531.036.91.054.38.017.606.03.677.04.134.044.177.248.128.61-.05.36-.186.698-.409 1.01a2.168 2.168 0 0 1-.221.248c-.103.103-.355.261-.757.476a4.558 4.558 0 0 1-1.352.455l.2 2.531-1.861-.897c-.16.384-.194.748-.1 1.092.093.343.254.64.481.89.228.25.52.436.878.556.357.12.719.15 1.085.087.455-.08.893-.234 1.312-.462.42-.228.793-.429 1.119-.603.325-.174.654-.252.984-.234.545.036.944.183 1.199.442.254.259.341.55.26.87l-.033.074a.987.987 0 0 1-.355.375 1.362 1.362 0 0 1-.421.14 2.04 2.04 0 0 1-.623.014c-.536.848-1.181 1.453-1.936 1.815-.754.362-1.69.493-2.806.395a5.393 5.393 0 0 0 2.177 1.105c.79.192 1.542.219 2.257.08a8.253 8.253 0 0 0 2.069-.696 6.792 6.792 0 0 0 1.714-1.172c.478-.455.837-.92 1.078-1.393a5.446 5.446 0 0 0 .523-2.578 7.838 7.838 0 0 0-.502-2.525c-.3-.777-.65-1.335-1.052-1.674.777.34 1.389.694 1.835 1.065.447.37.79.873 1.031 1.507.134-1.518-.122-3.05-.77-4.594-.647-1.545-1.582-2.813-2.806-3.804 2.366.687 4.206 1.935 5.518 3.743C23.29 6.436 23.963 8.746 24 11.558a10.265 10.265 0 0 1-.543 3.416 11.41 11.41 0 0 1-1.654 3.187 13.815 13.815 0 0 1-2.531 2.626 11.385 11.385 0 0 1-3.315 1.814 11.47 11.47 0 0 1-3.864.663z" fill="#151922"/></svg>