<svg width="132" height="60" viewBox="0 0 132 60" xmlns="http://www.w3.org/2000/svg"><path d="M54.524 40.202c-.053-.034-.07-.168-.058-.45l.017-.403.202-.044c.111-.024.35-.07.53-.105.56-.105.88-.412 1.061-1.011.147-.489.212-2.051.216-5.19.004-3.838-.075-4.744-.46-5.258-.208-.279-.359-.358-.864-.456-.25-.048-.512-.1-.584-.115-.115-.024-.13-.062-.13-.348 0-.277.018-.328.13-.374.173-.072 5.89-1.225 6.072-1.225h.143l-.028.859c-.015.472-.04 1.16-.055 1.529l-.026.67.207-.377c.663-1.207 1.406-1.956 2.395-2.414.543-.25.905-.326 1.575-.326.796 0 1.59.262 1.59.524 0 .176-1.4 3.913-1.478 3.943-.037.015-.31-.09-.608-.234-.618-.3-1.199-.447-1.762-.445-.702.001-1.486.262-1.795.597-.133.143-.133.152-.166 2.292-.033 2.12.037 4.705.155 5.745.1.886.334 1.322.816 1.525.16.068 1.177.208 1.508.209.026 0 .039.203.03.451l-.018.452-4.27.013c-2.349.008-4.304-.007-4.345-.034zm-28.447.011c-.048-.02-.072-.165-.072-.433 0-.483-.03-.461.894-.635.71-.133.963-.268 1.277-.683.607-.804.738-2.352.74-8.725 0-5.985-.113-7.244-.742-8.17-.278-.41-.748-.632-1.535-.727l-.606-.074-.016-.477L26 19.81l.19-.034c.104-.019 3.773-.027 8.152-.017l7.962.016.037.233c.02.128.054 1.443.075 2.921l.038 2.688-.41.126c-.619.19-.615.192-.893-.55-.683-1.824-1.466-2.875-2.537-3.406-.74-.366-1.08-.41-3.168-.41H33.63l-.031.306c-.059.573-.151 4.262-.15 6v1.733l.534-.003c.293-.002.872-.024 1.286-.049.623-.037.807-.07 1.068-.192.64-.3 1.075-.957 1.341-2.028l.138-.553.471-.017.471-.017v7l-.471-.018-.471-.016-.134-.554c-.251-1.04-.735-1.784-1.333-2.05-.276-.124-.959-.194-2.28-.235l-.62-.019v1.315c0 1.433.078 3.371.178 4.423.14 1.467.51 2.277 1.177 2.57.128.056.53.147.895.202.365.056.71.124.765.153.14.074.15.833.01.887-.11.043-10.293.04-10.397-.003zm72.784.35c-1.029-.111-2.665-.473-3.21-.71l-.266-.115-.036-1.33c-.02-.732-.043-1.71-.051-2.175l-.015-.844.16-.077c.087-.043.264-.082.393-.088l.234-.011.2.495c.777 1.932 1.688 2.973 2.88 3.29.454.12 1.306.122 1.642.002.942-.336 1.459-1.056 1.463-2.04.006-1.165-.629-1.724-3.026-2.67-1.484-.585-2.002-.886-2.62-1.523-.664-.688-.984-1.47-1.044-2.56-.072-1.317.336-2.427 1.241-3.373.91-.952 2.093-1.468 3.703-1.616 1.418-.131 3.594.173 4.734.66l.208.089.037 1.186c.02.652.042 1.527.047 1.943l.01.758-.28.104c-.44.166-.47.145-.716-.512-.688-1.842-1.489-2.714-2.736-2.98-.76-.162-1.394.012-1.856.51-.36.388-.5.733-.534 1.313-.037.627.074.966.454 1.386.468.517 1.235.964 2.763 1.608 1.872.79 2.765 1.46 3.25 2.44.316.636.405 1.144.373 2.122-.023.734-.047.885-.212 1.378-.54 1.606-1.757 2.664-3.638 3.16-.637.168-.728.176-1.994.19-.73.009-1.432.004-1.558-.01zm-9.73-9.551l1.004-.036-.036-.72c-.128-2.538-.743-3.925-1.741-3.924-1.085 0-1.952 1.409-2.312 3.755-.045.288-.082.63-.082.76l-.001.235 1.082-.018c.595-.01 1.534-.033 2.086-.052zm-1.812 9.495c-2.863-.522-4.91-2.571-5.58-5.585-.085-.388-.123-.821-.145-1.66-.034-1.328.073-2.152.412-3.176.652-1.966 1.82-3.36 3.517-4.194 1.79-.882 4.239-.94 5.824-.138 1.784.903 2.834 2.705 3.1 5.323.036.352.057.772.047.932l-.02.291-4.27.015-4.27.015.016.51c.038 1.18.29 2.223.754 3.13.211.412.38.637.788 1.054.923.94 1.841 1.304 3.29 1.304 1.05 0 1.805-.211 2.595-.726.22-.145.445-.263.498-.263.12 0 .398.36.398.517 0 .257-.828 1.085-1.636 1.636-.661.45-1.71.859-2.62 1.02-.637.112-2.068.11-2.698-.005zm-14.278-1.13c.42-.08.745-.249 1.094-.566.877-.795 1.536-2.437 1.795-4.472.106-.829.091-2.717-.026-3.408-.316-1.87-.996-3.1-1.988-3.595-.412-.206-.475-.22-.963-.22-.35 0-.65.038-.905.113l-.382.114-.028 2.13c-.036 2.726.052 9.554.125 9.75.047.125.1.152.333.17.55.044.64.042.945-.016zm-2.313 1.159a40.716 40.716 0 0 1-2.933-.493l-.423-.097.033-2.28c.08-5.486.09-8.482.038-11.395-.05-2.854-.065-3.155-.174-3.577-.138-.535-.337-.908-.577-1.08-.093-.068-.346-.163-.563-.212-.718-.162-.68-.136-.698-.467-.011-.19.01-.317.057-.355.065-.052 5.959-1.187 6.146-1.184.054.001.062.762.034 3.38-.02 1.858-.022 3.379-.005 3.379.016 0 .232-.094.478-.21.744-.346 1.43-.497 2.425-.532.662-.023.97-.009 1.31.062 2.222.465 3.868 2.302 4.442 4.961.15.694.206 2.418.107 3.282a10.816 10.816 0 0 1-.58 2.372c-.95 2.428-2.99 4.013-5.696 4.425-.624.094-2.581.106-3.421.02zm-22.69-1.13c.408-.123.912-.6 1.181-1.12.555-1.07.803-2.655.809-5.17.008-3.153-.482-5.159-1.515-6.209-.434-.44-.742-.578-1.297-.577-1.231.002-2.012 1.3-2.321 3.855-.142 1.174-.143 3.972-.002 4.999.438 3.177 1.567 4.694 3.144 4.221zm-2.094 1.13c-1.4-.205-2.623-.803-3.558-1.738-.78-.78-1.285-1.636-1.658-2.811-.581-1.834-.582-4.191 0-5.988.563-1.74 1.832-3.256 3.385-4.043 2.15-1.09 5.176-1.02 7.168.162 1.792 1.065 2.877 2.957 3.18 5.542.092.79.032 2.457-.113 3.145-.595 2.817-2.326 4.784-4.863 5.526-.273.08-.697.173-.942.208-.518.072-2.098.07-2.6-.003z" fill="#8A8C98"/></svg>