<svg width="132" height="60" viewBox="0 0 132 60" xmlns="http://www.w3.org/2000/svg"><path d="M54.524 40.611c-.053-.033-.07-.166-.058-.446l.017-.399.202-.043c.111-.024.35-.07.53-.104.56-.105.88-.408 1.061-1.002.147-.484.212-2.032.216-5.141.004-3.802-.075-4.7-.46-5.21-.208-.275-.359-.354-.864-.45l-.584-.115c-.115-.024-.13-.062-.13-.344 0-.275.018-.325.13-.371.173-.071 5.89-1.214 6.072-1.214h.143l-.028.851c-.015.468-.04 1.15-.055 1.515l-.026.664.207-.374c.663-1.195 1.406-1.938 2.395-2.39.543-.25.905-.324 1.575-.324.796 0 1.59.26 1.59.52 0 .174-1.4 3.876-1.478 3.905-.037.015-.31-.09-.608-.232-.618-.297-1.199-.442-1.762-.44-.702 0-1.486.26-1.795.591-.133.142-.133.15-.166 2.27-.033 2.1.037 4.662.155 5.692.1.877.334 1.31.816 1.51.16.068 1.177.207 1.508.207.026 0 .039.201.03.447l-.018.448-4.27.013c-2.349.008-4.304-.007-4.345-.034zm-28.447.011c-.048-.02-.072-.163-.072-.43 0-.477-.03-.456.894-.628.71-.131.963-.266 1.277-.676.607-.797.738-2.33.74-8.644 0-5.929-.113-7.176-.742-8.093-.278-.406-.748-.627-1.535-.721l-.606-.073-.016-.473-.017-.473.19-.034c.104-.018 3.773-.026 8.152-.017l7.962.016.037.231c.02.127.054 1.43.075 2.894l.038 2.663-.41.125c-.619.187-.615.19-.893-.546-.683-1.807-1.466-2.848-2.537-3.373-.74-.363-1.08-.407-3.168-.407H33.63l-.031.303c-.059.568-.151 4.223-.15 5.944v1.717l.534-.003a29.59 29.59 0 0 0 1.286-.048c.623-.037.807-.07 1.068-.19.64-.297 1.075-.949 1.341-2.01l.138-.548.471-.017.471-.016v6.934l-.471-.017-.471-.017-.134-.548c-.251-1.03-.735-1.767-1.333-2.032-.276-.122-.959-.191-2.28-.231l-.62-.02v1.303c0 1.42.078 3.34.178 4.382.14 1.453.51 2.256 1.177 2.546.128.056.53.146.895.2.365.055.71.123.765.152.14.073.15.825.01.878-.11.042-10.293.04-10.397-.003zm72.784.347c-1.029-.11-2.665-.468-3.21-.703l-.266-.114-.036-1.318c-.02-.725-.043-1.695-.051-2.155l-.015-.836.16-.076c.087-.042.264-.081.393-.087l.234-.011.2.49c.777 1.914 1.688 2.946 2.88 3.26.454.12 1.306.12 1.642.001.942-.332 1.459-1.045 1.463-2.02.006-1.154-.629-1.709-3.026-2.645-1.484-.58-2.002-.878-2.62-1.51-.664-.68-.984-1.456-1.044-2.535-.072-1.305.336-2.405 1.241-3.342.91-.943 2.093-1.454 3.703-1.601 1.418-.13 3.594.171 4.734.654l.208.088.037 1.175c.02.647.042 1.513.047 1.925l.01.75-.28.104c-.44.164-.47.144-.716-.507-.688-1.825-1.489-2.689-2.736-2.952-.76-.161-1.394.012-1.856.505-.36.385-.5.726-.534 1.3-.037.622.074.958.454 1.374.468.512 1.235.954 2.763 1.593 1.872.782 2.765 1.446 3.25 2.416.316.63.405 1.134.373 2.103-.023.727-.047.877-.212 1.365-.54 1.591-1.757 2.64-3.638 3.13-.637.167-.728.175-1.994.19-.73.007-1.432.003-1.558-.01zm-9.73-9.462l1.004-.035-.036-.713c-.128-2.515-.743-3.89-1.741-3.888-1.085 0-1.952 1.396-2.312 3.72a7.023 7.023 0 0 0-.082.752l-.001.234 1.082-.018c.595-.01 1.534-.033 2.086-.052zm-1.812 9.406c-2.863-.516-4.91-2.546-5.58-5.532-.085-.384-.123-.814-.145-1.645-.034-1.316.073-2.132.412-3.146.652-1.948 1.82-3.328 3.517-4.155 1.79-.873 4.239-.93 5.824-.136 1.784.894 2.834 2.68 3.1 5.273.036.349.057.764.047.923l-.02.288-4.27.015-4.27.015.016.505c.038 1.168.29 2.202.754 3.101.211.409.38.631.788 1.044.923.932 1.841 1.292 3.29 1.292 1.05 0 1.805-.21 2.595-.72.22-.143.445-.26.498-.26.12 0 .398.357.398.513 0 .254-.828 1.074-1.636 1.62-.661.446-1.71.85-2.62 1.01-.637.111-2.068.109-2.698-.005zm-14.278-1.119c.42-.08.745-.246 1.094-.56.877-.789 1.536-2.415 1.795-4.43.106-.822.091-2.692-.026-3.377-.316-1.853-.996-3.071-1.988-3.562-.412-.203-.475-.218-.963-.218-.35 0-.65.038-.905.113l-.382.113-.028 2.109c-.036 2.702.052 9.466.125 9.66.047.123.1.15.333.168.55.043.64.042.945-.016zm-2.313 1.148a40.124 40.124 0 0 1-2.933-.488l-.423-.097.033-2.257c.08-5.436.09-8.403.038-11.29-.05-2.826-.065-3.125-.174-3.543-.138-.53-.337-.9-.577-1.07-.093-.067-.346-.16-.563-.21-.718-.16-.68-.135-.698-.463-.011-.189.01-.313.057-.352.065-.051 5.959-1.175 6.146-1.172.054 0 .062.754.034 3.348-.02 1.841-.022 3.347-.005 3.347.016 0 .232-.093.478-.207.744-.344 1.43-.493 2.425-.527.662-.023.97-.009 1.31.061 2.222.46 3.868 2.28 4.442 4.915.15.687.206 2.395.107 3.25-.085.73-.327 1.713-.58 2.35-.95 2.406-2.99 3.976-5.696 4.384-.624.094-2.581.106-3.421.02zm-22.69-1.12c.408-.122.912-.594 1.181-1.108.555-1.062.803-2.63.809-5.123.008-3.123-.482-5.11-1.515-6.15-.434-.437-.742-.573-1.297-.572-1.231.002-2.012 1.287-2.321 3.818-.142 1.164-.143 3.936-.002 4.953.438 3.148 1.567 4.65 3.144 4.182zm-2.094 1.12c-1.4-.203-2.623-.796-3.558-1.721-.78-.773-1.285-1.622-1.658-2.785-.581-1.817-.582-4.152 0-5.932.563-1.725 1.832-3.226 3.385-4.005 2.15-1.08 5.176-1.012 7.168.16 1.792 1.055 2.877 2.93 3.18 5.49.092.783.032 2.434-.113 3.116-.595 2.79-2.326 4.74-4.863 5.474-.273.08-.697.172-.942.206-.518.072-2.098.07-2.6-.003z" fill="#33629A"/></svg>