<svg width="47" height="24" viewBox="0 0 47 24" xmlns="http://www.w3.org/2000/svg"><title>global/logos/horizontal/giropay</title><g fill="none"><path d="M.038 5.586c0-1.977 1.63-3.579 3.64-3.579H43.36c2.01 0 3.64 1.602 3.64 3.579v12.787c0 1.975-1.629 3.578-3.64 3.578H3.678c-2.011 0-3.641-1.603-3.641-3.578V5.586z" fill="#000268"/><path d="M1.524 5.708v12.544c0 1.235 1.014 2.236 2.264 2.236h20.677V3.472H3.788c-1.25 0-2.264 1.001-2.264 2.236zm28.284 6.21c0 .798-.398 1.347-1.057 1.347-.581 0-1.067-.549-1.067-1.28 0-.751.427-1.31 1.067-1.31.68 0 1.057.578 1.057 1.242v.001zm-3.867 4.58h1.743v-2.724h.02c.33.597.99.818 1.6.818 1.502 0 2.307-1.231 2.307-2.713 0-1.212-.766-2.532-2.162-2.532-.794 0-1.53.318-1.88 1.02h-.02v-.903H25.94v7.034h.001zm8.052-3.61c0-.48.464-.662 1.056-.662.262 0 .514.018.737.029 0 .586-.417 1.183-1.076 1.183-.407 0-.717-.202-.717-.55zm3.517 1.589a6.133 6.133 0 0 1-.096-1.184v-1.867c0-1.53-1.114-2.079-2.404-2.079-.746 0-1.395.106-2.015.357l.03 1.174c.482-.27 1.045-.376 1.608-.376.629 0 1.142.184 1.153.867a5.125 5.125 0 0 0-.815-.068c-.93 0-2.606.184-2.606 1.713 0 1.088.89 1.578 1.89 1.578.716 0 1.201-.278 1.599-.904h.02c0 .26.028.519.038.789h1.598zm.785 2.02c.357.078.72.117 1.086.117 1.599 0 1.976-1.222 2.47-2.483l1.853-4.667h-1.746l-1.037 3.271h-.019l-1.086-3.271h-1.879l2.045 5.128c-.127.443-.456.694-.883.694a2.11 2.11 0 0 1-.688-.106l-.116 1.318v-.001z" fill="#FFF"/><path d="M5.785 11.927c0-.683.34-1.251.989-1.251.785 0 1.114.625 1.114 1.183 0 .77-.495 1.29-1.114 1.29-.523 0-.99-.442-.99-1.222h.001zm3.79-2.463h-1.58v.904h-.019c-.37-.616-.97-1.02-1.716-1.02-1.57 0-2.278 1.117-2.278 2.608 0 1.482.863 2.521 2.248 2.521.699 0 1.28-.27 1.697-.857h.02v.27c0 .981-.543 1.453-1.55 1.453-.728 0-1.174-.154-1.707-.414l-.087 1.367a5.9 5.9 0 0 0 1.929.318c2.035 0 3.042-.664 3.042-2.724V9.464h.001zm2.948-2.089h-1.745v1.27h1.745v-1.27zm-1.744 7.102h1.744V9.464h-1.744v5.013zm6.601-5.072a3.798 3.798 0 0 0-.59-.058c-.757 0-1.192.405-1.493 1.04h-.02v-.923h-1.589v5.013h1.744v-2.116c0-.982.457-1.57 1.27-1.57.204 0 .397 0 .591.058l.087-1.444zm3.004 3.975c-.804 0-1.133-.664-1.133-1.405 0-.75.329-1.414 1.133-1.414.805 0 1.135.664 1.135 1.414 0 .741-.33 1.405-1.135 1.405zm0 1.212c1.667 0 2.937-.961 2.937-2.617 0-1.665-1.27-2.628-2.937-2.628-1.667 0-2.936.963-2.936 2.628 0 1.656 1.27 2.617 2.936 2.617z" fill="#FF0007"/></g></svg>