<svg width="168" height="52" viewBox="0 0 168 52" xmlns="http://www.w3.org/2000/svg"><g fill="none" fill-rule="evenodd"><rect fill="#2C3038" width="168" height="52" rx="3"/><g fill-rule="nonzero"><path d="M37.688 29.765l5.559-3.043c.628-.344 1.286-1.221 0-1.923l-5.562-3.034-3.982 4.012 3.985 3.988z" fill="#F49C71"/><path d="M33.703 25.777L20.967 38.61c.288.036.634-.04 1.032-.258l15.69-8.588-3.986-3.987z" fill="#D54A6D"/><path d="M33.703 25.777l3.981-4.012L22 13.207c-.341-.186-.712-.25-1.041-.178l12.745 12.748z" fill="#ADD69E"/><path d="M33.703 25.777L20.958 13.03c-.527.117-.958.573-.958 1.488V37.08c0 .863.34 1.47.967 1.53l12.736-12.833z" fill="#24B9C2"/></g><path d="M69.12 32.264h-6.512v2.352h3.808c-.304 1.232-1.536 2.112-3.232 2.112-2.272 0-3.856-1.824-3.856-4 0-2.272 1.744-3.984 3.856-3.984 1.696 0 2.864 1.056 3.136 2.128l2.528-.768c-.528-2-2.512-3.824-5.632-3.824-3.568 0-6.528 2.816-6.528 6.464 0 3.568 2.624 6.448 6.496 6.448 3.056 0 5.936-2.048 5.936-5.952v-.976zm1.216 2.48c0-2.544 2.096-4.48 4.688-4.48 2.576 0 4.64 1.888 4.64 4.432 0 2.576-2.096 4.496-4.672 4.496-2.592 0-4.656-1.872-4.656-4.448zm2.56-.032c0 1.296.944 2.192 2.112 2.192 1.168 0 2.096-.896 2.096-2.192 0-1.28-.944-2.176-2.112-2.176-1.168 0-2.096.896-2.096 2.176zm8.016.032c0-2.544 2.096-4.48 4.688-4.48 2.576 0 4.64 1.888 4.64 4.432 0 2.576-2.096 4.496-4.672 4.496-2.592 0-4.656-1.872-4.656-4.448zm2.56-.032c0 1.296.944 2.192 2.112 2.192 1.168 0 2.096-.896 2.096-2.192 0-1.28-.944-2.176-2.112-2.176-1.168 0-2.096.896-2.096 2.176zm17.136-4.256v8.416c0 2.944-1.984 4.4-4.608 4.4-2.736 0-4.176-1.504-4.496-3.072l2.288-.704c.224.8.736 1.6 2.192 1.6 1.152 0 2.144-.624 2.144-2.16v-1.072h-.032C97.328 38.856 96.24 39 95.632 39c-2.464 0-4.128-1.92-4.128-4.32 0-2.16 1.568-4.352 4.032-4.352.528 0 1.712.112 2.592 1.168h.032v-1.04h2.448zm-2.416 4.224c0-1.264-.912-2.128-2.08-2.128-1.152 0-2.08.88-2.08 2.128 0 1.28.912 2.144 2.08 2.144 1.152 0 2.08-.864 2.08-2.144zm4.736-8.72V39h2.512V25.96h-2.512zm6.896 7.808h3.68c-.048-.624-.576-1.488-1.824-1.488-1.12 0-1.76.928-1.856 1.488zm6.144 1.648h-6.208c.16 1.072 1.072 1.68 2.112 1.68.72 0 1.52-.432 1.808-1.136l2.048.704c-.56 1.648-2.144 2.528-3.824 2.528-2.592 0-4.688-1.824-4.688-4.48 0-2.464 2.064-4.464 4.528-4.464 2.544 0 4.256 1.744 4.256 4.272 0 .304 0 .608-.032.896zm15.264-4.928c0 2.768-1.952 4.096-4.576 4.096h-1.968V39h-2.592V26.472h4.656c2.512 0 4.48 1.36 4.48 4.016zm-2.608.064c0-1.216-1.024-1.632-2.096-1.632h-1.84v3.248h1.856c1.024 0 2.08-.448 2.08-1.616zm4.24-4.592V39h2.512V25.96h-2.512zm7.168 13.2c-1.488 0-2.832-.96-2.832-2.544v-.064c0-2.048 2.096-2.624 3.76-2.624h.832c.464 0 .672-.24.672-.592 0-.544-.448-1.056-1.344-1.056-.768 0-1.344.448-1.536 1.168l-2.192-.496c.288-1.824 2.048-2.688 3.84-2.688 2.128 0 3.68 1.136 3.68 3.44V39h-2.304v-1.056l-.032-.016c-.64.912-1.616 1.232-2.544 1.232zm.72-1.824c1.104 0 1.696-.784 1.696-1.648v-.192h-1.488c-.512 0-1.248.304-1.248.976 0 .608.512.864 1.04.864zm6.608 5.872h2.672l5.184-12.752h-2.576l-1.904 4.88-2.128-4.88h-2.752l3.6 7.632-2.096 5.12zM62.74 14.81l1.21-.38c-.36-1.24-1.59-2.37-3.48-2.37-2.27 0-3.99 1.7-3.99 4.04 0 2.28 1.62 3.99 3.98 3.99 2.27 0 3.65-1.6 3.65-3.58v-.43h-4.14v1.12h2.81c-.17.96-.95 1.76-2.33 1.76-1.58 0-2.69-1.27-2.69-2.89 0-1.64 1.17-2.87 2.7-2.87 1.38 0 2.11.94 2.28 1.61zm7.8-2.64h-5.01V20h5.05v-1.12h-3.82v-2.31h3.44v-1.11h-3.44v-2.18h3.78v-1.11zm3.3 1.14V20h1.23v-6.69h2.49v-1.14h-6.2v1.14h2.48zM82.27 20v-7.83h-1.23V20h1.23zm3.67-6.69V20h1.23v-6.69h2.49v-1.14h-6.2v1.14h2.48zm6.68 2.79c0-2.28 1.81-4.04 4.03-4.04s4.01 1.72 4.01 4.01c0 2.31-1.83 4.02-4.04 4.02-2.22 0-4-1.68-4-3.99zm1.29-.03c0 1.59 1.19 2.88 2.73 2.88 1.53 0 2.73-1.29 2.73-2.88 0-1.59-1.2-2.87-2.73-2.87-1.54 0-2.73 1.28-2.73 2.87zM108.67 20v-7.83h-1.22v5.77l-3.86-5.77h-1.45V20h1.21v-6.03l4.04 6.03h1.28z" fill="#FFF"/></g></svg>