<svg width="88" height="96" viewBox="0 0 88 96" xmlns="http://www.w3.org/2000/svg"><title>global/illustrations/features/hide-ip-address</title><g fill="none"><path d="M32.96 82.052L34.919 84l1.965-1.956C41.506 82.264 45 83.28 45 84.5c0 1.38-4.477 2.5-10 2.5s-10-1.12-10-2.5c0-1.206 3.416-2.213 7.96-2.448zm6.671-2.743l3.982-3.963c.982.08 1.946.176 2.891.285l-3.858 3.87a91.541 91.541 0 0 0-3.015-.192zm-9.419.007c-5.787.285-11.08 1.08-15.186 2.269C10.452 82.909 8 84.589 8 85.5s2.452 2.59 7.026 3.915C20.243 90.926 27.373 91.8 35 91.8c7.627 0 14.757-.874 19.974-2.385C59.548 88.091 62 86.411 62 85.5c0-.853-2.147-2.378-6.17-3.655l3.438-3.43C64.06 80.184 67 82.59 67 85.5 67 92.018 52.252 96 35 96 17.748 96 3 92.018 3 85.5c0-5.377 10.036-9.028 23.236-10.142l3.976 3.958z" fill="#D0D1D2"/><path d="M67.789 46.931a19.711 19.711 0 0 0-5.2.917c5.456-11.28 3.447-25.279-6.026-34.558-11.874-11.818-31.416-11.818-43.265-.025-11.837 11.782-11.837 31.198 0 42.98l21.62 21.519 11.188-11.136a40.319 40.319 0 0 0 2.104 2.58c.244.276.491.55.743.822L34.918 84 10.18 59.377c-13.573-13.51-13.573-35.735 0-49.245 13.573-13.51 35.903-13.51 49.476 0 10.084 9.878 12.795 24.416 8.133 36.8zM35 49.171c-7.494 0-13.382-5.86-13.382-13.317 0-7.458 5.888-13.317 13.382-13.317s13.382 5.86 13.382 13.317S42.494 49.17 35 49.17zm0-4.42c5.058 0 8.962-3.886 8.962-8.897 0-5.012-3.904-8.897-8.962-8.897s-8.962 3.885-8.962 8.897c0 5.011 3.904 8.897 8.962 8.897z" fill="#151922"/><path d="M82.01 46l2.039 2.035L52.016 80l-2.124-2.12 6.458-6.444c-4.249-3.306-7.053-7.207-7.223-7.46-.17-.255-.17-.594 0-.764.34-.424 8.837-12.294 19.373-12.294 2.464 0 4.843.593 6.967 1.61L82.01 46zM61.108 63.636c0 .933.17 1.78.51 2.628l9.601-9.496a7.373 7.373 0 0 0-2.719-.509c-4.078 0-7.392 3.307-7.392 7.377zm26.765.34c-.34.508-8.922 12.293-19.373 12.293-2.38 0-4.588-.593-6.627-1.526l4.248-4.24c.765.255 1.53.425 2.379.425 4.078 0 7.392-3.307 7.392-7.377 0-.848-.17-1.61-.425-2.374l5.353-5.342c4.164 3.307 6.883 7.038 7.053 7.292.17.34.17.594 0 .848z" fill="#F64F64"/></g></svg>