<svg width="132" height="60" viewBox="0 0 132 60" xmlns="http://www.w3.org/2000/svg"><path d="M72.284 44.731l-1.122-.707c-.386-.241-1.032-.75-1.032-1.448 0-.56.23-1.227 1.33-1.227 1.07 0 1.391.646 1.58 1.345l.019.073.048.058a.497.497 0 0 0 .426.166c.155-.009.358-.077.466-.241l.056-.086v-.102c0-.6-.125-1.444-.274-1.844l-.082-.221h-.235c-.08 0-.245-.024-.402-.072a5.724 5.724 0 0 0-1.392-.197c-1.883 0-3.199 1.14-3.199 2.772 0 1.036.592 2 1.668 2.716l1.334.877c.917.595.994 1.185.994 1.691 0 .593-.37 1.285-1.414 1.285-1.025 0-1.727-.626-2.086-1.86l-.043-.093a.472.472 0 0 0-.396-.203c-.196.004-.394.089-.498.235l-.068.096.005.117c.026.614.198 1.72.42 2.127l.045.084.082.048c.366.212 1.158.569 2.357.569 1.988 0 3.324-1.188 3.324-2.955 0-1.219-.625-2.201-1.911-3.003zm9.759-9.26c.109-.03.44-.116.602-.116h.112l.09-.068c.105-.078.17-.2.18-.332a.45.45 0 0 0-.13-.353l-.05-.05-.065-.025c-.001 0-.121-.055-.121-.686v-.791c0-.812.058-.819.305-.849l.327-.04.078-.068c.132-.115.2-.3.18-.495a.52.52 0 0 0-.249-.413l-.087-.05-.1.006c-.455.028-.92.041-1.465.041-.888 0-1.61-.015-1.982-.041l-.08-.006-.076.033c-.169.072-.278.253-.284.472-.007.223.095.414.265.5l.054.027.676.077c.172.02.492.056.538.127.074.112.074.552.074.905v.565c0 .389-.058.572-.087.62-.045.07-.371.268-1.257.268-2.852 0-3.868-2.327-3.868-4.505 0-1.803.939-3.729 3.573-3.729 1.47 0 2.23.524 2.546 1.752l.023.09.067.067c.158.157.402.172.562.136.18-.04.316-.15.372-.303l.03-.082-.012-.087c-.138-.922-.208-1.595-.208-1.998l-.014-.38-.377.043c-.104.01-.503-.073-.673-.109l-.065-.014a8.636 8.636 0 0 0-1.858-.22c-2.004 0-3.581.59-4.691 1.76-.872.937-1.353 2.209-1.353 3.582 0 1.34.48 2.533 1.386 3.447 1.07 1.093 2.632 1.67 4.517 1.67.867 0 1.94-.204 2.595-.379zm-23.91 9.634c0 1.658.722 4.463 3.432 4.463 1.357 0 2.942-.972 2.942-3.714 0-2.078-.881-4.506-3.363-4.506-1.39 0-3.012.984-3.012 3.757zm8.452.312c0 3.005-2.236 5.271-5.202 5.271-2.649 0-5.33-1.762-5.33-5.13 0-3.039 2.291-5.33 5.33-5.33 3.574 0 5.202 2.69 5.202 5.189zM93.31 25.245l-.108.044-.059.102c-.124.216-.129.225-.8.225h-5.748c-.617 0-.764-.03-.788-.16l-.02-.104-.074-.075c-.19-.19-.558-.134-.695-.041l-.119.082-.025.142c-.098.57-.308 1.456-.518 2.05l-.049.136.065.13c.074.15.226.266.405.309a.56.56 0 0 0 .467-.09l.07-.054.036-.081c.138-.318.258-.592.55-.861.283-.263 1.163-.263 1.494-.263h.854v6.427c0 1.377-.021 1.379-.559 1.426l-.587.05-.07.044c-.155.097-.242.281-.231.493.01.207.107.377.26.454l.076.038.085-.002a60.707 60.707 0 0 1 1.939-.042c.576 0 1.074.015 1.825.041l.085.003.076-.038c.152-.076.252-.25.266-.465.014-.208-.059-.381-.199-.477l-.07-.048-.538-.051c-.532-.046-.532-.046-.532-1.426v-6.427h1.064c.69 0 1.169.096 1.423.286.038.034.151.245.217.798l.012.1.064.077c.133.162.352.198.513.18a.514.514 0 0 0 .415-.275l.043-.088-.01-.097c-.038-.389.056-1.482.201-2.025l.034-.126-.059-.117c-.13-.257-.485-.284-.681-.204zm-8.906 14.84l-.106.043-.058.1c-.125.218-.13.227-.802.227h-5.735c-.624 0-.777-.03-.8-.16l-.02-.103-.073-.074c-.19-.193-.559-.137-.697-.042l-.118.08-.025.143c-.097.553-.3 1.43-.52 2.05l-.047.136.064.13c.075.15.226.266.405.308.17.04.34.008.467-.09l.07-.053.036-.08c.138-.32.259-.593.55-.862.283-.263 1.163-.263 1.494-.263h.854v6.427c0 1.377-.021 1.379-.56 1.426l-.585.05-.07.044a.537.537 0 0 0-.232.494c.01.207.108.377.262.453l.076.038.085-.002a59.078 59.078 0 0 1 1.937-.043c.536 0 .977.013 1.825.042l.087.004.077-.04c.152-.076.25-.25.263-.466.013-.207-.059-.38-.198-.474l-.072-.049-.537-.05c-.532-.047-.532-.047-.532-1.427v-6.427h1.064c.69 0 1.17.096 1.424.286.038.034.15.246.216.798l.012.1.064.077c.133.161.352.2.511.18a.516.516 0 0 0 .417-.273l.044-.088-.01-.098c-.038-.384.06-1.497.2-2.027l.033-.124-.056-.115c-.123-.252-.48-.29-.684-.207zm32.814-14.057a.54.54 0 0 0-.244-.403l-.091-.057-.107.006a21.73 21.73 0 0 1-1.425.042c-.557 0-1.059-.017-1.639-.042l-.069-.003-.064.024a.497.497 0 0 0-.304.393.577.577 0 0 0 .174.539l.078.067.338.04c.504.064.617.127.625.127.024.037.228.429.228 2.742v2.853c-.381-.413-.792-.877-1.273-1.42l-1.894-2.142c-1.716-1.935-2.216-2.702-2.333-3.004l-.099-.254-.268.041a4.187 4.187 0 0 1-.593.039c-.243 0-.983 0-1.56-.042l-.093-.006-.083.042a.51.51 0 0 0-.267.386.6.6 0 0 0 .153.514l.083.082.352.042c.318.04.556.126.66.231.2.22.22.4.22.786v4.216c0 .599.003 2.168-.148 2.627-.025.017-.11.064-.35.096l-.494.056-.084.083a.57.57 0 0 0-.154.454.566.566 0 0 0 .223.42l.097.07.118-.008a22.67 22.67 0 0 1 1.44-.041c.482 0 .953.012 1.624.042l.116.004.095-.067a.547.547 0 0 0 .219-.366.63.63 0 0 0-.115-.47l-.09-.12-.59-.059c-.304-.023-.433-.087-.447-.095-.021-.038-.208-.438-.208-2.757v-3.207c.175.205.368.436.551.654.23.274.442.527.58.687l3.253 3.73c1.077 1.235 1.59 1.845 1.772 2.105l.101.145h.176c.34 0 .526-.202.587-.39l.024-.071-.009-.074c-.015-.13-.04-.62-.04-2.434v-3.572c-.002-.578-.007-2.084.16-2.527.06-.033.225-.097.546-.149l.308-.044.08-.08a.59.59 0 0 0 .154-.48zm-61.03 9.602l.079.04.086-.004a40.26 40.26 0 0 1 1.753-.042c.52 0 .972.011 1.725.042l.086.003.077-.038c.153-.076.253-.25.266-.466.014-.21-.06-.383-.2-.478l-.067-.045-.43-.052c-.558-.067-.558-.067-.558-1.455v-5.03c0-1.423 0-1.423.544-1.47l.437-.034.073-.048c.14-.095.214-.268.202-.476-.014-.217-.113-.392-.266-.468l-.078-.04-.086.004a39.14 39.14 0 0 1-1.725.042c-.609 0-1.086-.014-1.753-.042l-.087-.003-.078.04c-.153.076-.251.252-.264.469-.012.207.061.38.202.474l.073.048.435.034c.545.047.545.047.545 1.47v5.03c0 1.388 0 1.388-.557 1.455l-.466.057-.083.083a.59.59 0 0 0-.141.513c.029.179.122.32.257.387zm40.702-5.364c0 1.658.723 4.463 3.433 4.463 1.357 0 2.942-.973 2.942-3.714 0-2.078-.881-4.505-3.363-4.505-1.39 0-3.012.984-3.012 3.756zm8.453.312c0 3.005-2.237 5.271-5.203 5.271-2.648 0-5.329-1.762-5.329-5.13 0-3.039 2.291-5.33 5.33-5.33 3.574 0 5.202 2.69 5.202 5.189zM73.708 20.79l.077.038.085-.003a52.544 52.544 0 0 1 1.895-.042h1.261c1.225 0 2.486.015 3.75.043l.217.004.095-.197c.197-.414.554-1.522.659-2.046l.021-.106-.044-.1a.569.569 0 0 0-.374-.312.577.577 0 0 0-.481.074l-.07.05-.038.076c-.405.816-.738 1.159-.843 1.219-.227.114-.556.175-1.644.175-1.234 0-1.395-.163-1.45-.217-.153-.165-.175-.692-.175-1.236v-2.032l.125-.001h.813c.408 0 .81.007.998.06.067.018.131.034.186.284l.145.629.05.062c.109.132.297.199.5.183a.519.519 0 0 0 .42-.245l.044-.079v-.09c0-.142-.01-.33-.023-.54a13.62 13.62 0 0 1-.033-.817c0-.29.017-.588.033-.852.012-.22.023-.42.023-.575v-.091l-.045-.079a.518.518 0 0 0-.418-.244c-.205-.016-.391.05-.5.182l-.055.067-.128.663c-.037.183-.07.22-.07.22-.001 0-.01.007-.042.018-.02.007-.225.067-1.085.067h-.937v-2.88c0-.08 0-.161.002-.223l.08-.001h1.01c.579 0 1.019.013 1.277.074.496.125.598.39.8 1.033l.046.146.042.052c.1.12.266.181.446.172a.564.564 0 0 0 .447-.234l.065-.098-.024-.264c-.078-.88-.144-1.573-.229-1.816l-.108-.279-.29.06c-.155.033-1.075.033-1.814.033h-2.635a33.79 33.79 0 0 1-1.639-.041l-.088-.004-.078.039c-.152.076-.25.25-.265.466-.013.208.06.38.199.475l.066.045.306.04c.558.066.558.066.558 1.441v5.087c0 1.377-.022 1.379-.562 1.426l-.583.054-.087.086a.59.59 0 0 0-.143.51.51.51 0 0 0 .26.39zM48.14 34.59l-.468.055-.083.085a.592.592 0 0 0-.14.51c.029.179.122.32.255.388l.08.041.089-.004a36.332 36.332 0 0 1 1.737-.043c.536 0 .985.013 1.853.043l.088.003.078-.04c.152-.078.25-.254.262-.471.011-.206-.062-.377-.202-.47l-.071-.049-.563-.05c-.546-.046-.546-.046-.546-1.426v-2.004h1.078c.388 0 .81.006.977.055.102.032.165.088.222.295l.168.656.08.07c.155.134.366.16.512.14a.493.493 0 0 0 .355-.21l.057-.085v-.104c0-.15-.012-.343-.024-.558a13.8 13.8 0 0 1-.032-.813c0-.28.017-.579.031-.843.013-.225.025-.428.025-.584v-.104l-.057-.086c-.086-.128-.235-.204-.42-.214-.202-.01-.382.059-.486.186l-.052.063-.144.643c-.05.22-.08.231-.128.249-.074.025-.385.067-1.084.067h-.954l-.124-.001v-3.02c0-.08 0-.161.002-.224h.935c.562 0 1.006 0 1.275.074.485.127.623.447.733 1.071l.022.12.092.08c.126.11.31.152.49.115a.515.515 0 0 0 .369-.264l.04-.08-.005-.09a36.594 36.594 0 0 1-.041-1.847l-.004-.421-.41.088c-.155.033-1.077.033-1.817.033h-2.58c-.514 0-.981-.012-1.61-.041l-.089-.004-.078.039c-.152.076-.251.25-.265.466-.014.208.059.382.199.476l.067.046.306.037c.543.066.543.066.543 1.442v5.087c0 1.361 0 1.361-.543 1.428zm20.89-9.017l-.069-.003-.064.024a.498.498 0 0 0-.304.393.578.578 0 0 0 .174.539l.078.067.338.04c.501.064.616.127.625.127.024.037.228.43.228 2.742v2.854c-.376-.409-.781-.866-1.256-1.4l-1.91-2.162c-1.716-1.935-2.216-2.703-2.335-3.005l-.098-.254-.268.041a4.18 4.18 0 0 1-.593.039c-.243 0-.983 0-1.56-.042l-.093-.006-.083.041a.512.512 0 0 0-.267.387c-.03.192.028.39.153.514l.083.082.352.042c.318.04.556.126.66.231.2.22.22.4.22.786v4.216c0 .599.002 2.168-.149 2.627-.024.017-.11.064-.35.096l-.494.056-.083.083a.57.57 0 0 0-.154.454.566.566 0 0 0 .223.42l.097.07.118-.008a22.67 22.67 0 0 1 1.44-.041c.482 0 .953.012 1.624.042l.115.004.094-.066a.545.545 0 0 0 .22-.364.631.631 0 0 0-.114-.472l-.09-.121-.59-.059c-.304-.023-.433-.087-.447-.095-.021-.038-.208-.438-.208-2.757v-3.207l.551.654c.23.274.442.527.58.687l3.253 3.73c1.077 1.236 1.59 1.846 1.772 2.105l.101.145h.176c.34 0 .526-.202.587-.39l.023-.071-.008-.074c-.015-.13-.04-.62-.04-2.434v-3.57c-.002-.578-.007-2.084.16-2.529.06-.033.225-.097.546-.149l.308-.044.08-.08a.588.588 0 0 0 .154-.48.54.54 0 0 0-.245-.404l-.09-.057-.107.006c-.46.027-.824.042-1.425.042-.557 0-1.058-.017-1.639-.042zm-43.374 9.113l-.066-.044-.417-.052c-.544-.067-.544-.067-.544-1.428v-5.087c0-1.385 0-1.385.535-1.44l.38-.037.072-.048c.14-.094.212-.268.198-.477-.014-.215-.113-.39-.265-.465l-.079-.04-.087.004c-.567.026-1.063.042-1.639.042-.595 0-1.084-.016-1.681-.042l-.087-.003-.078.039c-.152.076-.251.25-.266.465-.013.209.06.383.199.477l.07.048.351.036c.551.057.551.057.551 1.44v1.73c-.098.007-.25.007-.362.007h-4.01c-.111 0-.264 0-.36-.007-.002-.04-.002-.082-.002-.104v-1.625c0-1.385 0-1.385.537-1.44l.35-.037.07-.048c.14-.094.213-.268.2-.476-.014-.216-.113-.39-.266-.466l-.079-.04-.087.004a32.69 32.69 0 0 1-1.61.042c-.368 0-.687-.01-1.038-.021a41.15 41.15 0 0 0-.722-.02l-.083-.003-.076.038c-.152.077-.25.252-.264.469-.012.207.061.38.201.474l.074.05.452.034c.446.034.514.04.514 1.44v5.087c0 1.334 0 1.334-.532 1.43l-.346.061-.076.077a.593.593 0 0 0-.139.512.51.51 0 0 0 .256.386l.076.04.086-.003c.185-.005.362-.011.539-.018.342-.012.682-.025 1.077-.025.54 0 1.02.015 1.768.043l.087.003.078-.04c.152-.076.25-.251.264-.467.013-.207-.06-.38-.2-.474l-.07-.047-.488-.05c-.532-.058-.553-.06-.553-1.428V31.17l.001-.102c.103-.01.27-.01.361-.01h4.01c.092 0 .259 0 .361.01l.001.102v1.992c0 1.335 0 1.335-.568 1.43l-.378.059-.078.08a.592.592 0 0 0-.139.51.51.51 0 0 0 .256.387l.08.04.088-.003c.652-.03 1.139-.043 1.68-.043.567 0 1.064.017 1.683.043l.089.003.079-.04c.152-.078.25-.254.262-.47.012-.206-.062-.378-.201-.472zm35.728-22.973l.073.048.452.035c.446.034.514.04.514 1.44v5.087c0 1.334 0 1.334-.533 1.43l-.345.061-.076.078a.591.591 0 0 0-.139.51c.03.179.122.32.256.388l.076.038.085-.002c.186-.005.363-.011.54-.018.342-.012.682-.025 1.077-.025.54 0 1.02.015 1.768.043l.087.003.078-.04c.152-.077.25-.252.264-.468.012-.207-.06-.38-.2-.473l-.07-.047-.488-.051c-.533-.058-.554-.06-.554-1.427v-1.992c0-.022 0-.064.002-.102.102-.01.27-.01.361-.01h4.01c.092 0 .259 0 .36.01.002.038.002.08.002.102v1.992c0 1.335 0 1.335-.57 1.429l-.376.06-.078.08a.592.592 0 0 0-.14.51c.03.178.123.32.256.388l.08.04.089-.004c.652-.03 1.139-.043 1.68-.043.566 0 1.064.016 1.683.043l.089.003.079-.04c.152-.078.25-.254.262-.471.011-.206-.062-.378-.201-.471l-.067-.044-.416-.053c-.544-.066-.544-.066-.544-1.427v-5.087c0-1.385 0-1.385.535-1.44l.38-.037.071-.047c.14-.095.213-.268.199-.477-.014-.216-.113-.39-.265-.466l-.078-.04-.088.005a35.24 35.24 0 0 1-1.639.041c-.595 0-1.084-.016-1.681-.041l-.087-.004-.079.039c-.152.076-.251.25-.265.467-.013.208.06.381.2.476l.07.046.35.037c.551.057.551.057.551 1.44v1.626l-.001.104c-.097.007-.25.007-.361.007h-4.01c-.111 0-.264 0-.361-.007-.002-.04-.002-.082-.002-.104v-1.625c0-1.385 0-1.385.538-1.44l.35-.038.07-.046c.14-.095.213-.268.2-.476-.014-.216-.113-.39-.265-.467l-.079-.04-.088.005a32.59 32.59 0 0 1-1.611.041 31 31 0 0 1-1.027-.021 42.466 42.466 0 0 0-.732-.02l-.084-.003-.075.038c-.153.078-.251.253-.264.47-.012.208.061.38.202.474zm-4.387 9.115l.076-.037c.154-.077.253-.25.267-.466.014-.209-.059-.382-.199-.477l-.071-.048-.537-.051C56 19.704 56 19.704 56 18.324v-6.427h1.064c.69 0 1.17.096 1.423.286.038.034.151.245.217.798l.012.1.064.077c.133.162.353.197.512.179a.514.514 0 0 0 .416-.274l.043-.087-.01-.097c-.038-.385.06-1.498.201-2.026l.034-.128-.06-.117c-.13-.256-.486-.282-.68-.202l-.108.044-.059.101c-.124.217-.129.225-.8.225H52.52c-.621 0-.76-.028-.785-.159l-.02-.106-.076-.075c-.192-.188-.558-.132-.694-.038l-.118.081-.024.142c-.097.554-.3 1.431-.52 2.049l-.048.137.065.13c.075.15.226.266.404.309a.56.56 0 0 0 .467-.09l.071-.053.036-.082c.138-.318.257-.592.55-.861.283-.263 1.163-.263 1.495-.263h.852v6.427c0 1.377-.02 1.379-.559 1.426l-.586.05-.068.043a.535.535 0 0 0-.234.49c.01.21.107.38.26.457l.077.04.086-.003a59.208 59.208 0 0 1 1.937-.043c.569 0 1.07.016 1.825.042l.085.003zm-19.405 4.796l-.092-.058-.107.006c-.483.028-.858.043-1.454.043-.532 0-1.05-.014-1.58-.043l-.112-.006-.094.064a.543.543 0 0 0-.223.384.588.588 0 0 0 .127.461l.091.106.49.04c.312.025.422.107.432.124.038.066.223.51.223 2.757v1.625c0 2.268-.83 3.418-2.465 3.418-1.734 0-2.507-1.059-2.507-3.432v-3.052c0-1.394 0-1.394.53-1.44l.425-.036.073-.05c.138-.093.211-.264.199-.466-.013-.21-.112-.383-.264-.46l-.079-.04-.088.003c-.663.028-1.132.043-1.71.043a39.56 39.56 0 0 1-1.724-.043l-.088-.003-.078.04c-.153.077-.252.25-.264.463-.012.202.06.371.2.465l.073.048.436.036c.532.047.532.047.532 1.44v3.335c0 1.76.387 2.904 1.212 3.594.66.57 1.616.86 2.842.86 1.183 0 2.277-.428 2.924-1.141.722-.78 1.073-1.96 1.073-3.61v-1.597c0-.642 0-2.347.164-2.738.013-.023.127-.12.422-.143l.477-.04.09-.11a.62.62 0 0 0 .127-.481.52.52 0 0 0-.233-.366zm15.846 15.403c-.685-.426-1.57-.616-2.87-.616-1.266 0-2.091.019-2.82.117l-.056.007-.05.025a.53.53 0 0 0-.277.416.567.567 0 0 0 .18.502l.08.069.607.067c.344.038.358.04.358 1.173v5.214c0 1.352 0 1.352-.552 1.428l-.405.06-.08.08a.588.588 0 0 0-.14.511c.028.18.123.32.258.388l.078.04.087-.005c.657-.03 1.148-.042 1.695-.042.548 0 .993.014 1.81.042l.086.004.077-.039c.143-.072.238-.225.262-.422.024-.206-.037-.388-.167-.498l-.078-.066-.482-.054c-.623-.07-.623-.07-.623-1.427V41.7c0-.04 0-.103.002-.151.115-.016.334-.016.416-.016 1.22 0 1.92.7 1.92 1.919 0 1.18-.55 1.808-1.785 2.039l-.043.01c-.172.057-.285.22-.295.426-.01.222.1.417.28.495l.064.028h.07c.707 0 1.485-.171 2.084-.459.594-.292 1.591-1.013 1.591-2.553 0-1.014-.466-1.891-1.282-2.41zM46.04 27.762l.004.09-.04.08a.515.515 0 0 1-.368.264.574.574 0 0 1-.49-.115l-.093-.08-.021-.12c-.11-.624-.248-.944-.733-1.071-.27-.075-.713-.075-1.275-.075h-.855l-.08.001c-.002.063-.002.144-.002.224v3.021h1.078c.699 0 1.01-.041 1.083-.066.049-.018.078-.029.128-.249l.145-.643.051-.063c.104-.127.282-.197.485-.186.186.01.336.086.42.213l.058.086v.105c0 .156-.011.36-.024.584-.015.264-.032.563-.032.843 0 .273.017.56.032.813.013.215.024.408.024.558v.104l-.057.086a.497.497 0 0 1-.355.209.668.668 0 0 1-.51-.14l-.081-.07-.168-.656c-.057-.207-.12-.263-.222-.295-.168-.049-.59-.056-.977-.056h-.954l-.124.001v2.004c0 1.38 0 1.38.545 1.427l.563.05.072.047c.14.094.212.265.201.47-.012.217-.11.393-.261.472l-.079.04-.088-.003a49.66 49.66 0 0 0-1.853-.043c-.635 0-1.118.016-1.737.043l-.089.004-.08-.04a.511.511 0 0 1-.254-.388.593.593 0 0 1 .14-.51l.082-.086.469-.055c.542-.067.542-.067.542-1.428v-5.087c0-1.376 0-1.376-.543-1.442l-.305-.037-.067-.046c-.14-.094-.213-.269-.2-.477.015-.215.114-.389.266-.465l.078-.04.088.005c.629.03 1.096.041 1.61.041h2.58c.74 0 1.662 0 1.818-.033l.409-.088.004.42c0 .69.015 1.346.042 1.848z" fill="#8A8C98"/></svg>