<svg width="132" height="60" viewBox="0 0 132 60" xmlns="http://www.w3.org/2000/svg"><path d="M72.284 44.098l-1.122-.7c-.386-.24-1.032-.743-1.032-1.435 0-.555.23-1.216 1.33-1.216 1.07 0 1.391.64 1.58 1.333l.019.072.048.058a.5.5 0 0 0 .426.164c.155-.009.358-.076.466-.239l.056-.084v-.102c0-.594-.125-1.43-.274-1.827l-.082-.219h-.235c-.08 0-.245-.024-.402-.071a5.774 5.774 0 0 0-1.392-.195c-1.883 0-3.199 1.13-3.199 2.747 0 1.026.592 1.98 1.668 2.69l1.334.869c.917.59.994 1.174.994 1.675 0 .587-.37 1.272-1.414 1.272-1.025 0-1.727-.62-2.086-1.842l-.043-.092a.474.474 0 0 0-.396-.201c-.196.004-.394.088-.498.233l-.068.095.005.116c.026.608.198 1.703.42 2.107l.045.083.082.048c.366.21 1.158.563 2.357.563 1.988 0 3.324-1.177 3.324-2.927 0-1.208-.625-2.18-1.911-2.975zm9.759-9.174c.109-.028.44-.114.602-.114h.112l.09-.068a.448.448 0 0 0 .18-.329.444.444 0 0 0-.13-.349l-.05-.05-.065-.025c-.001 0-.121-.054-.121-.679v-.784c0-.804.058-.811.305-.84l.327-.04.078-.068a.568.568 0 0 0 .18-.49.515.515 0 0 0-.249-.41l-.087-.05-.1.007c-.455.028-.92.04-1.465.04-.888 0-1.61-.014-1.982-.04l-.08-.006-.076.032c-.169.072-.278.251-.284.468-.007.22.095.41.265.496l.054.027.676.075c.172.02.492.056.538.126.074.112.074.547.074.897v.56c0 .385-.058.567-.087.614-.045.07-.371.266-1.257.266-2.852 0-3.868-2.306-3.868-4.463 0-1.786.939-3.694 3.573-3.694 1.47 0 2.23.518 2.546 1.735l.023.09.067.066c.158.155.402.17.562.134a.494.494 0 0 0 .372-.3l.03-.081-.012-.087c-.138-.913-.208-1.58-.208-1.979l-.014-.377-.377.043c-.104.01-.503-.071-.673-.107l-.065-.014a8.714 8.714 0 0 0-1.858-.219c-2.004 0-3.581.586-4.691 1.744-.872.929-1.353 2.189-1.353 3.55 0 1.327.48 2.508 1.386 3.414 1.07 1.083 2.632 1.655 4.517 1.655.867 0 1.94-.203 2.595-.376zm-23.91 9.545c0 1.642.722 4.421 3.432 4.421 1.357 0 2.942-.964 2.942-3.68 0-2.059-.881-4.463-3.363-4.463-1.39 0-3.012.975-3.012 3.722zm8.452.308c0 2.977-2.236 5.223-5.202 5.223-2.649 0-5.33-1.746-5.33-5.083 0-3.01 2.291-5.28 5.33-5.28 3.574 0 5.202 2.665 5.202 5.14zM93.31 24.794l-.108.044-.059.1c-.124.215-.129.223-.8.223h-5.748c-.617 0-.764-.03-.788-.158l-.02-.103-.074-.074c-.19-.189-.558-.133-.695-.04l-.119.08-.025.141a14.276 14.276 0 0 1-.518 2.03l-.049.136.065.129a.604.604 0 0 0 .405.305.564.564 0 0 0 .467-.089l.07-.053.036-.08c.138-.315.258-.587.55-.853.283-.261 1.163-.261 1.494-.261h.854v6.367c0 1.364-.021 1.366-.559 1.413l-.587.049-.07.044a.53.53 0 0 0-.231.488c.01.206.107.374.26.45l.076.038.085-.003a61.279 61.279 0 0 1 1.939-.041c.576 0 1.074.015 1.825.041l.085.003.076-.038c.152-.075.252-.247.266-.46.014-.206-.059-.378-.199-.473l-.07-.047-.538-.051c-.532-.046-.532-.046-.532-1.413v-6.367h1.064c.69 0 1.169.095 1.423.283.038.034.151.244.217.791l.012.1.064.076c.133.16.352.195.513.177a.514.514 0 0 0 .415-.272l.043-.087-.01-.096c-.038-.385.056-1.468.201-2.006l.034-.125-.059-.116c-.13-.255-.485-.281-.681-.202zm-8.906 14.7l-.106.044-.058.1c-.125.215-.13.224-.802.224h-5.735c-.624 0-.777-.03-.8-.158l-.02-.103-.073-.073c-.19-.191-.559-.136-.697-.042l-.118.08-.025.141c-.097.548-.3 1.417-.52 2.031l-.047.135.064.129a.606.606 0 0 0 .405.305c.17.04.34.008.467-.088l.07-.053.036-.08c.138-.316.259-.588.55-.854.283-.26 1.163-.26 1.494-.26h.854v6.365c0 1.364-.021 1.366-.56 1.413l-.585.05-.07.043a.53.53 0 0 0-.232.49c.01.205.108.373.262.448l.076.038.085-.002a59.635 59.635 0 0 1 1.937-.042c.536 0 .977.012 1.825.041l.087.004.077-.04c.152-.075.25-.248.263-.461.013-.205-.059-.377-.198-.47l-.072-.048-.537-.05c-.532-.046-.532-.046-.532-1.414V40.97h1.064c.69 0 1.17.096 1.424.283.038.035.15.244.216.791l.012.1.064.076c.133.16.352.197.511.178a.516.516 0 0 0 .417-.27l.044-.088-.01-.097c-.038-.38.06-1.483.2-2.007l.033-.123-.056-.115c-.123-.249-.48-.288-.684-.204zm32.814-13.924a.535.535 0 0 0-.244-.4l-.091-.056-.107.006c-.462.027-.826.041-1.425.041-.557 0-1.059-.016-1.639-.041l-.069-.003-.064.024a.493.493 0 0 0-.304.389.569.569 0 0 0 .174.534l.078.066.338.04c.504.064.617.126.625.126.024.037.228.424.228 2.716v2.827c-.381-.41-.792-.87-1.273-1.407l-1.894-2.122c-1.716-1.917-2.216-2.676-2.333-2.976l-.099-.252-.268.041a4.226 4.226 0 0 1-.593.038c-.243 0-.983 0-1.56-.04l-.093-.007-.083.041a.505.505 0 0 0-.267.383.591.591 0 0 0 .153.51l.083.08.352.043c.318.04.556.124.66.228.2.218.22.396.22.78v4.175c0 .593.003 2.148-.148 2.603-.025.017-.11.064-.35.094l-.494.056-.084.083a.56.56 0 0 0-.154.45.56.56 0 0 0 .223.415l.097.069.118-.007a22.67 22.67 0 0 1 1.44-.041c.482 0 .953.012 1.624.041l.116.005.095-.067a.541.541 0 0 0 .219-.362.62.62 0 0 0-.115-.465l-.09-.12-.59-.058c-.304-.023-.433-.086-.447-.095-.021-.037-.208-.433-.208-2.73v-3.178c.175.204.368.433.551.649.23.27.442.521.58.68l3.253 3.695c1.077 1.224 1.59 1.828 1.772 2.085l.101.144h.176c.34 0 .526-.2.587-.387l.024-.07-.009-.073c-.015-.13-.04-.614-.04-2.412V28.82c-.002-.572-.007-2.064.16-2.503.06-.033.225-.097.546-.147l.308-.045.08-.08a.58.58 0 0 0 .154-.475zm-61.03 9.512l.079.039.086-.003a40.64 40.64 0 0 1 1.753-.042c.52 0 .972.011 1.725.042l.086.003.077-.038c.153-.075.253-.248.266-.462.014-.207-.06-.38-.2-.473l-.067-.044-.43-.052c-.558-.066-.558-.066-.558-1.442v-4.983c0-1.41 0-1.41.544-1.455l.437-.035.073-.048c.14-.093.214-.264.202-.47-.014-.216-.113-.389-.266-.465l-.078-.038-.086.003a40.08 40.08 0 0 1-1.725.042 39.93 39.93 0 0 1-1.753-.042l-.087-.003-.078.039c-.153.076-.251.25-.264.465-.012.206.061.377.202.47l.073.047.435.035c.545.046.545.046.545 1.455v4.983c0 1.376 0 1.376-.557 1.442l-.466.056-.083.083a.581.581 0 0 0-.141.507c.029.178.122.318.257.384zm40.702-5.314c0 1.642.723 4.422 3.433 4.422 1.357 0 2.942-.964 2.942-3.68 0-2.059-.881-4.463-3.363-4.463-1.39 0-3.012.975-3.012 3.721zm8.453.309c0 2.977-2.237 5.222-5.203 5.222-2.648 0-5.329-1.746-5.329-5.082 0-3.01 2.291-5.28 5.33-5.28 3.574 0 5.202 2.664 5.202 5.14zm-31.635-9.695l.077.037.085-.002a53.039 53.039 0 0 1 1.895-.042h1.261c1.225 0 2.486.014 3.75.042l.217.004.095-.195c.197-.41.554-1.508.659-2.026l.021-.106-.044-.098a.567.567 0 0 0-.374-.31.581.581 0 0 0-.481.073l-.07.05-.038.075c-.405.808-.738 1.148-.843 1.208-.227.112-.556.173-1.644.173-1.234 0-1.395-.161-1.45-.215-.153-.164-.175-.685-.175-1.224v-2.014h.938c.408 0 .81.007.998.06.067.017.131.033.186.28l.145.624.05.062c.109.13.297.196.5.18a.52.52 0 0 0 .42-.242l.044-.078v-.09c0-.14-.01-.326-.023-.534a13.367 13.367 0 0 1-.033-.81c0-.286.017-.582.033-.844.012-.219.023-.415.023-.57v-.09l-.045-.078a.52.52 0 0 0-.418-.242c-.205-.015-.391.05-.5.18l-.055.067-.128.657c-.037.181-.07.218-.07.219-.001 0-.01.006-.042.016-.02.008-.225.067-1.085.067h-.813l-.124-.001v-2.853c0-.078 0-.159.002-.22l.08-.001h1.01c.579 0 1.019.012 1.277.073.496.124.598.387.8 1.024l.046.144.042.051c.1.12.266.18.446.171a.565.565 0 0 0 .447-.231l.065-.098-.024-.26c-.078-.873-.144-1.56-.229-1.8l-.108-.277-.29.06c-.155.033-1.075.033-1.814.033h-2.635a35.02 35.02 0 0 1-1.639-.041l-.088-.004-.078.038c-.152.076-.25.248-.265.462-.013.206.06.377.199.47l.066.046.306.038c.558.066.558.066.558 1.428v5.04c0 1.364-.022 1.365-.562 1.412l-.583.054-.087.085a.58.58 0 0 0-.143.506c.03.179.124.32.26.387zM48.14 34.052l-.468.056-.083.084a.582.582 0 0 0-.14.506.506.506 0 0 0 .255.383l.08.04.089-.003a36.674 36.674 0 0 1 1.737-.043c.536 0 .985.013 1.853.043l.088.003.078-.04c.152-.078.25-.252.262-.467.011-.203-.062-.373-.202-.466l-.071-.047-.563-.05c-.546-.046-.546-.046-.546-1.413v-1.985h1.078c.388 0 .81.006.977.054.102.032.165.087.222.293l.168.65.08.069a.669.669 0 0 0 .512.138.494.494 0 0 0 .355-.207l.057-.085v-.103c0-.148-.012-.34-.024-.553a13.545 13.545 0 0 1-.032-.805c0-.277.017-.574.031-.835.013-.223.025-.424.025-.58v-.102l-.057-.085c-.086-.127-.235-.202-.42-.212-.202-.01-.382.059-.486.184l-.052.062-.144.638c-.05.218-.08.229-.128.246-.074.025-.385.067-1.084.067h-.954l-.124-.001v-2.993c0-.08 0-.16.002-.222h.935c.562 0 1.006 0 1.275.073.485.126.623.443.733 1.062l.022.12.092.078c.126.108.31.15.49.114a.515.515 0 0 0 .369-.262l.04-.08-.005-.089a35.914 35.914 0 0 1-.041-1.83l-.004-.417-.41.088c-.155.033-1.077.033-1.817.033h-2.58c-.514 0-.981-.012-1.61-.041l-.089-.004-.078.039c-.152.075-.251.248-.265.46-.014.207.059.38.199.473l.067.045.306.038c.543.064.543.064.543 1.428v5.039c0 1.349 0 1.349-.543 1.414zm20.89-8.932l-.069-.003-.064.024a.494.494 0 0 0-.304.389.57.57 0 0 0 .174.534l.078.066.338.04c.501.063.616.126.625.126.024.037.228.425.228 2.716v2.827c-.376-.404-.781-.857-1.256-1.387l-1.91-2.141c-1.716-1.917-2.216-2.677-2.335-2.977l-.098-.252-.268.041a4.219 4.219 0 0 1-.593.038c-.243 0-.983 0-1.56-.04l-.093-.007-.083.04a.507.507 0 0 0-.267.384c-.03.19.028.386.153.51l.083.08.352.043c.318.04.556.124.66.228.2.219.22.396.22.78v4.175c0 .593.002 2.148-.149 2.603-.024.017-.11.064-.35.094l-.494.056-.083.083a.562.562 0 0 0-.154.45.559.559 0 0 0 .223.415l.097.069.118-.007a22.67 22.67 0 0 1 1.44-.041c.482 0 .953.012 1.624.041l.115.005.094-.066a.539.539 0 0 0 .22-.36.62.62 0 0 0-.114-.468l-.09-.12-.59-.058c-.304-.023-.433-.086-.447-.095-.021-.037-.208-.433-.208-2.73v-3.178l.551.649c.23.27.442.521.58.68l3.253 3.695c1.077 1.224 1.59 1.828 1.772 2.085l.101.144h.176c.34 0 .526-.2.587-.387l.023-.07-.008-.073c-.015-.13-.04-.614-.04-2.412v-3.536c-.002-.573-.007-2.065.16-2.505.06-.033.225-.097.546-.147l.308-.045.08-.08a.58.58 0 0 0 .154-.475.534.534 0 0 0-.245-.4l-.09-.056-.107.006c-.46.027-.824.041-1.425.041-.557 0-1.058-.016-1.639-.041zm-43.374 9.028l-.066-.044-.417-.051c-.544-.066-.544-.066-.544-1.415v-5.04c0-1.371 0-1.371.535-1.426l.38-.036.072-.048c.14-.094.212-.266.198-.472-.014-.214-.113-.386-.265-.462l-.079-.039-.087.004a35.53 35.53 0 0 1-1.639.042c-.595 0-1.084-.016-1.681-.042l-.087-.003-.078.038c-.152.076-.251.248-.266.462-.013.206.06.378.199.472l.07.047.351.036c.551.056.551.056.551 1.428v1.711c-.098.008-.25.008-.362.008h-4.01c-.111 0-.264 0-.36-.008-.002-.039-.002-.08-.002-.103v-1.61c0-1.371 0-1.371.537-1.427l.35-.036.07-.047c.14-.094.213-.266.2-.472-.014-.214-.113-.386-.266-.462l-.079-.039-.087.004a32.69 32.69 0 0 1-1.61.042c-.368 0-.687-.01-1.038-.022a78.24 78.24 0 0 0-.722-.02l-.083-.002-.076.038c-.152.076-.25.25-.264.464-.012.206.061.377.201.47l.074.049.452.034c.446.034.514.04.514 1.427v5.039c0 1.322 0 1.322-.532 1.417l-.346.06-.076.077a.583.583 0 0 0-.139.506c.03.177.123.316.256.383l.076.039.086-.002c.185-.005.362-.012.539-.018.342-.012.682-.025 1.077-.025.54 0 1.02.015 1.768.043l.087.003.078-.04c.152-.076.25-.249.264-.463.013-.204-.06-.376-.2-.469l-.07-.047-.488-.05c-.532-.057-.553-.06-.553-1.414v-1.974l.001-.1c.103-.01.27-.01.361-.01h4.01c.092 0 .259 0 .361.01l.001.1v1.974c0 1.323 0 1.323-.568 1.416l-.378.059-.078.079a.582.582 0 0 0-.139.506.505.505 0 0 0 .256.383l.08.04.088-.003a34.42 34.42 0 0 1 1.68-.043 38.2 38.2 0 0 1 1.683.043l.089.003.079-.04c.152-.077.25-.252.262-.466.012-.204-.062-.374-.201-.467zM61.384 11.39l.073.048.452.035c.446.034.514.039.514 1.426v5.04c0 1.322 0 1.322-.533 1.416l-.345.061-.076.077a.582.582 0 0 0-.139.506.504.504 0 0 0 .256.383l.076.038.085-.001c.186-.005.363-.012.54-.018.342-.012.682-.025 1.077-.025.54 0 1.02.014 1.768.042l.087.003.078-.039c.152-.076.25-.25.264-.464.012-.205-.06-.376-.2-.469l-.07-.046-.488-.05c-.533-.058-.554-.06-.554-1.415v-1.973c0-.022 0-.063.002-.1.102-.01.27-.01.361-.01h4.01c.092 0 .259 0 .36.01.002.037.002.078.002.1v1.973c0 1.323 0 1.323-.57 1.416l-.376.06-.078.079a.582.582 0 0 0-.14.505.508.508 0 0 0 .256.384l.08.04.089-.004a34.44 34.44 0 0 1 1.68-.042 37.7 37.7 0 0 1 1.683.042l.089.004.079-.04c.152-.077.25-.252.262-.467.011-.204-.062-.374-.201-.467l-.067-.043-.416-.052c-.544-.066-.544-.066-.544-1.415v-5.039c0-1.372 0-1.372.535-1.427l.38-.036.071-.047c.14-.094.213-.265.199-.472-.014-.214-.113-.386-.265-.462l-.078-.039-.088.004a35.53 35.53 0 0 1-1.639.042 36.83 36.83 0 0 1-1.681-.042l-.087-.003-.079.038c-.152.076-.251.249-.265.463-.013.206.06.378.2.471l.07.046.35.037c.551.056.551.056.551 1.427v1.61l-.001.103c-.097.007-.25.007-.361.007h-4.01c-.111 0-.264 0-.361-.007-.002-.039-.002-.08-.002-.103v-1.61c0-1.372 0-1.372.538-1.427l.35-.037.07-.046c.14-.093.213-.265.2-.47-.014-.215-.113-.388-.265-.464l-.079-.039-.088.004c-.642.03-1.108.042-1.611.042-.364 0-.68-.01-1.027-.022-.225-.007-.463-.015-.732-.02l-.084-.002-.075.038c-.153.076-.251.25-.264.465-.012.206.061.376.202.47zm-4.387 9.03l.076-.037c.154-.075.253-.247.267-.461.014-.207-.059-.379-.199-.473l-.071-.047-.537-.05C56 19.304 56 19.304 56 17.937V11.57h1.064c.69 0 1.17.095 1.423.283.038.034.151.243.217.79l.012.1.064.076c.133.16.353.196.512.177a.514.514 0 0 0 .416-.27l.043-.088-.01-.096c-.038-.38.06-1.483.201-2.006l.034-.127-.06-.116c-.13-.254-.486-.28-.68-.2l-.108.043-.059.1c-.124.215-.129.224-.8.224H52.52c-.621 0-.76-.029-.785-.158l-.02-.105-.076-.075c-.192-.185-.558-.13-.694-.037l-.118.08-.024.14c-.097.55-.3 1.419-.52 2.03l-.048.137.065.129a.607.607 0 0 0 .404.305c.168.04.34.007.467-.088l.071-.053.036-.082c.138-.314.257-.586.55-.853.283-.26 1.163-.26 1.495-.26h.852v6.367c0 1.364-.02 1.365-.559 1.412l-.586.05-.068.042a.528.528 0 0 0-.234.486c.01.207.107.376.26.453l.077.038.086-.002a59.766 59.766 0 0 1 1.937-.042c.569 0 1.07.016 1.825.042l.085.002zm-19.405 4.75l-.092-.057-.107.006a22.93 22.93 0 0 1-1.454.043c-.532 0-1.05-.014-1.58-.043l-.112-.006-.094.063a.537.537 0 0 0-.223.38.579.579 0 0 0 .127.458l.091.105.49.04c.312.024.422.105.432.122.038.066.223.506.223 2.731v1.61c0 2.247-.83 3.386-2.465 3.386-1.734 0-2.507-1.049-2.507-3.4v-3.023c0-1.381 0-1.381.53-1.427l.425-.036.073-.048c.138-.093.211-.262.199-.462-.013-.21-.112-.38-.264-.457l-.079-.04-.088.004c-.663.028-1.132.043-1.71.043-.572 0-1.047-.015-1.724-.043l-.088-.003-.078.04c-.153.076-.252.248-.264.459-.012.199.06.367.2.46l.073.048.436.035c.532.046.532.046.532 1.427v3.303c0 1.744.387 2.877 1.212 3.56.66.566 1.616.852 2.842.852 1.183 0 2.277-.423 2.924-1.13.722-.772 1.073-1.942 1.073-3.575v-1.583c0-.636 0-2.325.164-2.712.013-.023.127-.119.422-.142l.477-.04.09-.108a.61.61 0 0 0 .127-.477.514.514 0 0 0-.233-.363zm15.846 15.26c-.685-.422-1.57-.61-2.87-.61-1.266 0-2.091.018-2.82.115l-.056.007-.05.025a.524.524 0 0 0-.277.412.559.559 0 0 0 .18.498l.08.068.607.066c.344.038.358.04.358 1.162v5.165c0 1.34 0 1.34-.552 1.415l-.405.059-.08.08a.579.579 0 0 0-.14.506.503.503 0 0 0 .258.384l.078.04.087-.005c.657-.03 1.148-.041 1.695-.041.548 0 .993.013 1.81.041l.086.004.077-.039c.143-.07.238-.223.262-.417.024-.205-.037-.385-.167-.494l-.078-.065-.482-.054c-.623-.068-.623-.068-.623-1.414v-6.242c0-.04 0-.103.002-.15.115-.016.334-.016.416-.016 1.22 0 1.92.692 1.92 1.9 0 1.17-.55 1.792-1.785 2.02l-.043.011c-.172.056-.285.217-.295.422-.01.22.1.412.28.49l.064.028h.07c.707 0 1.485-.17 2.084-.454.594-.29 1.591-1.004 1.591-2.53 0-1.004-.466-1.874-1.282-2.388zM46.04 27.286l.004.09-.04.079a.514.514 0 0 1-.368.262.578.578 0 0 1-.49-.114l-.093-.079-.021-.12c-.11-.618-.248-.935-.733-1.06-.27-.074-.713-.074-1.275-.074h-.935c-.002.062-.002.143-.002.222v2.993h1.078c.699 0 1.01-.041 1.083-.066.049-.017.078-.028.128-.246l.145-.638.051-.062c.104-.125.282-.194.485-.184.186.01.336.085.42.212l.058.085v.103c0 .155-.011.356-.024.58-.015.26-.032.557-.032.834 0 .27.017.554.032.805.013.213.024.405.024.553v.103l-.057.086a.497.497 0 0 1-.355.206.673.673 0 0 1-.51-.138l-.081-.07-.168-.649c-.057-.206-.12-.26-.222-.293-.168-.048-.59-.055-.977-.055h-.954l-.124.001v1.985c0 1.367 0 1.367.545 1.413l.563.05.072.047c.14.093.212.262.201.466-.012.214-.11.39-.261.467l-.079.04-.088-.003a50.128 50.128 0 0 0-1.853-.043c-.635 0-1.118.016-1.737.043l-.089.004-.08-.04a.506.506 0 0 1-.254-.384.584.584 0 0 1 .14-.506l.082-.084.469-.056c.542-.065.542-.065.542-1.414v-5.04c0-1.363 0-1.363-.543-1.427l-.305-.038-.067-.045c-.14-.094-.213-.266-.2-.473.015-.213.114-.385.266-.46l.078-.04.088.005c.629.03 1.096.041 1.61.041h2.58c.74 0 1.662 0 1.818-.033l.409-.088.004.417c0 .683.015 1.333.042 1.83z" fill="#2E7161"/></svg>