<svg width="23" height="24" viewBox="0 0 23 24" xmlns="http://www.w3.org/2000/svg"><title>global/logos/horizontal/ideal</title><g transform="translate(0 2)" fill="none"><path d="M.669.664h11.175c7.584 0 10.492 4.092 10.492 9.255 0 6.192-4.06 9.298-10.492 9.298H.669V.664zm1.083 1.07v16.413h10.092c6.092 0 9.407-2.805 9.407-8.228 0-5.572-3.593-8.185-9.407-8.185H1.752z" fill="#000"/><path fill="#000" d="M3.106 11.126h3.23v5.682h-3.23z"/><ellipse fill="#000" cx="4.721" cy="8.264" rx="2.008" ry="1.984"/><path d="M13.111 9.192v.92H10.81V6.42h2.229v.92H11.74v.427h1.227v.92H11.74v.505h1.371zm.403.92L14.64 6.42h1.324l1.126 3.694h-.968l-.212-.715h-1.217l-.212.715h-.967v-.002zm1.452-1.633h.673l-.309-1.043h-.056l-.308 1.043zm2.592-2.06h.932v2.773h1.378c-.378-5.031-4.383-6.118-8.024-6.118h-3.88V6.42h.574c1.047 0 1.697.702 1.697 1.831 0 1.165-.635 1.86-1.697 1.86h-.575v6.699h3.881c5.917 0 7.978-2.716 8.051-6.7h-2.337V6.419zm-9.595.922v1.851h.575c.398 0 .766-.114.766-.94 0-.808-.41-.911-.766-.911h-.575z" fill="#D50072"/></g></svg>