<svg width="24" height="24" viewBox="0 0 24 24" xmlns="http://www.w3.org/2000/svg"><path d="M20.652 18.12c-.52 1.149-.767 1.662-1.436 2.677-.931 1.418-2.244 3.185-3.871 3.2-1.446.013-1.818-.94-3.78-.93-1.962.01-2.373.946-3.82.933-1.627-.015-2.87-1.61-3.803-3.029-2.604-3.966-2.877-8.619-1.27-11.092 1.14-1.76 2.942-2.787 4.637-2.787 1.725 0 2.808.945 4.235.945 1.383 0 2.226-.947 4.22-.947 1.508 0 3.106.821 4.243 2.238-3.728 2.045-3.122 7.368.645 8.792zM15.069 4.048C14.19 5.173 12.682 6.045 11.223 6c-.266-1.45.418-2.943 1.246-3.95C13.383.942 14.946.091 16.282 0c.227 1.515-.394 2.998-1.213 4.048z" fill="#151922"/></svg>