<svg width="79" height="96" viewBox="0 0 79 96" xmlns="http://www.w3.org/2000/svg"><title>global/illustrations/features/lightning-speed</title><g fill="none"><path d="M79.1 23.2l-2.9 2.9-2.6-2.6-2.7 2.6-2.9-2.9 2.7-2.6-2.7-2.7 2.9-2.9 2.7 2.7 2.6-2.7 2.9 2.9-2.6 2.7 2.6 2.6zm-65 66l-2.9 2.9-2.6-2.6-2.7 2.6L3 89.2l2.7-2.6L3 83.9 5.9 81l2.7 2.7 2.6-2.7 2.9 2.9-2.6 2.7 2.6 2.6z" fill="#D0D1D2"/><path d="M59.45 52.297L74 36.554H43.727L54.576 11H16.455L0 56.743h25.788L19.06 96l17.567-19.008A20.037 20.037 0 0 1 36 71.776L25.283 83.374l5.249-30.63H5.69L19.267 15h29.265L37.684 40.554h27.173L54.205 52.08a20.257 20.257 0 0 1 5.246.218z" fill="#151922"/><path d="M56 88c8.837 0 16-7.163 16-16s-7.163-16-16-16-16 7.163-16 16 7.163 16 16 16zm1.3-24h-2.7v-4h2.7v4zm6.7 6.7h4v2.7h-4v-2.7zM52 72c0-2.2 1.8-4 4-4 .6 0 1.2.2 1.7.4l5.9-5.9 1.9 1.9-5.9 5.9c.2.5.4 1.1.4 1.7 0 2.2-1.8 4-4 4s-4-1.8-4-4zm-2.6-4.7l-2.8-2.8 1.9-1.9 2.8 2.8-1.9 1.9zm-5.4 6v-2.7h4v2.7h-4z" fill="#F64F64"/></g></svg>