<svg width="88" height="96" viewBox="0 0 88 96" xmlns="http://www.w3.org/2000/svg"><title>global/illustrations/features/military-grade-encryption</title><g fill="none" fill-rule="evenodd"><path d="M84 0h4v30.81l-4 1.59V0zm0 37.606L88 36v18.018l-4 1.605V37.606zm0 22.8l4-1.606v18.018l-4 1.605V60.406z" fill="#D0D1D2"/><path d="M0 39l40 16 40-16v18L40 73 0 57V39zm0 23l40 16 40-16v18L40 96 0 80V62zM0 0h80v34L40 50 0 34V0zm4 44.908v9.384l36 14.4 36-14.4v-9.384l-36 14.4-36-14.4zm0 32.384l36 14.4 36-14.4v-9.384l-36 14.4-36-14.4v9.384zM4 4v27.292l36 14.4 36-14.4V4H4z" fill="#151922" fill-rule="nonzero"/><path fill="#F64F64" d="M40 32.046L30.73 37l1.77-10.492-7.5-7.431 10.365-1.53L40 8l4.635 9.546L55 19.077l-7.5 7.43L49.27 37z"/></g></svg>