<svg width="104" height="96" viewBox="0 0 104 96" xmlns="http://www.w3.org/2000/svg"><title>global/illustrations/features/mobile-vpn</title><g fill="none" fill-rule="evenodd"><path d="M76 18v-5a1 1 0 0 0-1-1h-3V8h3a5 5 0 0 1 5 5v5h-4zm20 12v-4h3a5 5 0 0 1 5 5v50a5 5 0 0 1-5 5H80v5a5 5 0 0 1-5 5H40h27a5.002 5.002 0 0 0 4.9-4H75a1 1 0 0 0 1-1v-5h15a5.002 5.002 0 0 0 4.9-4H99a1 1 0 0 0 1-1V31a1 1 0 0 0-1-1h-3zM27 8h18v4H27V8zm45 18h11v4H72v-4z" fill="#D0D1D2"/><path d="M58 70.169a18.403 18.403 0 0 0 4-1.791V81a1 1 0 0 0 1 1h28a1 1 0 0 0 1-1V23a1 1 0 0 0-1-1H63a1 1 0 0 0-1 1v13.622a18.403 18.403 0 0 0-4-1.79V23a5 5 0 0 1 5-5h5V5a1 1 0 0 0-1-1H5a1 1 0 0 0-1 1v86a1 1 0 0 0 1 1h62a1 1 0 0 0 1-1v-5h-5a5 5 0 0 1-5-5V70.169zM72 18h19a5 5 0 0 1 5 5v58a5 5 0 0 1-5 5H72v5a5 5 0 0 1-5 5H5a5 5 0 0 1-5-5V5a5 5 0 0 1 5-5h62a5 5 0 0 1 5 5v13zM35 88a5 5 0 1 1 0-10 5 5 0 0 1 0 10zm0-3a2 2 0 1 0 0-4 2 2 0 0 0 0 4zm42-7a2 2 0 1 1 0-4 2 2 0 0 1 0 4z" fill="#151922"/><path d="M52.5 67C44.492 67 38 60.508 38 52.5S44.492 38 52.5 38 67 44.492 67 52.5 60.508 67 52.5 67zm-1.8-13.2l-3.6-3.6-2.1 2.1 3.5 3.6 2.2 2.1 9.1-9.2-2.1-2.1-7 7.1z" fill="#F64F64" fill-rule="nonzero"/></g></svg>