<svg width="128" height="96" viewBox="0 0 128 96" xmlns="http://www.w3.org/2000/svg"><title>global/illustrations/features/multiple-devices</title><g fill="none" fill-rule="evenodd"><path d="M68 96h10a5.002 5.002 0 0 0 4.9-4H86a1 1 0 0 0 1-1v-5h28a5.002 5.002 0 0 0 4.9-4h3.1a1 1 0 0 0 1-1V13a1 1 0 0 0-1-1h-3V8h3a5 5 0 0 1 5 5v68a5 5 0 0 1-5 5H91v5a5 5 0 0 1-5 5H68zM82 8h16v4H82V8zM59 36h10v4H59v-4z" fill="#D0D1D2"/><path d="M83 79v3h32a1 1 0 0 0 1-1V5a1 1 0 0 0-1-1H65a1 1 0 0 0-1 1v23h14a5 5 0 0 1 5 5v8h-4v-8a1 1 0 0 0-1-1H50a1 1 0 0 0-1 1v58a1 1 0 0 0 1 1h28a1 1 0 0 0 1-1V79h4zm-38-2H5a5 5 0 0 1-5-5v-4a5 5 0 0 1 5-5h4.1a5.023 5.023 0 0 1-.1-1V13a5 5 0 0 1 5-5h46V5a5 5 0 0 1 5-5h50a5 5 0 0 1 5 5v76a5 5 0 0 1-5 5H83v5a5 5 0 0 1-5 5H50a5 5 0 0 1-5-5V77zm0-7h-5.667a1 1 0 0 1-.6-.2l-3.466-2.6a1 1 0 0 0-.6-.2H5a1 1 0 0 0-1 1v4a1 1 0 0 0 1 1h40v-3zm0-4h-4.667a1 1 0 0 1-.6-.2l-3.466-2.6a1 1 0 0 0-.6-.2H14a1 1 0 0 1-1-1V13a1 1 0 0 1 1-1h46v16H50a5 5 0 0 0-5 5v33zm19 23a2 2 0 1 1 0-4 2 2 0 0 1 0 4z" fill="#151922"/><path d="M85 75H75c-8.2 0-15-6.7-15-15 0-8.2 6.7-15 15-15h10c8.2 0 15 6.7 15 15s-6.7 15-15 15zM74 60.196c0 .882.063 3.653 1.386 5.375.944 1.217 2.645 2.309 5.06 2.309 3.044 0 6.13-2.037 6.13-5.71 0-2.94-2.225-5.375-5.354-5.375-1.322 0-2.645.504-3.632 1.68.126-2.163 1.596-4.368 4.2-4.368.797 0 2.162.336 3.001.798l1.218-3.023c-1.26-.567-2.792-.882-4.178-.882C76.876 51 74 54.8 74 60.196zm3.59 1.994c0-1.574 1.365-2.52 2.792-2.52 1.617 0 2.772 1.03 2.772 2.541 0 1.47-1.218 2.604-2.75 2.604-1.47 0-2.814-1.113-2.814-2.625z" fill="#F64F64" fill-rule="nonzero"/></g></svg>