<svg width="158" height="38" viewBox="0 0 158 38" xmlns="http://www.w3.org/2000/svg"><title>horizontal</title><g fill="none"><path d="M57.407 12.644l7.085 12.007V12.643h2.993v19.054h-2.394l-7.285-12.405v12.405h-3.093V12.644h2.695-.001zm25.547 14.005c0 2.98-1.996 5.364-5.888 5.364-3.89 0-5.787-2.284-5.787-5.363v-4.57c0-2.98 1.995-5.364 5.787-5.364 3.892 0 5.888 2.284 5.888 5.363v4.57zm-8.482-.199c0 1.987.898 2.98 2.594 2.98 1.797 0 2.595-1.092 2.595-2.98v-4.37c0-1.887-.799-2.98-2.595-2.98-1.796 0-2.594 1.093-2.594 2.98v4.371zm19.858-6.457c-.399-.298-.898-.397-1.397-.397-1.896 0-2.993 1.391-3.193 3.774v8.345h-3.293v-14.8h2.794l.2 2.483c.897-1.888 2.095-2.682 3.592-2.682.599 0 1.097.099 1.597.396l-.3 2.881zm10.678-1.986v-5.364h3.193v19.072h-2.795l-.2-1.39a5.007 5.007 0 0 1-3.99 1.589c-2.994 0-4.591-2.186-4.591-5.563v-4.073c0-3.476 1.597-5.562 4.79-5.562 1.297 0 2.595.396 3.593 1.29zm0 2.682a2.885 2.885 0 0 0-2.695-1.29c-1.696 0-2.495.991-2.495 3.078v3.973c0 1.987.799 2.98 2.396 2.98 1.097 0 2.095-.496 2.794-1.39v-7.351z" fill="#000"/><path d="M120.745 31.696h-4.386l-5.881-19.052h4.686l3.388 13.992 3.39-13.992h4.685l-5.88 19.053-.002-.001zm8.274-19.052v19.052h4.187v-6.45h2.892c3.588 0 5.682-2.382 5.682-6.252 0-3.97-2.193-6.351-5.982-6.351h-6.779zm6.68 9.328h-2.393v-5.855h2.392c1.297 0 1.895.794 1.895 2.877 0 2.084-.598 2.978-1.895 2.978h.001zm18.541 1.19V12.644h3.689v19.052h-2.892L148.46 20.78v10.916h-3.689V12.644h3.09l6.38 10.518zM14.725 15.76l1.79 2.872 3.88-9.31 6.07 14.757 2.486-4.457 7.661 17.034c3.482-3.961 5.471-9.012 5.471-14.36.2-11.489-9.052-21.094-20.693-21.292C9.75.805.2 10.014 0 21.604v.791c0 5.25 1.89 10.3 5.472 14.261l9.252-20.896z" fill="#0F6EAA"/></g></svg>