<svg width="102" height="96" viewBox="0 0 102 96" xmlns="http://www.w3.org/2000/svg"><g fill="none" fill-rule="evenodd"><path d="M16 65h39v4H16v-4zm0 10h25v4H16v-4zm0-20h25v4H16v-4z" fill="#D0D1D2"/><path d="M4 21h39.923L37 12H4v9zm52.025 4H4v62c0 2.976 2.029 5 5 5h84c2.971 0 5-2.024 5-5V25h-2.025a20.332 20.332 0 0 0-.199-4H102v66c0 5.187-3.822 9-9 9H9c-5.178 0-9-3.813-9-9V8h39l10 13h7.224a20.159 20.159 0 0 0-.2 4z" fill="#151922"/><path d="M76 40c-8.837 0-16-7.163-16-16S67.163 8 76 8s16 7.163 16 16-7.163 16-16 16zm-1.622-12.83h3.278c.132-1.232 1.078-2.068 2.024-2.75 1.408-1.034 2.398-2.398 2.398-4.224 0-2.992-2.838-4.686-5.588-4.686-2.97 0-5.72 1.87-5.72 5.06 0 .352.044.726.088 1.078l3.41.286a5.116 5.116 0 0 1-.088-.814c0-1.342.88-2.442 2.288-2.442 1.034 0 2.024.55 2.024 1.694 0 2.464-4.158 2.992-4.158 6.16 0 .198.022.44.044.638zm-.396 3.96c0 1.166.968 2.112 2.112 2.112 1.21 0 2.156-.946 2.156-2.112a2.145 2.145 0 0 0-2.156-2.156c-1.144 0-2.112.968-2.112 2.156z" fill="#F64F64"/></g></svg>