<svg width="88" height="96" viewBox="0 0 88 96" xmlns="http://www.w3.org/2000/svg"><title>global/illustrations/features/onion-over-vpn</title><g fill="none"><path d="M77.814 61.159a12.528 12.528 0 0 0-3.776-2.87c.02-.68.01-1.365-.031-2.054-.514-8.736-3.51-13.363-12.05-21.2-.219-.202-1.683-1.541-2.116-1.94C52.781 26.599 48.806 21.763 46.168 15H41.81c-2.655 6.663-6.615 11.466-13.599 17.902-.447.413-1.965 1.803-2.2 2.019-8.556 7.864-11.555 12.524-12.017 21.29C13.141 72.416 25.754 84 44 84c2.062 0 4.068-.18 6-.52v4.058c-1.94.303-3.943.462-6 .462-20 0-35-13-34-32 1.194-22.687 22.263-24.205 29-45h10c6.606 20.925 27.665 22.31 29 45a27.16 27.16 0 0 1-.186 5.159zm-9.83-4.149c-1.4.057-2.74.344-3.984.823-.03-5.679-1.535-8.736-5.652-12.884-.796-.802-3.897-3.762-4.236-4.093-1.912-1.866-3.446-3.493-4.945-5.303A52.27 52.27 0 0 1 45.792 31h-3.584a52.297 52.297 0 0 1-3.364 4.54c-1.5 1.813-3.035 3.442-4.949 5.31-.344.337-3.443 3.297-4.239 4.098-4.157 4.19-5.653 7.267-5.656 13.054C23.994 68.41 32.22 76 44 76c2.326 0 4.513-.296 6.526-.851A7.955 7.955 0 0 0 50 78v1.39c-1.897.4-3.904.61-6 .61-14 0-24.007-9.381-24-22 .009-15.475 11-16 20-31h8c8.804 14.674 19.522 15.495 19.984 30.01zM44 72c-9 0-14.003-6-14-13 .005-11 11.996-14 12-20h4c.001 6 12 9 12 20 0 7-5 13-14 13zm1.246-25.831A17.77 17.77 0 0 1 44 44.665a17.726 17.726 0 0 1-1.246 1.504c-.562.612-1.165 1.206-2.01 1.997a156.183 156.183 0 0 1-1.003.932c-.397.369-.69.643-.973.915-3.371 3.232-4.767 5.616-4.768 8.989C33.998 64.29 37.708 68 44 68c6.29 0 10-3.71 10-9 0-3.372-1.395-5.755-4.768-8.987a83.882 83.882 0 0 0-.973-.916 741.384 741.384 0 0 0-1.002-.93c-.845-.792-1.449-1.386-2.011-1.998z" fill="#D0D1D2"/><path d="M84.72 72.414C86.834 67.776 88 62.595 88 57c0-32-30-36-33.005-57H33C30 21 0 25 0 57c0 23 19.7 39 44 39 3.505 0 6.915-.333 10.183-.972a8.062 8.062 0 0 1-3.355-3.487A50.322 50.322 0 0 1 44 92C21.204 92 4 77.145 4 57c0-12.923 4.402-20.5 15.375-30.918.586-.556 3.645-3.424 4.5-4.242 6.889-6.577 10.7-11.59 12.386-17.84h15.474c1.688 6.25 5.499 11.262 12.388 17.84.856.817 3.913 3.684 4.5 4.24C79.597 36.5 84 44.077 84 57c0 4.781-.97 9.264-2.752 13.322a8.013 8.013 0 0 1 3.472 2.092z" fill="#151922"/><path d="M79 74c2.2 0 4 1.8 4 4v10c0 2.2-1.8 4-4 4H58c-2.2 0-4-1.8-4-4V78c0-2.2 1.8-4 4-4h2v-4.5c0-4.7 3.8-8.5 8.5-8.5s8.5 3.8 8.5 8.5V74h2zm-6 0v-4.5c0-2.5-2-4.5-4.5-4.5S64 67 64 69.5V74h9zm-4.5 11a2.5 2.5 0 1 0 0-5 2.5 2.5 0 0 0 0 5z" fill="#F64F64"/></g></svg>