<svg width="128" height="96" viewBox="0 0 128 96" xmlns="http://www.w3.org/2000/svg"><title>global/illustrations/features/p2p-friendly</title><g fill="none" fill-rule="evenodd"><path d="M121 60.53V38a1 1 0 0 0-1-1h-3v-3c0-.342-.034-.677-.1-1h3.1a5 5 0 0 1 5 5v25.347a21.054 21.054 0 0 0-4-2.818zM85 29h-4V9a1 1 0 0 0-1-1h-3V5c0-.342-.034-.677-.1-1H80a5 5 0 0 1 5 5v20zm4-24h4v4h-4V5zm8 0h4v4h-4V5zm8 0h4v4h-4V5zm0 8h4v4h-4v-4zm0 8h4v4h-4v-4zM7 80h4v4H7v-4zm8 0h4v4h-4v-4zM7 64h4v4H7v-4zm0 8h4v4H7v-4zm16 8h4v4h-4v-4z" fill="#D0D1D2"/><path d="M90.877 85.024L88.93 86.8a1 1 0 0 1-.677.261l-16.84-.06a1 1 0 0 1-.051-.001h-1.948a1 1 0 0 1-.707-.293l-2.414-2.414a1 1 0 0 0-.707-.293H36a1 1 0 0 0-1 1v4a1 1 0 0 0 1 1h57.108a21.094 21.094 0 0 0 3.195 4H36a5 5 0 0 1-5-5v-4a5 5 0 0 1 5-5h5.1a5.023 5.023 0 0 1-.1-1V60H5a5 5 0 0 1-5-5v-5a5 5 0 0 1 5-5h1.1a5.023 5.023 0 0 1-.1-1V5a5 5 0 0 1 5-5h61a5 5 0 0 1 5 5v24h35a5 5 0 0 1 5 5v24.87a20.91 20.91 0 0 0-4-.776V34a1 1 0 0 0-1-1H46a1 1 0 0 0-1 1v45a1 1 0 0 0 1 1h20.586a1 1 0 0 1 .707.293l3.414 3.414a1 1 0 0 0 .707.293h15.172a1 1 0 0 0 .707-.293l2.793-2.793c.128 1.415.396 2.79.79 4.11zM41 53h-7.585c-.37-.048-.56-.145-.708-.293l-3.414-3.414a1 1 0 0 0-.707-.293H5a1 1 0 0 0-1 1v5a1 1 0 0 0 1 1h36v-3zm32-24V5a1 1 0 0 0-1-1H11a1 1 0 0 0-1 1v39a1 1 0 0 0 1 1h19.64a1 1 0 0 1 .713.298l3.353 3.404a1 1 0 0 0 .713.298H41V34a5 5 0 0 1 5-5h27z" fill="#151922"/><path d="M111 96c-9.389 0-17-7.611-17-17s7.611-17 17-17 17 7.611 17 17-7.611 17-17 17zm-2.11-15.476l-4.221-4.22-2.462 2.462 4.103 4.22 2.58 2.462 10.669-10.786-2.462-2.462-8.207 8.324z" fill="#F64F64" fill-rule="nonzero"/></g></svg>