<svg width="64" height="112" viewBox="0 0 64 112" xmlns="http://www.w3.org/2000/svg"><g fill="none" fill-rule="evenodd"><path fill="#E20305" d="M0 112h64V78H0z"/><path fill="#BA0017" d="M0 77.037h64v1.185H0z"/><path d="M48.001 98.215h5.593v1.389h-3.972v1.44h3.495v1.388h-3.495v1.49h4.025v1.39h-5.646v-7.097zm-8.147 3.569v-.02c0-2.018 1.59-3.67 3.866-3.67 1.399 0 2.236.445 2.924 1.094l-1.038 1.146c-.572-.497-1.155-.801-1.896-.801-1.25 0-2.15.993-2.15 2.21v.02c0 1.217.879 2.23 2.15 2.23.847 0 1.366-.324 1.949-.83l1.038 1.003c-.763.78-1.61 1.267-3.04 1.267-2.182 0-3.803-1.612-3.803-3.65zm-3.157 3.528h1.631v-7.097h-1.63v7.097zm-3.232-3.528v-.02c0-1.217-.932-2.231-2.245-2.231-1.314 0-2.225.993-2.225 2.21v.02c0 1.217.932 2.23 2.246 2.23s2.224-.993 2.224-2.21zm-6.175 0v-.02c0-2.018 1.663-3.67 3.95-3.67 2.289 0 3.93 1.631 3.93 3.649v.02c0 2.018-1.662 3.67-3.95 3.67-2.288 0-3.93-1.632-3.93-3.65zm-7.723-3.569h1.63v2.808h3.01v-2.808h1.63v7.097h-1.63v-2.849h-3.01v2.849h-1.63v-7.097zm-8.147 3.569v-.02c0-2.018 1.589-3.67 3.866-3.67 1.398 0 2.235.445 2.924 1.094l-1.038 1.146c-.572-.497-1.155-.801-1.897-.801-1.25 0-2.15.993-2.15 2.21v.02c0 1.217.88 2.23 2.15 2.23.848 0 1.367-.324 1.95-.83l1.038 1.003c-.763.78-1.61 1.267-3.04 1.267-2.183 0-3.803-1.612-3.803-3.65zm44.394-13.11c.731-.072 1.091-.426 1.039-1.004h-.657v-1.622h1.716v1.368c0 1.339-.7 1.876-1.96 1.896l-.138-.639zm-6.727 3.436l.964-1.105c.667.527 1.367.862 2.214.862.667 0 1.07-.253 1.07-.67v-.02c0-.395-.254-.598-1.494-.902-1.493-.365-2.457-.76-2.457-2.17v-.02c0-1.287 1.08-2.139 2.595-2.139 1.08 0 2.002.325 2.754.902l-.847 1.177c-.657-.436-1.303-.7-1.928-.7s-.954.274-.954.618v.02c0 .467.318.619 1.6.933 1.504.375 2.351.892 2.351 2.13v.02c0 1.409-1.122 2.2-2.722 2.2-1.123 0-2.256-.375-3.146-1.136zm-3.867-2.616c.795 0 1.25-.405 1.25-1.003v-.02c0-.67-.487-1.014-1.282-1.014h-1.62v2.037h1.652zm-3.284-3.446h3.39c.943 0 1.674.253 2.16.72.414.395.636.953.636 1.621v.02c0 1.147-.646 1.866-1.589 2.2l1.812 2.535h-1.907l-1.589-2.27h-1.281v2.27h-1.632v-7.096zm-3.158 3.568v-.02c0-1.217-.932-2.23-2.245-2.23-1.314 0-2.224.993-2.224 2.21v.02c0 1.216.932 2.23 2.245 2.23 1.313 0 2.224-.993 2.224-2.21zm-6.175 0v-.02c0-2.018 1.663-3.67 3.951-3.67 2.288 0 3.93 1.632 3.93 3.65v.02c0 2.018-1.663 3.67-3.951 3.67-2.288 0-3.93-1.632-3.93-3.65zm-4.492-2.129h-2.257v-1.44h6.144v1.44h-2.256v5.657H28.11v-5.657zm-5.212 5.657h1.63v-7.096H22.9v7.096zm-5.467-1.409c1.334 0 2.235-.862 2.235-2.119v-.02c0-1.257-.9-2.14-2.235-2.14h-1.26v4.279h1.26zm-2.892-5.687h2.892c2.33 0 3.94 1.53 3.94 3.528v.02c0 1.997-1.61 3.548-3.94 3.548H14.54v-7.096zm-7.098 0h5.593v1.389H9.063v1.439h3.495v1.39H9.063v1.49h4.025v1.388H7.442v-7.096z" fill="#FF0"/><path fill="#E20305" d="M0 77.037h64V0H0z"/><path d="M36.342 68.79h1.907v-1.968H36.33c.007.675-.011 1.322.012 1.969zM8.313 61.084c.517-.144.95.06 1.09.545a3.301 3.301 0 0 1-.004 1.897c-.148.49-.46.645-1.086.567v-3.01zM8.31 65.39c.19 0 .354.006.517-.002.263-.013.53-.015.788-.058.744-.125 1.256-.532 1.519-1.229a3.9 3.9 0 0 0 .215-1.083c.045-.597.015-1.189-.178-1.762-.235-.696-.724-1.14-1.452-1.317a3.777 3.777 0 0 0-.807-.104c-.727-.014-1.453-.006-2.18-.004-.063 0-.183.017-.183.017l.016 8.95H8.31V65.39zm8.545-2.29c.066-.675.076-1.349-.101-2.01-.192-.718-.665-1.162-1.416-1.325a4.06 4.06 0 0 0-1.133-.07c-.975.064-1.632.54-1.952 1.447a5.63 5.63 0 0 0-.288 1.316 18.44 18.44 0 0 0-.004 3.872c.052.48.15.952.346 1.4.272.618.738 1.015 1.417 1.16.48.104.969.116 1.453.047.682-.097 1.205-.422 1.488-1.056a2.62 2.62 0 0 0 .148-.408c.186-.709.19-1.43.145-2.154-.004-.055-.026-.109-.043-.178l-1.594-.054c.007.148.017.259.017.37-.002.441.01.883-.016 1.323-.014.22-.08.443-.16.65-.095.238-.3.352-.567.355-.363.004-.588-.127-.687-.468a3.525 3.525 0 0 1-.149-.851 70.112 70.112 0 0 1-.046-2.77c.003-.61.043-1.22.094-1.827.021-.243.101-.487.186-.719.084-.23.287-.317.533-.318a.53.53 0 0 1 .525.332c.033.073.066.15.079.227.036.23.079.46.088.692.015.367.004.735.004 1.139l1.594-.049c.025-.045.038-.058.04-.073zm26.814-1.839c-.178-.868-.712-1.387-1.572-1.516a5.11 5.11 0 0 0-1.012-.047c-.976.051-1.645.528-1.953 1.438-.116.341-.21.696-.255 1.052a17.284 17.284 0 0 0-.008 4.396c.055.423.16.836.348 1.225.29.603.772.967 1.444 1.094a4.47 4.47 0 0 0 1.183.055c.988-.077 1.58-.55 1.84-1.477.019-.07.036-.14.05-.21.135-.652.137-1.309.092-1.967-.003-.053-.026-.105-.039-.151-.542-.065-1.406-.076-1.587-.021v.166c.01.401.033.803.023 1.204-.009.311-.037.626-.178.916-.123.252-.325.372-.612.367-.292-.005-.522-.111-.622-.387a2.366 2.366 0 0 1-.146-.606 27.2 27.2 0 0 1-.083-1.587c-.024-1.1-.023-2.201.09-3.297.027-.267.112-.534.21-.787.082-.218.291-.29.524-.289.228.002.405.093.496.297.062.139.122.288.133.435.03.44.038.881.052 1.322.004.102 0 .204 0 .336l1.63-.05a5.528 5.528 0 0 0-.048-1.91zm-15.786 4.634c-.284.018-.55.012-.845.001l.414-3.32.431 3.32zm-3.05 2.898h1.692l.29-1.62h1.304l.315 1.618h1.871l-1.907-8.99h-1.802l-1.762 8.992zm10.598-5.822c.009-.16.021-.302.023-.444.007-.564-.025-1.124-.228-1.661-.215-.57-.625-.934-1.23-1.083a3.796 3.796 0 0 0-1.693-.014 1.811 1.811 0 0 0-1.313 1.004c-.1.2-.183.413-.248.627-.164.55-.233 1.116-.266 1.686-.068 1.148-.091 2.295.07 3.438.064.462.176.914.39 1.337.262.518.664.884 1.249 1.013.302.067.62.09.931.096.556.011.986-.223 1.276-.69.023-.038.059-.068.1-.114l.378.638c.25-.001.485.014.712-.008v-4.668c-.315-.051-2.253-.038-2.429.013-.046.35-.03 1.095.037 1.291h.879c-.014.437-.013.845-.044 1.251a2.275 2.275 0 0 1-.142.631c-.135.353-.429.5-.856.469-.318-.023-.5-.176-.585-.557a5.24 5.24 0 0 1-.14-.975c-.044-1.429-.079-2.859.041-4.285.022-.26.097-.52.177-.771.062-.194.215-.317.435-.349.35-.051.56.05.673.379.07.202.117.42.128.634.02.375.006.751.006 1.169l1.67-.057zm10.787-.522c.01-.28.05-.559.095-.836.022-.14.072-.28.128-.412.105-.248.307-.366.582-.37.285-.003.492.117.61.37.135.29.189.6.2.913.029.841.055 1.683.057 2.524.001.65-.022 1.3-.062 1.947a3.225 3.225 0 0 1-.168.796c-.093.283-.325.407-.633.405-.287-.003-.503-.122-.596-.383a2.741 2.741 0 0 1-.165-.699c-.044-.567-.06-1.137-.08-1.705-.01-.233-.002-.465-.002-.698h-.01c.014-.618.02-1.235.044-1.852zm-1.748 3.98c.053.528.182 1.044.44 1.52.278.517.712.833 1.298.952.474.095.952.099 1.429.037.777-.102 1.321-.511 1.623-1.216.067-.155.125-.315.173-.476.164-.559.23-1.133.264-1.71.066-1.158.066-2.313-.12-3.461-.075-.461-.198-.91-.428-1.326a1.892 1.892 0 0 0-1.309-.981 3.84 3.84 0 0 0-1.597-.007c-.613.126-1.07.465-1.334 1.015a4.887 4.887 0 0 0-.338.952c-.209.857-.215 1.735-.258 2.613.05.696.086 1.393.157 2.088zM19.297 63.26c.292 1.853.636 3.694.959 5.532h1.508c.314-1.955.739-3.883.936-5.845v1.951c0 .65-.002 1.3 0 1.952.003.646-.011 1.293.009 1.941h1.585v-8.95h-2.232l-1.055 5.891-.044.001-1.016-5.887H17.69v8.951h1.607V63.26zm33.653 5.533h1.507c.32-1.987.75-3.947.921-5.768v3.799c.001.655-.004 1.31.004 1.964h1.603c.049-.358.033-8.769-.015-8.944h-2.215l-1.057 5.897-.041-.003-1.017-5.892h-2.254v8.941h1.604v-5.385c.314 1.8.642 3.597.96 5.39zm-34.096-54.83c.04-.012.07-.028.101-.027.579.005 1.153.04 1.714.202.834.24 1.33.78 1.488 1.604.06.314.095.637.096.956.007 3.59.005 7.181.003 10.772 0 .418-.044.833-.173 1.236-.19.6-.586 1.014-1.187 1.24-.65.244-1.331.276-2.042.29V13.962zM8.072 56.834h10.77V37.5h.345c1.436-.018 2.873.047 4.308-.067 1.007-.08 1.997-.244 2.96-.547 2.57-.81 4.26-2.46 5.015-4.995.342-1.15.475-2.328.476-3.522 0-4.04.002-8.08-.002-12.12 0-.53-.017-1.06-.05-1.589-.06-.95-.237-1.879-.553-2.781-.634-1.816-1.797-3.194-3.565-4.071-.822-.408-1.693-.673-2.594-.85-1.17-.23-2.355-.296-3.546-.296-4.435.003-8.87.001-13.305.001H8.05c-.054.544-.03 49.992.022 50.173zM59.91 26.783H49.669v-.324c0-3.68.001-7.359-.003-11.038 0-.23-.025-.466-.076-.691-.14-.625-.554-.99-1.198-1.095a2.233 2.233 0 0 0-.982.047c-.531.154-.845.511-.98 1.024-.035.139-.048.284-.063.428-.01.095-.006.192-.006.289 0 10.86 0 21.721.002 32.582 0 .247.015.499.06.742.122.66.495 1.016 1.174 1.13.345.06.693.05 1.032-.04.449-.117.747-.396.898-.822.114-.323.142-.66.142-.998V35.47c.193-.058 9.887-.075 10.221-.021.007.05.02.104.02.158 0 4.185.007 8.37-.009 12.555-.005 1.36-.253 2.685-.811 3.941-.76 1.714-2.044 2.933-3.764 3.733-1.042.485-2.144.782-3.28.967-1.843.3-3.698.314-5.557.203-1.38-.081-2.74-.272-4.073-.635-1.24-.337-2.413-.82-3.467-1.551-1.685-1.17-2.704-2.761-3.145-4.716a10.826 10.826 0 0 1-.255-2.39v-32.03c0-1.297.2-2.56.715-3.764.619-1.445 1.625-2.576 2.971-3.427 1.142-.721 2.396-1.177 3.711-1.487a21.115 21.115 0 0 1 3.4-.49c1.18-.081 2.36-.1 3.54-.035 1.713.096 3.395.353 4.993 1 1.224.496 2.296 1.197 3.146 2.198.844.995 1.346 2.145 1.623 3.395.177.804.262 1.617.262 2.44v11.268z" fill="#FFF"/></g></svg>