<svg width="118" height="44" viewBox="0 0 118 44" xmlns="http://www.w3.org/2000/svg"><title>logo-pc-mag</title><g fill="none" fill-rule="evenodd"><path fill="#E20305" d="M0 44h36V0H0zm37 0h81V0H37z"/><path d="M96.78 24.678h7.075v1.823H98.83v1.888h4.422v1.823H98.83v1.955h5.092v1.822H96.78v-9.31zm-5.414-.16c1.769 0 2.827.586 3.698 1.437l-1.313 1.503c-.723-.652-1.46-1.05-2.398-1.05-1.581 0-2.72 1.303-2.72 2.9 0 1.622 1.112 2.952 2.72 2.952 1.072 0 1.728-.426 2.465-1.09l1.313 1.316c-.965 1.024-2.037 1.663-3.845 1.663-2.76 0-4.81-2.115-4.81-4.789 0-2.673 2.01-4.841 4.89-4.841zm-8.883 9.471h2.063v-9.31h-2.063v9.31zm-4.088-4.656c0-1.596-1.179-2.926-2.84-2.926-1.662 0-2.814 1.304-2.814 2.9v.026c0 1.597 1.179 2.927 2.84 2.927 1.662 0 2.814-1.304 2.814-2.9v-.027zM75.58 24.52c2.894 0 4.971 2.141 4.971 4.788 0 2.674-2.103 4.842-4.997 4.842-2.895 0-4.971-2.142-4.971-4.789 0-2.673 2.103-4.841 4.997-4.841zm-14.766.16h2.063v3.684h3.806v-3.685h2.063v9.311h-2.063v-3.737h-3.806v3.737h-2.063v-9.31zm-5.414-.16c1.769 0 2.827.585 3.698 1.436l-1.313 1.503c-.723-.652-1.46-1.05-2.399-1.05-1.58 0-2.72 1.303-2.72 2.9 0 1.622 1.113 2.952 2.72 2.952 1.073 0 1.73-.426 2.466-1.09l1.313 1.316c-.965 1.024-2.037 1.663-3.845 1.663-2.76 0-4.81-2.115-4.81-4.789 0-2.673 2.01-4.841 4.89-4.841zm52.491-11.137c.925-.093 1.38-.558 1.313-1.317h-.83V9.938h2.17v1.795c0 1.756-.884 2.46-2.479 2.487l-.174-.838zm-7.29 3.06c.844.691 1.729 1.13 2.8 1.13.844 0 1.354-.332 1.354-.878 0-.545-.322-.81-1.89-1.21-1.888-.479-3.108-.998-3.108-2.847 0-1.715 1.367-2.832 3.283-2.832 1.366 0 2.532.425 3.484 1.183l-1.072 1.543c-.831-.572-1.648-.918-2.439-.918-.79 0-1.206.36-1.206.812 0 .638.402.838 2.023 1.25 1.903.492 2.974 1.17 2.974 2.793 0 1.875-1.42 2.913-3.442 2.913a5.995 5.995 0 0 1-3.98-1.49l1.22-1.45zm-6.11-1.982c1.005 0 1.58-.532 1.58-1.317v-.027c0-.877-.616-1.33-1.62-1.33h-2.05v2.674h2.09zm-4.154-4.522h4.288c1.192 0 2.117.332 2.733.944.523.519.804 1.25.804 2.128 0 1.53-.817 2.474-2.01 2.913l2.291 3.325h-2.411l-2.01-2.98h-1.621v2.98h-2.064v-9.31zm-3.994 4.655c0-1.597-1.179-2.927-2.84-2.927-1.662 0-2.814 1.304-2.814 2.9v.027c0 1.596 1.18 2.926 2.84 2.926 1.662 0 2.814-1.304 2.814-2.9v-.026zM83.53 9.779c2.894 0 4.97 2.141 4.97 4.788 0 2.674-2.103 4.842-4.997 4.842-2.894 0-4.97-2.142-4.97-4.789 0-2.673 2.103-4.841 4.997-4.841zm-10.68 2.048h-2.854V9.938h7.771v1.888h-2.854v7.422H72.85v-7.422zm-6.592 7.422h2.063v-9.31H66.26v9.31zM59.344 17.4c1.688 0 2.827-1.13 2.827-2.78v-.026c0-1.65-1.139-2.807-2.827-2.807H57.75V17.4h1.594zm-3.657-7.461h3.657c2.948 0 4.984 2.008 4.984 4.628 0 2.647-2.036 4.682-4.984 4.682h-3.657v-9.31zm-8.979 0h7.075v1.822h-5.025v1.888h4.422v1.823h-4.422v1.955h5.092v1.822h-7.142v-9.31z" fill="#FF0"/><path d="M21.327 38.725v-1.029h-1.043c.004.353-.006.69.006 1.029h1.037zM5.048 34.698c.281-.075.517.031.593.285.099.328.1.663-.002.99-.08.257-.25.337-.591.297v-1.572zm-.001 2.25c.103 0 .192.003.28 0 .144-.008.289-.009.43-.032.403-.065.682-.277.825-.641a1.95 1.95 0 0 0 .117-.566 2.217 2.217 0 0 0-.097-.92c-.128-.364-.394-.596-.79-.689a2.134 2.134 0 0 0-.438-.054c-.395-.007-.79-.003-1.186-.002-.034 0-.1.009-.1.009l.01 4.675h.949v-1.78zm4.591-2.246c-.104-.375-.361-.608-.77-.693a2.296 2.296 0 0 0-.616-.036c-.53.033-.888.282-1.062.756a2.869 2.869 0 0 0-.156.687 9.258 9.258 0 0 0-.002 2.023c.028.25.081.497.188.731.148.324.401.531.77.607.262.054.527.06.79.024.372-.05.656-.22.81-.552.032-.069.06-.14.08-.213.102-.37.103-.747.079-1.125-.002-.029-.014-.057-.023-.093l-.867-.028c.004.077.01.135.009.193 0 .23.006.462-.009.691a1.1 1.1 0 0 1-.087.34c-.05.124-.162.184-.308.185-.197.002-.32-.066-.373-.244a1.776 1.776 0 0 1-.081-.445 35.192 35.192 0 0 1-.025-1.447c.001-.318.023-.637.051-.955.011-.127.055-.254.1-.375.047-.12.157-.166.29-.166.137 0 .232.058.286.173a.46.46 0 0 1 .043.119c.02.12.043.24.048.361.008.192.002.384.002.595l.867-.025c.013-.024.02-.03.021-.038.036-.353.041-.705-.055-1.05zm13.782-.703a2.89 2.89 0 0 0-.55-.025c-.531.027-.895.276-1.063.752a2.761 2.761 0 0 0-.138.55 8.678 8.678 0 0 0-.004 2.296c.03.22.087.437.189.64.157.315.42.505.785.571.213.039.427.045.643.029.537-.04.86-.287 1-.771.011-.037.02-.074.029-.11.072-.34.074-.684.05-1.028-.003-.028-.015-.055-.022-.079-.295-.034-.765-.04-.863-.01v.086c.005.21.018.42.012.629-.004.163-.02.327-.097.479-.066.131-.176.194-.332.192-.159-.003-.284-.059-.338-.203a1.196 1.196 0 0 1-.08-.316 13.656 13.656 0 0 1-.045-.83c-.013-.574-.012-1.15.049-1.722.015-.14.061-.279.114-.411.045-.114.159-.152.285-.151.124.001.22.048.27.155.034.072.066.15.072.227.017.23.02.46.029.69v.177c.298-.01.588-.018.885-.026.052-.35.044-.676-.025-.999-.097-.454-.387-.725-.855-.792zm-8.19 3.214l.226-1.735.234 1.734a4.41 4.41 0 0 1-.46 0zm-.278 1.513l.158-.846h.709l.171.845h1.017l-1.037-4.697h-.98l-.958 4.698h.92zm4.855-3.274c.004-.295-.013-.587-.123-.867a.897.897 0 0 0-.67-.566 2.147 2.147 0 0 0-.92-.007.98.98 0 0 0-.714.524c-.055.105-.1.216-.135.328-.09.287-.127.582-.145.88-.036.6-.05 1.2.038 1.796.035.242.096.478.213.7.142.27.36.46.679.528.164.035.337.047.506.05a.76.76 0 0 0 .694-.36c.013-.02.032-.036.054-.06.072.117.14.225.206.334.136-.001.264.007.387-.004v-2.439c-.171-.027-1.225-.02-1.32.007-.026.182-.017.572.02.674h.477c-.007.228-.007.442-.024.654a1.15 1.15 0 0 1-.077.33c-.073.184-.233.26-.465.244-.173-.012-.272-.092-.319-.29a2.638 2.638 0 0 1-.076-.51c-.024-.747-.043-1.494.023-2.239.012-.136.052-.272.096-.403.034-.1.117-.165.236-.182.19-.027.305.026.367.198.038.106.063.22.07.331.01.196.002.393.002.611l.908-.03c.005-.083.011-.157.012-.232zm5.905-.477a.92.92 0 0 1 .07-.215c.058-.13.167-.192.317-.194.155-.001.267.061.331.194.074.151.103.313.109.476.016.44.03.88.031 1.32 0 .338-.012.678-.033 1.017a1.66 1.66 0 0 1-.092.415c-.05.148-.177.213-.344.212-.156-.002-.274-.064-.324-.2a1.385 1.385 0 0 1-.09-.365c-.024-.297-.032-.594-.044-.891-.004-.122 0-.243 0-.365h-.006c.007-.323.01-.645.024-.967.006-.146.028-.292.051-.437zm-.763 3.31c.152.27.388.435.706.497.258.05.518.052.778.02.422-.054.718-.267.882-.636.037-.08.068-.164.094-.248.09-.292.126-.592.144-.894.036-.604.036-1.208-.066-1.808a2.055 2.055 0 0 0-.232-.693 1.026 1.026 0 0 0-.712-.512c-.29-.06-.58-.06-.868-.003-.334.065-.582.242-.726.53-.079.158-.14.327-.183.497-.114.448-.118.906-.141 1.365.028.364.047.728.085 1.09.03.277.1.546.24.795zm-13.928-2.45c.16.968.346 1.93.521 2.89h.82c.172-1.021.402-2.028.51-3.053v1.019c0 .34-.002.68 0 1.02.001.337-.006.675.005 1.014h.862v-4.676h-1.214l-.574 3.078h-.024l-.552-3.075h-1.227v4.676h.873v-2.893zm19.12 2.89c.174-1.037.408-2.061.501-3.013v1.985c0 .342-.002.685.002 1.027h.872c.026-.188.018-4.582-.008-4.673h-1.204l-.575 3.08-.023-.001-.553-3.078h-1.225v4.671h.872v-2.814c.17.941.349 1.88.522 2.817h.82zM9.788 7.947c.023-.006.04-.015.057-.015.326.003.65.023.965.115.47.137.75.444.838.913.034.179.054.363.054.544.004 2.044.003 4.087.002 6.13 0 .239-.025.475-.097.704-.108.341-.33.577-.669.706-.366.139-.75.157-1.15.165V7.946zm-.007 24.4V21.341h.195c.808-.01 1.618.027 2.426-.038a7.413 7.413 0 0 0 1.666-.311c1.447-.46 2.4-1.4 2.824-2.843a7.063 7.063 0 0 0 .268-2.004c0-2.3.001-4.6-.001-6.898 0-.302-.01-.604-.028-.904a5.944 5.944 0 0 0-.311-1.583c-.358-1.033-1.013-1.818-2.008-2.317a5.72 5.72 0 0 0-1.46-.484c-.66-.13-1.327-.168-1.998-.168H3.705c-.03.31-.017 28.452.012 28.555H9.78zM32.12 15.243h-5.767v-.185c0-2.094 0-4.188-.002-6.281 0-.132-.014-.266-.042-.394-.08-.356-.312-.564-.675-.623a1.244 1.244 0 0 0-.553.027c-.299.087-.476.29-.551.582-.02.08-.028.162-.036.244-.006.054-.004.11-.004.164 0 6.181 0 12.362.002 18.543 0 .141.008.284.033.423.069.375.28.578.662.643.194.034.39.028.58-.023a.698.698 0 0 0 .506-.468 1.71 1.71 0 0 0 .08-.568v-7.14c.109-.033 5.567-.043 5.755-.012.004.028.011.059.011.09 0 2.381.004 4.763-.004 7.145a5.574 5.574 0 0 1-.457 2.243c-.429.975-1.151 1.669-2.12 2.124a6.954 6.954 0 0 1-1.847.55c-1.037.17-2.082.18-3.128.116a11.11 11.11 0 0 1-2.294-.361c-.698-.192-1.359-.467-1.952-.883-.949-.666-1.523-1.572-1.771-2.684a6.225 6.225 0 0 1-.144-1.36V8.926c0-.738.113-1.457.403-2.142.348-.823.915-1.467 1.673-1.95.643-.412 1.35-.671 2.09-.847.629-.15 1.268-.234 1.914-.28a15.879 15.879 0 0 1 1.993-.019c.965.055 1.912.2 2.812.57.689.281 1.292.68 1.77 1.25.476.566.76 1.22.915 1.932.1.458.148.92.148 1.388v6.414z" fill="#FFF"/></g></svg>