<svg width="16" height="12" viewBox="0 0 16 12" xmlns="http://www.w3.org/2000/svg" xmlns:xlink="http://www.w3.org/1999/xlink"><defs><rect id="a" width="16" height="12" rx="1"/></defs><g fill="none" fill-rule="evenodd"><mask id="b" fill="#fff"><use xlink:href="#a"/></mask><use fill="#F1F1F1" xlink:href="#a"/><path d="M8 2.5C6.07 2.5 4.5 4.07 4.5 6S6.07 9.5 8 9.5s3.5-1.57 3.5-3.5S9.93 2.5 8 2.5zm0 6.417a2.9 2.9 0 0 1-1.907-.715l.008-.011c.481-.807.178-1.3-.045-1.523a2.075 2.075 0 0 0-.196-.165c-.181-.141-.302-.234-.302-.503 0-.127.071-.176.42-.295.24-.082.51-.175.686-.402.407-.526-.04-1.337-.134-1.495-.048-.08-.1-.156-.155-.229A2.9 2.9 0 0 1 7.9 3.09c.091.154.241.284.389.41.126.109.326.155.429.283.059.073.03.215.032.308.004.184.116.45.491.45a.79.79 0 0 0 .052-.001c.145-.01.599-.114 1.054-.264.357.484.57 1.08.57 1.725A2.92 2.92 0 0 1 8 8.917zM9.508 5c-.347 0-.702.2-.882.498a.844.844 0 0 0-.1.652c.114.44.125.699.054.989-.063.258-.07.632.29.81A.496.496 0 0 0 9.092 8c.267 0 .584-.2.869-.552.342-.421.544-.938.539-1.382C10.493 5.47 10.058 5 9.508 5z" fill="#B8B8B8" fill-rule="nonzero" mask="url(#b)"/><path d="M1 1v10h14V1H1zm0-1h14a1 1 0 0 1 1 1v10a1 1 0 0 1-1 1H1a1 1 0 0 1-1-1V1a1 1 0 0 1 1-1z" fill="#000" fill-rule="nonzero" opacity=".2"/></g></svg>