<svg width="132" height="60" viewBox="0 0 132 60" xmlns="http://www.w3.org/2000/svg"><path d="M126.874 32.712c0 1.336.697 2.036 2.041 2.049.799 0 1.306-.22 1.585-.48l-.406-1.478c-.101.13-.38.233-.66.233-.417 0-.658-.35-.658-.83v-3.32h1.458v-1.698h-1.458v-2.023h-1.902v2.01h-1.192v1.699h1.192v3.838zm-2.283 2.036v-5.395c0-1.426-.76-2.347-2.358-2.347a3.366 3.366 0 0 0-2.523 1.128v-.946h-1.902v7.56h1.902v-5.161c.33-.428.9-.856 1.648-.856.812 0 1.332.35 1.332 1.374v4.643h1.901zm-8.634 0v-7.56h-1.902v4.992c-.33.428-.913.843-1.648.843-.812 0-1.332-.337-1.332-1.361v-4.474h-1.901v5.239c0 1.439.748 2.32 2.333 2.32 1.179 0 2.04-.57 2.535-1.114v1.115h1.915zm-8.698 0V24.374h-2.143v4.007h-4.704v-4.007h-2.117v10.374h2.117v-4.474h4.704v4.474h2.143zm-17.65-2.036c0 1.336.698 2.036 2.042 2.049.799 0 1.306-.22 1.585-.48l-.406-1.478c-.101.13-.38.233-.66.233-.418 0-.659-.35-.659-.83v-3.32h1.459v-1.698h-1.46v-2.023h-1.9v2.01h-1.192v1.699h1.192v3.838zm-8.317-1.841c0 2.269 1.61 3.877 3.83 3.903 1.483 0 2.37-.675 2.852-1.349l-1.243-1.193a1.8 1.8 0 0 1-1.521.804c-1.141 0-1.953-.869-1.953-2.152 0-1.284.799-2.14 1.953-2.14.66 0 1.179.272 1.521.79l1.243-1.192c-.482-.674-1.37-1.336-2.853-1.336-2.219 0-3.829 1.608-3.829 3.865zm-1.407 3.877v-7.56h-1.902v4.992c-.33.428-.913.843-1.649.843-.811 0-1.33-.337-1.33-1.361v-4.474H73.1v5.239c0 1.439.748 2.32 2.333 2.32 1.18 0 2.042-.57 2.536-1.114v1.115h1.915zm-8.66 0V24.374H69.31v3.76a2.727 2.727 0 0 0-2.231-1.128c-1.839 0-3.196 1.466-3.196 3.865 0 2.476 1.382 3.877 3.196 3.877.887 0 1.66-.39 2.231-1.128v1.128h1.915zM69.31 32.18c-.317.493-1.002.843-1.623.843-1.09 0-1.838-.869-1.838-2.152 0-1.271.748-2.14 1.838-2.14.621 0 1.306.35 1.623.843v2.606zm-14.023-1.31c0 2.088 1.433 3.878 3.804 3.878 2.396 0 3.829-1.79 3.829-3.877 0-2.088-1.433-3.865-3.83-3.865-2.37 0-3.803 1.777-3.803 3.865zm5.668 0c0 1.155-.66 2.153-1.852 2.153-1.179 0-1.838-.985-1.838-2.152 0-1.142.66-2.14 1.838-2.14 1.192 0 1.852.998 1.852 2.14zm-10.588 3.89h1.915v-5.057c.304-.48 1.141-.842 1.775-.842.216 0 .38.013.52.039v-1.894c-.9 0-1.788.545-2.308 1.18v-.998h-1.902v7.572zm-7.163-.012v-3.826h2.535c2.156 0 3.348-1.49 3.348-3.267 0-1.79-1.18-3.281-3.348-3.281h-4.666v10.374h2.13zm3.715-7.093c0 .843-.647 1.361-1.484 1.361h-2.244V26.28h2.244c.837 0 1.484.519 1.484 1.375zm-23.85-.428c0-3.009-2.384-5.447-5.325-5.447H10.39v15.561h3.043v-4.668h4.31c2.942 0 5.326-2.438 5.326-5.446zm7.861 2.334c0 8.597-6.809 15.56-15.215 15.56C7.31 45.122.5 38.159.5 29.562.5 20.963 7.309 14 15.715 14c8.406 0 15.215 6.963 15.215 15.56zm-10.904-2.334c0 1.283-1.027 2.334-2.282 2.334h-4.311v-4.668h4.31c1.256 0 2.283 1.05 2.283 2.334z" fill="#DA552F"/></svg>