<svg width="128" height="96" viewBox="0 0 128 96" xmlns="http://www.w3.org/2000/svg"><g fill="none"><path d="M11 67h37v4H11v-4zm42 0h12v4H53v-4zm53 0h12v4h-12v-4zM65.2 36c-3.3 0-6-2.7-6-6s2.7-6 6-6 6 2.7 6 6-2.7 6-6 6zm0-8c-1.1 0-2 .9-2 2s.9 2 2 2 2-.9 2-2-.9-2-2-2zm9.9-7.9c-2.7-2.7-6.2-4.1-9.9-4.1s-7.2 1.5-9.9 4.1l-2.8-2.8c3.4-3.4 7.9-5.3 12.7-5.3 4.8 0 9.3 1.9 12.7 5.3l-2.8 2.8zm8.5-8.5C78.7 6.7 72.1 4 65.2 4c-6.9 0-13.5 2.7-18.4 7.6L44 8.8C49.7 3.1 57.2 0 65.2 0s15.5 3.1 21.2 8.8l-2.8 2.8z" fill="#D0D1D2"/><path d="M123 58c2.8 0 5 2.2 5 5v25c0 2.8-2.2 5-5 5h-18v-4h18c.5 0 1-.5 1-1V63c0-.5-.5-1-1-1H5c-.5 0-1 .5-1 1v25c0 .5.5 1 1 1h61v4H5c-2.8 0-5-2.2-5-5V63c0-2.8 2.2-5 5-5h16V9c0-3.3 2.7-6 6-6s6 2.7 6 6v49h62V9c0-3.3 2.7-6 6-6s6 2.7 6 6v49h16zm-98 0h4V9c0-1.1-.9-2-2-2s-2 .9-2 2v49zm74 0h4V9c0-1.1-.9-2-2-2s-2 .9-2 2v49zM13 84a2 2 0 1 1 0-4 2 2 0 0 1 0 4zm7 0a2 2 0 1 1 0-4 2 2 0 0 1 0 4zm7 0a2 2 0 1 1 0-4 2 2 0 0 1 0 4z" fill="#151922"/><path d="M97 78c2.2 0 4 1.8 4 4v10c0 2.2-1.8 4-4 4H76c-2.2 0-4-1.8-4-4V82c0-2.2 1.8-4 4-4h2v-4.5c0-4.7 3.8-8.5 8.5-8.5s8.5 3.8 8.5 8.5V78h2zm-6 0v-4.5c0-2.5-2-4.5-4.5-4.5S82 71 82 73.5V78h9zm-4.5 11a2.5 2.5 0 1 0 0-5 2.5 2.5 0 0 0 0 5z" fill="#F64F64"/></g></svg>