<svg width="117" height="96" viewBox="0 0 117 96" xmlns="http://www.w3.org/2000/svg"><title>global/illustrations/features/servers-and-locations</title><g fill="none"><path d="M32 29h13v4H32v-4zm62 0h23v4H94v-4zm0 18h11v4H94v-4zm0 18h23v4H94v-4zm0 18h11v4H94v-4zM9 47h71v4H9v-4zm23 18h13v4H32v-4zM9 83h71v4H9v-4z" fill="#D0D1D2"/><path d="M90 26v28c0 1.5-.5 2.9-1.5 4 .9 1.1 1.5 2.5 1.5 4v28c0 3.3-2.7 6-6 6H6c-3.3 0-6-2.7-6-6V62c0-1.5.5-2.9 1.5-4C.6 56.9 0 55.5 0 54V26c0-3.3 2.7-6 6-6h40.4c.3 1.4.7 2.7 1.3 4H6c-1.1 0-2 .9-2 2v28c0 1.1.9 2 2 2h78c1.1 0 2-.9 2-2V26c0-1-.7-1.8-1.7-2 .5-1.2.9-2.5 1.2-3.8 2.6.7 4.5 3 4.5 5.8zm-4 64V62c0-1.1-.9-2-2-2H6c-1.1 0-2 .9-2 2v28c0 1.1.9 2 2 2h78c1.1 0 2-.9 2-2zM11 33a2 2 0 1 1 0-4 2 2 0 0 1 0 4zm7 0a2 2 0 1 1 0-4 2 2 0 0 1 0 4zm7 0a2 2 0 1 1 0-4 2 2 0 0 1 0 4zM11 69a2 2 0 1 1 0-4 2 2 0 0 1 0 4zm7 0a2 2 0 1 1 0-4 2 2 0 0 1 0 4zm7 0a2 2 0 1 1 0-4 2 2 0 0 1 0 4z" fill="#151922"/><path d="M77.3 4.7c-6.2-6.2-16.4-6.2-22.6 0-6.2 6.2-6.2 16.4 0 22.6L66 38.6l11.3-11.3c6.3-6.2 6.3-16.4 0-22.6zM66 21c-2.8 0-5-2.2-5-5s2.2-5 5-5 5 2.2 5 5-2.2 5-5 5z" fill="#F64F64"/></g></svg>