<svg width="58" height="24" viewBox="0 0 58 24" xmlns="http://www.w3.org/2000/svg"><title>global/logos/horizontal/sofort</title><g fill="none"><path d="M47.902 3.617c.196.156.364.333.505.536.36.521.498 1.14.416 1.85h1.842l-2.777 7.665h2.774l2.778-7.665h3.564l.865-2.386h-9.967z" fill="#F47216"/><path d="M45.071 6.822c-.297.804-.83 1.3-1.844 1.3h-.529l.897-2.43h.51c.934 0 1.283.274.966 1.13m2.692-2.22c-.456-.66-1.384-.983-2.839-.985h-3.367l-3.643 10.048h3.094l1.324-3.537c.065.146.846 3.537.846 3.537h3.252s-.592-2.491-1.027-3.498c-.11-.259-.228-.549-.384-.792.92-.342 2.25-1.079 2.801-2.57.34-.918.32-1.658-.057-2.202m-31.088-.992H10.94c-.904 0-1.782 0-2.57.401-.786.402-1.481 1.205-2.016 2.81a3.19 3.19 0 0 0-.185.901c-.008.26.036.48.134.67.12.234.315.454.56.64.244.184.536.335.85.432l.379.108c.2.058.434.126.581.171.087.027.182.062.269.114.16.081.262.245.264.424a.685.685 0 0 1-.04.24c-.073.219-.185.359-.397.445-.211.086-.523.114-.996.117H1.87l-.934 2.575h6.318c.595 0 1.682 0 2.726-.446 1.045-.445 2.047-1.337 2.47-3.12.16-.67.11-1.215-.15-1.644-.263-.428-.737-.74-1.426-.938l-.337-.098-.497-.143a.668.668 0 0 1-.393-.284.563.563 0 0 1-.059-.451.658.658 0 0 1 .328-.396c.166-.091.385-.142.64-.142h3.672c.026-.038.05-.079.075-.116.671-.954 1.483-1.725 2.372-2.27" fill="#F47216"/><path d="M19.37 8.589c-.858 2.357-1.48 2.95-2.417 2.95h-.001c-.913-.001-1.232-.581-.379-2.927.638-1.75 1.463-2.871 2.462-2.871.951.001 1.169.554.334 2.848m2.942-4.037c-.5-.718-1.355-1.083-2.546-1.084a5.22 5.22 0 0 0-2.242.515c-1.014.482-1.932 1.286-2.682 2.352-.514.74-.928 1.544-1.232 2.392-.615 1.694-.608 3.069.021 3.974.357.512 1.1 1.123 2.608 1.125h.006c2.748 0 4.8-1.81 6.098-5.378.343-.944.796-2.706-.03-3.896m10.981-.941h-5.846c-1.634 0-2.851.83-3.425 2.386l-2.777 7.662h3.042l1.427-3.939 2.687.002.765-2.11-2.68-.001.432-1.222a.642.642 0 0 1 .62-.393l3.169.001c.026-.038.05-.079.076-.116.67-.954 1.62-1.725 2.51-2.27m2.658 4.978c-.857 2.357-1.479 2.95-2.415 2.95h-.002c-.913-.001-1.232-.581-.378-2.927.636-1.75 1.463-2.871 2.461-2.871h.002c.95.001 1.167.554.332 2.848m2.942-4.037c-.5-.718-1.355-1.083-2.546-1.084a5.22 5.22 0 0 0-2.242.515c-1.014.482-1.932 1.286-2.682 2.352a10.21 10.21 0 0 0-1.23 2.392c-.617 1.694-.61 3.069.02 3.974.357.512 1.098 1.123 2.608 1.125h.005c2.749 0 4.8-1.81 6.098-5.378.345-.944.797-2.706-.03-3.896" fill="#F47216"/><path d="M4.447 17.514c.037-.1.054-.19.052-.27a.321.321 0 0 0-.066-.199.4.4 0 0 0-.189-.121 1.165 1.165 0 0 0-.358-.043h-.51l-.47 1.296h.564c.145 0 .268-.018.368-.052a.946.946 0 0 0 .474-.355c.057-.081.103-.166.135-.256zM3.93 19.65a.79.79 0 0 0 .055-.31.376.376 0 0 0-.085-.23.491.491 0 0 0-.232-.142 1.46 1.46 0 0 0-.432-.05h-.598l-.515 1.418h.73c.14 0 .264-.014.37-.044a1.023 1.023 0 0 0 .708-.641l-.001-.001zm1.061-.035c-.12.333-.322.63-.588.864-.125.11-.263.206-.41.285a2.7 2.7 0 0 1-.465.197 3.06 3.06 0 0 1-.5.114c-.184.025-.37.037-.556.036h-1.32c-.085 0-.147-.025-.187-.075-.039-.05-.038-.131.003-.245l1.576-4.35a.47.47 0 0 1 .175-.244.43.43 0 0 1 .24-.075h1.248c.304 0 .553.025.746.077a1 1 0 0 1 .449.233c.107.104.17.236.188.395.02.16-.01.347-.089.563-.086.24-.226.456-.409.633a1.695 1.695 0 0 1-.653.393c.132.025.245.07.34.135a.65.65 0 0 1 .222.248.816.816 0 0 1 .08.357c.001.137-.029.29-.09.46v-.001zm3.868-2.541h-.004l-1.472 2.12h1.41l.066-2.12zm.954 3.66c-.003.092-.01.165-.022.22a.194.194 0 0 1-.075.12.345.345 0 0 1-.168.051c-.2.011-.401.012-.602.003a.63.63 0 0 1-.159-.022c-.034-.012-.055-.028-.063-.049a.2.2 0 0 1-.009-.08l.03-1.003H6.879l-.669.975a.495.495 0 0 1-.073.091.255.255 0 0 1-.101.058.735.735 0 0 1-.169.029c-.18.011-.361.01-.541-.004-.064-.007-.103-.027-.118-.056-.015-.03-.009-.071.018-.125.028-.055.073-.127.137-.216l3.135-4.427a.66.66 0 0 1 .092-.106.299.299 0 0 1 .12-.062.902.902 0 0 1 .197-.027c.225-.01.45-.01.676 0 .067.001.134.01.199.027.044.015.072.035.084.064a.279.279 0 0 1 .014.115l-.067 4.424zm5.144.023a.55.55 0 0 1-.512.362h-.43a.782.782 0 0 1-.222-.027.292.292 0 0 1-.145-.098.535.535 0 0 1-.09-.193 2.52 2.52 0 0 1-.058-.314l-.391-2.333a8.109 8.109 0 0 1-.086-.918h-.007c-.117.377-.243.75-.377 1.122l-.946 2.61a.176.176 0 0 1-.046.07.253.253 0 0 1-.091.052.713.713 0 0 1-.153.033 1.918 1.918 0 0 1-.449 0 .407.407 0 0 1-.126-.033c-.028-.014-.045-.03-.05-.052a.12.12 0 0 1 .006-.07l1.625-4.484a.527.527 0 0 1 .496-.362h.541c.097 0 .176.008.237.025.06.016.11.044.148.083a.38.38 0 0 1 .09.16c.021.068.039.152.05.252l.307 1.824.049.326c.016.107.03.214.044.32.024.207.046.415.065.623h.004c.12-.377.248-.75.384-1.122l.848-2.34a.163.163 0 0 1 .048-.07.299.299 0 0 1 .097-.054.602.602 0 0 1 .154-.033c.06-.007.137-.01.23-.01.086 0 .159.003.215.01a.317.317 0 0 1 .124.033c.026.015.042.033.048.053a.118.118 0 0 1-.007.07l-1.624 4.485zm4.997.204a.201.201 0 0 1-.048.075.241.241 0 0 1-.1.054.899.899 0 0 1-.175.033c-.072.008-.16.012-.265.012-.167 0-.284-.007-.352-.02-.069-.013-.114-.032-.136-.058a.17.17 0 0 1-.042-.092l-.643-2.368-.858 2.368a.182.182 0 0 1-.05.073.267.267 0 0 1-.1.052.83.83 0 0 1-.164.033c-.068.008-.15.012-.25.012-.098 0-.178-.004-.24-.012a.546.546 0 0 1-.144-.033c-.033-.014-.054-.03-.063-.052-.01-.02-.009-.045.001-.073l1.704-4.7a.17.17 0 0 1 .05-.074.28.28 0 0 1 .102-.05 1.03 1.03 0 0 1 .167-.031c.068-.008.15-.012.247-.012.1 0 .18.004.242.012a.67.67 0 0 1 .142.03c.034.014.055.03.062.051a.103.103 0 0 1-.003.074l-.77 2.124 2.223-2.121a.407.407 0 0 1 .215-.135.844.844 0 0 1 .167-.027c.166-.012.332-.01.497.004a.61.61 0 0 1 .148.033c.035.014.056.031.064.052a.098.098 0 0 1-.003.07.447.447 0 0 1-.083.134c-.04.046-.11.12-.21.22l-2.013 1.793.669 2.256c.018.105.026.176.025.21a.262.262 0 0 1-.013.083zm2.023.012a.163.163 0 0 1-.05.07.269.269 0 0 1-.1.05.954.954 0 0 1-.165.03 2.25 2.25 0 0 1-.25.012c-.08 0-.16-.003-.24-.012a.622.622 0 0 1-.144-.03c-.034-.014-.055-.03-.065-.05a.09.09 0 0 1 0-.07l1.708-4.713a.162.162 0 0 1 .05-.069.278.278 0 0 1 .103-.05c.045-.013.1-.023.167-.031a2.1 2.1 0 0 1 .246-.012c.1 0 .18.004.242.012.06.008.108.018.141.03.034.014.056.03.064.051.01.02.01.043 0 .07l-1.707 4.712zm5.618-.216a.55.55 0 0 1-.511.362h-.43a.78.78 0 0 1-.223-.027.29.29 0 0 1-.145-.098.528.528 0 0 1-.089-.193 2.59 2.59 0 0 1-.059-.314l-.39-2.333a8.012 8.012 0 0 1-.086-.918h-.008a24.08 24.08 0 0 1-.376 1.122l-.946 2.61a.176.176 0 0 1-.046.07.255.255 0 0 1-.092.052.704.704 0 0 1-.152.033c-.15.017-.3.017-.45 0a.41.41 0 0 1-.126-.033c-.028-.014-.044-.03-.05-.052a.12.12 0 0 1 .006-.07l1.625-4.484a.528.528 0 0 1 .496-.362h.541c.097 0 .177.008.237.025.06.016.11.044.148.083a.37.37 0 0 1 .09.16c.022.068.038.152.05.252l.307 1.824.05.326c.015.107.03.214.043.32l.035.314c.012.103.022.206.031.309h.003c.12-.376.249-.75.384-1.121l.849-2.342a.163.163 0 0 1 .048-.07.299.299 0 0 1 .096-.053.602.602 0 0 1 .154-.033 2.16 2.16 0 0 1 .23-.01c.086 0 .158.003.215.01a.319.319 0 0 1 .125.033c.026.015.042.033.047.053a.115.115 0 0 1-.006.07l-1.625 4.485zm6.829-3.86a1.97 1.97 0 0 1-.08.192.846.846 0 0 1-.073.13.238.238 0 0 1-.066.067.127.127 0 0 1-.067.02c-.033 0-.079-.024-.136-.07a1.586 1.586 0 0 0-.241-.15 1.997 1.997 0 0 0-.953-.22c-.241 0-.474.042-.698.125a2.299 2.299 0 0 0-.628.355 2.646 2.646 0 0 0-.518.551 3.05 3.05 0 0 0-.37.712c-.094.24-.148.496-.16.754a1.06 1.06 0 0 0 .12.545.78.78 0 0 0 .369.332c.163.075.36.112.59.112.24-.001.478-.054.697-.154l.42-1.157h-.94c-.047 0-.072-.029-.077-.087a.842.842 0 0 1 .07-.295c.025-.072.05-.132.074-.181a.631.631 0 0 1 .072-.118.29.29 0 0 1 .07-.065.133.133 0 0 1 .068-.022h1.678c.04 0 .075.008.102.022a.138.138 0 0 1 .06.064.189.189 0 0 1 .02.101.454.454 0 0 1-.03.137l-.72 1.986a.676.676 0 0 1-.114.203.47.47 0 0 1-.215.137 5.138 5.138 0 0 1-1.595.274c-.395 0-.73-.058-1.002-.172a1.307 1.307 0 0 1-.616-.497 1.462 1.462 0 0 1-.211-.795c-.003-.313.069-.667.212-1.063.147-.409.343-.775.583-1.1.24-.326.515-.602.823-.83a3.587 3.587 0 0 1 2.707-.658c.165.029.306.064.423.107.116.042.21.088.279.137a.5.5 0 0 1 .136.127.243.243 0 0 1 .02.152c-.018.1-.046.198-.083.292z" fill="#2F2E34"/></g></svg>