<?xml version="1.0" encoding="utf-8"?><svg width="288" height="240" viewBox="0 0 288 240" xmlns="http://www.w3.org/2000/svg" xmlns:xlink="http://www.w3.org/1999/xlink"><svg width="32" height="24" viewBox="0 0 32 24" id="ae" x="32" xmlns="http://www.w3.org/2000/svg"><g fill="none" fill-rule="evenodd"><path fill="#F7F7F7" d="M1 0h30a1 1 0 0 1 1 1v22a1 1 0 0 1-1 1H1a1 1 0 0 1-1-1V1a1 1 0 0 1 1-1z"/><path fill="#FF0001" d="M1 0h7v24H1a1 1 0 0 1-1-1V1a1 1 0 0 1 1-1z"/><path fill="#00732F" d="M8 0h23a1 1 0 0 1 1 1v7H8V0z"/><path fill="#000" d="M8 16h24v7a1 1 0 0 1-1 1H8v-8z"/><path fill="#000" fill-rule="nonzero" d="M1 1v22h30V1H1zm0-1h30a1 1 0 0 1 1 1v22a1 1 0 0 1-1 1H1a1 1 0 0 1-1-1V1a1 1 0 0 1 1-1z" opacity=".2"/></g></svg><svg width="32" height="24" viewBox="0 0 32 24" id="af" x="32" y="168" xmlns="http://www.w3.org/2000/svg"><title>global/flags/32x24/af</title><defs><path d="M1 0h30a1 1 0 0 1 1 1v22a1 1 0 0 1-1 1H1a1 1 0 0 1-1-1V1a1 1 0 0 1 1-1z" id="aba"/></defs><g fill="none" fill-rule="evenodd"><mask id="abb" fill="#fff"><use xlink:href="#aba"/></mask><use fill="#D32011" fill-rule="nonzero" xlink:href="#aba"/><path d="M1 0h30a1 1 0 0 1 1 1v22a1 1 0 0 1-1 1H1a1 1 0 0 1-1-1V1a1 1 0 0 1 1-1z" fill="#D32011" fill-rule="nonzero" mask="url(#abb)"/><path d="M16 9.997c1.104 0 1.998.105 1.998-.999a1.998 1.998 0 0 0-3.996 0c0 1.104.894 1 1.998 1z" fill="#FFF" mask="url(#abb)"/><path d="M16 7.781c.492 0 .89.492.89 0 0-.328-.296-.921-.89-1.781-.594.86-.89 1.453-.89 1.781 0 .492.398 0 .89 0z" fill="#FFF" mask="url(#abb)"/><path fill="#000" fill-rule="nonzero" mask="url(#abb)" d="M0 0h10v24H0z"/><path fill="#007A36" fill-rule="nonzero" mask="url(#abb)" d="M22 0h10v24H22z"/><path fill="#FFF" mask="url(#abb)" d="M13 14h6l1 1h-8zM13 10h6l1-1h-8zM15 12h1v2h-1zM16 13h1v1h-1z"/><path d="M13 9h6v5h-6V9zm3 1a2 2 0 0 0-2 2v2h4v-2a2 2 0 0 0-2-2zM18 7l1 1v1h-1zM13 8l1-1v2h-1z" fill="#FFF" mask="url(#abb)"/><path d="M12.044 4.045A7.963 7.963 0 0 1 16 3c1.44 0 2.79.38 3.956 1.045l-.832.832A5.972 5.972 0 0 0 16 4c-1.145 0-2.214.32-3.124.877l-.832-.832zM10 11a6.003 6.003 0 0 0 4.41 5.787A1.997 1.997 0 0 1 16 16c.648 0 1.225.309 1.59.787a6.003 6.003 0 0 0 2.122-10.501l.855-.855a8 8 0 1 1-9.135 0l.856.855A5.99 5.99 0 0 0 10 11zm6 7c.552 0 1 .034 1-.334S16.552 17 16 17s-1 .298-1 .666c0 .368.448.333 1 .333z" fill="#FFF" mask="url(#abb)"/><path fill="#FFF" mask="url(#abb)" d="M23 20h-4v-2h1.667zM9 20h4v-2h-1.667zM12.995 12.01L11.977 10 11 13zM19 12.01L20.018 10l.977 3z"/><path d="M1 1v22h30V1H1zm0-1h30a1 1 0 0 1 1 1v22a1 1 0 0 1-1 1H1a1 1 0 0 1-1-1V1a1 1 0 0 1 1-1z" fill="#000" fill-rule="nonzero" opacity=".2" mask="url(#abb)"/></g></svg><svg width="32" height="24" viewBox="0 0 32 24" id="al" y="24" xmlns="http://www.w3.org/2000/svg"><title>flags/32x24/al</title><g fill="none" fill-rule="evenodd"><path d="M1 0h30a1 1 0 0 1 1 1v22a1 1 0 0 1-1 1H1a1 1 0 0 1-1-1V1a1 1 0 0 1 1-1z" fill="#E41E20"/><path fill="#262626" d="M11.235 13.118L10 9h3l1.8 1.2L12 6l4 1v1.5V7l4-1-2.8 4.2L19 9h3l-1.235 4.118L17 15l2.375 1.188L16 19l-3.375-2.813L15 15z"/><path d="M1 1v22h30V1H1zm0-1h30a1 1 0 0 1 1 1v22a1 1 0 0 1-1 1H1a1 1 0 0 1-1-1V1a1 1 0 0 1 1-1z" fill="#000" fill-rule="nonzero" opacity=".2"/></g></svg><svg width="32" height="24" viewBox="0 0 32 24" id="ar" x="32" y="24" xmlns="http://www.w3.org/2000/svg"><title>flags/32x24/ar</title><g fill="none" fill-rule="evenodd"><path d="M1 0h30a1 1 0 0 1 1 1v22a1 1 0 0 1-1 1H1a1 1 0 0 1-1-1V1a1 1 0 0 1 1-1z" fill="#F7F7F7"/><path d="M0 17h32v6a1 1 0 0 1-1 1H1a1 1 0 0 1-1-1v-6z" fill="#75ADE0"/><path d="M16 16a4 4 0 1 1 0-8 4 4 0 0 1 0 8z" fill="#A85904"/><path d="M16 14a2 2 0 1 0 0-4 2 2 0 0 0 0 4z" fill="#F6B506" fill-rule="nonzero"/><path d="M1 0h30a1 1 0 0 1 1 1v6H0V1a1 1 0 0 1 1-1z" fill="#75ADE0"/><path d="M1 1v22h30V1H1zm0-1h30a1 1 0 0 1 1 1v22a1 1 0 0 1-1 1H1a1 1 0 0 1-1-1V1a1 1 0 0 1 1-1z" fill="#000" fill-rule="nonzero" opacity=".2"/></g></svg><svg width="32" height="24" viewBox="0 0 32 24" id="at" x="64" xmlns="http://www.w3.org/2000/svg"><title>flags/32x24/at</title><g fill="none" fill-rule="evenodd"><path d="M0 16h32v7a1 1 0 0 1-1 1H1a1 1 0 0 1-1-1v-7zM1 0h30a1 1 0 0 1 1 1v7H0V1a1 1 0 0 1 1-1z" fill="#ED2939"/><path d="M1 1v22h30V1H1zm0-1h30a1 1 0 0 1 1 1v22a1 1 0 0 1-1 1H1a1 1 0 0 1-1-1V1a1 1 0 0 1 1-1z" fill="#000" fill-rule="nonzero" opacity=".2"/></g></svg><svg width="32" height="24" viewBox="0 0 32 24" id="au" x="64" y="24" xmlns="http://www.w3.org/2000/svg"><title>flags/32x24/au</title><g fill="none" fill-rule="evenodd"><path d="M1 0h30a1 1 0 0 1 1 1v22a1 1 0 0 1-1 1H1a1 1 0 0 1-1-1V1a1 1 0 0 1 1-1z" fill="#273C83"/><path d="M1.076 0H1a1 1 0 0 0-1 1v1.233l5.955 3.868L0 9.968V12h1.46l6.79-4.409L15.04 12H16V9.643l-5.455-3.542L16 2.558V0h-.651L8.25 4.61 1.151 0h-.075z" fill="#F7F7F7"/><path d="M0 1.25V1C0 .787.067.589.18.426L8 5.504 16 .31v1.193L8.918 6.1 16 10.7v1.192L8 6.697l-8 5.195V10.7l7.082-4.6L0 1.503V1.25z" fill="#DC1E35"/><path fill="#F7F7F7" d="M10 4h6v4h-6v4H6V8H0V4h6V0h4z"/><path fill="#DC1E35" d="M9 5V0H7v5H0v2h7v5h2V7h7V5z"/><path d="M23.5 7a1.5 1.5 0 1 1 0-3 1.5 1.5 0 0 1 0 3zm-3 5a1.5 1.5 0 1 1 0-3 1.5 1.5 0 0 1 0 3zm3 8a1.5 1.5 0 1 1 0-3 1.5 1.5 0 0 1 0 3zm3.5-9a1 1 0 1 1 0-2 1 1 0 0 1 0 2zM8 20a2 2 0 1 1 0-4 2 2 0 0 1 0 4z" fill="#F7F7F7"/><path d="M1 1v22h30V1H1zm0-1h30a1 1 0 0 1 1 1v22a1 1 0 0 1-1 1H1a1 1 0 0 1-1-1V1a1 1 0 0 1 1-1z" fill="#000" fill-rule="nonzero" opacity=".2"/></g></svg><svg width="32" height="24" viewBox="0 0 32 24" id="az" y="48" xmlns="http://www.w3.org/2000/svg"><g fill="none" fill-rule="evenodd"><path fill="#F02532" d="M1 0h30a1 1 0 0 1 1 1v22a1 1 0 0 1-1 1H1a1 1 0 0 1-1-1V1a1 1 0 0 1 1-1z"/><path fill="#00B8E6" d="M1 0h30a1 1 0 0 1 1 1v7H0V1a1 1 0 0 1 1-1z"/><path fill="#3B9D2E" d="M0 16h32v7a1 1 0 0 1-1 1H1a1 1 0 0 1-1-1v-7z"/><path fill="#000" fill-rule="nonzero" d="M1 1v22h30V1H1zm0-1h30a1 1 0 0 1 1 1v22a1 1 0 0 1-1 1H1a1 1 0 0 1-1-1V1a1 1 0 0 1 1-1z" opacity=".2"/><path fill="#F5FFFD" d="M17.274 9.569a4.065 4.065 0 1 0 0 4.992 3.53 3.53 0 0 1-2.08.666c-1.87 0-3.387-1.416-3.387-3.162s1.516-3.162 3.387-3.162a3.53 3.53 0 0 1 2.08.666z"/><circle cx="18" cy="12" r="2" fill="#F5FFFD"/></g></svg><svg width="32" height="24" viewBox="0 0 32 24" id="ba" x="32" y="48" xmlns="http://www.w3.org/2000/svg"><g fill="none" fill-rule="evenodd"><path fill="#002397" d="M1 0h30a1 1 0 0 1 1 1v22a1 1 0 0 1-1 1H1a1 1 0 0 1-1-1V1a1 1 0 0 1 1-1z"/><path fill="#FFCA00" d="M9 0h16v24z"/><path fill="#FFF" d="M7 4a1 1 0 1 1 0-2 1 1 0 0 1 0 2zm13 20a1 1 0 0 1 2 0h-2zM4 0h2a1 1 0 1 1-2 0zm5 7a1 1 0 1 1 0-2 1 1 0 0 1 0 2zm2 3a1 1 0 1 1 0-2 1 1 0 0 1 0 2zm2 3a1 1 0 1 1 0-2 1 1 0 0 1 0 2zm2 3a1 1 0 1 1 0-2 1 1 0 0 1 0 2zm2 3a1 1 0 1 1 0-2 1 1 0 0 1 0 2zm2 3a1 1 0 1 1 0-2 1 1 0 0 1 0 2z"/><path fill="#000" fill-rule="nonzero" d="M1 1v22h30V1H1zm0-1h30a1 1 0 0 1 1 1v22a1 1 0 0 1-1 1H1a1 1 0 0 1-1-1V1a1 1 0 0 1 1-1z" opacity=".2"/></g></svg><svg width="32" height="24" viewBox="0 0 32 24" id="be" x="64" y="48" xmlns="http://www.w3.org/2000/svg"><title>flags/32x24/be</title><g fill="none" fill-rule="evenodd"><path d="M1 0h30a1 1 0 0 1 1 1v22a1 1 0 0 1-1 1H1a1 1 0 0 1-1-1V1a1 1 0 0 1 1-1z" fill="#FAE042"/><path d="M21 0h10a1 1 0 0 1 1 1v22a1 1 0 0 1-1 1H21V0z" fill="#ED2939"/><path d="M1 0h10v24H1a1 1 0 0 1-1-1V1a1 1 0 0 1 1-1z" fill="#000"/><path d="M1 1v22h30V1H1zm0-1h30a1 1 0 0 1 1 1v22a1 1 0 0 1-1 1H1a1 1 0 0 1-1-1V1a1 1 0 0 1 1-1z" fill="#000" fill-rule="nonzero" opacity=".2"/></g></svg><svg width="32" height="24" viewBox="0 0 32 24" id="bg" y="72" xmlns="http://www.w3.org/2000/svg"><title>flags/32x24/bg</title><g fill="none" fill-rule="evenodd"><path d="M1 0h30a1 1 0 0 1 1 1v22a1 1 0 0 1-1 1H1a1 1 0 0 1-1-1V1a1 1 0 0 1 1-1z" fill="#00966E"/><path d="M0 16h32v7a1 1 0 0 1-1 1H1a1 1 0 0 1-1-1v-7z" fill="#D62612"/><path d="M1 0h30a1 1 0 0 1 1 1v7H0V1a1 1 0 0 1 1-1z" fill="#F7F7F7"/><path d="M1 1v22h30V1H1zm0-1h30a1 1 0 0 1 1 1v22a1 1 0 0 1-1 1H1a1 1 0 0 1-1-1V1a1 1 0 0 1 1-1z" fill="#000" fill-rule="nonzero" opacity=".2"/></g></svg><svg width="32" height="24" viewBox="0 0 32 24" id="bo" x="32" y="72" xmlns="http://www.w3.org/2000/svg"><g fill="none" fill-rule="evenodd"><path fill="#FAE400" d="M1 0h30a1 1 0 0 1 1 1v22a1 1 0 0 1-1 1H1a1 1 0 0 1-1-1V1a1 1 0 0 1 1-1z"/><path fill="#007A31" d="M0 16h32v7a1 1 0 0 1-1 1H1a1 1 0 0 1-1-1v-7z"/><path fill="#D62717" d="M1 0h30a1 1 0 0 1 1 1v7H0V1a1 1 0 0 1 1-1z"/><path fill="#000" fill-rule="nonzero" d="M1 1v22h30V1H1zm0-1h30a1 1 0 0 1 1 1v22a1 1 0 0 1-1 1H1a1 1 0 0 1-1-1V1a1 1 0 0 1 1-1z" opacity=".2"/></g></svg><svg width="32" height="24" viewBox="0 0 32 24" id="br" x="64" y="72" xmlns="http://www.w3.org/2000/svg"><title>flags/32x24/br</title><g fill="none" fill-rule="evenodd"><path d="M1 0h30a1 1 0 0 1 1 1v22a1 1 0 0 1-1 1H1a1 1 0 0 1-1-1V1a1 1 0 0 1 1-1z" fill="#009B3A"/><path fill="#FEDF00" d="M3 12l13-9 13 9-13 9z"/><circle fill="#002776" cx="16" cy="12" r="5"/><path d="M11.864 9.19a5.027 5.027 0 0 1 1.504-1.442l7.63 4.405a4.975 4.975 0 0 1-.495 2.024l-8.639-4.988z" fill="#F7F7F7"/><path d="M1 1v22h30V1H1zm0-1h30a1 1 0 0 1 1 1v22a1 1 0 0 1-1 1H1a1 1 0 0 1-1-1V1a1 1 0 0 1 1-1z" fill="#000" fill-rule="nonzero" opacity=".2"/></g></svg><svg width="32" height="24" viewBox="0 0 32 24" id="ca" x="96" xmlns="http://www.w3.org/2000/svg"><title>flags/32x24/ca</title><g fill="none" fill-rule="evenodd"><path d="M1 0h30a1 1 0 0 1 1 1v22a1 1 0 0 1-1 1H1a1 1 0 0 1-1-1V1a1 1 0 0 1 1-1z" fill="#F7F7F7"/><path d="M23 0h8a1 1 0 0 1 1 1v22a1 1 0 0 1-1 1h-8V0zM17 15.5l3-1.5 1-4h-3l-2-4-2 4h-3l1 4 3 1.5V17h2zM1 0h8v24H1a1 1 0 0 1-1-1V1a1 1 0 0 1 1-1z" fill="#ED2939"/><path d="M1 1v22h30V1H1zm0-1h30a1 1 0 0 1 1 1v22a1 1 0 0 1-1 1H1a1 1 0 0 1-1-1V1a1 1 0 0 1 1-1z" fill="#000" fill-rule="nonzero" opacity=".2"/></g></svg><svg width="32" height="24" viewBox="0 0 32 24" id="ch" x="96" y="24" xmlns="http://www.w3.org/2000/svg"><title>flags/32x24/ch</title><g fill="none" fill-rule="evenodd"><path d="M5 0h22a1 1 0 0 1 1 1v22a1 1 0 0 1-1 1H5a1 1 0 0 1-1-1V1a1 1 0 0 1 1-1z" fill="#D52B1E"/><path fill="#FFF" d="M18 10V6h-4v4h-4v4h4v4h4v-4h4v-4z"/><path d="M5 1v22h22V1H5zm0-1h22a1 1 0 0 1 1 1v22a1 1 0 0 1-1 1H5a1 1 0 0 1-1-1V1a1 1 0 0 1 1-1z" fill="#000" fill-rule="nonzero" opacity=".2"/></g></svg><svg width="32" height="24" viewBox="0 0 32 24" id="cl" x="96" y="48" xmlns="http://www.w3.org/2000/svg"><title>flags/32x24/cl</title><g fill="none" fill-rule="evenodd"><path d="M1 0h30a1 1 0 0 1 1 1v22a1 1 0 0 1-1 1H1a1 1 0 0 1-1-1V1a1 1 0 0 1 1-1z" fill="#F7F7F7"/><path d="M0 12h32v11a1 1 0 0 1-1 1H1a1 1 0 0 1-1-1V12z" fill="#D52B1E"/><path d="M1 0h11v12H0V1a1 1 0 0 1 1-1z" fill="#0039A6"/><circle fill="#F7F7F7" cx="6" cy="6" r="2"/><path d="M1 1v22h30V1H1zm0-1h30a1 1 0 0 1 1 1v22a1 1 0 0 1-1 1H1a1 1 0 0 1-1-1V1a1 1 0 0 1 1-1z" fill="#000" fill-rule="nonzero" opacity=".2"/></g></svg><svg width="32" height="24" viewBox="0 0 32 24" id="cm" x="96" y="72" xmlns="http://www.w3.org/2000/svg"><title>global/flags/32x24/cm</title><defs><rect id="apa" width="32" height="24" rx="1"/></defs><g fill="none" fill-rule="evenodd"><mask id="apb" fill="#fff"><use xlink:href="#apa"/></mask><use fill="#D8D8D8" xlink:href="#apa"/><rect stroke="#979797" x=".5" y=".5" width="31" height="23" rx="1"/><g mask="url(#apb)" fill-rule="nonzero"><path fill="#007A5E" d="M0 0h10v24H0z"/><path fill="#CE1126" d="M10 0h12v24H10z"/><path fill="#FCD116" d="M22 0h10v24H22z"/></g><path fill="#FFF" mask="url(#apb)" d="M20 10.899h-3.04L16 8.019l-.96 2.88H12l2.48 1.84-.96 2.88 2.48-1.76 2.48 1.76-.96-2.88z"/><path d="M1 1v22h30V1H1zm0-1h30a1 1 0 0 1 1 1v22a1 1 0 0 1-1 1H1a1 1 0 0 1-1-1V1a1 1 0 0 1 1-1z" fill="#000" fill-rule="nonzero" opacity=".2" mask="url(#apb)"/></g></svg><svg width="32" height="24" viewBox="0 0 32 24" id="co" y="96" xmlns="http://www.w3.org/2000/svg"><g fill="none" fill-rule="evenodd"><path fill="#FCD30F" d="M1 0h30a1 1 0 0 1 1 1v22a1 1 0 0 1-1 1H1a1 1 0 0 1-1-1V1a1 1 0 0 1 1-1z"/><path fill="#CF0820" d="M0 18h32v5a1 1 0 0 1-1 1H1a1 1 0 0 1-1-1v-5z"/><path fill="#003594" d="M0 12h32v6H0z"/><path fill="#000" fill-rule="nonzero" d="M1 1v22h30V1H1zm0-1h30a1 1 0 0 1 1 1v22a1 1 0 0 1-1 1H1a1 1 0 0 1-1-1V1a1 1 0 0 1 1-1z" opacity=".2"/></g></svg><svg width="32" height="24" viewBox="0 0 32 24" id="cr" x="32" y="96" xmlns="http://www.w3.org/2000/svg"><title>flags/32x24/cr</title><g fill="none" fill-rule="evenodd"><path d="M1 0h30a1 1 0 0 1 1 1v22a1 1 0 0 1-1 1H1a1 1 0 0 1-1-1V1a1 1 0 0 1 1-1z" fill="#012B7F"/><path fill="#F7F7F7" d="M0 4h32v16H0z"/><path fill="#CE1127" d="M0 7h32v10H0z"/><circle fill="#F7F7F7" cx="10" cy="12" r="3"/><circle fill="#666" cx="10" cy="12" r="1"/><path d="M1 1v22h30V1H1zm0-1h30a1 1 0 0 1 1 1v22a1 1 0 0 1-1 1H1a1 1 0 0 1-1-1V1a1 1 0 0 1 1-1z" fill="#000" fill-rule="nonzero" opacity=".2"/></g></svg><svg width="32" height="24" viewBox="0 0 32 24" id="cu" x="64" y="96" xmlns="http://www.w3.org/2000/svg"><g fill="none" fill-rule="evenodd"><path fill="#FFF" d="M1 0h30a1 1 0 0 1 1 1v22a1 1 0 0 1-1 1H1a1 1 0 0 1-1-1V1a1 1 0 0 1 1-1z"/><path fill="#002A91" d="M1 0h30a1 1 0 0 1 1 1v4H0V1a1 1 0 0 1 1-1zm0 24c-.552 0-1-.56-1-1.25V19h32v3.75c0 .69-.448 1.25-1 1.25H1zM0 9h32v6H0z"/><path fill="#D00222" d="M.35 23.76A.998.998 0 0 1 0 23V1C0 .696.136.423.35.24L17.53 12 .35 23.76z"/><path fill="#FFF" d="M6 14l-2.351 1.236.449-2.618-1.902-1.854 2.628-.382L6 8l1.176 2.382 2.628.382-1.902 1.854.449 2.618z"/><path fill="#000" fill-rule="nonzero" d="M1 1v22h30V1H1zm0-1h30a1 1 0 0 1 1 1v22a1 1 0 0 1-1 1H1a1 1 0 0 1-1-1V1a1 1 0 0 1 1-1z" opacity=".2"/></g></svg><svg width="32" height="24" viewBox="0 0 32 24" id="cy" x="96" y="96" xmlns="http://www.w3.org/2000/svg"><title>flags/32x24/cy</title><g fill="none" fill-rule="evenodd"><path d="M1 0h30a1 1 0 0 1 1 1v22a1 1 0 0 1-1 1H1a1 1 0 0 1-1-1V1a1 1 0 0 1 1-1z" fill="#F7F7F7"/><path d="M19.237 18.712a.75.75 0 0 1-.474-1.424 9.301 9.301 0 0 0 1.981-.993c.74-.493 1.292-1.044 1.585-1.63a.75.75 0 1 1 1.342.67c-.427.854-1.156 1.583-2.095 2.209-.51.34-1.054.63-1.596.871a8.812 8.812 0 0 1-.743.297zm-6.474 0a8.812 8.812 0 0 1-.743-.297 10.777 10.777 0 0 1-1.596-.871c-.94-.626-1.668-1.355-2.095-2.209a.75.75 0 1 1 1.342-.67c.293.586.844 1.137 1.585 1.631a9.301 9.301 0 0 0 1.981.992.75.75 0 0 1-.474 1.424zM16 19a1 1 0 1 1 0-2 1 1 0 0 1 0 2z" fill="#445128" fill-rule="nonzero"/><path d="M24.335 4c.367 0 .534.26.365.594l-.543 1.071a2.315 2.315 0 0 1-.9.89l-1.085.537c-.332.164-.81.504-1.079.769l-.186.184c-.264.261-.216.602.122.77l1.085.536c.331.163.338.426 0 .593l-1.085.536c-.332.164-.9.297-1.265.297h.187c-.368 0-.875.207-1.143.472l-.187.185c-.264.26-.74.602-1.079.769l-1.084.536c-.332.164-.901.297-1.266.297h.187c-.367 0-.874.207-1.143.472l-.187.185c-.264.26-.77.376-1.106.265l-2.171-.715c-.348-.115-.76-.466-.93-.8L9.3 11.37c-.166-.328-.3-.89-.3-1.263v.21c0-.37.262-.8.6-.966l1.085-.536c.332-.164.901-.297 1.266-.297h-.187c.367 0 .796-.26.965-.594l.542-1.072c.166-.327.593-.593.961-.593h5.536c.365 0 .923-.13 1.261-.297l1.085-.536c.331-.164.81-.504 1.078-.769l.187-.185c.264-.26.778-.472 1.143-.472h-.187z" fill="#E7832C"/><path d="M1 1v22h30V1H1zm0-1h30a1 1 0 0 1 1 1v22a1 1 0 0 1-1 1H1a1 1 0 0 1-1-1V1a1 1 0 0 1 1-1z" fill="#000" fill-rule="nonzero" opacity=".2"/></g></svg><svg width="32" height="24" viewBox="0 0 32 24" id="cz" x="128" xmlns="http://www.w3.org/2000/svg"><title>flags/32x24/cz</title><g fill="none" fill-rule="evenodd"><path d="M1 0h30a1 1 0 0 1 1 1v22a1 1 0 0 1-1 1H1a1 1 0 0 1-1-1V1a1 1 0 0 1 1-1z" fill="#F7F7F7"/><path d="M0 12h32v11a1 1 0 0 1-1 1H1a1 1 0 0 1-1-1V12z" fill="#EE1C25"/><path d="M.332 23.744A.997.997 0 0 1 0 23V1C0 .705.128.44.332.256L15.529 12 .332 23.744z" fill="#0057BC"/><path d="M1 1v22h30V1H1zm0-1h30a1 1 0 0 1 1 1v22a1 1 0 0 1-1 1H1a1 1 0 0 1-1-1V1a1 1 0 0 1 1-1z" fill="#000" fill-rule="nonzero" opacity=".2"/></g></svg><svg width="32" height="24" viewBox="0 0 32 24" id="de" x="128" y="24" xmlns="http://www.w3.org/2000/svg"><title>flags/32x24/de</title><g fill="none" fill-rule="evenodd"><path d="M1 0h30a1 1 0 0 1 1 1v22a1 1 0 0 1-1 1H1a1 1 0 0 1-1-1V1a1 1 0 0 1 1-1z" fill="#ED2939"/><path d="M0 16h32v7a1 1 0 0 1-1 1H1a1 1 0 0 1-1-1v-7z" fill="#FFCE00"/><path d="M1 0h30a1 1 0 0 1 1 1v7H0V1a1 1 0 0 1 1-1z" fill="#000"/><path d="M1 1v22h30V1H1zm0-1h30a1 1 0 0 1 1 1v22a1 1 0 0 1-1 1H1a1 1 0 0 1-1-1V1a1 1 0 0 1 1-1z" fill="#000" fill-rule="nonzero" opacity=".2"/></g></svg><svg width="32" height="24" viewBox="0 0 32 24" id="dk" x="128" y="48" xmlns="http://www.w3.org/2000/svg"><title>flags/32x24/dk</title><g fill="none" fill-rule="evenodd"><path d="M1 0h30a1 1 0 0 1 1 1v22a1 1 0 0 1-1 1H1a1 1 0 0 1-1-1V1a1 1 0 0 1 1-1z" fill="#C60C30"/><path fill="#F7F7F7" d="M14 10V0h-4v10H0v4h10v10h4V14h18v-4z"/><path d="M1 1v22h30V1H1zm0-1h30a1 1 0 0 1 1 1v22a1 1 0 0 1-1 1H1a1 1 0 0 1-1-1V1a1 1 0 0 1 1-1z" fill="#000" fill-rule="nonzero" opacity=".2"/></g></svg><svg width="32" height="24" viewBox="0 0 32 24" id="do" x="128" y="72" xmlns="http://www.w3.org/2000/svg"><g fill="none" fill-rule="evenodd"><path fill="#FFF" d="M1 0h30a1 1 0 0 1 1 1v22a1 1 0 0 1-1 1H1a1 1 0 0 1-1-1V1a1 1 0 0 1 1-1z"/><path fill="#002D63" d="M1 0h13v10H0V1a1 1 0 0 1 1-1z"/><path fill="#CF001B" d="M1 24a1 1 0 0 1-1-1v-9h14v10H1zM31 0a1 1 0 0 1 1 1v9H18V0h13z"/><path fill="#002D63" d="M31 24H18V14h14v9a1 1 0 0 1-1 1z"/><path fill="#000" fill-rule="nonzero" d="M1 1v22h30V1H1zm0-1h30a1 1 0 0 1 1 1v22a1 1 0 0 1-1 1H1a1 1 0 0 1-1-1V1a1 1 0 0 1 1-1z" opacity=".2"/><circle cx="16" cy="12" r="2" fill="#148432"/><circle cx="16" cy="12" r="1" fill="#FFF"/></g></svg><svg width="32" height="24" viewBox="0 0 32 24" id="ec" x="128" y="96" xmlns="http://www.w3.org/2000/svg"><g fill="none" fill-rule="evenodd"><path fill="#FCD30F" d="M1 0h30a1 1 0 0 1 1 1v22a1 1 0 0 1-1 1H1a1 1 0 0 1-1-1V1a1 1 0 0 1 1-1z"/><path fill="#CF0820" d="M0 18h32v5a1 1 0 0 1-1 1H1a1 1 0 0 1-1-1v-5z"/><path fill="#003594" d="M0 12h32v6H0z"/><path fill="#000" fill-rule="nonzero" d="M1 1v22h30V1H1zm0-1h30a1 1 0 0 1 1 1v22a1 1 0 0 1-1 1H1a1 1 0 0 1-1-1V1a1 1 0 0 1 1-1z" opacity=".2"/><path fill="#FCD30F" d="M13 12h6v1a2 2 0 0 1-2 2h-2a2 2 0 0 1-2-2v-1z"/><rect width="4" height="7" x="14" y="10" fill="#12A9D3" rx="2"/><path fill="#019E4A" d="M14 14h4v1a2 2 0 1 1-4 0v-1z"/><path fill="#533820" d="M16 12l-3-3h6z"/></g></svg><svg width="32" height="24" viewBox="0 0 32 24" id="ee" y="120" xmlns="http://www.w3.org/2000/svg"><title>flags/32x24/ee</title><g fill="none" fill-rule="evenodd"><path d="M1 0h30a1 1 0 0 1 1 1v22a1 1 0 0 1-1 1H1a1 1 0 0 1-1-1V1a1 1 0 0 1 1-1z" fill="#333"/><path d="M0 16h32v7a1 1 0 0 1-1 1H1a1 1 0 0 1-1-1v-7z" fill="#F7F7F7"/><path d="M1 0h30a1 1 0 0 1 1 1v7H0V1a1 1 0 0 1 1-1z" fill="#7BADDE"/><path d="M1 1v22h30V1H1zm0-1h30a1 1 0 0 1 1 1v22a1 1 0 0 1-1 1H1a1 1 0 0 1-1-1V1a1 1 0 0 1 1-1z" fill="#000" fill-rule="nonzero" opacity=".2"/></g></svg><svg width="32" height="24" viewBox="0 0 32 24" id="eg" x="32" y="120" xmlns="http://www.w3.org/2000/svg"><title>flags/32x24/eg</title><g fill="none" fill-rule="evenodd"><path d="M1 0h30a1 1 0 0 1 1 1v22a1 1 0 0 1-1 1H1a1 1 0 0 1-1-1V1a1 1 0 0 1 1-1z" fill="#F7F7F7"/><path d="M1 0h30a1 1 0 0 1 1 1v6H0V1a1 1 0 0 1 1-1z" fill="#CE1126"/><path d="M0 17h32v6a1 1 0 0 1-1 1H1a1 1 0 0 1-1-1v-6z" fill="#000"/><path d="M13 8h6v6l-3 2-3-2V8zm2 2v3h2v-3h-2z" fill="#C09300"/><path d="M1 1v22h30V1H1zm0-1h30a1 1 0 0 1 1 1v22a1 1 0 0 1-1 1H1a1 1 0 0 1-1-1V1a1 1 0 0 1 1-1z" fill="#000" fill-rule="nonzero" opacity=".2"/></g></svg><svg width="32" height="24" viewBox="0 0 32 24" id="es" x="64" y="120" xmlns="http://www.w3.org/2000/svg"><title>flags/32x24/es</title><g fill="none" fill-rule="evenodd"><path d="M1 0h30a1 1 0 0 1 1 1v22a1 1 0 0 1-1 1H1a1 1 0 0 1-1-1V1a1 1 0 0 1 1-1z" fill="#FFC400"/><path d="M0 17h32v6a1 1 0 0 1-1 1H1a1 1 0 0 1-1-1v-6zM1 0h30a1 1 0 0 1 1 1v6H0V1a1 1 0 0 1 1-1z" fill="#C60B1E"/><path d="M9 10V8h4v2h1v4l-3 2-3-2v-4h1zm7 0a1 1 0 0 1 1 1v3a1 1 0 0 1-2 0v-3a1 1 0 0 1 1-1zM6 10a1 1 0 0 1 1 1v3a1 1 0 0 1-2 0v-3a1 1 0 0 1 1-1zm4 1v2h2v-2h-2z" fill="#91443A"/><path d="M1 1v22h30V1H1zm0-1h30a1 1 0 0 1 1 1v22a1 1 0 0 1-1 1H1a1 1 0 0 1-1-1V1a1 1 0 0 1 1-1z" fill="#000" fill-rule="nonzero" opacity=".2"/></g></svg><svg width="32" height="24" viewBox="0 0 32 24" id="fi" x="96" y="120" xmlns="http://www.w3.org/2000/svg"><title>flags/32x24/fi</title><g fill="none" fill-rule="evenodd"><path d="M1 0h30a1 1 0 0 1 1 1v22a1 1 0 0 1-1 1H1a1 1 0 0 1-1-1V1a1 1 0 0 1 1-1z" fill="#F7F7F7"/><path fill="#003580" d="M14 10h18v4H14v10h-4V14H0v-4h10V0h4z"/><path d="M1 1v22h30V1H1zm0-1h30a1 1 0 0 1 1 1v22a1 1 0 0 1-1 1H1a1 1 0 0 1-1-1V1a1 1 0 0 1 1-1z" fill="#000" fill-rule="nonzero" opacity=".2"/></g></svg><svg width="32" height="24" viewBox="0 0 32 24" id="fr" x="128" y="120" xmlns="http://www.w3.org/2000/svg"><title>flags/32x24/fr</title><g fill="none" fill-rule="evenodd"><path d="M1 0h30a1 1 0 0 1 1 1v22a1 1 0 0 1-1 1H1a1 1 0 0 1-1-1V1a1 1 0 0 1 1-1z" fill="#F7F7F7"/><path d="M21 0h10a1 1 0 0 1 1 1v22a1 1 0 0 1-1 1H21V0z" fill="#ED2939"/><path d="M1 0h10v24H1a1 1 0 0 1-1-1V1a1 1 0 0 1 1-1z" fill="#002395"/><path d="M1 1v22h30V1H1zm0-1h30a1 1 0 0 1 1 1v22a1 1 0 0 1-1 1H1a1 1 0 0 1-1-1V1a1 1 0 0 1 1-1z" fill="#000" fill-rule="nonzero" opacity=".2"/></g></svg><svg width="32" height="24" viewBox="0 0 32 24" id="gb" x="160" xmlns="http://www.w3.org/2000/svg"><title>flags/32x24/gb</title><g fill="none" fill-rule="evenodd"><path d="M1 0h30a1 1 0 0 1 1 1v22a1 1 0 0 1-1 1H1a1 1 0 0 1-1-1V1a1 1 0 0 1 1-1z" fill="#273C83"/><path d="M2.302 0H1a1 1 0 0 0-1 1v3.467L11.91 12.2 0 19.936V23a1 1 0 0 0 1 1h1.922L16.5 15.182 30.078 24H31a1 1 0 0 0 1-1v-3.714l-10.91-7.085L32 5.116V1a1 1 0 0 0-1-1h-.302L16.5 9.22 2.302 0z" fill="#F7F7F7"/><path d="M32 1.268v2.384l-13.664 8.874L32 21.399V23a.996.996 0 0 1-.228.636L16.5 13.718.726 23.962A1 1 0 0 1 0 23v-.951l14.664-9.523L0 3.003V1C0 .88.021.764.06.657L16.5 11.334 32 1.268z" fill="#DC1E35"/><path fill="#F7F7F7" d="M20 8V0h-8v8H0v8h12v8h8v-8h12V8z"/><path fill="#DC1E35" d="M18 10h14v4H18v10h-4V14H0v-4h14V0h4z"/><path d="M1 1v22h30V1H1zm0-1h30a1 1 0 0 1 1 1v22a1 1 0 0 1-1 1H1a1 1 0 0 1-1-1V1a1 1 0 0 1 1-1z" fill="#000" fill-rule="nonzero" opacity=".2"/></g></svg><svg width="32" height="24" viewBox="0 0 32 24" id="ge" x="160" y="24" xmlns="http://www.w3.org/2000/svg"><title>flags/32x24/ge</title><g fill="none" fill-rule="evenodd"><path d="M1 0h30a1 1 0 0 1 1 1v22a1 1 0 0 1-1 1H1a1 1 0 0 1-1-1V1a1 1 0 0 1 1-1z" fill="#F7F7F7"/><path fill="#F00" d="M18 10h14v4H18v10h-4V14H0v-4h14V0h4z"/><path d="M8 5h2v2H8v2H6V7H4V5h2V3h2v2zm18 0h2v2h-2v2h-2V7h-2V5h2V3h2v2zM8 17h2v2H8v2H6v-2H4v-2h2v-2h2v2zm18 0h2v2h-2v2h-2v-2h-2v-2h2v-2h2v2z" fill="#F00"/><path d="M1 1v22h30V1H1zm0-1h30a1 1 0 0 1 1 1v22a1 1 0 0 1-1 1H1a1 1 0 0 1-1-1V1a1 1 0 0 1 1-1z" fill="#000" fill-rule="nonzero" opacity=".2"/></g></svg><svg width="32" height="24" viewBox="0 0 32 24" id="gr" x="160" y="48" xmlns="http://www.w3.org/2000/svg"><title>flags/32x24/gr</title><g fill="none" fill-rule="evenodd"><path d="M1 0h30a1 1 0 0 1 1 1v22a1 1 0 0 1-1 1H1a1 1 0 0 1-1-1V1a1 1 0 0 1 1-1z" fill="#0D5EAF"/><path fill="#F7F7F7" d="M0 5h12v2H0z"/><path fill="#F7F7F7" d="M7 0v12H5V0zM13 8h19v2H13zM13 3h19v2H13zM0 13h32v2H0zM0 18h32v2H0z"/><path d="M1 1v22h30V1H1zm0-1h30a1 1 0 0 1 1 1v22a1 1 0 0 1-1 1H1a1 1 0 0 1-1-1V1a1 1 0 0 1 1-1z" fill="#000" fill-rule="nonzero" opacity=".2"/></g></svg><svg width="32" height="24" viewBox="0 0 32 24" id="gt" x="160" y="72" xmlns="http://www.w3.org/2000/svg"><g fill="none" fill-rule="evenodd"><path fill="#FFF" d="M1 0h30a1 1 0 0 1 1 1v22a1 1 0 0 1-1 1H1a1 1 0 0 1-1-1V1a1 1 0 0 1 1-1z"/><path fill="#4698D2" d="M1 0h8v24H1a1 1 0 0 1-1-1V1a1 1 0 0 1 1-1zm30.1 0c.497 0 .9.448.9 1v22a1 1 0 0 1-1 1h-8V0h8.1z"/><path fill="#000" fill-rule="nonzero" d="M1 1v22h30V1H1zm0-1h30a1 1 0 0 1 1 1v22a1 1 0 0 1-1 1H1a1 1 0 0 1-1-1V1a1 1 0 0 1 1-1z" opacity=".2"/><path fill="#00732F" fill-rule="nonzero" d="M18.506 16.757c-.304.11-.633-.068-.734-.4-.102-.33.063-.688.367-.798a7.042 7.042 0 0 0 1.534-.836c.573-.416 1-.88 1.227-1.374.143-.312.492-.438.779-.282.287.156.403.535.26.847-.33.72-.895 1.333-1.622 1.86a8.16 8.16 0 0 1-1.81.983zm-5.012 0a8.16 8.16 0 0 1-1.81-.983c-.728-.527-1.292-1.14-1.623-1.86-.143-.312-.027-.691.26-.847.287-.156.636-.03.78.282.226.494.653.958 1.226 1.374a7.042 7.042 0 0 0 1.534.836c.304.11.469.468.367.799-.101.33-.43.51-.734.4zM16 17a1 1 0 1 1 0-2 1 1 0 0 1 0 2z"/><circle cx="16" cy="11" r="3" fill="#DBBF5C"/></g></svg><svg width="32" height="24" viewBox="0 0 32 24" id="gy" x="160" y="96" xmlns="http://www.w3.org/2000/svg"><g fill="none" fill-rule="evenodd"><path fill="#019E4A" d="M1 0h30a1 1 0 0 1 1 1v22a1 1 0 0 1-1 1H1a1 1 0 0 1-1-1V1a1 1 0 0 1 1-1z"/><path fill="#F7F7F7" d="M30 12L0 24V0z"/><path fill="#FDD000" d="M26 12L0 22V2z"/><path fill="#000" d="M15 12L0 22V2z"/><path fill="#CF001B" d="M13 12L0 20V4z"/><path fill="#000" fill-rule="nonzero" d="M1 1v22h30V1H1zm0-1h30a1 1 0 0 1 1 1v22a1 1 0 0 1-1 1H1a1 1 0 0 1-1-1V1a1 1 0 0 1 1-1z" opacity=".2"/></g></svg><svg width="32" height="24" viewBox="0 0 32 24" id="hk" x="160" y="120" xmlns="http://www.w3.org/2000/svg"><title>flags/32x24/hk</title><g fill="none" fill-rule="evenodd"><path d="M1 0h30a1 1 0 0 1 1 1v22a1 1 0 0 1-1 1H1a1 1 0 0 1-1-1V1a1 1 0 0 1 1-1z" fill="#DE2910"/><path d="M18.163 11.166c-1.433-.898-1.796.733-1.796 0 0-1.488 1.608-2.694 3.592-2.694 1.983 0 3.591 1.206 3.591 2.694-1.704 0-1.874.898-2.694.898-1.005 0-1.26 0-2.693-.898zM20.5 11a.5.5 0 1 0 0-1 .5.5 0 0 0 0 1zm-3.344 3.348c.41-1.64-1.253-1.481-.555-1.708 1.414-.46 3.058.697 3.671 2.583.613 1.887-.037 3.789-1.452 4.248-.526-1.62-1.433-1.505-1.686-2.284-.31-.956-.39-1.199.022-2.84zm.983 2.356a.449.449 0 1 0 .854-.277.449.449 0 0 0-.854.277zm-4.321-2.33c1.687-.117 1.021-1.65 1.453-1.056.874 1.203.282 3.124-1.323 4.29-1.604 1.166-3.614 1.135-4.489-.068 1.379-1.002.989-1.828 1.652-2.31.813-.591 1.02-.741 2.707-.857zm-1.455 1.89a.449.449 0 1 0 .528.726.449.449 0 0 0-.528-.726zm.4-5.057c.63 1.568 1.883.462 1.452 1.055-.874 1.204-2.884 1.234-4.489.068-1.604-1.166-2.196-3.086-1.322-4.29 1.378 1.002 2.044.375 2.707.857.813.591 1.02.741 1.651 2.31zm-1.872-.943a.449.449 0 1 0-.528.726.449.449 0 0 0 .528-.726zm4.557-1.04c-1.297 1.086.142 1.935-.555 1.708-1.415-.46-2.065-2.361-1.452-4.248.613-1.886 2.257-3.043 3.671-2.583-.526 1.62.275 2.06.022 2.839-.31.956-.39 1.199-1.686 2.284zm.545-2.52a.449.449 0 1 0-.854-.277.449.449 0 0 0 .854.277z" fill="#FFF"/><path d="M1 1v22h30V1H1zm0-1h30a1 1 0 0 1 1 1v22a1 1 0 0 1-1 1H1a1 1 0 0 1-1-1V1a1 1 0 0 1 1-1z" fill="#000" fill-rule="nonzero" opacity=".2"/></g></svg><svg width="32" height="24" viewBox="0 0 32 24" id="hn" y="144" xmlns="http://www.w3.org/2000/svg"><g fill="none" fill-rule="evenodd"><path fill="#F7F7F7" d="M1 0h30a1 1 0 0 1 1 1v22a1 1 0 0 1-1 1H1a1 1 0 0 1-1-1V1a1 1 0 0 1 1-1z"/><path fill="#0074D2" d="M0 17h32v6a1 1 0 0 1-1 1H1a1 1 0 0 1-1-1v-6zM1 0h30a1 1 0 0 1 1 1v6H0V1a1 1 0 0 1 1-1z"/><path fill="#000" fill-rule="nonzero" d="M1 1v22h30V1H1zm0-1h30a1 1 0 0 1 1 1v22a1 1 0 0 1-1 1H1a1 1 0 0 1-1-1V1a1 1 0 0 1 1-1z" opacity=".2"/><circle cx="11" cy="10" r="1" fill="#0074D2"/><circle cx="11" cy="14" r="1" fill="#0074D2"/><circle cx="16" cy="12" r="1" fill="#0074D2"/><circle cx="21" cy="10" r="1" fill="#0074D2"/><circle cx="21" cy="14" r="1" fill="#0074D2"/></g></svg><svg width="32" height="24" viewBox="0 0 32 24" id="hr" x="32" y="144" xmlns="http://www.w3.org/2000/svg"><title>flags/32x24/hr</title><g fill="none" fill-rule="evenodd"><path d="M1 0h30a1 1 0 0 1 1 1v22a1 1 0 0 1-1 1H1a1 1 0 0 1-1-1V1a1 1 0 0 1 1-1z" fill="#F7F7F7"/><path d="M0 16h32v7a1 1 0 0 1-1 1H1a1 1 0 0 1-1-1v-7z" fill="#171796"/><path d="M1 0h30a1 1 0 0 1 1 1v7H0V1a1 1 0 0 1 1-1z" fill="#F00"/><g transform="translate(10 3)"><path fill="#FFF" fill-rule="nonzero" d="M0 4h12v9l-6 4-6-4z"/><path fill="#EE1C25" d="M1 6h2v2H1zM1 10h2v2H1zM5 6h2v2H5zM5 10h2v2H5zM9 6h2v2H9zM9 10h2v2H9zM3 8h2v2H3zM3 12h2v2H3zM7 8h2v2H7zM7 12h2v2H7z"/><path fill="#121278" d="M6 0l2 3H4z"/><path fill="#171796" d="M3 0l2 3H1zM9 0l2 3H7z"/></g><path d="M1 1v22h30V1H1zm0-1h30a1 1 0 0 1 1 1v22a1 1 0 0 1-1 1H1a1 1 0 0 1-1-1V1a1 1 0 0 1 1-1z" fill="#000" fill-rule="nonzero" opacity=".2"/></g></svg><svg width="32" height="24" viewBox="0 0 32 24" id="ht" x="64" y="144" xmlns="http://www.w3.org/2000/svg"><g fill="none" fill-rule="evenodd"><path fill="#D3002D" d="M1 0h30a1 1 0 0 1 1 1v22a1 1 0 0 1-1 1H1a1 1 0 0 1-1-1V1a1 1 0 0 1 1-1z"/><path fill="#002A91" d="M1 0h30a1 1 0 0 1 1 1v11H0V1a1 1 0 0 1 1-1z"/><path fill="#000" fill-rule="nonzero" d="M1 1v22h30V1H1zm0-1h30a1 1 0 0 1 1 1v22a1 1 0 0 1-1 1H1a1 1 0 0 1-1-1V1a1 1 0 0 1 1-1z" opacity=".2"/><path fill="#FFF" d="M12 9h8v6h-8z"/><path fill="#3C8F4C" d="M16 11l4 4h-8zM16 11l2-2h-4z"/><path fill="#F2B500" d="M16 11l2 2h-4z"/><circle cx="18" cy="12" r="1" fill="#002A91"/><circle cx="14" cy="12" r="1" fill="#002A91"/></g></svg><svg width="32" height="24" viewBox="0 0 32 24" id="hu" x="96" y="144" xmlns="http://www.w3.org/2000/svg"><title>flags/32x24/hu</title><g fill="none" fill-rule="evenodd"><path d="M1 0h30a1 1 0 0 1 1 1v22a1 1 0 0 1-1 1H1a1 1 0 0 1-1-1V1a1 1 0 0 1 1-1z" fill="#F7F7F7"/><path d="M0 16h32v7a1 1 0 0 1-1 1H1a1 1 0 0 1-1-1v-7z" fill="#436F4D"/><path d="M1 0h30a1 1 0 0 1 1 1v7H0V1a1 1 0 0 1 1-1z" fill="#CD2A3E"/><path d="M1 1v22h30V1H1zm0-1h30a1 1 0 0 1 1 1v22a1 1 0 0 1-1 1H1a1 1 0 0 1-1-1V1a1 1 0 0 1 1-1z" fill="#000" fill-rule="nonzero" opacity=".2"/></g></svg><svg width="32" height="24" viewBox="0 0 32 24" id="id" x="128" y="144" xmlns="http://www.w3.org/2000/svg"><title>flags/32x24/id</title><g fill="none" fill-rule="evenodd"><path d="M1 0h30a1 1 0 0 1 1 1v22a1 1 0 0 1-1 1H1a1 1 0 0 1-1-1V1a1 1 0 0 1 1-1z" fill="#F7F7F7"/><path d="M1 0h30a1 1 0 0 1 1 1v11H0V1a1 1 0 0 1 1-1z" fill="#EF2800"/><path d="M1 1v22h30V1H1zm0-1h30a1 1 0 0 1 1 1v22a1 1 0 0 1-1 1H1a1 1 0 0 1-1-1V1a1 1 0 0 1 1-1z" fill="#000" fill-rule="nonzero" opacity=".2"/></g></svg><svg width="32" height="24" viewBox="0 0 32 24" id="ie" x="160" y="144" xmlns="http://www.w3.org/2000/svg"><title>flags/32x24/ie</title><g fill="none" fill-rule="evenodd"><path d="M1 0h30a1 1 0 0 1 1 1v22a1 1 0 0 1-1 1H1a1 1 0 0 1-1-1V1a1 1 0 0 1 1-1z" fill="#F7F7F7"/><path d="M21 0h10a1 1 0 0 1 1 1v22a1 1 0 0 1-1 1H21V0z" fill="#FF883E"/><path d="M1 0h10v24H1a1 1 0 0 1-1-1V1a1 1 0 0 1 1-1z" fill="#169B62"/><path d="M1 1v22h30V1H1zm0-1h30a1 1 0 0 1 1 1v22a1 1 0 0 1-1 1H1a1 1 0 0 1-1-1V1a1 1 0 0 1 1-1z" fill="#000" fill-rule="nonzero" opacity=".2"/></g></svg><svg width="32" height="24" viewBox="0 0 32 24" id="il" y="168" xmlns="http://www.w3.org/2000/svg"><title>flags/32x24/il</title><defs><path id="bqa" d="M17.667 8.969L16 6l-1.667 2.969H11l1.667 2.969L11 14.905h3.333L16 17.875l1.667-2.969H21l-1.667-2.969L21 8.97h-3.333z"/></defs><g fill="none" fill-rule="evenodd"><path d="M1 0h30a1 1 0 0 1 1 1v22a1 1 0 0 1-1 1H1a1 1 0 0 1-1-1V1a1 1 0 0 1 1-1z" fill="#F7F7F7"/><path fill="#0D5EAF" d="M0 3h32v4H0zM0 17h32v4H0z"/><use fill="#0D5EAF" xlink:href="#bqa"/><path stroke="#0D5EAF" stroke-width="2" d="M16 8.043l-1.081 1.926h-2.21l1.104 1.969-1.105 1.968h2.21L16 15.832l1.081-1.926h2.21l-1.104-1.969 1.105-1.968h-2.21L16 8.043z"/><circle fill="#F7F7F7" cx="16" cy="12" r="2"/><path d="M1 1v22h30V1H1zm0-1h30a1 1 0 0 1 1 1v22a1 1 0 0 1-1 1H1a1 1 0 0 1-1-1V1a1 1 0 0 1 1-1z" fill="#000" fill-rule="nonzero" opacity=".2"/></g></svg><svg width="32" height="24" viewBox="0 0 32 24" id="in" xmlns="http://www.w3.org/2000/svg"><title>flags/32x24/in</title><g fill="none" fill-rule="evenodd"><path d="M1 0h30a1 1 0 0 1 1 1v22a1 1 0 0 1-1 1H1a1 1 0 0 1-1-1V1a1 1 0 0 1 1-1z" fill="#F7F7F7"/><path d="M0 17h32v6a1 1 0 0 1-1 1H1a1 1 0 0 1-1-1v-6z" fill="#128807"/><circle fill="#0C0C8E" cx="16" cy="12" r="4"/><circle fill="#F7F7F7" cx="16" cy="12" r="2"/><path d="M1 0h30a1 1 0 0 1 1 1v6H0V1a1 1 0 0 1 1-1z" fill="#F93"/><path d="M1 1v22h30V1H1zm0-1h30a1 1 0 0 1 1 1v22a1 1 0 0 1-1 1H1a1 1 0 0 1-1-1V1a1 1 0 0 1 1-1z" fill="#000" fill-rule="nonzero" opacity=".2"/></g></svg><svg width="32" height="24" viewBox="0 0 32 24" id="is" x="64" y="168" xmlns="http://www.w3.org/2000/svg"><title>flags/32x24/is</title><g fill="none" fill-rule="evenodd"><path d="M1 0h30a1 1 0 0 1 1 1v22a1 1 0 0 1-1 1H1a1 1 0 0 1-1-1V1a1 1 0 0 1 1-1z" fill="#02529C"/><path fill="#F7F7F7" d="M16 8V0H8v8H0v8h8v8h8v-8h16V8z"/><path fill="#DC1E35" d="M14 10V0h-4v10H0v4h10v10h4V14h18v-4z"/><path d="M1 1v22h30V1H1zm0-1h30a1 1 0 0 1 1 1v22a1 1 0 0 1-1 1H1a1 1 0 0 1-1-1V1a1 1 0 0 1 1-1z" fill="#000" fill-rule="nonzero" opacity=".2"/></g></svg><svg width="32" height="24" viewBox="0 0 32 24" id="it" x="96" y="168" xmlns="http://www.w3.org/2000/svg"><title>flags/32x24/it</title><g fill="none" fill-rule="evenodd"><path d="M1 0h10v24H1a1 1 0 0 1-1-1V1a1 1 0 0 1 1-1z" fill="#169B62"/><path d="M21 0h10a1 1 0 0 1 1 1v22a1 1 0 0 1-1 1H21V0z" fill="#DF1B33"/><path d="M1 1v22h30V1H1zm0-1h30a1 1 0 0 1 1 1v22a1 1 0 0 1-1 1H1a1 1 0 0 1-1-1V1a1 1 0 0 1 1-1z" fill="#000" fill-rule="nonzero" opacity=".2"/></g></svg><svg width="32" height="24" viewBox="0 0 32 24" id="jm" x="128" y="168" xmlns="http://www.w3.org/2000/svg"><g fill="none" fill-rule="evenodd"><path fill="#009C36" d="M1 0h30a1 1 0 0 1 1 1v22a1 1 0 0 1-1 1H1a1 1 0 0 1-1-1V1a1 1 0 0 1 1-1z"/><path fill="#2E2E2E" d="M16 12L0 22V2l16 10zm0 0L32 2v20L16 12z"/><path fill="#FFD000" d="M3 0l13 9.75L29 0h2a1 1 0 0 1 1 1v1.25L19 12l13 9.75V23a1 1 0 0 1-1 1h-2l-13-9.75L3 24H1a1 1 0 0 1-1-1v-1.25L13 12 0 2.25V1a1 1 0 0 1 1-1h2z"/><path fill="#000" fill-rule="nonzero" d="M1 1v22h30V1H1zm0-1h30a1 1 0 0 1 1 1v22a1 1 0 0 1-1 1H1a1 1 0 0 1-1-1V1a1 1 0 0 1 1-1z" opacity=".2"/></g></svg><svg width="32" height="24" viewBox="0 0 32 24" id="jp" x="160" y="168" xmlns="http://www.w3.org/2000/svg"><title>flags/32x24/jp</title><g fill="none" fill-rule="evenodd"><path d="M1 0h30a1 1 0 0 1 1 1v22a1 1 0 0 1-1 1H1a1 1 0 0 1-1-1V1a1 1 0 0 1 1-1z" fill="#F7F7F7"/><circle fill="#BC002D" cx="16" cy="12" r="6"/><path d="M1 1v22h30V1H1zm0-1h30a1 1 0 0 1 1 1v22a1 1 0 0 1-1 1H1a1 1 0 0 1-1-1V1a1 1 0 0 1 1-1z" fill="#000" fill-rule="nonzero" opacity=".2"/></g></svg><svg width="32" height="24" viewBox="0 0 32 24" id="kr" x="192" xmlns="http://www.w3.org/2000/svg"><title>flags/32x24/kr</title><g fill="none" fill-rule="evenodd"><path d="M1 0h30a1 1 0 0 1 1 1v22a1 1 0 0 1-1 1H1a1 1 0 0 1-1-1V1a1 1 0 0 1 1-1z" fill="#F7F7F7"/><path d="M11 12a5 5 0 0 0 10 0H11z" fill="#0066B3"/><path d="M11 12a5 5 0 0 1 10 0H11z" fill="#ED1C24"/><path d="M21 6.417L22.417 5l3.546 3.545-1.418 1.418L21 6.417zm-10.037 0L7.417 9.963 6 8.545 9.545 5l1.418 1.417zM21 17.545L24.545 14l1.418 1.417-3.546 3.546L21 17.545zm-10.037 0l-1.418 1.418L6 15.417 7.417 14l3.546 3.545zM23 4.417L24.417 3l3.546 3.545-1.418 1.418L23 4.417zm-14.037 0L5.417 7.963 4 6.545 7.545 3l1.418 1.417zM23 19.545L26.545 16l1.418 1.417-3.546 3.546L23 19.545zm-14.037 0l-1.418 1.418L4 17.417 5.417 16l3.546 3.545z" fill="#333"/><path d="M1 1v22h30V1H1zm0-1h30a1 1 0 0 1 1 1v22a1 1 0 0 1-1 1H1a1 1 0 0 1-1-1V1a1 1 0 0 1 1-1z" fill="#000" fill-rule="nonzero" opacity=".2"/></g></svg><svg width="32" height="24" viewBox="0 0 32 24" id="lt" x="192" y="24" xmlns="http://www.w3.org/2000/svg"><title>flags/32x24/lt</title><g fill="none" fill-rule="evenodd"><path d="M1 0h30a1 1 0 0 1 1 1v22a1 1 0 0 1-1 1H1a1 1 0 0 1-1-1V1a1 1 0 0 1 1-1z" fill="#169B62"/><path d="M0 16h32v7a1 1 0 0 1-1 1H1a1 1 0 0 1-1-1v-7z" fill="#DF1B33"/><path d="M1 0h30a1 1 0 0 1 1 1v7H0V1a1 1 0 0 1 1-1z" fill="#FFC700"/><path d="M1 1v22h30V1H1zm0-1h30a1 1 0 0 1 1 1v22a1 1 0 0 1-1 1H1a1 1 0 0 1-1-1V1a1 1 0 0 1 1-1z" fill="#000" fill-rule="nonzero" opacity=".2"/></g></svg><svg width="32" height="24" viewBox="0 0 32 24" id="lu" x="192" y="48" xmlns="http://www.w3.org/2000/svg"><title>flags/32x24/lu</title><g fill="none" fill-rule="evenodd"><path d="M1 0h30a1 1 0 0 1 1 1v22a1 1 0 0 1-1 1H1a1 1 0 0 1-1-1V1a1 1 0 0 1 1-1z" fill="#F7F7F7"/><path d="M0 16h32v7a1 1 0 0 1-1 1H1a1 1 0 0 1-1-1v-7z" fill="#00A1DE"/><path d="M1 0h30a1 1 0 0 1 1 1v7H0V1a1 1 0 0 1 1-1z" fill="#ED2939"/><path d="M1 1v22h30V1H1zm0-1h30a1 1 0 0 1 1 1v22a1 1 0 0 1-1 1H1a1 1 0 0 1-1-1V1a1 1 0 0 1 1-1z" fill="#000" fill-rule="nonzero" opacity=".2"/></g></svg><svg width="32" height="24" viewBox="0 0 32 24" id="lv" x="192" y="72" xmlns="http://www.w3.org/2000/svg"><title>flags/32x24/lv</title><g fill="none" fill-rule="evenodd"><path d="M1 0h30a1 1 0 0 1 1 1v22a1 1 0 0 1-1 1H1a1 1 0 0 1-1-1V1a1 1 0 0 1 1-1z" fill="#F7F7F7"/><path d="M0 15h32v8a1 1 0 0 1-1 1H1a1 1 0 0 1-1-1v-8zM1 0h30a1 1 0 0 1 1 1v8H0V1a1 1 0 0 1 1-1z" fill="#B9414B"/><path d="M1 1v22h30V1H1zm0-1h30a1 1 0 0 1 1 1v22a1 1 0 0 1-1 1H1a1 1 0 0 1-1-1V1a1 1 0 0 1 1-1z" fill="#000" fill-rule="nonzero" opacity=".2"/></g></svg><svg width="32" height="24" viewBox="0 0 32 24" id="md" x="192" y="96" xmlns="http://www.w3.org/2000/svg"><title>flags/32x24/md</title><g fill="none" fill-rule="evenodd"><path d="M1 0h30a1 1 0 0 1 1 1v22a1 1 0 0 1-1 1H1a1 1 0 0 1-1-1V1a1 1 0 0 1 1-1z" fill="#FFD200"/><path d="M22 0h9a1 1 0 0 1 1 1v22a1 1 0 0 1-1 1h-9V0z" fill="#CC092F"/><path d="M12 9h2l2-3 2 3h2l-1 7-3 2-3-2-1-7zm3 2v3h2v-3h-2z" fill="#91443A"/><path d="M1 0h9v24H1a1 1 0 0 1-1-1V1a1 1 0 0 1 1-1z" fill="#0046AE"/><path d="M1 1v22h30V1H1zm0-1h30a1 1 0 0 1 1 1v22a1 1 0 0 1-1 1H1a1 1 0 0 1-1-1V1a1 1 0 0 1 1-1z" fill="#000" fill-rule="nonzero" opacity=".2"/></g></svg><svg width="32" height="24" viewBox="0 0 32 24" id="mk" x="192" y="120" xmlns="http://www.w3.org/2000/svg"><g fill="none" fill-rule="evenodd"><path fill="#D20000" d="M1 0h30a1 1 0 0 1 1 1v22a1 1 0 0 1-1 1H1a1 1 0 0 1-1-1V1a1 1 0 0 1 1-1z"/><path fill="#FFE600" d="M14 0h4l-1 7h-2l-1-7zM4.106 0l8.931 7.738-1.013 1.457L0 2.021V1a1 1 0 0 1 1-1h3.106zM0 22.248l12.024-7.174 1.013 1.457L4.417 24H1a1 1 0 0 1-1-1v-.752zM32 2.331L20.495 9.195l-1.013-1.457L28.413 0H31a1 1 0 0 1 1 1v1.33zM28.102 24l-8.62-7.469 1.013-1.457L32 21.94V23a1 1 0 0 1-1 1h-2.898zM18 24h-4l1-7h2l1 7zM0 14v-4l11 1v2L0 14zm32-4v4l-11-1v-2l11-1z"/><circle cx="16" cy="12" r="6" fill="#D20000"/><circle cx="16" cy="12" r="4" fill="#FFE600"/><path fill="#000" fill-rule="nonzero" d="M1 1v22h30V1H1zm0-1h30a1 1 0 0 1 1 1v22a1 1 0 0 1-1 1H1a1 1 0 0 1-1-1V1a1 1 0 0 1 1-1z" opacity=".2"/></g></svg><svg width="32" height="24" viewBox="0 0 32 24" id="mx" x="192" y="144" xmlns="http://www.w3.org/2000/svg"><title>flags/32x24/mx</title><g fill="none" fill-rule="evenodd"><path d="M1 0h30a1 1 0 0 1 1 1v22a1 1 0 0 1-1 1H1a1 1 0 0 1-1-1V1a1 1 0 0 1 1-1z" fill="#F7F7F7"/><path d="M23 0h8a1 1 0 0 1 1 1v22a1 1 0 0 1-1 1h-8V0z" fill="#CE1126"/><path d="M1 0h8v24H1a1 1 0 0 1-1-1V1a1 1 0 0 1 1-1z" fill="#006847"/><path d="M18.506 16.757c-.304.11-.633-.068-.734-.4-.102-.33.063-.688.367-.798a7.042 7.042 0 0 0 1.534-.836c.573-.416 1-.88 1.227-1.374.143-.312.492-.438.779-.282.287.156.403.535.26.847-.33.72-.895 1.333-1.622 1.86a8.16 8.16 0 0 1-1.81.983zm-5.012 0a8.16 8.16 0 0 1-1.81-.983c-.728-.527-1.292-1.14-1.623-1.86-.143-.312-.027-.691.26-.847.287-.156.636-.03.78.282.226.494.653.958 1.226 1.374a7.042 7.042 0 0 0 1.534.836c.304.11.469.468.367.799-.101.33-.43.51-.734.4zM16 17a1 1 0 1 1 0-2 1 1 0 0 1 0 2z" fill="#445128" fill-rule="nonzero"/><path d="M1 1v22h30V1H1zm0-1h30a1 1 0 0 1 1 1v22a1 1 0 0 1-1 1H1a1 1 0 0 1-1-1V1a1 1 0 0 1 1-1z" fill="#000" fill-rule="nonzero" opacity=".2"/><circle fill="#9A5111" cx="16" cy="11" r="3"/></g></svg><svg width="32" height="24" viewBox="0 0 32 24" id="my" x="192" y="168" xmlns="http://www.w3.org/2000/svg"><title>global/flags/32x24/my</title><g fill="none" fill-rule="evenodd"><path d="M1 0h30a1 1 0 0 1 1 1v22a1 1 0 0 1-1 1H1a1 1 0 0 1-1-1V1a1 1 0 0 1 1-1z" fill="#FFF"/><path d="M1 0h30a1 1 0 0 1 1 1v2H0V1a1 1 0 0 1 1-1zM0 5h32v2H0V5zm0 4h32v2H0V9zm0 4h32v2H0v-2zm0 4h32v2H0v-2zm0 4h32v2a1 1 0 0 1-1 1H1a1 1 0 0 1-1-1v-2z" fill="#CC0001"/><path d="M1 0h16v13H0V1a1 1 0 0 1 1-1z" fill="#010066"/><path fill="#FC0" d="M11.86 7.902l-.695 1.37.02-1.536-1.252.89.731-1.352-1.522.205 1.276-.857-1.443-.526 1.527-.165-1.034-1.137 1.429.564-.387-1.488 1.003 1.164.348-1.497.348 1.497 1.003-1.164-.387 1.488 1.429-.564L13.22 5.93l1.527.165-1.443.526 1.275.857-1.522-.205.732 1.352-1.253-.89.02 1.537z"/><path d="M11.082 3.743a4.517 4.517 0 1 0 0 5.547c-.638.464-1.44.74-2.31.74-2.08 0-3.765-1.573-3.765-3.513s1.686-3.513 3.764-3.513c.871 0 1.673.276 2.31.74z" fill="#FC0"/><path d="M1 1v22h30V1H1zm0-1h30a1 1 0 0 1 1 1v22a1 1 0 0 1-1 1H1a1 1 0 0 1-1-1V1a1 1 0 0 1 1-1z" fill="#000" fill-rule="nonzero" opacity=".2"/></g></svg><svg width="32" height="24" viewBox="0 0 32 24" id="ni" y="192" xmlns="http://www.w3.org/2000/svg"><g fill="none" fill-rule="evenodd"><path fill="#F7F7F7" d="M1 0h30a1 1 0 0 1 1 1v22a1 1 0 0 1-1 1H1a1 1 0 0 1-1-1V1a1 1 0 0 1 1-1z"/><path fill="#0068C9" d="M0 17h32v6a1 1 0 0 1-1 1H1a1 1 0 0 1-1-1v-6zM1 0h30a1 1 0 0 1 1 1v6H0V1a1 1 0 0 1 1-1z"/><path fill="#000" fill-rule="nonzero" d="M1 1v22h30V1H1zm0-1h30a1 1 0 0 1 1 1v22a1 1 0 0 1-1 1H1a1 1 0 0 1-1-1V1a1 1 0 0 1 1-1z" opacity=".2"/><path fill="#82D7ED" d="M16 9l4 6h-8z"/><path fill="#85B446" d="M18.667 13L20 15h-8l1.333-2h5.334z"/></g></svg><svg width="32" height="24" viewBox="0 0 32 24" id="nl" x="32" y="192" xmlns="http://www.w3.org/2000/svg"><title>flags/32x24/nl</title><g fill="none" fill-rule="evenodd"><path d="M1 0h30a1 1 0 0 1 1 1v22a1 1 0 0 1-1 1H1a1 1 0 0 1-1-1V1a1 1 0 0 1 1-1z" fill="#F7F7F7"/><path d="M0 16h32v7a1 1 0 0 1-1 1H1a1 1 0 0 1-1-1v-7z" fill="#21468B"/><path d="M1 0h30a1 1 0 0 1 1 1v7H0V1a1 1 0 0 1 1-1z" fill="#DE1018"/><path d="M1 1v22h30V1H1zm0-1h30a1 1 0 0 1 1 1v22a1 1 0 0 1-1 1H1a1 1 0 0 1-1-1V1a1 1 0 0 1 1-1z" fill="#000" fill-rule="nonzero" opacity=".2"/></g></svg><svg width="32" height="24" viewBox="0 0 32 24" id="no" x="64" y="192" xmlns="http://www.w3.org/2000/svg"><title>flags/32x24/no</title><g fill="none" fill-rule="evenodd"><path d="M1 0h30a1 1 0 0 1 1 1v22a1 1 0 0 1-1 1H1a1 1 0 0 1-1-1V1a1 1 0 0 1 1-1z" fill="#EF2B2D"/><path fill="#F7F7F7" d="M16 8h16v8H16v8H8v-8H0V8h8V0h8z"/><path fill="#002868" d="M14 10V0h-4v10H0v4h10v10h4V14h18v-4z"/><path d="M1 1v22h30V1H1zm0-1h30a1 1 0 0 1 1 1v22a1 1 0 0 1-1 1H1a1 1 0 0 1-1-1V1a1 1 0 0 1 1-1z" fill="#000" fill-rule="nonzero" opacity=".2"/></g></svg><svg width="32" height="24" viewBox="0 0 32 24" id="nz" x="96" y="192" xmlns="http://www.w3.org/2000/svg"><title>flags/32x24/nz</title><g fill="none" fill-rule="evenodd"><path d="M1 0h30a1 1 0 0 1 1 1v22a1 1 0 0 1-1 1H1a1 1 0 0 1-1-1V1a1 1 0 0 1 1-1z" fill="#273C83"/><path d="M23.5 7a1.5 1.5 0 1 1 0-3 1.5 1.5 0 0 1 0 3zm-3 5a1.5 1.5 0 1 1 0-3 1.5 1.5 0 0 1 0 3zm3 8a1.5 1.5 0 1 1 0-3 1.5 1.5 0 0 1 0 3zm3.5-9a1 1 0 1 1 0-2 1 1 0 0 1 0 2z" fill="#EF2800"/><path d="M1.076 0H1a1 1 0 0 0-1 1v1.233l5.955 3.868L0 9.968V12h1.46l6.79-4.409L15.04 12H16V9.643l-5.455-3.542L16 2.558V0h-.651L8.25 4.61 1.151 0h-.075z" fill="#F7F7F7"/><path d="M0 1.25V1C0 .787.067.589.18.426L8 5.504 16 .31v1.193L8.918 6.1 16 10.7v1.192L8 6.697l-8 5.195V10.7l7.082-4.6L0 1.503V1.25z" fill="#DC1E35"/><path fill="#F7F7F7" d="M10 4h6v4h-6v4H6V8H0V4h6V0h4z"/><path fill="#DC1E35" d="M9 5V0H7v5H0v2h7v5h2V7h7V5z"/><path d="M1 1v22h30V1H1zm0-1h30a1 1 0 0 1 1 1v22a1 1 0 0 1-1 1H1a1 1 0 0 1-1-1V1a1 1 0 0 1 1-1z" fill="#000" fill-rule="nonzero" opacity=".2"/></g></svg><svg width="32" height="24" viewBox="0 0 32 24" id="pa" x="128" y="192" xmlns="http://www.w3.org/2000/svg"><g fill="none" fill-rule="evenodd"><path fill="#F7F7F7" d="M1 0h30a1 1 0 0 1 1 1v22a1 1 0 0 1-1 1H1a1 1 0 0 1-1-1V1a1 1 0 0 1 1-1z"/><path fill="#D3002D" d="M31 0a1 1 0 0 1 1 1v11H16V0h15z"/><path fill="#005295" d="M16 12v12H1a1 1 0 0 1-1-1V12h16z"/><path fill="#000" fill-rule="nonzero" d="M1 1v22h30V1H1zm0-1h30a1 1 0 0 1 1 1v22a1 1 0 0 1-1 1H1a1 1 0 0 1-1-1V1a1 1 0 0 1 1-1z" opacity=".2"/><path fill="#005295" d="M8.5 7.75l-1.469.773.28-1.637-1.189-1.159 1.643-.238L8.5 4l.735 1.489 1.643.238-1.189 1.159.28 1.637z"/><path fill="#D3002D" d="M23.5 18.75l-1.469.773.28-1.637-1.189-1.159 1.643-.238L23.5 15l.735 1.489 1.643.238-1.189 1.159.28 1.637z"/></g></svg><svg width="32" height="24" viewBox="0 0 32 24" id="pe" x="160" y="192" xmlns="http://www.w3.org/2000/svg"><g fill="none" fill-rule="evenodd"><path fill="#F7F7F7" d="M1 0h30a1 1 0 0 1 1 1v22a1 1 0 0 1-1 1H1a1 1 0 0 1-1-1V1a1 1 0 0 1 1-1z"/><path fill="#DA081E" d="M1 0h9v24H1a1 1 0 0 1-1-1V1a1 1 0 0 1 1-1zm21 0h9a1 1 0 0 1 1 1v22a1 1 0 0 1-1 1h-9V0z"/><path fill="#000" fill-rule="nonzero" d="M1 1v22h30V1H1zm0-1h30a1 1 0 0 1 1 1v22a1 1 0 0 1-1 1H1a1 1 0 0 1-1-1V1a1 1 0 0 1 1-1z" opacity=".2"/><circle cx="16" cy="12" r="2" fill="#FCD30F"/><circle cx="16" cy="12" r="3" stroke="#61AB10" stroke-width="2"/></g></svg><svg width="32" height="24" viewBox="0 0 32 24" id="pl" x="192" y="192" xmlns="http://www.w3.org/2000/svg"><title>flags/32x24/pl</title><g fill="none" fill-rule="evenodd"><path d="M1 0h30a1 1 0 0 1 1 1v22a1 1 0 0 1-1 1H1a1 1 0 0 1-1-1V1a1 1 0 0 1 1-1z" fill="#F7F7F7"/><path d="M0 12h32v11a1 1 0 0 1-1 1H1a1 1 0 0 1-1-1V12z" fill="#EE1C25"/><path d="M1 1v22h30V1H1zm0-1h30a1 1 0 0 1 1 1v22a1 1 0 0 1-1 1H1a1 1 0 0 1-1-1V1a1 1 0 0 1 1-1z" fill="#000" fill-rule="nonzero" opacity=".2"/></g></svg><svg width="32" height="24" viewBox="0 0 32 24" id="placeholder" x="224" xmlns="http://www.w3.org/2000/svg"><title>global/flags/32x24/placeholder</title><defs><rect id="cla" width="32" height="24" rx="1"/></defs><g fill="none" fill-rule="evenodd"><mask id="clb" fill="#fff"><use xlink:href="#cla"/></mask><use fill="#F1F1F1" xlink:href="#cla"/><path d="M16 4c-4.411 0-8 3.589-8 8s3.589 8 8 8 8-3.589 8-8-3.589-8-8-8zm0 14.667a6.632 6.632 0 0 1-4.359-1.634c.006-.009.013-.016.018-.025 1.101-1.845.408-2.973-.103-3.48a4.743 4.743 0 0 0-.447-.38c-.415-.321-.69-.534-.69-1.148 0-.29.162-.403.958-.675.548-.187 1.169-.399 1.57-.917.93-1.203-.093-3.057-.308-3.417a6.043 6.043 0 0 0-.353-.524 6.63 6.63 0 0 1 3.483-1.122c.208.352.552.65.889.94.288.248.745.352.98.645.135.168.07.492.075.704.009.42.264 1.03 1.122 1.03.038 0 .078 0 .118-.003.332-.024 1.368-.261 2.41-.605A6.623 6.623 0 0 1 22.667 12 6.674 6.674 0 0 1 16 18.667zM19.016 10c-.694 0-1.404.4-1.764.997-.242.4-.313.863-.199 1.304.227.878.25 1.396.107 1.977-.126.516-.138 1.264.582 1.62a.985.985 0 0 0 .441.102c.535 0 1.169-.402 1.739-1.103.685-.843 1.088-1.876 1.078-2.764-.013-1.196-.885-2.133-1.984-2.133z" fill="#B8B8B8" fill-rule="nonzero" mask="url(#clb)"/><path d="M1 1v22h30V1H1zm0-1h30a1 1 0 0 1 1 1v22a1 1 0 0 1-1 1H1a1 1 0 0 1-1-1V1a1 1 0 0 1 1-1z" fill="#000" fill-rule="nonzero" opacity=".2" mask="url(#clb)"/></g></svg><svg width="32" height="24" viewBox="0 0 32 24" id="pr" x="224" y="24" xmlns="http://www.w3.org/2000/svg"><g fill="none" fill-rule="evenodd"><path fill="#FFF" d="M1 0h30a1 1 0 0 1 1 1v22a1 1 0 0 1-1 1H1a1 1 0 0 1-1-1V1a1 1 0 0 1 1-1z"/><path fill="#EF0000" d="M1 0h30a1 1 0 0 1 1 1v4H0V1a1 1 0 0 1 1-1zm0 24c-.552 0-1-.56-1-1.25V19h32v3.75c0 .69-.448 1.25-1 1.25H1zM0 9h32v6H0z"/><path fill="#0050F4" d="M.35 23.76A.998.998 0 0 1 0 23V1C0 .696.136.423.35.24L17.53 12 .35 23.76z"/><path fill="#FFF" d="M6 14l-2.351 1.236.449-2.618-1.902-1.854 2.628-.382L6 8l1.176 2.382 2.628.382-1.902 1.854.449 2.618z"/><path fill="#000" fill-rule="nonzero" d="M1 1v22h30V1H1zm0-1h30a1 1 0 0 1 1 1v22a1 1 0 0 1-1 1H1a1 1 0 0 1-1-1V1a1 1 0 0 1 1-1z" opacity=".2"/></g></svg><svg width="32" height="24" viewBox="0 0 32 24" id="pt" x="224" y="48" xmlns="http://www.w3.org/2000/svg"><title>flags/32x24/pt</title><g fill="none" fill-rule="evenodd"><path d="M1 0h30a1 1 0 0 1 1 1v22a1 1 0 0 1-1 1H1a1 1 0 0 1-1-1V1a1 1 0 0 1 1-1z" fill="#FF2936"/><path d="M1 0h10v24H1a1 1 0 0 1-1-1V1a1 1 0 0 1 1-1z" fill="#128415"/><path d="M11 18a6 6 0 1 1 0-12 6 6 0 0 1 0 12zm0-2a4 4 0 1 0 0-8 4 4 0 0 0 0 8z" fill="#FF0" fill-rule="nonzero"/><path fill="#FFF" d="M9 10h4v3l-2 2-2-2z"/><path d="M1 1v22h30V1H1zm0-1h30a1 1 0 0 1 1 1v22a1 1 0 0 1-1 1H1a1 1 0 0 1-1-1V1a1 1 0 0 1 1-1z" fill="#000" fill-rule="nonzero" opacity=".2"/></g></svg><svg width="32" height="24" viewBox="0 0 32 24" id="py" x="224" y="72" xmlns="http://www.w3.org/2000/svg"><g fill="none" fill-rule="evenodd"><path fill="#F7F7F7" d="M1 0h30a1 1 0 0 1 1 1v22a1 1 0 0 1-1 1H1a1 1 0 0 1-1-1V1a1 1 0 0 1 1-1z"/><path fill="#0035AA" d="M0 16h32v7a1 1 0 0 1-1 1H1a1 1 0 0 1-1-1v-7z"/><path fill="#D62717" d="M1 0h30a1 1 0 0 1 1 1v7H0V1a1 1 0 0 1 1-1z"/><path fill="#000" fill-rule="nonzero" d="M1 1v22h30V1H1zm0-1h30a1 1 0 0 1 1 1v22a1 1 0 0 1-1 1H1a1 1 0 0 1-1-1V1a1 1 0 0 1 1-1z" opacity=".2"/><circle cx="16" cy="12" r="2" fill="#FCD30F"/><path fill="#61AB10" fill-rule="nonzero" d="M16 14.5a2.5 2.5 0 1 1 0-5 2.5 2.5 0 0 1 0 5zm0-1a1.5 1.5 0 1 0 0-3 1.5 1.5 0 0 0 0 3z"/></g></svg><svg width="32" height="24" viewBox="0 0 32 24" id="ro" x="224" y="96" xmlns="http://www.w3.org/2000/svg"><title>flags/32x24/ro</title><g fill="none" fill-rule="evenodd"><path d="M1 0h30a1 1 0 0 1 1 1v22a1 1 0 0 1-1 1H1a1 1 0 0 1-1-1V1a1 1 0 0 1 1-1z" fill="#FFD200"/><path d="M1 0h10v24H1a1 1 0 0 1-1-1V1a1 1 0 0 1 1-1z" fill="#002B7F"/><path d="M21 0h10a1 1 0 0 1 1 1v22a1 1 0 0 1-1 1H21V0z" fill="#CE1126"/><path d="M1 1v22h30V1H1zm0-1h30a1 1 0 0 1 1 1v22a1 1 0 0 1-1 1H1a1 1 0 0 1-1-1V1a1 1 0 0 1 1-1z" fill="#000" fill-rule="nonzero" opacity=".2"/></g></svg><svg width="32" height="24" viewBox="0 0 32 24" id="rs" x="224" y="120" xmlns="http://www.w3.org/2000/svg"><title>flags/32x24/rs</title><g fill="none" fill-rule="evenodd"><path d="M1 0h30a1 1 0 0 1 1 1v22a1 1 0 0 1-1 1H1a1 1 0 0 1-1-1V1a1 1 0 0 1 1-1z" fill="#0C4076"/><path d="M0 16h32v7a1 1 0 0 1-1 1H1a1 1 0 0 1-1-1v-7z" fill="#F7F7F7"/><path d="M1 0h30a1 1 0 0 1 1 1v7H0V1a1 1 0 0 1 1-1z" fill="#C6363C"/><path fill="#C6363C" d="M4 7h10v8l-5 4-5-4z"/><path d="M8 7L7 5h4l-1 2h2v7l-3 2-3-2V7h2zm0 2v4h2V9H8z" fill="#F7F7F7"/><path d="M1 1v22h30V1H1zm0-1h30a1 1 0 0 1 1 1v22a1 1 0 0 1-1 1H1a1 1 0 0 1-1-1V1a1 1 0 0 1 1-1z" fill="#000" fill-rule="nonzero" opacity=".2"/></g></svg><svg width="32" height="24" viewBox="0 0 32 24" id="ru" x="224" y="144" xmlns="http://www.w3.org/2000/svg"><title>flags/32x24/ru</title><g fill="none" fill-rule="evenodd"><path d="M1 0h30a1 1 0 0 1 1 1v22a1 1 0 0 1-1 1H1a1 1 0 0 1-1-1V1a1 1 0 0 1 1-1z" fill="#D8D8D8"/><path d="M0 16h32v7a1 1 0 0 1-1 1H1a1 1 0 0 1-1-1v-7z" fill="#D52B1E"/><path fill="#0039A6" d="M0 8h32v8H0z"/><path d="M1 0h30a1 1 0 0 1 1 1v7H0V1a1 1 0 0 1 1-1z" fill="#F7F7F7"/><path d="M1 1v22h30V1H1zm0-1h30a1 1 0 0 1 1 1v22a1 1 0 0 1-1 1H1a1 1 0 0 1-1-1V1a1 1 0 0 1 1-1z" fill="#000" fill-rule="nonzero" opacity=".2"/></g></svg><svg width="32" height="24" viewBox="0 0 32 24" id="se" x="224" y="168" xmlns="http://www.w3.org/2000/svg"><title>flags/32x24/se</title><g fill="none" fill-rule="evenodd"><path d="M1 0h30a1 1 0 0 1 1 1v22a1 1 0 0 1-1 1H1a1 1 0 0 1-1-1V1a1 1 0 0 1 1-1z" fill="#006AA7"/><path fill="#FECC00" d="M14 10h18v4H14v10h-4V14H0v-4h10V0h4z"/><path d="M1 1v22h30V1H1zm0-1h30a1 1 0 0 1 1 1v22a1 1 0 0 1-1 1H1a1 1 0 0 1-1-1V1a1 1 0 0 1 1-1z" fill="#000" fill-rule="nonzero" opacity=".2"/></g></svg><svg width="32" height="24" viewBox="0 0 32 24" id="sg" x="224" y="192" xmlns="http://www.w3.org/2000/svg"><title>flags/32x24/sg</title><g fill="none" fill-rule="evenodd"><path d="M1 0h30a1 1 0 0 1 1 1v22a1 1 0 0 1-1 1H1a1 1 0 0 1-1-1V1a1 1 0 0 1 1-1z" fill="#F7F7F7"/><path d="M1 0h30a1 1 0 0 1 1 1v11H0V1a1 1 0 0 1 1-1z" fill="#D2143B"/><path d="M15 4a1 1 0 1 1 0-2 1 1 0 0 1 0 2zm3 2a1 1 0 1 1 0-2 1 1 0 0 1 0 2zm-1 3a1 1 0 1 1 0-2 1 1 0 0 1 0 2zm-4 0a1 1 0 1 1 0-2 1 1 0 0 1 0 2zm-1-3a1 1 0 1 1 0-2 1 1 0 0 1 0 2z" fill="#FFF"/><path d="M10.274 3.569a4.065 4.065 0 1 0 0 4.992 3.53 3.53 0 0 1-2.08.666c-1.87 0-3.387-1.416-3.387-3.162s1.516-3.162 3.387-3.162a3.53 3.53 0 0 1 2.08.666z" fill="#F5FFFD"/><path d="M1 1v22h30V1H1zm0-1h30a1 1 0 0 1 1 1v22a1 1 0 0 1-1 1H1a1 1 0 0 1-1-1V1a1 1 0 0 1 1-1z" fill="#000" fill-rule="nonzero" opacity=".2"/></g></svg><svg width="32" height="24" viewBox="0 0 32 24" id="si" y="216" xmlns="http://www.w3.org/2000/svg"><title>flags/32x24/si</title><g fill="none" fill-rule="evenodd"><path d="M1 0h30a1 1 0 0 1 1 1v22a1 1 0 0 1-1 1H1a1 1 0 0 1-1-1V1a1 1 0 0 1 1-1z" fill="#005DA4"/><path d="M0 16h32v7a1 1 0 0 1-1 1H1a1 1 0 0 1-1-1v-7z" fill="#ED1C24"/><path d="M1 0h30a1 1 0 0 1 1 1v8H0V1a1 1 0 0 1 1-1z" fill="#F7F7F7"/><path fill="#F7F7F7" d="M5 4h9v6.961l-4.5 3.6-4.5-3.6z"/><path fill="#005DA4" fill-rule="nonzero" d="M7 6v4l2.5 2 2.5-2V6z"/><path d="M1 1v22h30V1H1zm0-1h30a1 1 0 0 1 1 1v22a1 1 0 0 1-1 1H1a1 1 0 0 1-1-1V1a1 1 0 0 1 1-1z" fill="#000" fill-rule="nonzero" opacity=".2"/></g></svg><svg width="32" height="24" viewBox="0 0 32 24" id="sk" x="32" y="216" xmlns="http://www.w3.org/2000/svg"><title>flags/32x24/sk</title><g fill="none" fill-rule="evenodd"><path d="M1 0h30a1 1 0 0 1 1 1v22a1 1 0 0 1-1 1H1a1 1 0 0 1-1-1V1a1 1 0 0 1 1-1z" fill="#0B4EA2"/><path d="M0 16h32v7a1 1 0 0 1-1 1H1a1 1 0 0 1-1-1v-7z" fill="#EE1C25"/><path d="M1 0h30a1 1 0 0 1 1 1v7H0V1a1 1 0 0 1 1-1z" fill="#F7F7F7"/><path fill="#F7F7F7" fill-rule="nonzero" d="M5 4h12v9l-6 4.5L5 13z"/><path fill="#0B4EA2" d="M7 6v6l4 3 4-3V6z"/><path fill="#EE1C25" d="M7 6h8v4H7z"/><path fill="#FFF" d="M10 8h2v4h-2z"/><path d="M1 1v22h30V1H1zm0-1h30a1 1 0 0 1 1 1v22a1 1 0 0 1-1 1H1a1 1 0 0 1-1-1V1a1 1 0 0 1 1-1z" fill="#000" fill-rule="nonzero" opacity=".2"/></g></svg><svg width="32" height="24" viewBox="0 0 32 24" id="sr" x="64" y="216" xmlns="http://www.w3.org/2000/svg"><g fill="none" fill-rule="evenodd"><path fill="#B50229" d="M1 0h30a1 1 0 0 1 1 1v22a1 1 0 0 1-1 1H1a1 1 0 0 1-1-1V1a1 1 0 0 1 1-1z"/><path fill="#347F3D" d="M0 16h32v7a1 1 0 0 1-1 1H1a1 1 0 0 1-1-1v-7zM1 0h30a1 1 0 0 1 1 1v7H0V1a1 1 0 0 1 1-1z"/><path fill="#F7F7F7" d="M0 6h32v2H0zM0 16h32v2H0z"/><path fill="#000" fill-rule="nonzero" d="M1 1v22h30V1H1zm0-1h30a1 1 0 0 1 1 1v22a1 1 0 0 1-1 1H1a1 1 0 0 1-1-1V1a1 1 0 0 1 1-1z" opacity=".2"/><path fill="#FAE400" d="M16 14l-2.351 1.236.449-2.618-1.902-1.854 2.628-.382L16 8l1.176 2.382 2.628.382-1.902 1.854.449 2.618z"/></g></svg><svg width="32" height="24" viewBox="0 0 32 24" id="sv" x="96" y="216" xmlns="http://www.w3.org/2000/svg"><g fill="none" fill-rule="evenodd"><path fill="#F7F7F7" d="M1 0h30a1 1 0 0 1 1 1v22a1 1 0 0 1-1 1H1a1 1 0 0 1-1-1V1a1 1 0 0 1 1-1z"/><path fill="#0A47B2" d="M0 17h32v6a1 1 0 0 1-1 1H1a1 1 0 0 1-1-1v-6z"/><path fill="#F5C123" d="M16 16a4 4 0 1 1 0-8 4 4 0 0 1 0 8z"/><path fill="#34702C" fill-rule="nonzero" d="M16 14a2 2 0 1 0 0-4 2 2 0 0 0 0 4z"/><path fill="#0A47B2" d="M1 0h30a1 1 0 0 1 1 1v6H0V1a1 1 0 0 1 1-1z"/><path fill="#000" fill-rule="nonzero" d="M1 1v22h30V1H1zm0-1h30a1 1 0 0 1 1 1v22a1 1 0 0 1-1 1H1a1 1 0 0 1-1-1V1a1 1 0 0 1 1-1z" opacity=".2"/></g></svg><svg width="32" height="24" viewBox="0 0 32 24" id="th" x="128" y="216" xmlns="http://www.w3.org/2000/svg"><title>flags/32x24/th</title><g fill="none" fill-rule="evenodd"><path d="M1 0h30a1 1 0 0 1 1 1v22a1 1 0 0 1-1 1H1a1 1 0 0 1-1-1V1a1 1 0 0 1 1-1z" fill="#EE1D23"/><path fill="#F7F7F7" d="M0 6h32v12H0z"/><path fill="#241D4F" d="M0 9h32v6H0z"/><path d="M1 1v22h30V1H1zm0-1h30a1 1 0 0 1 1 1v22a1 1 0 0 1-1 1H1a1 1 0 0 1-1-1V1a1 1 0 0 1 1-1z" fill="#000" fill-rule="nonzero" opacity=".2"/></g></svg><svg width="32" height="24" viewBox="0 0 32 24" id="tr" x="160" y="216" xmlns="http://www.w3.org/2000/svg"><title>flags/32x24/tr</title><g fill="none" fill-rule="evenodd"><path d="M1 0h30a1 1 0 0 1 1 1v22a1 1 0 0 1-1 1H1a1 1 0 0 1-1-1V1a1 1 0 0 1 1-1z" fill="#E30A17"/><path d="M19.168 7.625a6.8 6.8 0 1 0 0 8.35 5.904 5.904 0 0 1-3.48 1.114c-3.129 0-5.666-2.368-5.666-5.289s2.537-5.289 5.667-5.289c1.311 0 2.518.416 3.479 1.114z" fill="#FFF"/><circle fill="#FFF" cx="19.5" cy="11.5" r="1.5"/><path d="M1 1v22h30V1H1zm0-1h30a1 1 0 0 1 1 1v22a1 1 0 0 1-1 1H1a1 1 0 0 1-1-1V1a1 1 0 0 1 1-1z" fill="#000" fill-rule="nonzero" opacity=".2"/></g></svg><svg width="32" height="24" viewBox="0 0 32 24" id="tt" x="192" y="216" xmlns="http://www.w3.org/2000/svg"><g fill="none" fill-rule="evenodd"><path fill="#DC092D" d="M1 0h30a1 1 0 0 1 1 1v22a1 1 0 0 1-1 1H1a1 1 0 0 1-1-1V1a1 1 0 0 1 1-1z"/><path fill="#FFF" d="M10.364 0L32 21.636V23a1 1 0 0 1-1 1h-9.364L0 2.364V1a1 1 0 0 1 1-1h9.364z"/><path fill="#000" d="M7.536 0l23.9 23.9A.996.996 0 0 1 31 24h-6.536L.564.1C.696.036.844 0 1 0h6.536z"/><path fill="#000" fill-rule="nonzero" d="M1 1v22h30V1H1zm0-1h30a1 1 0 0 1 1 1v22a1 1 0 0 1-1 1H1a1 1 0 0 1-1-1V1a1 1 0 0 1 1-1z" opacity=".2"/></g></svg><svg width="32" height="24" viewBox="0 0 32 24" id="tw" x="224" y="216" xmlns="http://www.w3.org/2000/svg"><title>flags/32x24/tw</title><g fill="none" fill-rule="evenodd"><path d="M1 0h30a1 1 0 0 1 1 1v22a1 1 0 0 1-1 1H1a1 1 0 0 1-1-1V1a1 1 0 0 1 1-1z" fill="#EE1D23"/><path d="M1 0h15v12H0V1a1 1 0 0 1 1-1z" fill="#2A3086"/><circle fill="#F7F7F7" cx="8" cy="6" r="3"/><path d="M1 1v22h30V1H1zm0-1h30a1 1 0 0 1 1 1v22a1 1 0 0 1-1 1H1a1 1 0 0 1-1-1V1a1 1 0 0 1 1-1z" fill="#000" fill-rule="nonzero" opacity=".2"/></g></svg><svg width="32" height="24" viewBox="0 0 32 24" id="ua" x="256" xmlns="http://www.w3.org/2000/svg"><title>flags/32x24/ua</title><g fill="none" fill-rule="evenodd"><path d="M1 0h30a1 1 0 0 1 1 1v22a1 1 0 0 1-1 1H1a1 1 0 0 1-1-1V1a1 1 0 0 1 1-1z" fill="#FFD500"/><path d="M1 0h30a1 1 0 0 1 1 1v11H0V1a1 1 0 0 1 1-1z" fill="#005BBB"/><path d="M1 1v22h30V1H1zm0-1h30a1 1 0 0 1 1 1v22a1 1 0 0 1-1 1H1a1 1 0 0 1-1-1V1a1 1 0 0 1 1-1z" fill="#000" fill-rule="nonzero" opacity=".2"/></g></svg><svg width="32" height="24" viewBox="0 0 32 24" id="us" x="256" y="24" xmlns="http://www.w3.org/2000/svg"><title>flags/32x24/us</title><g fill="none" fill-rule="evenodd"><path d="M1 0h30a1 1 0 0 1 1 1v22a1 1 0 0 1-1 1H1a1 1 0 0 1-1-1V1a1 1 0 0 1 1-1z" fill="#ED2939"/><path d="M0 3h32v2H0V3zm0 4h32v2H0V7zm0 4h32v2H0v-2zm0 4h32v2H0v-2zm0 4h32v2H0v-2z" fill="#F7F7F7"/><path d="M1 0h17v14H0V1a1 1 0 0 1 1-1z" fill="#0066B3"/><path d="M3 4a1 1 0 1 1 0-2 1 1 0 0 1 0 2zm3 2a1 1 0 1 1 0-2 1 1 0 0 1 0 2zm0 4a1 1 0 1 1 0-2 1 1 0 0 1 0 2zm6-4a1 1 0 1 1 0-2 1 1 0 0 1 0 2zm0 4a1 1 0 1 1 0-2 1 1 0 0 1 0 2zM9 4a1 1 0 1 1 0-2 1 1 0 0 1 0 2zm6 0a1 1 0 1 1 0-2 1 1 0 0 1 0 2zM9 8a1 1 0 1 1 0-2 1 1 0 0 1 0 2zm0 4a1 1 0 1 1 0-2 1 1 0 0 1 0 2zm6-4a1 1 0 1 1 0-2 1 1 0 0 1 0 2zm0 4a1 1 0 1 1 0-2 1 1 0 0 1 0 2zM3 8a1 1 0 1 1 0-2 1 1 0 0 1 0 2zm0 4a1 1 0 1 1 0-2 1 1 0 0 1 0 2z" fill="#F7F7F7"/><path d="M1 1v22h30V1H1zm0-1h30a1 1 0 0 1 1 1v22a1 1 0 0 1-1 1H1a1 1 0 0 1-1-1V1a1 1 0 0 1 1-1z" fill="#000" fill-rule="nonzero" opacity=".2"/></g></svg><svg width="32" height="24" viewBox="0 0 32 24" id="uy" x="256" y="48" xmlns="http://www.w3.org/2000/svg"><g fill="none" fill-rule="evenodd"><path fill="#F7F7F7" d="M1 0h30a1 1 0 0 1 1 1v22a1 1 0 0 1-1 1H1a1 1 0 0 1-1-1V1a1 1 0 0 1 1-1z"/><path fill="#0035AA" d="M13 8h19v2H13zM13 3h19v2H13zM0 13h32v2H0zM0 18h32v2H0z"/><path fill="#000" fill-rule="nonzero" d="M1 1v22h30V1H1zm0-1h30a1 1 0 0 1 1 1v22a1 1 0 0 1-1 1H1a1 1 0 0 1-1-1V1a1 1 0 0 1 1-1z" opacity=".2"/><circle cx="7" cy="7" r="4" fill="#FFCD02"/><path fill="#BE8E0E" fill-rule="nonzero" d="M7 12A5 5 0 1 1 7 2a5 5 0 0 1 0 10zm0-2a3 3 0 1 0 0-6 3 3 0 0 0 0 6z"/></g></svg><svg width="32" height="24" viewBox="0 0 32 24" id="ve" x="256" y="72" xmlns="http://www.w3.org/2000/svg"><g fill="none" fill-rule="evenodd"><path fill="#001F7E" d="M1 0h30a1 1 0 0 1 1 1v22a1 1 0 0 1-1 1H1a1 1 0 0 1-1-1V1a1 1 0 0 1 1-1z"/><path fill="#D00C27" d="M0 16h32v7a1 1 0 0 1-1 1H1a1 1 0 0 1-1-1v-7z"/><path fill="#FFCD02" d="M1 0h30a1 1 0 0 1 1 1v7H0V1a1 1 0 0 1 1-1z"/><path fill="#000" fill-rule="nonzero" d="M1 1v22h30V1H1zm0-1h30a1 1 0 0 1 1 1v22a1 1 0 0 1-1 1H1a1 1 0 0 1-1-1V1a1 1 0 0 1 1-1z" opacity=".2"/><g fill="#F7F7F7" transform="translate(9 9)"><circle cx="1" cy="6" r="1"/><circle cx="2" cy="3" r="1"/><circle cx="5" cy="1" r="1"/><circle cx="9" cy="1" r="1"/><circle cx="12" cy="3" r="1"/><circle cx="13" cy="6" r="1"/></g></g></svg><svg width="32" height="24" viewBox="0 0 32 24" id="vn" x="256" y="96" xmlns="http://www.w3.org/2000/svg"><title>global/flags/32x24/vn</title><g fill="none" fill-rule="evenodd"><path d="M1 0h30a1 1 0 0 1 1 1v22a1 1 0 0 1-1 1H1a1 1 0 0 1-1-1V1a1 1 0 0 1 1-1z" fill="#D2143B"/><path fill="#FFF714" d="M16 15l-3.527 1.854.674-3.927-2.853-2.781 3.943-.573L16 6l1.763 3.573 3.943.573-2.853 2.781.674 3.927z"/><path d="M1 1v22h30V1H1zm0-1h30a1 1 0 0 1 1 1v22a1 1 0 0 1-1 1H1a1 1 0 0 1-1-1V1a1 1 0 0 1 1-1z" fill="#000" fill-rule="nonzero" opacity=".2"/></g></svg><svg width="32" height="24" viewBox="0 0 32 24" id="za" x="256" y="120" xmlns="http://www.w3.org/2000/svg"><title>flags/32x24/za</title><g fill="none" fill-rule="evenodd"><path d="M1 0h30a1 1 0 0 1 1 1v22a1 1 0 0 1-1 1H1a1 1 0 0 1-1-1V1a1 1 0 0 1 1-1z" fill="#F7F7F7"/><path d="M1 0h30a1 1 0 0 1 1 1v6H0V1a1 1 0 0 1 1-1z" fill="#CE1126"/><path d="M0 17h32v6a1 1 0 0 1-1 1H1a1 1 0 0 1-1-1v-6z" fill="#002395"/><path d="M3.333 0H1a1 1 0 0 0-1 1v22a1 1 0 0 0 1 1h2.333l9.334-7H32V7H12.667L3.333 0z" fill="#F7F7F7"/><path d="M.336 23.748A.998.998 0 0 1 0 23V1C0 .702.13.435.336.252L12 9h20v6H12L.336 23.748z" fill="#007A4D"/><path fill="#FFB612" d="M10 12L0 19V5z"/><path fill="#000" d="M7.143 12L0 17V7z"/><path d="M1 1v22h30V1H1zm0-1h30a1 1 0 0 1 1 1v22a1 1 0 0 1-1 1H1a1 1 0 0 1-1-1V1a1 1 0 0 1 1-1z" fill="#000" fill-rule="nonzero" opacity=".2"/></g></svg></svg>