<?xml version="1.0" encoding="utf-8"?><svg width="290" height="234" viewBox="0 0 290 234" xmlns="http://www.w3.org/2000/svg" xmlns:xlink="http://www.w3.org/1999/xlink"><svg id="americanexpress" width="34" height="24" viewBox="-1 -1 34 24" x="160" y="188"><style>.st0{fill:#f2f2f2}.st1{fill:#d8d8d8}.st2{fill:#00579d}.st3{fill:#f9a732}.st4{fill:#32326f}.st5{fill:#f22f12}.st6{fill:#f79f1a}.st7{fill:#ff5f01}.ast8{fill:#22ade7}.ast9{fill:#fff}.st10{fill:#f16000}.st11{fill:#bfbfbf}</style><path class="ast8" d="M29 0H3C1.4 0 0 1.3 0 3v16c0 1.7 1.3 3 3 3h26c1.7 0 3-1.3 3-3V3c0-1.7-1.3-3-3-3z"/><path class="ast9" d="M26.8 11l1.8-2.3L30 7h-4.2l-.3.4-.8.9-.7-.9-.3-.4H15l-.3.6-.8 1.8-.8-1.8-.2-.6H9v1.5l-.3-.9-.3-.6H5.3l-.3.6-2.4 5.9L2 15h3.7l.2-.7.3-.8h1.3l.3.8.2.7h4.4v-.5l.2.5h2.6l.1-.1v.1h8.2l.3-.3.9-1 .9 1 .3.4H30l-1.3-1.7-1.9-2.4zm-8.9 3h-1.6V9.6L14.6 14h-1.3l-1.9-4.4V14H8.7l-.5-1.5H5.5L5 14H3.5l2.4-5.9h1.8l2.3 5.6V8.1h2.2l1.7 3.9 1.7-3.9h2.3V14zm8.4 0l-1.6-1.9L23 14h-4.2V8.1h4.4l1.5 1.9 1.6-1.9h1.6L25.5 11l2.3 3h-1.5zm-6.1-4.8v1.3h1.9v1h-1.9v1.3h2.1l1.5-1.8-1.3-1.7-2.3-.1zM6 11.2h1.7l-.8-2-.9 2z"/></svg><svg width="170" height="54" viewBox="-1 -1 170 54" id="btn-appstore" y="54"><title>btn-appstore</title><g fill="none" fill-rule="evenodd"><rect fill="#282C33" width="168" height="52" rx="5"/><path d="M39.356 29.251c-1.338-.506-2.233-1.721-2.334-3.17-.099-1.412.593-2.666 1.851-3.355l1.046-.573-.747-.93c-1.255-1.563-3.05-2.497-4.804-2.497-1.215 0-2.058.318-2.735.574-.478.181-.855.323-1.269.323-.472 0-.938-.166-1.478-.358-.708-.252-1.51-.538-2.54-.538-1.99 0-3.997 1.188-5.237 3.098-1.85 2.849-1.343 7.734 1.208 11.616 1.011 1.538 2.428 3.305 4.435 3.323h.04c1.642 0 2.002-.876 3.597-.886 1.742.082 1.962.893 3.59.882 1.96-.018 3.374-1.771 4.498-3.484.664-1.007.921-1.534 1.438-2.678l.438-.97-.997-.377zm-6.254-13.037c.65-.834 1.143-2.011.964-3.214-1.062.073-2.302.748-3.027 1.628-.658.799-1.2 1.983-.99 3.135 1.158.036 2.357-.656 3.053-1.549zM55.99 20h2.43c2.2 0 3.72-1.53 3.72-3.5v-.02c0-1.97-1.52-3.48-3.72-3.48h-2.43v7zm.79-.73v-5.54h1.64c1.77 0 2.9 1.22 2.9 2.77v.02c0 1.55-1.13 2.75-2.9 2.75h-1.64zm9.26.85c1.56 0 2.71-1.24 2.71-2.7v-.02c0-1.46-1.14-2.68-2.69-2.68-1.56 0-2.7 1.24-2.7 2.7v.02c0 1.46 1.13 2.68 2.68 2.68zm.02-.69c-1.09 0-1.91-.9-1.91-2.01v-.02c0-1.09.77-2 1.89-2 1.09 0 1.92.91 1.92 2.02v.02c0 1.09-.78 1.99-1.9 1.99zm5.2.61h.68l1.4-4.08 1.39 4.08h.67l1.82-5.21h-.8l-1.36 4.15-1.4-4.17h-.64l-1.39 4.17-1.36-4.15h-.82l1.81 5.21zM78.5 20h.77v-2.96c0-.97.66-1.62 1.55-1.62.91 0 1.43.6 1.43 1.56V20h.77v-3.21c0-1.23-.73-2.07-1.98-2.07-.89 0-1.43.45-1.77 1.01v-.9h-.77V20zm6.23 0h.77v-7.3h-.77V20zm4.92.12c1.56 0 2.71-1.24 2.71-2.7v-.02c0-1.46-1.14-2.68-2.69-2.68-1.56 0-2.7 1.24-2.7 2.7v.02c0 1.46 1.13 2.68 2.68 2.68zm.02-.69c-1.09 0-1.91-.9-1.91-2.01v-.02c0-1.09.77-2 1.89-2 1.09 0 1.92.91 1.92 2.02v.02c0 1.09-.78 1.99-1.9 1.99zm5.62.68c.91 0 1.5-.42 1.86-.88V20h.76v-3.16c0-.66-.18-1.16-.54-1.52-.37-.37-.94-.57-1.67-.57-.76 0-1.31.18-1.88.44l.23.63c.48-.22.96-.37 1.57-.37.97 0 1.53.48 1.53 1.4v.16c-.46-.13-.92-.22-1.58-.22-1.31 0-2.21.58-2.21 1.69v.02c0 1.06.96 1.61 1.93 1.61zm.15-.62c-.7 0-1.3-.38-1.3-1.03v-.02c0-.62.55-1.04 1.51-1.04.63 0 1.13.11 1.51.22v.48c0 .82-.77 1.39-1.72 1.39zm6.27.62c.95 0 1.56-.53 1.98-1.15V20h.77v-7.3h-.77v3.12c-.4-.58-1.02-1.1-1.98-1.1-1.24 0-2.47 1-2.47 2.69v.02c0 1.7 1.23 2.68 2.47 2.68zm.14-.69c-.98 0-1.82-.78-1.82-2v-.02c0-1.25.82-1.99 1.82-1.99.96 0 1.87.8 1.87 1.99v.02c0 1.19-.91 2-1.87 2zm10.71.7c2.13 0 3.58-1.69 3.58-3.62v-.02c0-1.93-1.43-3.6-3.56-3.6S109 14.57 109 16.5v.02c0 1.93 1.43 3.6 3.56 3.6zm.02-.73c-1.6 0-2.76-1.3-2.76-2.89v-.02c0-1.59 1.14-2.87 2.74-2.87 1.6 0 2.76 1.3 2.76 2.89v.02c0 1.59-1.14 2.87-2.74 2.87zm5.1.61h.77v-2.96c0-.97.66-1.62 1.55-1.62.91 0 1.43.6 1.43 1.56V20h.77v-3.21c0-1.23-.73-2.07-1.98-2.07-.89 0-1.43.45-1.77 1.01v-.9h-.77V20zm11.14 0h.8v-6.27h2.35V13h-5.5v.73h2.35V20zm4.34 0h.77v-2.96c0-.97.66-1.62 1.55-1.62.91 0 1.43.6 1.43 1.56V20h.77v-3.21c0-1.23-.73-2.07-1.98-2.07-.89 0-1.43.45-1.77 1.01V12.7h-.77V20zm6.62-2.27h4.1c.01-.12.01-.2.01-.27 0-1.52-.88-2.74-2.41-2.74-1.43 0-2.48 1.2-2.48 2.7 0 1.61 1.16 2.7 2.58 2.7.98 0 1.61-.39 2.13-.97l-.48-.43c-.42.44-.92.73-1.63.73-.91 0-1.71-.63-1.82-1.72zm0-.62c.11-1 .79-1.74 1.68-1.74 1.02 0 1.56.8 1.65 1.74h-3.33zM55.384 38h2.512l1.024-2.512h4.736L64.68 38h2.576l-4.8-11.28h-2.272L55.384 38zm4.416-4.688l1.488-3.632 1.488 3.632H59.8zm8.928 7.248h2.432v-3.68c.576.688 1.376 1.28 2.672 1.28 2.032 0 3.904-1.568 3.904-4.432v-.032c0-2.864-1.904-4.432-3.904-4.432-1.264 0-2.08.592-2.672 1.392v-1.232h-2.432V40.56zm4.48-4.464c-1.136 0-2.08-.944-2.08-2.368v-.032c0-1.424.944-2.368 2.08-2.368 1.136 0 2.096.944 2.096 2.368v.032c0 1.44-.96 2.368-2.096 2.368zm6.32 4.464h2.432v-3.68c.576.688 1.376 1.28 2.672 1.28 2.032 0 3.904-1.568 3.904-4.432v-.032c0-2.864-1.904-4.432-3.904-4.432-1.264 0-2.08.592-2.672 1.392v-1.232h-2.432V40.56zm4.48-4.464c-1.136 0-2.08-.944-2.08-2.368v-.032c0-1.424.944-2.368 2.08-2.368 1.136 0 2.096.944 2.096 2.368v.032c0 1.44-.96 2.368-2.096 2.368zm15.36 2.064c2.416 0 4.112-1.248 4.112-3.472v-.032c0-1.952-1.28-2.768-3.552-3.36-1.936-.496-2.416-.736-2.416-1.472v-.032c0-.544.496-.976 1.44-.976s1.92.416 2.912 1.104l1.28-1.856c-1.136-.912-2.528-1.424-4.16-1.424-2.288 0-3.92 1.344-3.92 3.376v.032c0 2.224 1.456 2.848 3.712 3.424 1.872.48 2.256.8 2.256 1.424v.032c0 .656-.608 1.056-1.616 1.056-1.28 0-2.336-.528-3.344-1.36l-1.456 1.744a7.127 7.127 0 0 0 4.752 1.792zm8.816-.016c.816 0 1.408-.192 1.92-.496v-1.952a2.473 2.473 0 0 1-1.2.304c-.544 0-.784-.272-.784-.832v-3.664h2.016v-2.08h-2.016v-2.192h-2.432v2.192h-1.024v2.08h1.024v4.064c0 1.984 1.008 2.576 2.496 2.576zm7.712.048c2.672 0 4.656-2 4.656-4.464v-.032c0-2.464-1.968-4.432-4.624-4.432-2.672 0-4.656 2-4.656 4.464v.032c0 2.464 1.968 4.432 4.624 4.432zm.032-2.096c-1.344 0-2.256-1.104-2.256-2.368v-.032c0-1.264.832-2.336 2.224-2.336 1.344 0 2.256 1.104 2.256 2.368v.032c0 1.264-.832 2.336-2.224 2.336zM122.312 38h2.432v-3.168c0-2.048.992-3.024 2.608-3.024h.128v-2.544c-1.44-.064-2.24.704-2.736 1.888v-1.728h-2.432V38zm10.512.192c1.552 0 2.704-.608 3.504-1.6l-1.392-1.232c-.672.624-1.264.88-2.08.88-1.088 0-1.856-.576-2.096-1.68h5.968c.016-.224.032-.448.032-.64 0-2.432-1.312-4.656-4.176-4.656-2.496 0-4.24 2.016-4.24 4.464v.032c0 2.624 1.904 4.432 4.48 4.432zm-2.096-5.152c.192-1.104.848-1.824 1.856-1.824 1.024 0 1.664.736 1.808 1.824h-3.664z" fill="#FFF"/></g></svg><svg width="170" height="54" viewBox="-1 -1 170 54" id="btn-google-play"><title>btn-google-play</title><defs><path id="ca" d="M0 0v26.649h14.756V0H0z"/></defs><g fill="none" fill-rule="evenodd"><rect fill="#282C33" width="168" height="52" rx="5"/><path d="M59.24 21.12c1.18 0 2.16-.49 2.81-1.07v-2.79h-2.89v.71h2.13v1.74c-.48.39-1.22.7-2.02.7-1.7 0-2.77-1.24-2.77-2.91v-.02c0-1.56 1.11-2.87 2.66-2.87.99 0 1.59.33 2.13.8l.51-.6c-.7-.59-1.43-.93-2.61-.93-2.1 0-3.51 1.7-3.51 3.62v.02c0 2 1.36 3.6 3.56 3.6zm4.59-.12h5.11v-.72h-4.32v-2.45h3.82v-.72h-3.82v-2.39h4.27V14h-5.06v7zm8.55 0h.8v-6.27h2.35V14h-5.5v.73h2.35V21zm7.7 0h.79v-7h-.79v7zm4.69 0h.8v-6.27h2.35V14h-5.5v.73h2.35V21zm10.88.12c2.13 0 3.58-1.69 3.58-3.62v-.02c0-1.93-1.43-3.6-3.56-3.6s-3.58 1.69-3.58 3.62v.02c0 1.93 1.43 3.6 3.56 3.6zm.02-.73c-1.6 0-2.76-1.3-2.76-2.89v-.02c0-1.59 1.14-2.87 2.74-2.87 1.6 0 2.76 1.3 2.76 2.89v.02c0 1.59-1.14 2.87-2.74 2.87zm5.23.61h.77v-5.74l4.52 5.74h.63v-7h-.77v5.61L101.64 14h-.74v7zM61.736 38.192c2.048 0 3.632-.8 4.784-1.776v-4.864h-4.864v2.128h2.48v1.6c-.624.448-1.424.672-2.32.672-1.984 0-3.392-1.504-3.392-3.552v-.032c0-1.904 1.424-3.488 3.216-3.488 1.296 0 2.064.416 2.928 1.136l1.552-1.872c-1.168-.992-2.384-1.536-4.4-1.536-3.392 0-5.872 2.608-5.872 5.792v.032c0 3.312 2.4 5.76 5.888 5.76zm11.104 0c2.672 0 4.656-2 4.656-4.464v-.032c0-2.464-1.968-4.432-4.624-4.432-2.672 0-4.656 2-4.656 4.464v.032c0 2.464 1.968 4.432 4.624 4.432zm.032-2.096c-1.344 0-2.256-1.104-2.256-2.368v-.032c0-1.264.832-2.336 2.224-2.336 1.344 0 2.256 1.104 2.256 2.368v.032c0 1.264-.832 2.336-2.224 2.336zm10.592 2.096c2.672 0 4.656-2 4.656-4.464v-.032c0-2.464-1.968-4.432-4.624-4.432-2.672 0-4.656 2-4.656 4.464v.032c0 2.464 1.968 4.432 4.624 4.432zm.032-2.096c-1.344 0-2.256-1.104-2.256-2.368v-.032c0-1.264.832-2.336 2.224-2.336 1.344 0 2.256 1.104 2.256 2.368v.032c0 1.264-.832 2.336-2.224 2.336zm10.224 4.496c1.664 0 2.896-.352 3.696-1.152.72-.72 1.088-1.84 1.088-3.376v-6.64h-2.432v1.12c-.656-.72-1.44-1.28-2.768-1.28-1.968 0-3.808 1.44-3.808 4v.032c0 2.544 1.808 4 3.808 4 1.296 0 2.08-.528 2.8-1.392v.416c0 1.536-.784 2.336-2.448 2.336-1.136 0-2.016-.288-2.896-.784l-.832 1.824c1.088.576 2.4.896 3.792.896zm.288-5.312c-1.184 0-2.08-.8-2.08-1.984v-.032c0-1.168.896-1.984 2.08-1.984 1.184 0 2.096.816 2.096 1.984v.032c0 1.168-.912 1.984-2.096 1.984zm6.784 2.72h2.432V26.32h-2.432V38zm8.784.192c1.552 0 2.704-.608 3.504-1.6l-1.392-1.232c-.672.624-1.264.88-2.08.88-1.088 0-1.856-.576-2.096-1.68h5.968c.016-.224.032-.448.032-.64 0-2.432-1.312-4.656-4.176-4.656-2.496 0-4.24 2.016-4.24 4.464v.032c0 2.624 1.904 4.432 4.48 4.432zm-2.096-5.152c.192-1.104.848-1.824 1.856-1.824 1.024 0 1.664.736 1.808 1.824h-3.664zM120.376 38h2.464v-3.36h1.872c2.512 0 4.528-1.344 4.528-3.936v-.032c0-2.288-1.616-3.872-4.288-3.872h-4.576V38zm2.464-5.552v-3.424h1.904c1.232 0 2 .592 2 1.696v.032c0 .96-.72 1.696-1.952 1.696h-1.952zM130.92 38h2.432V26.32h-2.432V38zm7.152.16c1.184 0 2-.432 2.592-1.088V38h2.352v-4.976c0-1.152-.288-2.096-.928-2.736-.608-.608-1.568-.96-2.896-.96-1.456 0-2.384.272-3.328.688l.608 1.856c.784-.288 1.44-.464 2.368-.464 1.216 0 1.84.56 1.84 1.568v.144a6.094 6.094 0 0 0-2.096-.352c-2.032 0-3.456.864-3.456 2.736v.032c0 1.696 1.328 2.624 2.944 2.624zm.736-1.68c-.784 0-1.328-.384-1.328-1.04v-.032c0-.768.64-1.184 1.68-1.184.592 0 1.136.128 1.552.32v.432c0 .88-.768 1.504-1.904 1.504zm8.032 4.128c1.456 0 2.16-.656 2.816-2.4l3.296-8.784h-2.528l-1.872 5.84-1.952-5.84h-2.576l3.36 8.608c-.208.432-.432.56-.848.56-.32 0-.72-.144-1.04-.336l-.816 1.76c.624.368 1.28.592 2.16.592z" fill="#FFF"/><g transform="translate(20 12)"><g transform="translate(0 .549)"><mask id="cb" fill="#fff"><use xlink:href="#ca"/></mask><path d="M1.372 0C.624.15 0 .789 0 1.655V25.01c0 .824.564 1.45 1.263 1.639L14.756 13.27 1.372 0z" fill="#27B9C2" mask="url(#cb)"/></g><path d="M1 1.035l13.384 13.27 3.846-3.814-16.058-9.27A1.659 1.659 0 0 0 1 1.035" fill="#ADD7A1"/><path d="M1 27.378c.41.11.864.071 1.282-.17l16.136-9.316L14.493 14 1 27.378z" fill="#D6476C"/><path d="M17.925 17.706l4.09-2.362c1.131-.653 1.131-2.285 0-2.937L17.845 10 14 13.813l3.925 3.893z" fill="#F79F73"/></g></g></svg><svg preserveAspectRatio="xMidYMid" width="101.84" height="61" viewBox="-1 -1 101.84 61" id="card" x="120" y="108"><defs><style>.dcls-1{fill:#d9d9d9;fill-rule:evenodd}</style></defs><path d="M99.536 32.707l-3.829 3.829a1 1 0 0 1-1.414-1.415L96.414 33H68a1 1 0 0 1 0-2h28.414l-2.121-2.121a1 1 0 0 1 1.414-1.415l3.829 3.829a1 1 0 0 1 0 1.414zM85 24a1 1 0 0 1-1-1v-9H2v40a3 3 0 0 0 3 3h76a3 3 0 0 0 3-3V42a1 1 0 0 1 2 0v12a5 5 0 0 1-5 5H5a5 5 0 0 1-5-5V5a5 5 0 0 1 5-5h76a5 5 0 0 1 5 5v18a1 1 0 0 1-1 1zM84 5a3 3 0 0 0-3-3H5a3 3 0 0 0-3 3v7h82V5zM9 5a2 2 0 1 1 .001 3.999A2 2 0 0 1 9 5zm6 0a2 2 0 1 1 0 4 2 2 0 0 1 0-4zm6 0a2 2 0 1 1 .001 3.999A2 2 0 0 1 21 5z" class="dcls-1"/></svg><svg id="card-number" width="120" height="80" viewBox="-1 -1 120 80" x="170"><defs><style>.ecls-1{fill:#e6e6e6}.ecls-2{fill:#bebebe}.ecls-2,.ecls-5,.ecls-6{fill-rule:evenodd}.ecls-3,.ecls-6{fill:#999}.ecls-3{stroke:#e6e6e6}.ecls-3,.ecls-5{stroke-width:2px}.ecls-4{fill:#ffa00a}.ecls-5{fill:none;stroke:#f66}.ecls-7{fill:#c60}</style></defs><rect id="eRounded_Rectangle_17" data-name="Rounded Rectangle 17" class="ecls-1" width="118" height="78" rx="3" ry="3"/><path class="ecls-2" d="M2619.81 1313a8 8 0 1 1-7.81 8 7.91 7.91 0 0 1 7.81-8z" transform="translate(-2535 -1302)"/><path id="eRounded_Rectangle_24" data-name="Rounded Rectangle 24" class="ecls-2" d="M2547.5 1361h39a1.5 1.5 0 0 1 1.5 1.5v3a1.5 1.5 0 0 1-1.5 1.5h-39a1.5 1.5 0 0 1-1.5-1.5v-3a1.5 1.5 0 0 1 1.5-1.5zm46 0h13a1.5 1.5 0 0 1 1.5 1.5v3a1.5 1.5 0 0 1-1.5 1.5h-13a1.5 1.5 0 0 1-1.5-1.5v-3a1.5 1.5 0 0 1 1.5-1.5z" transform="translate(-2535 -1302)"/><circle class="ecls-3" cx="97" cy="19" r="8.88"/><rect id="eRounded_Rectangle_18" data-name="Rounded Rectangle 18" class="ecls-4" x="11" y="19" width="16" height="12" rx="1.5" ry="1.5"/><path id="eRounded_Rectangle_22" data-name="Rounded Rectangle 22" class="ecls-5" d="M2549.5 1339.12h78a3.506 3.506 0 0 1 3.5 3.51v7.75a3.5 3.5 0 0 1-3.5 3.49h-78a3.5 3.5 0 0 1-3.5-3.49v-7.75a3.506 3.506 0 0 1 3.5-3.51z" transform="translate(-2535 -1302)"/><path id="eRounded_Rectangle_21" data-name="Rounded Rectangle 21" class="ecls-6" d="M2551.5 1344h2a.5.5 0 0 1 .5.5v4a.5.5 0 0 1-.5.5h-2a.5.5 0 0 1-.5-.5v-4a.5.5 0 0 1 .5-.5zm4 0h2a.5.5 0 0 1 .5.5v4a.5.5 0 0 1-.5.5h-2a.5.5 0 0 1-.5-.5v-4a.5.5 0 0 1 .5-.5zm4 0h2a.5.5 0 0 1 .5.5v4a.5.5 0 0 1-.5.5h-2a.5.5 0 0 1-.5-.5v-4a.5.5 0 0 1 .5-.5zm4 0h2a.5.5 0 0 1 .5.5v4a.5.5 0 0 1-.5.5h-2a.5.5 0 0 1-.5-.5v-4a.5.5 0 0 1 .5-.5z" transform="translate(-2535 -1302)"/><path id="eRounded_Rectangle_21-2" data-name="Rounded Rectangle 21" class="ecls-6" d="M2571.5 1344h2a.5.5 0 0 1 .5.5v4a.5.5 0 0 1-.5.5h-2a.5.5 0 0 1-.5-.5v-4a.5.5 0 0 1 .5-.5zm4 0h2a.5.5 0 0 1 .5.5v4a.5.5 0 0 1-.5.5h-2a.5.5 0 0 1-.5-.5v-4a.5.5 0 0 1 .5-.5zm4 0h2a.5.5 0 0 1 .5.5v4a.5.5 0 0 1-.5.5h-2a.5.5 0 0 1-.5-.5v-4a.5.5 0 0 1 .5-.5zm4 0h2a.5.5 0 0 1 .5.5v4a.5.5 0 0 1-.5.5h-2a.5.5 0 0 1-.5-.5v-4a.5.5 0 0 1 .5-.5z" transform="translate(-2535 -1302)"/><path id="eRounded_Rectangle_21-3" data-name="Rounded Rectangle 21" class="ecls-6" d="M2591.5 1344h2a.5.5 0 0 1 .5.5v4a.5.5 0 0 1-.5.5h-2a.5.5 0 0 1-.5-.5v-4a.5.5 0 0 1 .5-.5zm4 0h2a.5.5 0 0 1 .5.5v4a.5.5 0 0 1-.5.5h-2a.5.5 0 0 1-.5-.5v-4a.5.5 0 0 1 .5-.5zm4 0h2a.5.5 0 0 1 .5.5v4a.5.5 0 0 1-.5.5h-2a.5.5 0 0 1-.5-.5v-4a.5.5 0 0 1 .5-.5zm4 0h2a.5.5 0 0 1 .5.5v4a.5.5 0 0 1-.5.5h-2a.5.5 0 0 1-.5-.5v-4a.5.5 0 0 1 .5-.5z" transform="translate(-2535 -1302)"/><rect id="eRounded_Rectangle_25" data-name="Rounded Rectangle 25" class="ecls-7" x="15" y="21" width="8" height="2" rx="1" ry="1"/><rect id="eRounded_Rectangle_25-2" data-name="Rounded Rectangle 25" class="ecls-7" x="15" y="27" width="8" height="2" rx="1" ry="1"/><rect id="eRounded_Rectangle_26" data-name="Rounded Rectangle 26" class="ecls-7" x="13" y="24" width="7" height="2" rx="1" ry="1"/><path id="eRounded_Rectangle_21-4" data-name="Rounded Rectangle 21" class="ecls-6" d="M2611.5 1344h2a.5.5 0 0 1 .5.5v4a.5.5 0 0 1-.5.5h-2a.5.5 0 0 1-.5-.5v-4a.5.5 0 0 1 .5-.5zm4 0h2a.5.5 0 0 1 .5.5v4a.5.5 0 0 1-.5.5h-2a.5.5 0 0 1-.5-.5v-4a.5.5 0 0 1 .5-.5zm4 0h2a.5.5 0 0 1 .5.5v4a.5.5 0 0 1-.5.5h-2a.5.5 0 0 1-.5-.5v-4a.5.5 0 0 1 .5-.5zm4 0h2a.5.5 0 0 1 .5.5v4a.5.5 0 0 1-.5.5h-2a.5.5 0 0 1-.5-.5v-4a.5.5 0 0 1 .5-.5z" transform="translate(-2535 -1302)"/></svg><svg width="120" height="80" viewBox="-1 -1 120 80" id="cvv-number" y="108"><defs><style>.fcls-1{fill:#e6e6e6}.fcls-2{fill:#fff}.fcls-3,.fcls-5{fill:#999}.fcls-4{fill:none;stroke:#f66;stroke-width:2px}.fcls-4,.fcls-5{fill-rule:evenodd}</style></defs><rect id="fRounded_Rectangle_17" data-name="Rounded Rectangle 17" class="fcls-1" width="118" height="78" rx="3" ry="3"/><path class="fcls-2" d="M10 38h62v14H10z"/><path id="fRounded_Rectangle_18" data-name="Rounded Rectangle 18" class="fcls-3" d="M0 14h118v14H0z"/><path id="fRounded_Rectangle_22" data-name="Rounded Rectangle 22" class="fcls-4" d="M2557.5 1478.13h19a3.5 3.5 0 0 1 3.5 3.5v8.75a3.5 3.5 0 0 1-3.5 3.49h-19a3.5 3.5 0 0 1-3.5-3.49v-8.75a3.5 3.5 0 0 1 3.5-3.5z" transform="translate(-2477 -1441)"/><path id="fRounded_Rectangle_21" data-name="Rounded Rectangle 21" class="fcls-5" d="M2523.5 1483h3a.5.5 0 0 1 .5.5v5a.5.5 0 0 1-.5.5h-3a.5.5 0 0 1-.5-.5v-5a.5.5 0 0 1 .5-.5zm6 0h3a.5.5 0 0 1 .5.5v5a.5.5 0 0 1-.5.5h-3a.5.5 0 0 1-.5-.5v-5a.5.5 0 0 1 .5-.5zm6 0h3a.5.5 0 0 1 .5.5v5a.5.5 0 0 1-.5.5h-3a.5.5 0 0 1-.5-.5v-5a.5.5 0 0 1 .5-.5zm6 0h3a.5.5 0 0 1 .5.5v5a.5.5 0 0 1-.5.5h-3a.5.5 0 0 1-.5-.5v-5a.5.5 0 0 1 .5-.5zm18 0h3a.5.5 0 0 1 .5.5v5a.5.5 0 0 1-.5.5h-3a.5.5 0 0 1-.5-.5v-5a.5.5 0 0 1 .5-.5zm6 0h3a.5.5 0 0 1 .5.5v5a.5.5 0 0 1-.5.5h-3a.5.5 0 0 1-.5-.5v-5a.5.5 0 0 1 .5-.5zm6 0h3a.5.5 0 0 1 .5.5v5a.5.5 0 0 1-.5.5h-3a.5.5 0 0 1-.5-.5v-5a.5.5 0 0 1 .5-.5z" transform="translate(-2477 -1441)"/></svg><svg id="discover" width="34" height="24" viewBox="-1 -1 34 24" x="126" y="188"><style>.gst0{fill:#f2f2f2}.gst1{fill:#d8d8d8}.st2{fill:#00579d}.st3{fill:#f9a732}.st4{fill:#32326f}.st5{fill:#f22f12}.st6{fill:#f79f1a}.st7{fill:#ff5f01}.st8{fill:#22ade7}.st9{fill:#fff}.gst10{fill:#f16000}.gst11{fill:#bfbfbf}</style><path class="gst0" d="M3 21.5C1.6 21.5.5 20.4.5 19V3C.5 1.6 1.6.5 3 .5h26c1.4 0 2.5 1.1 2.5 2.5v16c0 1.4-1.1 2.5-2.5 2.5H3z"/><path class="gst1" d="M29 1c1.1 0 2 .9 2 2v16c0 1.1-.9 2-2 2H3c-1.1 0-2-.9-2-2V3c0-1.1.9-2 2-2h26m0-1H3C1.3 0 0 1.3 0 3v16c0 1.7 1.3 3 3 3h26c1.7 0 3-1.3 3-3V3c0-1.7-1.3-3-3-3z"/><path class="gst10" d="M29 21H9c9.8-2 18.5-4.8 22-8v6c0 1.1-.9 2-2 2z"/><path id="gDiscover-2" d="M3 10.8h1.3c1 0 1.8-.7 1.8-1.7V9c0-1-.7-1.8-1.7-1.8H3v3.6zm.8-.7V7.9h.6c.6 0 1 .4 1 1V9c0 .6-.4 1-.9 1.1h-.7zm3.1.7h.8V7.2h-.8v3.6zm2.8.1c.6.1 1.2-.3 1.3-1v-.2c0-.6-.5-1.1-1.1-1.1-.6-.1-.8-.2-.8-.4s.2-.3.4-.3c.3 0 .6.1.9.4l.4-.6c-.3-.4-.8-.5-1.2-.5-.6-.1-1.2.3-1.2.9v.1c0 .7.4.9 1.1 1.1.6.2.7.3.7.5s-.2.4-.5.3c-.4 0-.7-.2-1-.4l-.4.6c.3.4.9.6 1.4.6zm3.5 0c.5 0 1.1-.2 1.4-.6l-.5-.5c-.2.3-.6.4-.9.4-.6 0-1-.5-1-1.1 0-.6.4-1.1 1-1.1.3 0 .7.2.9.4l.5-.6c-.3-.4-.8-.6-1.4-.6-1 0-1.8.8-1.8 1.8v.1c0 .9.7 1.7 1.8 1.8-.1 0 0 0 0 0zm6.9-.1h.7l1.4-3.6h-.8l-.9 2.5-.9-2.5h-.8l1.3 3.6zm2.6 0h2.6v-.7h-1.9v-.7H25v-.7h-1.6v-.8h1.8v-.7h-2.6l.1 3.6zm3.3 0h.8V9.7h.6l.7 1.1h.9l-.8-1.3c.5-.2.8-.6.7-1.1 0-.3-.1-.6-.3-.8-.3-.3-.6-.4-1-.4H26v3.6zm.8-1.8V8h.8c.3 0 .5.1.6.4v.1c0 .3-.2.5-.5.5h-.9z"/><path id="gColor_Fill_2" class="gst10" d="M16.7 10.9c1 0 1.8-.8 1.8-1.8V9c0-1-.8-1.8-1.8-1.9s-1.8.8-1.9 1.8V9c.1 1 .9 1.8 1.9 1.9z"/><path id="gRounded_Rectangle_2" class="gst11" d="M10.5 13h12c.3 0 .5.2.5.5s-.2.5-.5.5h-12c-.3 0-.5-.2-.5-.5s.2-.5.5-.5z"/></svg><svg width="18" height="18" viewBox="-1 -1 18 18" id="index-lg" x="239.84" y="145.2"><title>index-lg</title><path d="M1.4 6.7l1.4 1.4 4.3-4.3V16h2V3.8l4.3 4.3 1.4-1.4L8.1 0z" fill="#F64A67" fill-rule="evenodd"/></svg><svg id="mastercard" width="34" height="24" viewBox="-1 -1 34 24" x="92" y="188"><style>.st0{fill:#f2f2f2}.st1{fill:#d8d8d8}.st2{fill:#00579d}.st3{fill:#f9a732}.ist4{fill:#32326f}.ist5{fill:#f22f12}.ist6{fill:#f79f1a}.ist7{fill:#ff5f01}.st8{fill:#22ade7}.st9{fill:#fff}.st10{fill:#f16000}.st11{fill:#bfbfbf}</style><path class="ist4" d="M29 0H3C1.4 0 0 1.3 0 3v16c0 1.7 1.3 3 3 3h26c1.7 0 3-1.3 3-3V3c0-1.7-1.3-3-3-3z"/><circle class="ist5" cx="11.7" cy="11" r="6.6"/><path class="ist6" d="M20.5 4.5c3.6.1 6.5 3 6.4 6.6-.1 3.6-3 6.5-6.6 6.4-3.6-.1-6.4-2.9-6.4-6.5s3-6.5 6.6-6.5z"/><path class="ist7" d="M13.9 11c0-1.9.8-3.6 2.2-4.8 2.7 2.3 2.9 6.4.6 9l-.6.6c-1.4-1.2-2.2-2.9-2.2-4.8z"/></svg><svg width="70" height="26" viewBox="-1 -1 70 26" id="payment-alipay" x="170" y="80"><title>alipay</title><g fill-rule="nonzero" fill="none"><g fill="#2BA6DF"><path d="M3.423.084h16.96c1.146.135 2.223.804 2.821 1.797.301.507.518 1.08.534 1.675-.004 4.201 0 8.402 0 12.601-.865-.16-1.704-.423-2.544-.678-1.78-.535-3.514-1.211-5.262-1.837a19.031 19.031 0 0 0 1.976-5.006c-1.556.009-3.113.003-4.669.003.004-.558-.005-1.118.004-1.68 1.906.009 3.811 0 5.718.005-.008-.317.009-.635-.012-.951-1.903.023-3.808 0-5.71.01.004-.934-.005-1.866.004-2.801-.791.005-1.581-.01-2.37.009-.22-.02-.381.196-.38.398-.009.799-.001 1.598-.001 2.394-1.925-.003-3.85.002-5.77-.003-.006.314-.003.627-.003.944 1.924-.006 3.848.001 5.77-.006.002.564 0 1.122.002 1.681-1.593.005-3.187-.011-4.78.009.014.31.01.622.006.932 3.09-.002 6.18.006 9.269-.002a17.039 17.039 0 0 1-1.297 3.183c-.032.07-.083.086-.153.047-2.03-.654-4.101-1.27-6.239-1.405-1.227-.09-2.487.17-3.543.813-.988.596-1.662 1.65-1.87 2.776a3.87 3.87 0 0 0 .877 3.233c.804.943 2.017 1.453 3.228 1.597 1.618.208 3.271-.16 4.707-.905 1.357-.699 2.542-1.702 3.527-2.86.092-.094.16-.231.283-.285 3.039 1.427 6.134 2.736 9.232 4.041.077.94-.253 1.89-.86 2.606a3.82 3.82 0 0 1-2.416 1.332H3.342C2.3 23.6 1.319 23.021.73 22.142c-.37-.51-.574-1.126-.662-1.745V3.438c.105-.75.406-1.48.903-2.052C1.588.66 2.485.208 3.423.084z"/><path d="M4.156 13.402c1.203-.559 2.583-.587 3.866-.336 1.551.309 3 .983 4.411 1.673-1.065 1.345-2.376 2.564-4.001 3.179a5.578 5.578 0 0 1-3.668.128c-.697-.225-1.358-.642-1.757-1.27a2.188 2.188 0 0 1-.29-1.725c.194-.731.753-1.345 1.44-1.65z"/></g><g transform="translate(27.771 1.714)" fill="#3F3A39"><path d="M4.973.493c.005-.211.174-.42.394-.426C6.1.047 6.832.074 7.564.054c.023.631.007 1.263.009 1.892 1.621.002 3.242.002 4.864 0 0 .312-.002.623.002.933-1.62-.002-3.242 0-4.865 0-.001.497.002.992-.001 1.488h4.194C11.192 6.63 9.632 8.52 7.776 9.884a25.572 25.572 0 0 0 4.791 2.255c.024.354 0 .706.02 1.062-1.073-.205-2.115-.558-3.14-.941a21.35 21.35 0 0 1-3.08-1.456 22.242 22.242 0 0 1-6.3 2.409v-1.119c1.719-.511 3.38-1.216 4.906-2.167-1.361-1.02-2.626-2.22-3.474-3.71.731.01 1.458-.002 2.19.005.684 1.067 1.656 1.908 2.642 2.687 1.153-.965 2.18-2.164 2.682-3.605-2.703.004-5.406 0-8.11.004C.9 4.995.901 4.682.901 4.367l4.072.001c-.004-.497-.004-.996-.002-1.492-1.606.004-3.216 0-4.824.002.003-.31-.006-.622.006-.935 1.607.012 3.212 0 4.818.005.002-.482-.009-.967.002-1.455zM32.334.027h2.557c-.004.415 0 .83-.004 1.247 1.306.008 2.611-.001 3.917.004.356-.025.676.293.667.645.012.536 0 1.071.005 1.608-.814.006-1.629-.003-2.444.006-.007-.449-.003-.895.003-1.343-2.275-.017-4.546.012-6.82-.011-.022.448-.005.898-.008 1.348-.818.004-1.633 0-2.448.004V1.276c1.526.004 3.05 0 4.575.002.003-.416.002-.833 0-1.25zM15.406.138c.78 0 1.562.007 2.34-.004a196.752 196.752 0 0 1-1.584 3.598c.257.003.514.003.77.003-.01 3.093 0 6.185-.004 9.276-.7.004-1.401-.006-2.098.005-.018-2.331-.004-4.661-.008-6.995-.64.002-1.28.002-1.919.002.83-1.964 1.67-3.922 2.503-5.885zM23.187.251h2.203c.004.753-.021 1.512.013 2.263.286-.013.572-.006.859-.009-.002.304-.002.612 0 .916h-.875v8.527c.018.467-.38.913-.857.893-.933.004-1.864 0-2.796 0 0-.31.007-.625-.004-.937.377-.024.758.008 1.135-.015.206-.007.356-.22.323-.419.004-2.685 0-5.367.004-8.05h-5.373c.002-.307-.009-.614.009-.922 1.785.02 3.575 0 5.364.01-.004-.754 0-1.506-.005-2.257zM27.76 4.367h11.713c-.002.302-.002.605-.002.907-1.56-.005-3.121.01-4.681-.009-.02.598-.006 1.2-.009 1.8 1.562-.003 3.123.006 4.685-.003.007.311.005.619.003.93-1.561-.005-3.126 0-4.688-.005v3.82c.793-.003 1.587-.003 2.38 0-.198-.662-.403-1.32-.587-1.983.665.012 1.332-.004 1.999.004.176-.008.357.095.405.273.27.847.502 1.706.772 2.55v.072l-11.99.001v-.922c1.56.007 3.123 0 4.684.002 0-1.269-.002-2.542 0-3.817-1.561.005-3.123 0-4.685.005v-.928c1.562.005 3.124.001 4.685.001.002-.596-.007-1.19.004-1.784-1.562-.016-3.127-.005-4.689-.005v-.909z"/><path d="M18.518 4.682h1.832a.466.466 0 0 1 .445.319c.434 1.369.871 2.737 1.301 4.106-.718-.002-1.434-.002-2.15.002-.483-1.473-.942-2.954-1.428-4.427zM3.479 14.914c.26-.006.521-.004.782-.007.676 1.795 1.338 3.596 2.008 5.396-.346-.008-.695.015-1.04-.015-.1-.364-.227-.72-.354-1.076-.66.005-1.318.005-1.976.002-.135.36-.253.725-.386 1.089-.343-.002-.685-.002-1.026 0 .672-1.791 1.334-3.591 1.992-5.39zm.405 1.428c-.227.737-.52 1.457-.743 2.196.502-.01 1.007-.007 1.508-.003-.21-.65-.437-1.295-.65-1.947a.814.814 0 0 0-.115-.246zM9.46 14.91c.328-.002.656.002.983-.003.008 1.55.014 3.1-.003 4.65.776.03 1.55.003 2.326.01-.003.245-.003.488 0 .736H9.46c.004-1.796.004-3.597 0-5.393zM16.33 14.918c.328-.022.655.005.98-.017.034 1.799-.002 3.598.02 5.398-.335.008-.663.003-.996.004.003-1.796.011-3.591-.003-5.385zM21.285 14.908c.739.007 1.477-.007 2.216.007.53.01 1.079.248 1.388.69.302.42.357.98.224 1.469a1.592 1.592 0 0 1-1.053 1.057c-.587.189-1.206.057-1.807.116.018.688 0 1.369.01 2.056h-.98c.002-1.8 0-3.597.002-5.395zm.972.742c.007.61.007 1.22-.002 1.828.385.01.777.012 1.164-.002.307-.007.58-.227.696-.505.243-.496-.043-1.198-.607-1.309-.415-.033-.836-.004-1.251-.012zM29.511 14.914c.261-.007.524-.004.786-.006.675 1.794 1.333 3.598 2.005 5.395-.345-.008-.694.012-1.04-.01-.1-.37-.228-.725-.35-1.08-.661.002-1.317.008-1.975-.005-.146.36-.256.731-.391 1.094h-1.028a701.61 701.61 0 0 0 1.993-5.388zm.41 1.416c-.226.741-.53 1.464-.743 2.208.498-.01 1-.007 1.502 0-.249-.737-.47-1.488-.758-2.208zM34.53 14.912c.35-.009.703.003 1.055-.009.366.74.707 1.489 1.056 2.234l.071-.01c.331-.74.69-1.466 1.01-2.209.358-.02.715 0 1.074-.01-.533 1.068-1.106 2.119-1.639 3.188-.02.735-.004 1.473-.007 2.208h-.973c-.002-.735.008-1.47-.005-2.205-.53-1.069-1.094-2.127-1.642-3.187z"/></g></g></svg><svg id="payment-bitcoin" viewBox="-1 -1 66 17" width="66" height="17" x="221.84" y="108"><style id="kstyle3337">.kst0{fill:#f7931a}.kst1{fill:#4d4d4d}</style><path id="koval" class="kst0" d="M14.219 9.428c-.915 3.66-4.574 5.925-8.234 5.01-3.616-.915-5.837-4.661-4.923-8.32.872-3.704 4.575-5.925 8.19-5.01 3.66.914 5.882 4.617 4.967 8.32 0 0 .915-3.703 0 0zm-3.616-2.657c.13-.915-.566-1.394-1.481-1.743l.305-1.22-.74-.174-.306 1.22a14.172 14.172 0 0 0-.61-.13l.305-1.264-.74-.174-.305 1.22c-.175-.044-.305-.088-.48-.131l-1.045-.262-.218.784s.566.131.523.131c.305.087.348.262.348.436l-.261 1.48s.044 0 .087.044h-.087l-.48 1.96c-.043.088-.13.219-.348.175l-.522-.13-.349.87.958.262.523.13-.305 1.264.74.174.306-1.22c.218.044.392.088.61.175l-.305 1.22.74.174.305-1.263c1.264.26 2.222.13 2.614-1.002.305-.915 0-1.482-.697-1.83.48-.174.828-.48.915-1.176 0 0-.087.697 0 0zm-1.7 2.44c-.217.914-1.785.435-2.308.304l.392-1.655c.566.13 2.178.348 1.917 1.35 0 0 .261-1.002 0 0zm.262-2.44c-.217.871-1.524.435-1.916.305L7.64 5.55c.392.13 1.742.348 1.524 1.22 0 0 .218-.872 0 0z" fill="#f7931a"/><path id="kb" class="kst1" d="M20.318 5.072c.566 0 1.045.087 1.437.305.392.217.74.479 1.002.784.262.348.436.74.567 1.176.13.436.174.958.174 1.438 0 .784-.13 1.568-.436 2.265-.305.697-.697 1.35-1.176 1.873-.523.523-1.09.959-1.786 1.264a5.5 5.5 0 0 1-2.222.479h-.523c-.261 0-.566-.044-.871-.087-.348-.044-.697-.131-1.046-.218a3.722 3.722 0 0 1-1.045-.392l2.962-12.634L20.013.89l-1.046 4.487c.218-.087.436-.175.697-.262.13-.043.392-.043.654-.043 0 0-.262 0 0 0zm-2.266 7.406a2.11 2.11 0 0 0 1.133-.305c.348-.175.653-.48.915-.785.261-.348.479-.697.61-1.132.13-.436.218-.871.218-1.307 0-.566-.088-1.002-.262-1.307-.174-.305-.523-.48-1.002-.48-.174 0-.348.044-.61.088-.261.043-.479.174-.697.348l-1.132 4.836c.087 0 .13.044.174.044a.33.33 0 0 1 .174.043h.218c.043-.043.13-.043.261-.043 0 0-.13 0 0 0zm7.755 1.916H23.28l2.135-9.148h2.57l-2.178 9.148zm1.263-10.28c-.349 0-.697-.088-.958-.306-.305-.217-.436-.522-.436-1.002 0-.261.044-.479.13-.697.088-.217.218-.392.393-.566.174-.174.348-.261.566-.392.218-.087.436-.13.697-.13.349 0 .654.086.958.304.305.218.436.523.436 1.002 0 .262-.043.48-.13.697a1.658 1.658 0 0 1-.393.567c-.174.174-.348.26-.566.392-.261.087-.48.13-.697.13zm2.701-1.133l2.657-.436-.653 2.7h2.875l-.523 2.136h-2.831l-.74 3.18c-.088.261-.132.522-.132.74 0 .218 0 .436.088.61.087.174.174.305.348.392.174.087.436.131.784.131a4.8 4.8 0 0 0 .784-.087c.262-.044.523-.13.784-.218l.175 1.96c-.349.131-.697.218-1.133.349-.392.087-.871.13-1.438.13-.784 0-1.394-.13-1.83-.348a1.948 1.948 0 0 1-.914-.958c-.174-.392-.261-.872-.261-1.394.043-.523.087-1.09.261-1.7zm4.748 7.754c0-.784.131-1.525.392-2.222.262-.697.61-1.307 1.09-1.83a5.287 5.287 0 0 1 1.699-1.22c.653-.304 1.437-.435 2.221-.435.523 0 .959.044 1.394.13.392.088.784.219 1.09.393l-.872 2.004c-.218-.087-.479-.174-.697-.262a2.896 2.896 0 0 0-.915-.13c-.827 0-1.524.305-2.004.871-.479.61-.74 1.394-.74 2.396 0 .61.13 1.09.392 1.438.261.348.697.566 1.394.566.348 0 .653-.044.958-.087.305-.087.567-.174.828-.262l.174 2.048c-.305.13-.697.261-1.045.348-.392.088-.872.131-1.394.131-.697 0-1.307-.087-1.786-.305-.48-.218-.915-.479-1.22-.828a3.257 3.257 0 0 1-.697-1.263 4.242 4.242 0 0 1-.262-1.481s0 .523 0 0zm10.891 3.877c-.61 0-1.132-.087-1.568-.261-.436-.174-.828-.436-1.09-.784a3.137 3.137 0 0 1-.653-1.177 5.36 5.36 0 0 1-.217-1.524c0-.697.13-1.394.348-2.091.218-.697.567-1.307 1.002-1.874a4.86 4.86 0 0 1 1.612-1.35c.61-.349 1.35-.523 2.178-.523.61 0 1.133.087 1.568.262.436.174.828.435 1.133.784.305.348.523.74.654 1.176.13.436.217.958.217 1.525 0 .697-.13 1.394-.305 2.09a5.87 5.87 0 0 1-.958 1.874 5.174 5.174 0 0 1-1.568 1.35c-.784.349-1.525.523-2.353.523zm1.264-7.406c-.392 0-.697.131-1.002.349-.305.218-.523.479-.74.828-.175.348-.35.697-.437 1.089-.087.392-.13.784-.13 1.132 0 .567.087 1.046.261 1.35.174.306.523.48 1.002.48.392 0 .697-.13 1.002-.349.305-.217.523-.479.74-.827.175-.349.35-.697.436-1.09.087-.391.131-.783.131-1.132 0-.566-.087-1.046-.261-1.35-.218-.349-.523-.48-1.002-.48zm6.142 7.188H50.29l2.135-9.148h2.57l-2.178 9.148zm1.22-10.28c-.349 0-.697-.088-.958-.306-.305-.217-.436-.522-.436-1.002 0-.261.043-.479.13-.697.088-.217.218-.392.393-.566.174-.174.348-.261.566-.392.218-.087.436-.13.697-.13.349 0 .697.086.958.304.305.218.436.523.436 1.002 0 .262-.044.48-.13.697a1.658 1.658 0 0 1-.393.567c-.174.174-.348.26-.566.392-.218.087-.436.13-.697.13zm1.917 1.568c.174-.044.392-.131.653-.218.218-.087.48-.13.784-.218.305-.044.61-.13.959-.174.348-.044.784-.044 1.22-.044 1.35 0 2.265.392 2.788 1.176.522.784.61 1.874.261 3.224l-1.176 4.923h-2.57l1.132-4.836c.087-.305.13-.61.174-.871a2.11 2.11 0 0 0 0-.74c-.043-.218-.13-.393-.305-.523-.174-.131-.435-.218-.784-.218-.348 0-.653.043-1.002.087l-1.655 7.144h-2.57l2.09-8.712z" fill="#4d4d4d"/></svg><svg id="payment-paypal" viewBox="-1 -1 66 20.2" width="66" height="20.2" x="221.84" y="125"><style>.lst0{fill:#139ad6}.lst1{fill:#263b80}.lst2{fill:#232c65}</style><path class="lst0" d="M49.2 5.3h-3.4c-.2 0-.4.2-.5.4l-1.4 8.8c0 .2.1.3.3.3H46c.2 0 .3-.1.3-.3l.4-2.5c0-.2.2-.4.5-.4h1.1c2.3 0 3.6-1.1 3.9-3.3.2-.9 0-1.7-.4-2.2-.6-.5-1.5-.8-2.6-.8m.4 3.3c-.2 1.2-1.1 1.2-2 1.2H47l.4-2.3c0-.1.1-.2.3-.2h.2c.6 0 1.2 0 1.5.4.2.1.2.4.2.9"/><path class="lst1" d="M24.7 5.3h-3.4c-.2 0-.4.2-.5.4l-1.4 8.8c0 .2.1.3.3.3h1.6c.2 0 .4-.2.5-.4l.4-2.4c0-.2.2-.4.5-.4h1.1c2.3 0 3.6-1.1 3.9-3.3.2-.9 0-1.7-.4-2.2-.6-.5-1.4-.8-2.6-.8m.4 3.3c-.2 1.2-1.1 1.2-2 1.2h-.5l.4-2.3c0-.1.1-.2.3-.2h.2c.6 0 1.2 0 1.5.4.1.1.2.4.1.9M35 8.5h-1.6c-.1 0-.3.1-.3.2l-.1.5-.1-.2c-.4-.5-1.1-.7-1.9-.7-1.8 0-3.4 1.4-3.7 3.3-.2 1 .1 1.9.6 2.5s1.2.8 2.1.8c1.5 0 2.3-.9 2.3-.9l-.1.5c0 .2.1.3.3.3H34c.2 0 .4-.2.5-.4l.9-5.6c-.1-.1-.3-.3-.4-.3m-2.3 3.2c-.2.9-.9 1.6-1.9 1.6-.5 0-.9-.2-1.1-.4-.2-.3-.3-.7-.3-1.2.1-.9.9-1.6 1.8-1.6.5 0 .8.2 1.1.4.3.3.4.8.4 1.2"/><path class="lst0" d="M59.4 8.5h-1.6c-.1 0-.3.1-.3.2l-.1.5-.1-.2c-.4-.5-1.1-.7-1.9-.7-1.8 0-3.4 1.4-3.7 3.3-.2 1 .1 1.9.6 2.5s1.2.8 2.1.8c1.5 0 2.3-.9 2.3-.9l-.1.5c0 .2.1.3.3.3h1.5c.2 0 .4-.2.5-.4l.9-5.6c-.1-.1-.2-.3-.4-.3m-2.3 3.2c-.2.9-.9 1.6-1.9 1.6-.5 0-.9-.2-1.1-.4-.2-.3-.3-.7-.3-1.2.1-.9.9-1.6 1.8-1.6.5 0 .8.2 1.1.4.4.3.5.8.4 1.2"/><path class="lst1" d="M43.7 8.5H42c-.2 0-.3.1-.4.2l-2.2 3.4-1-3.2c-.1-.2-.2-.3-.5-.3h-1.6c-.2 0-.3.2-.3.4l1.8 5.3-1.7 2.4c-.1.2 0 .5.2.5h1.6c.2 0 .3-.1.4-.2l5.5-7.9c.3-.3.1-.6-.1-.6"/><path class="lst0" d="M61.3 5.6l-1.4 9c0 .2.1.3.3.3h1.4c.2 0 .4-.2.5-.4l1.4-8.8c0-.2-.1-.3-.3-.3h-1.6c-.1-.1-.2 0-.3.2"/><path class="lst1" d="M12 2.3c-.7-.8-2-1.2-3.8-1.2h-5c-.3 0-.6.3-.7.6l-2 13.1c0 .3.2.5.4.5H4l.8-4.9v.2c.1-.3.4-.6.7-.6H7c2.9 0 5.1-1.2 5.8-4.5v-.3c-.1 0-.1 0 0 0 .1-1.3-.1-2.1-.8-2.9"/><g><path class="lst0" d="M12.7 5.2v.3C12 8.9 9.8 10 6.9 10H5.4c-.3 0-.6.3-.7.6l-1 6.1c0 .2.1.4.4.4h2.6c.3 0 .6-.2.6-.5v-.1l.5-3.1v-.2c0-.3.3-.5.6-.5h.4c2.5 0 4.5-1 5-4 .2-1.2.1-2.3-.5-3-.1-.2-.3-.4-.6-.5"/></g><g><path class="lst2" d="M12 4.9c-.1 0-.2-.1-.3-.1s-.2 0-.3-.1c-.4-.1-.8-.1-1.3-.1H6.2c-.1 0-.2 0-.3.1-.2.1-.3.3-.3.5l-.8 5.2v.2c.1-.3.4-.6.7-.6H7c2.9 0 5.1-1.2 5.8-4.5 0-.1 0-.2.1-.3-.2-.1-.3-.2-.5-.2-.3-.1-.3-.1-.4-.1"/></g></svg><svg width="47" height="26" viewBox="-1 -1 47 26" id="payment-unionpay" x="240" y="80"><title>union-pay</title><g fill-rule="nonzero" fill="none"><path d="M31.402.07c-1.543.047-3.43 1.263-3.774 2.761l-4.016 18.28c-.344 1.513.591 2.743 2.096 2.766h11.587c1.48-.073 2.92-1.275 3.258-2.756L44.57 2.84c.35-1.528-.608-2.769-2.137-2.769L31.402.07z" fill="#0699AE"/><path d="M27.628 2.831c.344-1.498 2.231-2.714 3.746-2.76L26.99.068 19.088.067c-1.52.03-3.431 1.255-3.775 2.764l-4.017 18.28c-.345 1.513.591 2.743 2.094 2.766h12.318c-1.505-.023-2.44-1.253-2.096-2.766l4.016-18.28z" fill="#014F99"/><path d="M15.313 2.831c.344-1.51 2.255-2.733 3.775-2.764L7.966.064C6.438.064 4.48 1.302 4.13 2.831L.112 21.111c-.031.14-.049.279-.06.414v.428c.103 1.103.945 1.905 2.155 1.924H13.39c-1.503-.023-2.44-1.253-2.094-2.766l4.017-18.28z" fill="#EA163B"/><g transform="translate(4.6 4.8)" fill="#FFF"><path d="M14.701 9.684h.192c.176 0 .294-.059.35-.176l.498-.745h1.332l-.277.49h1.598l-.203.75h-1.902c-.219.33-.489.485-.813.467h-.99l.215-.786zm-.219 1.076h3.502l-.223.815h-1.409l-.214.787h1.37l-.223.816h-1.37l-.319 1.163c-.079.195.025.282.31.262h1.116l-.207.758h-2.144c-.406 0-.546-.233-.418-.699l.407-1.484h-.876l.222-.815h.876l.215-.787h-.837l.222-.816zm5.59-2.003l-.056.478s.66-.496 1.26-.496h2.217l-.848 3.069c-.07.35-.372.525-.904.525h-2.512l-.589 2.155c-.034.115.014.174.14.174h.495l-.181.67h-1.257c-.483 0-.683-.146-.604-.437l1.663-6.138h1.175zm1.876.868H19.97l-.237.828s.33-.238.88-.246c.55-.009 1.176 0 1.176 0l.16-.582zm-.717 1.92c.147.02.229-.037.238-.174l.121-.436H19.61l-.166.61h1.788zm-1.336.992h1.142l-.021.495h.304c.153 0 .23-.05.23-.147l.09-.32h.95l-.128.467c-.107.388-.391.591-.853.61H21l-.002.846c-.012.135.11.204.363.204h.571l-.184.669h-1.372c-.384.018-.573-.165-.569-.554l.088-2.27zM6.055 4.67c-.155.76-.514 1.342-1.071 1.756-.553.407-1.264.612-2.136.612-.82 0-1.422-.209-1.806-.627-.266-.297-.398-.675-.398-1.13 0-.19.023-.392.068-.61L1.64.19h1.403L2.127 4.62a1.424 1.424 0 0 0-.038.339.866.866 0 0 0 .169.558c.166.215.436.322.811.322.432 0 .787-.105 1.063-.318.276-.212.457-.511.538-.902L5.588.191h1.396l-.93 4.478zm5.89-1.761h1.099l-.86 3.996h-1.097l.858-3.996zm.346-1.456h1.108l-.207.97h-1.108l.207-.97zM14.016 6.6c-.287-.275-.432-.645-.434-1.115a2.989 2.989 0 0 1 .059-.563c.13-.65.408-1.165.835-1.545.427-.382.941-.574 1.544-.574.494 0 .885.139 1.172.414.286.278.43.652.43 1.128 0 .082-.006.176-.017.278-.012.1-.028.2-.046.298-.127.64-.404 1.15-.831 1.523-.428.376-.941.563-1.54.563-.495 0-.885-.135-1.172-.407zm2.094-.791c.193-.21.332-.528.416-.952a1.844 1.844 0 0 0 .04-.393c.001-.247-.062-.438-.188-.573-.125-.137-.303-.204-.533-.204a.96.96 0 0 0-.746.32c-.196.215-.335.539-.422.97a5.088 5.088 0 0 0-.031.197c-.007.066-.01.128-.008.184 0 .245.063.434.189.568.125.134.302.2.535.2a.967.967 0 0 0 .748-.317zM24.75 9.718l.264-.932h1.34l-.058.342s.684-.342 1.177-.342h1.656l-.263.932h-.261l-1.25 4.397h.261l-.247.873h-.261l-.108.378h-1.297l.108-.378h-2.559l.25-.873h.256l1.25-4.397h-.259zm1.444 0l-.34 1.19s.583-.224 1.085-.287c.111-.416.256-.903.256-.903h-1zm-.498 1.748l-.343 1.246s.647-.318 1.09-.345c.128-.482.257-.901.257-.901h-1.004zm.25 2.649l.256-.905h-1l-.257.905h1.001zm3.24-5.387h1.258l.054.465c-.009.118.062.174.211.174h.223l-.226.787h-.925c-.353.018-.535-.117-.552-.408l-.044-1.018zm-.37 1.689h4.078l-.239.845h-1.298l-.223.785h1.297l-.24.844h-1.445l-.327.494h.707l.163.99c.02.099.107.147.256.147h.22l-.23.815h-.778c-.403.02-.611-.116-.628-.407l-.188-.904-.643.962a.697.697 0 0 1-.702.378H27.41l.231-.815h.37c.153 0 .28-.067.393-.204l1.008-1.456h-1.299l.24-.844h1.41l.223-.785h-1.41l.241-.845zm-21.47-7.51h.991l-.113.577.142-.165a1.542 1.542 0 0 1 1.172-.514c.417 0 .717.12.906.365.186.243.237.58.149 1.012l-.546 2.724H9.029l.492-2.469c.051-.255.037-.445-.041-.568-.077-.122-.225-.183-.439-.183a.952.952 0 0 0-.662.244c-.18.163-.299.39-.357.679l-.455 2.297h-1.02l.8-4zm11.362 0h.991l-.112.577.14-.165a1.545 1.545 0 0 1 1.172-.514c.417 0 .718.12.906.365.184.243.238.58.147 1.012l-.543 2.724h-1.02l.493-2.469c.051-.255.037-.445-.04-.568-.081-.122-.226-.183-.439-.183a.959.959 0 0 0-.663.244c-.18.163-.3.39-.356.679l-.457 2.297h-1.019l.8-4zm4.9-2.48h2.88c.552 0 .98.126 1.275.372.293.25.44.607.44 1.073v.015c0 .088-.007.188-.015.297-.015.11-.033.22-.056.328-.127.617-.421 1.112-.876 1.488a2.477 2.477 0 0 1-1.62.564h-1.543l-.478 2.341H22.28l1.33-6.477zm.72 3.01h1.28c.334 0 .599-.077.792-.23.191-.156.318-.392.388-.713l.027-.162c.004-.047.01-.093.01-.138 0-.23-.082-.396-.245-.5-.164-.106-.42-.157-.775-.157h-1.087l-.39 1.9zm9.856 4.242c-.422.898-.825 1.422-1.061 1.666-.237.24-.706.8-1.835.759l.097-.686c.95-.293 1.464-1.613 1.757-2.197l-.349-4.304.735-.01h.617l.066 2.7 1.156-2.7h1.17L34.185 7.68zm-3.272-4.446l-.465.32c-.486-.38-.93-.616-1.785-.219-1.167.541-2.141 4.688 1.07 3.322l.183.217 1.263.033.83-3.769-1.096.096zm-.719 2.06c-.202.599-.656.994-1.01.882-.356-.11-.482-.688-.277-1.287.203-.6.66-.995 1.011-.882.355.11.483.687.276 1.287z"/></g></g></svg><svg id="protected" width="18" height="18" viewBox="-1 -1 18 18" x="221.84" y="145.2"><style>.nst0{fill:#40c1c5}.nst1{fill:#fff}</style><path class="nst0" d="M8 0C3.6 0 0 3.6 0 8s3.6 8 8 8 8-3.6 8-8-3.6-8-8-8z"/><path class="nst1" d="M6.7 12L3.1 8.5l1.4-1.4 2.2 2.1 4.7-4.6L12.8 6z"/></svg><svg version="1" viewBox="-1 -1 46 46" width="46" height="46" id="security-30day" y="188"><path fill="#F7941D" d="M30.9 17c-1.1-1.3-2.6-2-4.6-2s-3.6.7-4.6 2c-.5.7-.9 1.5-1.2 2.4-.2-1.2-.7-2.2-1.6-3-1.1-.9-2.6-1.4-4.6-1.4-1.1 0-2.2.2-3.1.6s-1.7 1-2.2 1.8c-.5.8-.8 1.6-.8 2.6h3.7c0-.6.2-1.1.7-1.5.5-.4 1.1-.6 1.8-.6.8 0 1.4.2 1.8.6.4.4.7 1 .7 1.7 0 .8-.2 1.4-.7 1.9s-1.1.7-2.1.7h-2v2.9H14c2 0 3 .9 3 2.8 0 .8-.2 1.4-.7 1.8-.5.5-1.2.7-2.1.7-.8 0-1.4-.2-1.9-.7s-.8-1-.8-1.7H8c0 1.6.6 2.9 1.8 3.9s2.7 1.5 4.5 1.5c2 0 3.6-.5 4.8-1.5.8-.7 1.3-1.5 1.6-2.5.3.8.6 1.4 1 2 1.1 1.3 2.6 2 4.6 2 2 0 3.6-.7 4.6-2s1.6-3.3 1.6-5.9v-3.4c0-2.5-.5-4.4-1.6-5.7zm-13.2 7.2c.8-.4 1.5-.9 2-1.6.1-.2.2-.3.3-.5v3.8c-.5-.7-1.2-1.3-2.3-1.7zm11.2 2.6c0 1.4-.2 2.5-.6 3.2s-1 1.1-1.9 1.1c-.9 0-1.6-.4-2-1.1-.4-.7-.6-1.9-.6-3.4v-4.5c0-1.4.2-2.5.7-3.1.4-.7 1-1 1.9-1 .9 0 1.5.3 2 1 .4.7.6 1.8.6 3.3v4.5z"/><path d="M33.5 9c-1.4 0-2.8.4-4.1 1.2l-.4.3V9c0-.6-.4-1-1-1s-1 .4-1 1v4c0 .6.4 1 1 1h4c.6 0 1-.4 1-1s-.4-1-1-1h-1.6l.2-.1c.9-.6 1.9-.9 3-.9 3 0 5.5 2.5 5.5 5.5S36.5 22 33.5 22 28 19.5 28 16.5c0-.6-.4-1-1-1s-1 .4-1 1c0 4.1 3.4 7.5 7.5 7.5s7.5-3.4 7.5-7.5S37.6 9 33.5 9z"/></svg><svg version="1" viewBox="-1 -1 46 46" width="46" height="46" id="security-cancel" x="46" y="188"><path fill="#F7941D" d="M24 9H14c-1.7 0-3 1.3-3 3v18c0 1.5 1 2.7 2.4 2.9l6.3 3c.7.3 1.3-.3 1.3-1.4V33h3c1.7 0 3-1.3 3-3V12c0-1.7-1.3-3-3-3zm1 21c0 .6-.4 1-1 1h-3V15.7c0-1.1-.6-2.3-1.3-2.6L15.2 11H24c.6 0 1 .4 1 1v18z"/><path d="M39.7 20.3l-4-4c-.4-.4-1-.4-1.4 0s-.4 1 0 1.4l2.3 2.3H24c-.6 0-1 .4-1 1s.4 1 1 1h12.6l-2.3 2.3c-.4.4-.4 1 0 1.4.2.2.5.3.7.3s.5-.1.7-.3l4-4c.4-.4.4-1 0-1.4z"/></svg><svg width="26.97" height="24" viewBox="-1 -1 26.97 24" id="security-lock" x="228" y="188"><defs><style>.qcls-1{fill:#ffa00a}.qcls-1,.qcls-2{fill-rule:evenodd}</style></defs><path id="qlock" class="qcls-1" d="M1213.5 1199.99a5.871 5.871 0 0 0-5.83 5.87v3.28h-1.22a1.373 1.373 0 0 0-1.45 1.46v9.94a1.373 1.373 0 0 0 1.45 1.46h14.09a1.375 1.375 0 0 0 1.46-1.46v-9.94a1.375 1.375 0 0 0-1.46-1.46h-1.21v-3.28a5.877 5.877 0 0 0-5.83-5.87zm2.91 9.15h-5.83v-3.28a2.915 2.915 0 1 1 5.83 0v3.28z" transform="translate(-1205 -1200)"/><path id="qtick" class="qcls-2" d="M1229.57 1211.29l-7.42 7.29a1.382 1.382 0 0 1-1.94 0l-2.83-2.77a1.346 1.346 0 0 1 0-1.91 1.382 1.382 0 0 1 1.94 0l1.86 1.82 6.46-6.34a1.389 1.389 0 0 1 1.93 0 1.328 1.328 0 0 1 0 1.91z" transform="translate(-1205 -1200)"/></svg><svg width="17" height="17" viewBox="-1 -1 17 17" id="unprotected" x="257.84000000000003" y="145.2"><title>ico-unprotected</title><g fill="none" fill-rule="evenodd"><circle fill="#f64a67" cx="7.5" cy="7.5" r="7.5"/><path fill="#FFF" d="M9.6 4L7.5 6.1 5.4 4 4 5.4l2.1 2.1L4 9.6 5.4 11l2.1-2.1L9.6 11 11 9.6 8.9 7.5 11 5.4z"/></g></svg><svg id="visa" width="34" height="24" viewBox="-1 -1 34 24" x="194" y="188"><style>.sst0{fill:#f2f2f2}.sst1{fill:#d8d8d8}.sst2{fill:#00579d}.sst3{fill:#f9a732}.st4{fill:#32326f}.st5{fill:#f22f12}.st6{fill:#f79f1a}.st7{fill:#ff5f01}.st8{fill:#22ade7}.st9{fill:#fff}.st10{fill:#f16000}.st11{fill:#bfbfbf}</style><path class="sst0" d="M3 21.5C1.6 21.5.5 20.4.5 19V3C.5 1.6 1.6.5 3 .5h26c1.4 0 2.5 1.1 2.5 2.5v16c0 1.4-1.1 2.5-2.5 2.5H3z"/><path class="sst1" d="M29 1c1.1 0 2 .9 2 2v16c0 1.1-.9 2-2 2H3c-1.1 0-2-.9-2-2V3c0-1.1.9-2 2-2h26m0-1H3C1.4 0 0 1.3 0 3v16c0 1.7 1.3 3 3 3h26c1.7 0 3-1.3 3-3V3c0-1.7-1.3-3-3-3z"/><path class="sst2" d="M11.8 14.9l1.3-7.7h2l-1.3 7.7h-2zm9.4-7.6c-.6-.2-1.2-.3-1.8-.3-2 0-3.4 1-3.4 2.6.1 1 .8 1.8 1.8 2.1.8.4 1.1.6 1 1-.1.5-.7.9-1.2.8-.7 0-1.3-.1-1.9-.4l-.3-.1-.3 1.7c.7.3 1.5.4 2.3.4 2.1 0 3.5-1 3.5-2.6 0-.9-.5-1.6-1.7-2.1-.7-.4-1.1-.6-1.1-1 0-.3.4-.7 1.2-.7.5 0 1 .1 1.5.3h.1l.3-1.7m5.2-.2h-1.6c-.5-.1-.9.2-1.1.6l-3 7.1h2.1s.3-1 .4-1.2h2.6c.1.3.2 1.2.2 1.2h2l-1.6-7.7m-2.5 5c.2-.4.8-2.2.8-2.2s.2-.4.3-.7l.1.7s.4 1.8.5 2.2h-1.7zm-13.8-5l-2 5.3-.2-1.1c-.5-1.4-1.5-2.5-2.8-3.2l1.8 6.8H9l3.2-7.7-2.1-.1"/><path id="sColor_Fill_1" class="sst3" d="M6.3 7.1H3v.2c2.2.4 4.1 2 4.9 4l-.7-3.5c-.1-.4-.5-.7-.9-.7"/></svg></svg>