<svg width="128" height="96" viewBox="0 0 128 96" xmlns="http://www.w3.org/2000/svg"><title>global/illustrations/features/streaming</title><g fill="none"><path d="M96.041 96a23.898 23.898 0 0 0 14.947-5.254C118.588 87.91 124 80.587 124 72c0-8.46-5.31-15.858-12.977-18.732a24.539 24.539 0 0 0-5.99-3.575l.461-1.989c.334-1.438.506-2.838.506-4.205 0-8.028-5.111-14.86-12.258-17.421a22.407 22.407 0 0 0-10.194-4.716A21.74 21.74 0 0 1 87.5 21C99.928 21 110 31.072 110 43.5c0 1.72-.219 3.396-.585 5.005C120.09 51.116 128 60.638 128 72.001c0 13.254-10.746 24-24 24h-7.96zM48.999 12.24A33.32 33.32 0 0 1 53 12c8.92 0 17 3.545 22.936 9.295a22.554 22.554 0 0 0-4.575 1.272 28.911 28.911 0 0 0-6.913-4.215 32.777 32.777 0 0 0-15.45-6.112zM26 85h70v4H26v-4z" fill="#D0D1D2"/><path d="M120 72c0 13.255-10.746 24-24 24H27C12.088 96 0 83.914 0 69c0-9.38 4.787-17.66 12.047-22.5A31.803 31.803 0 0 1 12 45c0-18.223 14.778-33 33-33 9.89 0 18.75 4.36 24.797 11.25C72.738 21.838 76.02 21 79.5 21 91.928 21 102 31.072 102 43.5c0 1.72-.219 3.396-.585 5.005C112.09 51.116 120 60.638 120 72.001zM96 92c11.045 0 20-8.955 20-20 0-9.362-6.501-17.422-15.506-19.492l-3.906-.899.906-3.904c.334-1.438.506-2.838.506-4.205C98 33.281 89.72 25 79.5 25c-2.746 0-5.44.64-7.972 1.856l-2.736 1.313-2.002-2.28C61.31 19.641 53.456 16 45 16c-16.013 0-29 12.987-29 29 0 .337.01.628.042 1.312l.107 2.26-1.883 1.256A23.006 23.006 0 0 0 4 69c0 12.703 10.297 23 23 23h69z" fill="#151922"/><path d="M47 47.416V68.57c.071 3.35 3.478 5.479 6.28 3.897 5.86-3.535 11.72-7.074 17.58-10.612 1.257-.762 2.14-2.201 2.14-3.862s-.882-3.1-2.141-3.862c-5.83-3.585-11.769-6.985-17.579-10.601a4.183 4.183 0 0 0-2.152-.528c-2.142.083-4.075 1.9-4.128 4.414z" fill="#F64F64"/></g></svg>