<svg width="79" height="96" viewBox="0 0 79 96" xmlns="http://www.w3.org/2000/svg"><title>global/illustrations/features/strict-no-logs-policy</title><g fill="none"><path d="M79 96H65v-4h10V31H65v-4h14v69zM12 79h11v4H12v-4zm15 0h11v4H27v-4zm15 0h11v4H42v-4z" fill="#D0D1D2"/><path d="M51 18h14v78H0V18h13v4H4v70h57V22H51v-4zM32 7c3.5 0 7.5 2.6 8 6h7v14H17V13h7c.5-3.4 4.5-6 8-6zm0 4c-1.9 0-3.9 1.5-4 2.6l-.5 3.4H21v6h22v-6h-6.5l-.5-3.4c-.1-1.1-2.1-2.6-4-2.6zm0 3c1.1 0 2 .9 2 2s-.9 2-2 2-2-.9-2-2 .9-2 2-2z" fill="#151922"/><path d="M32.5 70C23.94 70 17 63.06 17 54.5 17 45.94 23.94 39 32.5 39 41.06 39 48 45.94 48 54.5 48 63.06 41.06 70 32.5 70zM39 58.9l-4.4-4.4 4.4-4.4-2.1-2.1-4.4 4.4-4.4-4.4-2.1 2.1 4.4 4.4-4.4 4.4 2.1 2.1 4.4-4.4 4.4 4.4 2.1-2.1z" fill="#F64F64"/></g></svg>