<svg width="132" height="60" viewBox="0 0 132 60" xmlns="http://www.w3.org/2000/svg"><g fill="none"><path fill="#E8238C" d="M126 37h5v5h-5z"/><path d="M62.183 25.123v2.983h.062a5.52 5.52 0 0 1 2.045-2.47c.453-.3.94-.534 1.456-.7a5.237 5.237 0 0 1 1.611-.249c.29 0 .61.053.96.156v4.102a8.577 8.577 0 0 0-.743-.108 7.824 7.824 0 0 0-.837-.047c-.805 0-1.487.135-2.044.404a3.553 3.553 0 0 0-1.349 1.103 4.436 4.436 0 0 0-.728 1.632 8.912 8.912 0 0 0-.217 2.02v7.242H58V25.123h4.183zm6.088 4.94c.063-1.034.32-1.895.775-2.578a5.285 5.285 0 0 1 1.735-1.648 7.57 7.57 0 0 1 2.37-.886c.878-.175 1.76-.264 2.65-.264.805 0 1.621.058 2.447.171.827.114 1.58.338 2.262.668a4.46 4.46 0 0 1 1.673 1.383c.434.591.65 1.374.65 2.348v8.36c0 .725.042 1.42.125 2.082.082.664.227 1.16.434 1.492H78.93a6.423 6.423 0 0 1-.31-1.554 5.731 5.731 0 0 1-2.478 1.523 9.933 9.933 0 0 1-2.913.435 7.846 7.846 0 0 1-2.138-.28 4.88 4.88 0 0 1-1.735-.87 4.05 4.05 0 0 1-1.162-1.492c-.28-.6-.418-1.315-.418-2.144 0-.912.16-1.663.48-2.254a4.03 4.03 0 0 1 1.239-1.414 5.543 5.543 0 0 1 1.735-.792c.65-.176 1.306-.316 1.968-.42a33.72 33.72 0 0 1 1.952-.248c.64-.063 1.208-.156 1.704-.28.496-.124.888-.306 1.177-.544.29-.238.424-.585.403-1.041 0-.477-.077-.855-.232-1.135a1.712 1.712 0 0 0-.62-.653 2.454 2.454 0 0 0-.898-.31 7.445 7.445 0 0 0-1.1-.078c-.868 0-1.55.186-2.046.56-.495.372-.785.994-.867 1.864h-4.4zm10.163 3.265a1.964 1.964 0 0 1-.697.388 7.082 7.082 0 0 1-.898.234c-.321.061-.656.113-1.007.154a18.99 18.99 0 0 0-1.054.156 8 8 0 0 0-.976.25c-.32.103-.599.242-.837.418-.237.177-.429.4-.573.668-.145.27-.216.612-.216 1.026 0 .394.071.726.216.995.144.27.341.482.589.637.248.155.537.264.868.326.33.062.67.094 1.022.094.867 0 1.539-.145 2.014-.436.475-.29.826-.637 1.053-1.04.228-.405.367-.814.419-1.229a8.81 8.81 0 0 0 .077-.994v-1.647zm17.767 5.812c-.516.87-1.193 1.497-2.029 1.88-.837.383-1.782.575-2.835.575-1.199 0-2.252-.233-3.16-.699A6.351 6.351 0 0 1 85.93 39a8.588 8.588 0 0 1-1.332-2.751 11.56 11.56 0 0 1-.45-3.232c0-1.077.15-2.118.45-3.124a8.116 8.116 0 0 1 1.332-2.657 6.65 6.65 0 0 1 2.215-1.85c.888-.465 1.921-.699 3.099-.699.95 0 1.853.202 2.71.606.858.404 1.535 1 2.03 1.788h.062V19h4.4v22.19h-4.183v-2.05h-.062zm-.186-7.941a4.707 4.707 0 0 0-.635-1.617 3.592 3.592 0 0 0-1.162-1.134c-.475-.29-1.074-.435-1.797-.435-.723 0-1.332.146-1.828.435a3.43 3.43 0 0 0-1.193 1.15 5.095 5.095 0 0 0-.65 1.632 8.842 8.842 0 0 0-.202 1.911c0 .622.072 1.243.217 1.865a5.09 5.09 0 0 0 .697 1.663c.32.487.723.881 1.209 1.18.485.302 1.068.451 1.75.451.723 0 1.327-.144 1.813-.434a3.3 3.3 0 0 0 1.162-1.166 5.262 5.262 0 0 0 .62-1.663 9.84 9.84 0 0 0 .185-1.927c0-.663-.062-1.3-.186-1.911zm5.825-1.135c.062-1.035.32-1.896.775-2.58a5.285 5.285 0 0 1 1.734-1.647 7.57 7.57 0 0 1 2.37-.886 13.532 13.532 0 0 1 2.65-.264c.806 0 1.621.058 2.448.171a7.52 7.52 0 0 1 2.262.668 4.46 4.46 0 0 1 1.673 1.383c.433.591.65 1.374.65 2.348v8.36c0 .725.042 1.42.125 2.082.082.664.226 1.16.433 1.492h-4.46a6.423 6.423 0 0 1-.31-1.554 5.731 5.731 0 0 1-2.479 1.523c-.95.29-1.921.435-2.913.435a7.846 7.846 0 0 1-2.138-.28 4.88 4.88 0 0 1-1.735-.87 4.05 4.05 0 0 1-1.162-1.492c-.279-.6-.418-1.315-.418-2.144 0-.912.16-1.663.48-2.254a4.03 4.03 0 0 1 1.24-1.414 5.543 5.543 0 0 1 1.735-.792c.65-.176 1.306-.316 1.968-.42a33.61 33.61 0 0 1 1.952-.248c.64-.063 1.208-.156 1.703-.28.496-.124.889-.306 1.178-.544.289-.238.423-.585.403-1.041 0-.477-.077-.855-.233-1.135a1.712 1.712 0 0 0-.62-.653 2.454 2.454 0 0 0-.898-.31 7.445 7.445 0 0 0-1.1-.078c-.867 0-1.549.186-2.045.56-.496.372-.785.994-.868 1.864h-4.399zm10.163 3.264a1.964 1.964 0 0 1-.697.388 7.082 7.082 0 0 1-.899.234c-.32.061-.656.113-1.007.154-.352.042-.702.094-1.053.156a8 8 0 0 0-.977.25c-.32.103-.598.242-.836.418-.237.177-.43.4-.573.668-.145.27-.217.612-.217 1.026 0 .394.072.726.217.995.144.27.34.482.588.637.248.155.537.264.868.326.33.062.671.094 1.022.094.868 0 1.54-.145 2.014-.436.475-.29.826-.637 1.054-1.04.227-.405.366-.814.419-1.229a8.81 8.81 0 0 0 .077-.994v-1.647zm10.605-8.205v2.983h.062a5.52 5.52 0 0 1 2.045-2.47c.453-.3.94-.534 1.456-.7a5.237 5.237 0 0 1 1.611-.249c.29 0 .61.053.96.156v4.102a8.577 8.577 0 0 0-.743-.108 7.824 7.824 0 0 0-.837-.047c-.805 0-1.487.135-2.044.404a3.553 3.553 0 0 0-1.349 1.103 4.436 4.436 0 0 0-.728 1.632 8.912 8.912 0 0 0-.217 2.02v7.242h-4.399V25.123h4.183z" fill="#343334"/><path d="M25.794 34.23H14.576c.061 1.429.423 2.465 1.084 3.107.66.643 1.611.964 2.85.964.889 0 1.653-.223 2.293-.669.64-.445 1.033-.916 1.178-1.414h3.872c-.619 1.927-1.57 3.306-2.85 4.134-1.281.829-2.83 1.243-4.647 1.243-1.26 0-2.397-.202-3.409-.606a7.09 7.09 0 0 1-2.571-1.725c-.703-.746-1.245-1.637-1.627-2.673-.383-1.036-.573-2.175-.573-3.419 0-1.201.196-2.32.588-3.356a7.87 7.87 0 0 1 1.674-2.689 7.868 7.868 0 0 1 2.587-1.787c1.001-.435 2.111-.652 3.33-.652 1.364 0 2.552.264 3.564.792a7.122 7.122 0 0 1 2.494 2.13 8.767 8.767 0 0 1 1.41 3.045c.05.196.094.394.133.594.086-.456.202-.897.347-1.325.361-1.067.893-1.989 1.596-2.766a7.305 7.305 0 0 1 2.571-1.818c1.012-.435 2.17-.653 3.47-.653.95 0 1.865.125 2.742.373a7.316 7.316 0 0 1 2.355 1.135 6.065 6.065 0 0 1 1.689 1.896c.434.756.682 1.652.743 2.688h-4.306c-.29-1.844-1.374-2.766-3.254-2.766-.702 0-1.29.16-1.766.482a3.823 3.823 0 0 0-1.162 1.243 5.38 5.38 0 0 0-.635 1.678 8.727 8.727 0 0 0 0 3.59c.124.602.326 1.145.604 1.632a3.47 3.47 0 0 0 1.131 1.196c.476.311 1.054.467 1.736.467 1.053 0 1.864-.296 2.432-.886.568-.59.924-1.383 1.069-2.378h4.245c-.29 2.134-1.116 3.761-2.479 4.88-1.363 1.118-3.11 1.678-5.236 1.678-1.199 0-2.298-.202-3.3-.606a7.31 7.31 0 0 1-2.557-1.694A7.696 7.696 0 0 1 26.35 36.7a8.665 8.665 0 0 1-.555-2.47zM46.086 19v8.36h.093c.558-.932 1.27-1.61 2.138-2.036.868-.423 1.714-.637 2.54-.637 1.178 0 2.144.161 2.898.482.753.322 1.347.767 1.781 1.337.434.57.739 1.264.915 2.082.174.819.263 1.725.263 2.72v9.883h-4.4v-9.075c0-1.326-.207-2.316-.62-2.968-.414-.654-1.146-.98-2.2-.98-1.198 0-2.065.358-2.602 1.073-.538.714-.806 1.89-.806 3.527v8.423h-4.4V19h4.4zm-34.8 6.123v2.952H8.065v7.957c0 .746.124 1.243.372 1.491.248.25.744.373 1.487.373.248 0 .485-.01.713-.03.227-.02.444-.052.65-.094v3.419a10.52 10.52 0 0 1-1.239.124c-.454.02-.898.032-1.332.032-.682 0-1.328-.047-1.937-.14a4.558 4.558 0 0 1-1.61-.544 2.87 2.87 0 0 1-1.1-1.15c-.27-.498-.403-1.15-.403-1.958v-9.48H1v-2.952h2.665v-4.818h4.4v4.818h3.222zm9.347 3.76c-.527-.58-1.328-.87-2.401-.87-.703 0-1.286.12-1.75.357a3.249 3.249 0 0 0-1.704 2.005 5.06 5.06 0 0 0-.202 1.057h7.157c-.207-1.119-.573-1.968-1.1-2.549z" fill="#2D6E93"/></g></svg>