<svg width="132" height="60" viewBox="0 0 132 60" xmlns="http://www.w3.org/2000/svg"><path d="M103.63 27.02l-2.46 4.14h-5.641l5.061-7.38L95.789 17h5.74l2.241 3.72 2.139-3.72h5.601l-4.721 6.72 5.221 7.44h-5.82l-2.56-4.14zm-23.781 9.712H76.49V23.7h2.778c5.779 0 6.289 4.696 6.289 6.368 0 2.489-.728 6.664-5.708 6.664zm2-19.732H68.631v26.489h11.655c9.051 0 13.267-5.173 13.267-13.311C93.552 23.491 90.5 17 81.849 17zM44.305 43.572h22.464v-7.066H52.884V33.82l13.885.011v-7.036H52.884v-2.699l13.885-.009v-7.086H44.305v26.571zM20 24.08h6.893v19.41h8.64V24.08h6.91V17H20v7.08z" fill="#ED1C24"/></svg>