<svg width="132" height="60" viewBox="0 0 132 60" xmlns="http://www.w3.org/2000/svg"><path d="M16.2 23.8v11.3h-1.6V23.8h-3.8v-1.5H20v1.5h-3.8zm11.1 11.3v-5.8c0-1.4-.6-2.2-2-2.2-.9 0-1.6.6-2 1.4-.3.7-.3 1.6-.3 2.3V35h-1.5V22H23v5.1c.5-.9 1.6-1.4 2.7-1.4 2.1 0 3.2 1.2 3.2 3.3v6h-1.6v.1zM38.9 31h-6.4c0 .8.3 1.7.9 2.3.4.4 1 .6 1.7.6s1.3-.2 1.7-.6c.3-.3.4-.5.5-1h1.5c-.1.9-.7 1.7-1.4 2.3-.6.4-1.5.7-2.3.7-1.3 0-2.3-.5-3-1.4-.8-.9-1.1-2.1-1.1-3.4 0-1.1.2-2.1.7-2.9.6-1.1 1.9-1.9 3.4-1.9 1.2 0 2.1.5 2.8 1.2.7.8 1.2 2 1.2 3.2l-.2.9zm-2.1-3.2c-.4-.5-1-.8-1.8-.8-1.7 0-2.5 1.4-2.5 2.7h4.9c-.1-.7-.3-1.4-.6-1.9zM52.9 29c-.7.7-1.7 1.1-3.1 1.1h-3.2v5H45V22.3h4.7c1.5 0 2.6.4 3.2 1.2.6.7 1 1.6 1 2.7.1 1.2-.3 2.2-1 2.8zm-3.2-5.3h-3.1v4.9h3.1c1.7 0 2.6-.8 2.6-2.5 0-1.6-1-2.4-2.6-2.4zm10 3.7c-.7 0-1.3.3-1.7.7-.7.7-.8 2-.8 2.9v4.1h-1.5V26H57l.1 1.6c.5-1.1 1.6-1.7 2.7-1.7.2 0 .5 0 .7.1v1.5c-.2-.1-.5-.1-.8-.1zm8.6 6.8c-.7.6-1.6 1.1-2.8 1.1-1.2 0-2.1-.4-2.8-1.1-1-1-1.3-2.3-1.3-3.7 0-1.4.3-2.8 1.3-3.7.7-.6 1.6-1.1 2.8-1.1 1.2 0 2.1.4 2.8 1.1 1 1 1.3 2.3 1.3 3.7 0 1.4-.3 2.8-1.3 3.7zm-1.2-6.5c-.4-.4-.9-.6-1.6-.6-.7 0-1.3.3-1.6.6-.6.7-.8 1.8-.8 2.8 0 1.1.2 2.2.8 2.8.4.4.9.6 1.6.6.7 0 1.3-.3 1.6-.6.6-.7.8-1.8.8-2.8.1-1.1-.1-2.2-.8-2.8zm9.6 7.4l-2.4-3.6-2.4 3.6h-1.7l3.1-4.6-3.1-4.5H72l2.4 3.4 2.3-3.4h1.8l-3.1 4.5 3.2 4.6h-1.9zm7.1 1.8c-.4 1.2-1.1 1.9-2.5 1.9-.8 0-1.3-.1-1.4-.2v-1.3s.5.1 1.1.1c.6 0 1.1-.2 1.4-.9L83 35l-3.6-9.1h1.7l2.7 7.2 2.6-7.2H88l-4.2 11zm17.9-3c-.7.8-1.9 1.2-3.2 1.2h-5.1V22.3h5.1c1.2 0 2.4.4 3.1 1.2.5.6.8 1.2.8 2.1 0 1.2-.6 2.4-1.8 2.8 1.3.4 2.1 1.7 2.1 3.1-.1 1-.5 1.8-1 2.4zm-3.3-10.2h-3.5v4h3.6c1.3 0 2.3-.6 2.3-2-.1-1.3-1.2-2-2.4-2zm.1 5.4h-3.6v4.4h3.6c1.4 0 2.5-.7 2.5-2.2 0-1.3-1.2-2.2-2.5-2.2zm13 6.1c-.8 0-1.3-.6-1.3-1.4-.5.9-1.7 1.5-2.9 1.5-2.1 0-3.1-1.4-3.1-2.8 0-1.2.8-2.7 3.2-2.8l2.8-.2v-.7c0-.5-.1-1-.5-1.4-.3-.3-.8-.5-1.5-.5-.8 0-1.4.2-1.7.5-.3.3-.5.6-.5 1.1h-1.5c0-.8.3-1.4.8-1.9.6-.6 1.7-1 2.8-1 1.8 0 2.8.8 3.2 1.7.2.4.3.9.3 1.4v4.4c0 .5.2.6.5.6.2 0 .4-.1.4-.1V35c-.3.1-.6.2-1 .2zm-1.4-4.5l-2.4.1c-.9.1-2 .5-2 1.6 0 .8.5 1.6 1.8 1.6.7 0 1.4-.2 1.9-.7.5-.6.8-1.3.8-2.1v-.5h-.1zm7.1 6.2c-.4 1.2-1.1 1.9-2.5 1.9-.8 0-1.3-.1-1.4-.2v-1.3s.5.1 1.1.1c.6 0 1.1-.2 1.4-.9l.6-1.5-3.6-9.1h1.7l2.7 7.2 2.6-7.2h1.6l-4.2 11z"/></svg>