<svg width="132" height="60" viewBox="0 0 132 60" xmlns="http://www.w3.org/2000/svg"><path d="M103.6 39.8l-1.5-.3c-3.1-.8-5.3-2.7-6.5-5.7-1.4-3.5-1.1-6.9 1.2-10 1.5-2 3.5-3.1 5.9-3.4 1.5-.2 3.1-.1 4.6-.2h1.8v5.7h-4.4c-1.6 0-2.8.7-3.5 2.1-.7 1.4-.6 2.9.3 4.2.9 1.2 2.6 1.9 4 1.4.4-.1.4-.1.4-.6v-1.1h-3.2v-4.3h8.5v9.6c0 .2 0 .3-.2.4-1.2.9-2.5 1.5-3.9 1.8l-1.8.3c-.5.1-1.1.1-1.7.1zM48.7 20.3c.2.5.3.9.5 1.4 1.2 3.2 2.3 6.3 3.5 9.5 1 2.6 1.9 5.2 2.8 7.9.1.2.2.3.4.3h5.4c.7 0 .5.1.7-.5l5.1-13.8c.2-.4.3-.9.5-1.3h.1v15.7h11.2v-5.2h-5.4v-2.2h3.4v-4.4h-3.4v-2h5.4v-5.3H62.4c-.2 0-.3.1-.3.3-1.1 3.6-2.1 7.1-3.2 10.7-.1.2-.1.4-.2.6-.6-2.2-1.2-4.2-1.8-6.3H59c.2 0 .3-.1.3-.3.3-1.2.7-2.3 1-3.5.1-.5.3-1 .4-1.5-3.9-.1-7.9-.1-12-.1zm-20.5 19h6v-19h-6.1v7.2h-2.8v-2h1.4v-5.2h-7.4v19h6v-7.2h2.8c.1 2.4.1 4.8.1 7.2zm52.1 0h6.1v-4.8c.1.1.1.2.2.3 1 1.4 2 2.9 3.1 4.3.1.1.2.3.4.3h6.6c-1.6-2.4-3.3-4.8-4.9-7.3.1-.1.1-.1.2-.1.8-.5 1.5-1.2 1.9-2.1.5-1.2.7-2.5.5-3.8-.2-1.9-1-3.4-2.6-4.4-1.3-.9-2.8-1.2-4.4-1.2h-7c-.1 6.1-.1 12.5-.1 18.8zm8-13.1c.3.6.4 1.2 0 1.8-.5.7-1.2.8-2 .8v-3.5c.8 0 1.6.2 2 .9zm-46.9 5.7h3.4v-4.3h-3.4v-2h5.1c.2 0 .3-.1.3-.3v-4.9H35.6V39c0 .4 0 .4.4.4h10.6c.2 0 .3-.1.3-.3v-5h-5.4c-.1-.8-.1-1.5-.1-2.2zm71-11.6v19h11.2V34h-5.4v-2.2h3.4v-4.3h-3.4v-2h5.4v-5.2h-11.2zm-94.4 0H8.4v5.2H12v13.8h6v-19z"/></svg>