<svg width="132" height="60" viewBox="0 0 132 60" xmlns="http://www.w3.org/2000/svg"><path d="M3.912 34.624v-6.76h-1.83v-1.849l1.83-.251v-2.306l3.947-.567v2.874h2.617v2.107H7.86v6.412c0 1.204.328 1.821 1.485 1.821.412 0 .974-.045 1.26-.105v1.564c-.632.382-1.985.707-3.235.707-2.353 0-3.456-1.06-3.456-3.647h-.001zm26.316-7.787c.991 0 1.526.18 1.526 3.766l-3.308.198c.044-3.25.523-3.964 1.782-3.964zm-1.75 5.423h7.115c0-5.127-1.72-6.761-5.299-6.761-3.554 0-5.887 2.342-5.887 6.364 0 4.154 2.115 6.452 6.215 6.452 2.203 0 3.982-1.009 4.535-1.776v-1.19c-.828.257-1.68.422-3.206.422-2.154 0-3.264-1.144-3.473-3.522v.01zm-17.532 4.642l1.264-.596v-13.29l-1.33-.633v-1.109l4.92-.813h.334v6.65h.132a6.038 6.038 0 0 1 4.118-1.614c2.015 0 3.015 1.027 3.015 3.267v7.54l1.279.598v1.124h-6.515v-1.124l1.28-.598v-6.627c0-1.24-.53-1.704-1.603-1.704a4.3 4.3 0 0 0-1.633.31v8.023l1.28.599v1.124h-6.531V36.9l-.01.002zm86.348-10.607v1.11l1.33.633v8.278l-1.268.602v1.129h6.504v-1.114l-1.267-.602V25.494h-.334l-4.965.812v-.01zm13.485 9.37v-3.301l-.923.09c-.92.09-1.672.715-1.672 1.884 0 1.347.723 1.792 1.485 1.792.441 0 .89-.223 1.109-.467l.001.001zm-2.8-8.525l-.838 2.492h-2.053v-3.206c1.11-.352 2.46-.927 4.553-.927 3.184 0 5.097.963 5.097 3.702v7.105l1.265.602v.92c-.388.214-1.268.487-2.228.487-1.243 0-2.357-.406-2.541-1.731h-.118c-.53 1.084-1.941 1.746-3.426 1.746-2.118 0-3.456-1.4-3.456-3.432 0-2.498 1.603-2.905 4.22-3.461l2.28-.407v-1.594c0-1.568-.47-2.348-1.985-2.348-.206 0-.574.027-.81.052h.04zm8.347 9.763l1.265-.587v-8.278l-1.33-.632v-1.099l4.921-.798h.334v1.626h.133a6.036 6.036 0 0 1 4.117-1.61c2.015 0 3.015 1.023 3.015 3.266v7.54l1.28.602v1.13h-6.515v-1.115l1.279-.59v-6.68c0-1.241-.53-1.705-1.603-1.705a4.3 4.3 0 0 0-1.632.31v8.023l1.264.599v1.124h-6.5V36.9l-.028.003zM91.768 23.026l-1.327-.617v-1.114l4.962-.813h.334V35.94l1.264.707v1.054l-4.705.557h-.324v-1.265h-.132c-.5.648-1.515 1.325-3 1.325-2.177 0-4.78-1.415-4.78-6.096 0-4.921 2.662-6.697 5.824-6.697.662 0 1.441.15 1.926.511v-3.01h-.042zm0 12.854v-8.265c-.31-.24-.633-.44-1.353-.44-1.241 0-2.191 1.143-2.191 4.59 0 3.019.75 4.334 2.32 4.334.61 0 .953-.126 1.22-.237l.004.018zM42.54 42.096c-2.167 0-2.912-.783-2.912-1.626 0-.587.153-.993.46-1.37h4.195c.98 0 1.426.302 1.426.934.003 1.264-.684 2.062-3.169 2.062zm.034-15.172c.868 0 1.426.392 1.426 2.83s-.56 2.693-1.413 2.693-1.403-.204-1.403-2.69c0-2.484.544-2.83 1.41-2.83l-.02-.003zm2.632 8.474h-4.264c-.456 0-.839-.361-.839-.783 0-.33.236-.677.53-.903.647.196 1.176.256 1.97.256 3.074 0 5.177-1.43 5.177-4.094 0-1.189-.485-1.866-1.25-2.558v-.09l1.97.707.265.015v-2.455h-.22l-3.034.617h-.17c-.755-.286-1.808-.587-2.764-.587-3.074 0-5.2 1.56-5.2 4.211 0 1.615.794 2.818 1.98 3.483v.128c-.684.494-2 1.508-2 2.807 0 .948.613 1.886 1.892 2.167v.131c-1.346.286-2.853.738-2.853 2.318 0 1.626 2.302 2.83 6.053 2.83 4.662 0 6.68-1.836 6.68-4.741 0-2.393-1.295-3.507-3.927-3.507l.004.048zm29.868-9.09v1.113l1.338.632v8.278l-1.264.602v1.13H82v-1.115l-1.632-.602v-6.82c.676-.33 1.566-.442 2.632-.442.35 0 .765.045 1.004.11v-3.566c-.132-.045-.392-.066-.588-.066-1.309 0-2.378.863-3.076 2.499h-.118v-2.577h-.338l-4.809.81v.013zm-5.47 9.376v-3.311l-.912.09c-.912.09-1.662.723-1.662 1.896 0 1.355.72 1.792 1.485 1.792.441 0 .891-.226 1.109-.467h-.02zm-2.81-8.534l-.838 2.499H63.9v-3.223c1.117-.352 2.47-.927 4.558-.927 3.192 0 5.103.963 5.103 3.702v7.105l1.265.602v.92c-.382.214-1.265.487-2.22.487-1.236 0-2.354-.406-2.53-1.731h-.118c-.53 1.084-1.94 1.746-3.417 1.746-2.114 0-3.441-1.4-3.441-3.432 0-2.498 1.613-2.905 4.229-3.461l2.291-.407v-1.594c0-1.568-.462-2.348-1.985-2.348-.199 0-.574.027-.812.052l-.026.01zm-16.382.888l-1.323-.632v-1.099l4.97-.798h.339v8.593c0 1.392.666 1.64 1.669 1.64.735 0 1.03-.135 1.426-.29v-7.415l-1.338-.633v-1.109l4.956-.81h.323v10.446l1.324.707v1.06l-4.824.542h-.347l-.004-1.626h-.133c-.761.963-2.019 1.67-3.632 1.67-2.397 0-3.422-1.745-3.422-3.867v-6.38l.016.001zm50.116-7.587c1.177 0 2.125.974 2.125 2.176 0 1.201-.951 2.177-2.126 2.177-1.177 0-2.132-.964-2.132-2.168 0-1.204.955-2.167 2.132-2.167l.001-.018zm28.897 16.911l2.536.006-2.536-.006z" fill="#8A8C98"/></svg>