<svg width="132" height="60" viewBox="0 0 132 60" xmlns="http://www.w3.org/2000/svg"><defs><linearGradient x1="47.143%" y1=".221%" x2="52.87%" y2="100%" id="a"><stop stop-color="#D91779" offset="0%"/><stop stop-color="#F42" offset="100%"/></linearGradient></defs><path d="M42.182 2.53A8.771 8.771 0 0 0 36.015 0H23.273v23H32V8.625h2.793c.756 0 1.512.287 2.036.863l3.026 2.99c.523.517.872 1.264.872 2.012V23h8.728v-9.717c0-2.3-.931-4.486-2.56-6.095L42.182 2.53zM87.272 0v8.51c0 .748-.29 1.495-.872 2.013l-3.025 2.99c-.524.517-1.28.862-2.037.862H77.15c.873-1.38 1.396-2.99 1.396-4.658V0h-8.727v8.51c0 .748-.29 1.495-.873 2.013l-3.025 2.99c-.524.517-1.28.862-2.036.862H61.09V0h-8.727v23h12.741c2.328 0 4.539-.92 6.168-2.53l2.909-2.875V23h8.378a8.77 8.77 0 0 0 6.167-2.53l4.713-4.657A8.566 8.566 0 0 0 96 9.716V0h-8.727zM0 8.625h5.818V23h8.727V8.625h5.819V0H0v8.625z" transform="translate(18 19)" fill="url(#a)"/></svg>