<svg width="31" height="24" viewBox="0 0 31 24" xmlns="http://www.w3.org/2000/svg"><title>global/logos/horizontal/unionpay</title><g fill="none"><path d="M29.162 2.05l-7.545-.002h-.002l-.017.001c-1.036.033-2.327.877-2.562 1.917l-3.568 16.028c-.235 1.05.404 1.905 1.433 1.92h7.926c1.014-.05 1.998-.885 2.23-1.913l3.567-16.028c.24-1.061-.416-1.923-1.462-1.923" fill="#01798A"/><path d="M15.468 19.994l3.568-16.028c.234-1.04 1.526-1.884 2.562-1.916l-3-.002h-5.404c-1.04.02-2.347.87-2.582 1.92l-3.57 16.027c-.235 1.05.405 1.905 1.433 1.92h8.426c-1.029-.015-1.668-.87-1.433-1.92" fill="#024381"/><path d="M7.043 19.994l3.569-16.028c.235-1.048 1.542-1.898 2.582-1.92L6.27 2.044c-1.045 0-2.385.86-2.624 1.922L.076 19.994c-.02.095-.034.19-.04.287v.298c.07.765.646 1.323 1.474 1.336h6.965c-1.028-.016-1.668-.87-1.432-1.921" fill="#DD0228"/><path d="M13.34 13.725h.13c.121 0 .202-.04.24-.122l.34-.517h.912l-.19.34h1.094l-.14.521h-1.3c-.15.229-.334.337-.556.324h-.678l.148-.546zm-.15.747h2.395l-.153.567h-.963l-.147.546h.938l-.153.566h-.937l-.218.808c-.054.135.017.196.211.182h.764l-.141.526h-1.467c-.278 0-.373-.161-.286-.485l.278-1.03h-.599l.152-.567h.6l.146-.546h-.572l.152-.567zm3.823-1.39l-.038.331s.452-.344.862-.344h1.517l-.58 2.13c-.048.244-.254.366-.619.366h-1.718l-.403 1.496c-.023.08.01.121.096.121h.339l-.125.465h-.86c-.33 0-.467-.101-.412-.303l1.137-4.262h.804zm1.284.602h-1.353l-.162.575s.225-.165.602-.171c.375-.006.804 0 .804 0l.109-.404zm-.49 1.334c.1.014.156-.026.162-.121l.083-.303h-1.355l-.114.424h1.224zm-.915.688h.782l-.015.344h.208c.105 0 .157-.035.157-.102l.062-.222h.65l-.087.324c-.074.27-.268.41-.584.424h-.416l-.002.587c-.008.094.076.142.248.142h.391l-.126.464h-.938c-.263.013-.392-.114-.39-.384l.06-1.577zm-9.467-5.463c-.106.527-.352.932-.733 1.22-.377.282-.864.424-1.46.424-.562 0-.973-.145-1.235-.436-.182-.206-.273-.468-.273-.785 0-.131.015-.272.046-.423l.636-3.11h.959l-.627 3.074a1.025 1.025 0 0 0-.026.236.607.607 0 0 0 .116.387c.114.15.298.224.555.224.295 0 .538-.073.727-.22.189-.147.312-.356.368-.627l.628-3.074h.955l-.636 3.11zm4.03-1.223h.75l-.588 2.775h-.75l.588-2.776v.001zm.236-1.012h.758l-.141.674h-.759l.142-.674zm1.18 3.575c-.196-.19-.296-.448-.297-.774.001-.131.014-.262.04-.391.09-.451.28-.81.572-1.073a1.517 1.517 0 0 1 1.056-.398c.338 0 .605.096.801.287.196.193.295.453.295.784 0 .056-.005.122-.012.192a5.74 5.74 0 0 1-.031.208c-.087.444-.277.798-.569 1.057a1.52 1.52 0 0 1-1.053.39c-.339 0-.606-.093-.802-.282zm1.432-.55c.133-.145.227-.366.285-.66.017-.09.026-.181.028-.273 0-.171-.043-.304-.129-.398-.086-.095-.207-.142-.365-.142a.653.653 0 0 0-.51.223c-.135.149-.23.374-.29.673a3.611 3.611 0 0 0-.02.137 1.01 1.01 0 0 0-.006.128c0 .17.043.301.13.394.085.093.206.139.366.139.21 0 .379-.074.511-.22v-.001z" fill="#FFF"/><path d="M21.615 2.052l-3.017-.005 3 .01c.006 0 .012-.005.017-.005" fill="#E02F41"/><path d="M18.598 2.059l-5.363-.015a.138.138 0 0 0-.041.01l5.404.005" fill="#2E4F7D"/><path d="M20.213 13.749l.181-.648h.916l-.04.238s.469-.238.806-.238h1.133l-.18.648h-.178l-.855 3.053h.178l-.17.606h-.178l-.074.263h-.887l.074-.263h-1.75l.17-.606h.176l.855-3.053h-.177zm.988 0l-.233.826s.4-.156.743-.2c.076-.288.175-.626.175-.626h-.685zm-.34 1.213l-.235.866s.442-.221.746-.24c.087-.334.175-.626.175-.626h-.687.001zm.17 1.84l.176-.628h-.684l-.176.628h.685-.001zm2.216-3.74h.862l.036.322c-.006.082.043.121.145.121h.152l-.154.547h-.633c-.242.012-.366-.081-.378-.284l-.03-.707v.001zm-.252 1.172h2.79l-.164.586h-.888l-.152.546h.887l-.165.586h-.988l-.224.343h.484l.112.688c.013.068.073.101.175.101h.15l-.158.567h-.532c-.275.013-.418-.08-.43-.283l-.127-.628-.44.668a.475.475 0 0 1-.48.263h-.812l.158-.566h.253c.104 0 .19-.047.269-.142l.689-1.011h-.889l.165-.586h.963l.154-.546h-.965l.165-.586zM8.309 9.018h.678l-.078.401.097-.114c.22-.239.487-.357.802-.357.285 0 .49.084.62.253.127.17.161.403.101.703l-.373 1.892H9.46l.337-1.715c.034-.177.025-.309-.029-.394-.053-.085-.154-.127-.3-.127a.645.645 0 0 0-.453.17.843.843 0 0 0-.244.47l-.31 1.596h-.699l.547-2.778zm7.771 0h.679l-.077.401.096-.114c.202-.23.495-.36.801-.357.285 0 .492.084.62.253.126.17.163.403.1.703l-.371 1.892h-.697l.337-1.715c.034-.177.025-.309-.028-.394-.055-.085-.154-.127-.3-.127a.65.65 0 0 0-.453.17.833.833 0 0 0-.244.47l-.312 1.596h-.697l.546-2.778zm3.353-1.721h1.969c.378 0 .671.087.872.258.2.173.301.422.301.745v.01c0 .062-.004.131-.01.206-.01.075-.022.15-.038.228-.073.404-.286.77-.6 1.034-.312.26-.681.391-1.107.391h-1.056l-.326 1.627h-.915l.91-4.499zm.492 2.09h.876c.228 0 .409-.054.541-.16.131-.108.218-.272.266-.495l.018-.113c.003-.032.007-.064.007-.096 0-.16-.056-.274-.168-.347-.111-.073-.287-.108-.53-.108h-.743l-.267 1.319zm6.742 2.946c-.289.623-.564.987-.726 1.156-.162.168-.483.557-1.255.528l.066-.477c.65-.203 1.002-1.12 1.202-1.525l-.239-2.989.503-.007h.422l.046 1.875.79-1.875h.8l-1.609 3.314zm-2.238-3.088l-.319.222c-.332-.264-.635-.427-1.22-.152-.799.376-1.465 3.256.731 2.307l.125.151.864.023.568-2.617-.75.066h.001zm-.491 1.43c-.14.416-.45.691-.692.613-.243-.076-.33-.477-.19-.894.14-.416.452-.69.692-.612.243.076.33.477.19.894v-.001z" fill="#FFF"/></g></svg>