<svg width="161" height="96" viewBox="0 0 161 96" xmlns="http://www.w3.org/2000/svg"><g fill="none"><path d="M28 24h22v12H37v-3c0-1.7-1.3-3-3-3h-6v-6zm71 0h16v4H99v-4zm20 0h16v4h-16v-4zM8 60h16v4H8v-4zm71-36h16v4H79v-4zM8 67h20v4H8v-4zm0-22h22v12H8V45zm137-35h16v84h-16v-4h12V28h-12v-4h12V14h-12v-4zM80 38.1c10.9 0 19.8 8.8 19.8 19.7 0 10.9-8.9 19.8-19.8 19.8s-19.8-8.8-19.8-19.7c0-10.9 8.9-19.8 19.8-19.8zM64.4 59.9c.2 1.7.7 3.3 1.5 4.9h3.9c-.3-1.6-.5-3.2-.6-4.9h-4.8zM82 47h2.9c-.9-1.9-1.9-3.3-2.9-4.1V47zm4.1 4H82v4.9h4.8c-.1-1.8-.4-3.4-.7-4.9zM78 42.9c-1 .8-2 2.2-2.9 4.1H78v-4.1zm0 8.1h-4.1c-.4 1.5-.6 3.1-.7 4.9H78V51zm-8.8 4.9c.1-1.7.3-3.4.6-4.9h-3.9c-.8 1.5-1.3 3.2-1.5 4.9h4.8zm4 4c.1 1.7.3 3.4.7 4.9H78v-4.9h-4.8zm4.8 8.9h-2.9c.9 1.9 1.9 3.3 2.9 4.1v-4.1zm4 4c1-.8 2-2.2 2.9-4.1H82v4.1zm0-8h4.1c.4-1.5.6-3.1.7-4.9H82v4.9zm8.8-4.9c-.1 1.7-.3 3.3-.6 4.9h3.9c.8-1.5 1.3-3.2 1.5-4.9h-4.8zm0-4h4.8c-.3-1.8-.8-3.4-1.5-4.9h-3.9c.3 1.6.5 3.2.6 4.9zm.6-8.9c-1-1-2.2-2-3.4-2.7.5.8.9 1.7 1.2 2.7h2.2zM72 44.3c-1.2.7-2.4 1.7-3.4 2.7h2.2c.4-1 .8-1.9 1.2-2.7zm-3.4 24.5c1 1 2.2 1.9 3.4 2.7-.5-.8-.9-1.7-1.2-2.7h-2.2zM88 71.4c1.2-.7 2.4-1.6 3.4-2.7h-2.2c-.4 1-.8 1.9-1.2 2.7z" fill="#D0D1D2"/><path d="M114.88 94H34v-.1c-.3.1-.7.1-1 .1H5c-2.8 0-5-2.2-5-5V34c0-2.8 2.2-5 5-5h28c2.8 0 5 2.2 5 5v55c0 .3 0 .7-.1 1h72.98l4 4zm30.02 0h-17.785l4-4H141V18H19v11h-4V0h129.9v94zM19 14h122V4H19v10zm14 76c.5 0 1-.5 1-1V34c0-.5-.5-1-1-1H5c-.5 0-1 .5-1 1v55c0 .5.5 1 1 1h28zm-14-5a2 2 0 1 1 0-4 2 2 0 0 1 0 4zm19-74a2 2 0 1 1 0-4 2 2 0 0 1 0 4zm-7 0a2 2 0 1 1 0-4 2 2 0 0 1 0 4zm-7 0a2 2 0 1 1 0-4 2 2 0 0 1 0 4z" fill="#151922"/><path d="M131.469 66.474c-5.378-5.841-14.628-5.841-19.938 0-5.937 5.095-5.937 14.091 0 19.684L121.5 96l9.969-9.842c5.96-5.593 5.96-14.589 0-19.684zM121.5 80.789c-2.537 0-4.531-1.968-4.531-4.473s1.994-4.474 4.531-4.474 4.531 1.969 4.531 4.474-1.994 4.473-4.531 4.473z" fill="#F64F64"/></g></svg>