<svg width="132" height="60" viewBox="0 0 132 60" xmlns="http://www.w3.org/2000/svg"><g fill="none"><path fill="#E12B4B" d="M0 17h132v25.457H0z"/><path fill="#282A40" d="M52.024 42.457l7.764-12.728L52.024 17H0v25.457z"/><path fill="#000" opacity=".1" d="M59.788 29.729H132v12.728H52.024z"/><path fill="#000" opacity=".1" d="M59.788 29.729H0v12.728h52.024z"/><path d="M17.29 34.82h-2.485l-4.452-10.183H13.2l2.847 6.749 2.847-6.749h2.847L17.29 34.82zm10.528-10.183c2.306 0 3.758 1.413 3.758 3.51 0 2.144-1.496 3.565-3.864 3.565h-2.415v3.108h-2.52V24.637h5.041zm-.29 4.97c.979 0 1.574-.563 1.574-1.429 0-.82-.595-1.397-1.574-1.397h-2.23v2.825h2.23zm15.437 5.213h-2.089l-5.21-5.896v5.896h-2.537V24.637h2.107l5.21 6.08v-6.08h2.519V34.82zm34.198-7.823l-2.402.479a1.685 1.685 0 0 0-1.734-1.367c-.815 0-1.333.435-1.333.987 0 .392.179.683.8.815l2.07.45c1.72.377 2.728 1.294 2.728 2.834 0 2.077-1.881 3.154-4.092 3.154-2.21 0-4.094-1.056-4.353-2.948l2.521-.478c.259 1.003.963 1.438 1.957 1.438.919 0 1.467-.407 1.467-1.003 0-.435-.207-.713-.919-.858l-2.07-.435c-1.424-.321-2.669-1.047-2.669-2.819 0-1.888 1.6-3.054 3.93-3.054 2.158-.013 3.729 1.033 4.1 2.805zm9.887 3.495c0 2.312-1.659 3.865-3.623 3.865a3.4 3.4 0 0 1-2.322-.81v3.055h-2.37v-9.765h2.37v.58a3.4 3.4 0 0 1 2.311-.8c1.972.003 3.634 1.584 3.634 3.875zm-2.33 0c0-1.117-.755-1.889-1.793-1.889-.496.01-.967.217-1.308.572-.34.355-.522.83-.504 1.317-.02.489.16.965.501 1.32.341.356.814.561 1.311.57 1.04-.008 1.796-.765 1.796-1.89h-.002zm10.85.596h-5.453c.192.873.8 1.41 1.6 1.41a1.66 1.66 0 0 0 1.586-.842l2.105.422c-.637 1.54-1.986 2.291-3.691 2.291a3.865 3.865 0 0 1-2.812-1.107 3.735 3.735 0 0 1-1.115-2.77 3.748 3.748 0 0 1 1.13-2.763 3.878 3.878 0 0 1 2.812-1.101c2.104 0 3.795 1.481 3.839 3.864v.596zm-5.409-1.423h3.067a1.481 1.481 0 0 0-1.496-1.148 1.625 1.625 0 0 0-1.568 1.14l-.003.008zm11.828 1.38l2.182.466c-.383 1.72-1.936 2.838-3.794 2.838-2.223 0-4.061-1.555-4.061-3.864 0-2.31 1.838-3.865 4.06-3.865 1.813 0 3.381 1.09 3.795 2.8l-2.223.525c-.207-.886-.815-1.293-1.571-1.293-1.066 0-1.778.763-1.778 1.83 0 1.067.712 1.83 1.778 1.83.756.003 1.364-.389 1.615-1.275l-.003.008zm6.096-6.36a1.362 1.362 0 0 1-1.37 1.291 1.362 1.362 0 0 1-1.371-1.29 1.362 1.362 0 0 1 1.37-1.291 1.36 1.36 0 0 1 1.37 1.29zm-2.565 9.445v-7.293h2.37v7.296l-2.37-.003zm12.035 0h-2.379v-.583a3.4 3.4 0 0 1-2.31.8c-1.973 0-3.624-1.556-3.624-3.865s1.659-3.864 3.623-3.864a3.4 3.4 0 0 1 2.311.802v-.583h2.371l.008 7.293zm-2.379-3.638a1.806 1.806 0 0 0-.503-1.317 1.867 1.867 0 0 0-1.308-.572c-1.036 0-1.794.764-1.794 1.89 0 1.124.758 1.88 1.794 1.88a1.857 1.857 0 0 0 1.308-.565c.34-.354.522-.828.503-1.316zm4.1 3.64V23.67h2.371v10.463h-2.37z" fill="#FFF"/></g></svg>