<svg width="80" height="24" viewBox="0 0 80 24" xmlns="http://www.w3.org/2000/svg"><title>global/logos/horizontal/webmoney</title><g fill="#0068A3"><path d="M69.385 2.048a9.84 9.84 0 0 1 4.342 1.006c.206.098.412.206.618.324l-.912.817-1.371-1.417-2.314 2.062-1.374-1.5-4.31 3.885 2.763 3.045-1.085.955 2.721 3.05-1.08.953 3.89 4.328 2.308-2.125 1.996 2.277c-.397.309-.83.6-1.306.868a9.835 9.835 0 0 1-4.886 1.294c-5.46 0-9.911-4.453-9.911-9.911 0-5.46 4.452-9.912 9.91-9.912"/><path d="M67.578 11.333l2.357-2.122 2.122 2.357-2.356 2.122-2.123-2.357zm1.676 4.073l2.357-2.122 2.123 2.357-2.357 2.122-2.123-2.357zm-3.362-8.097l2.357-2.122 2.121 2.357-2.356 2.121-2.122-2.356zm4.325-1.143l1.767-1.59 1.592 1.767-1.768 1.592-1.591-1.769zm3.14 7.29l1.769-1.592 1.591 1.768-1.768 1.592-1.592-1.768zm1.555 3.571l1.768-1.592 1.591 1.767-1.767 1.592-1.592-1.767zm.712-8.183l1.179-1.061 1.06 1.178-1.177 1.06-1.062-1.177zm-1.505-3.502l1.178-1.06 1.061 1.178-1.178 1.06-1.061-1.178zm3.012 7.003l1.178-1.061 1.061 1.178-1.178 1.061-1.061-1.178zm-5.285-2.624l1.768-1.592 1.591 1.768-1.767 1.591-1.592-1.767zm-67.125.53h-.08L3.15 15.894H1.928L.096 7.876h1.266L2.63 13.86h.079l1.47-5.983h1.006l1.573 5.983h.078L7.99 7.876h1.323L7.48 15.894H6.259L4.72 10.251h.001zm9.602 4.399v.86c-.61.347-1.3.526-2.002.52-1.9 0-2.68-1.176-2.68-2.963 0-1.719.871-2.963 2.568-2.963 1.413 0 2.284.917 2.284 2.76v.418h-3.687c0 1.357.554 1.956 1.72 1.956.61 0 1.175-.215 1.797-.588zm-3.494-2.126h2.59c-.057-1.187-.634-1.662-1.244-1.662-.69 0-1.222.532-1.346 1.662zm5.868-2.001c.34-.181.916-.419 1.527-.419 1.402 0 2.16.973 2.16 2.783 0 2.114-1.018 3.143-2.657 3.143-.6 0-1.527-.192-2.206-.554V7.583l1.176-.283v3.223zm-.01 4.534c.36.159.757.181 1.04.181.836 0 1.47-.52 1.47-2.351 0-1.437-.52-1.9-1.278-1.9-.453 0-.78.124-1.233.373v3.697h.001zm8.842-.859h.057l2.42-6.322h1.402v8.018h-1.221v-5.812h-.102l-2.307 5.812h-.724l-2.307-5.676h-.101v5.676h-1.018V7.876h1.368l2.533 6.322zm5.123-1.131c0-1.979 1.085-2.963 2.578-2.963 1.493 0 2.579.984 2.579 2.963 0 1.934-1.03 2.963-2.579 2.963-1.55 0-2.578-1.029-2.578-2.963zm3.969 0c0-1.526-.622-2.17-1.391-2.17-.746 0-1.391.644-1.391 2.17 0 1.55.588 2.171 1.391 2.171s1.391-.621 1.391-2.171zm2.262-2.126c.508-.305 1.583-.837 2.883-.837 1.357 0 1.866.532 1.866 1.696v4.094h-1.176v-3.833c0-.894-.44-1.052-1.017-1.052-.453 0-1.03.204-1.38.407v4.478h-1.176v-4.953zm10.482 3.709v.86c-.61.347-1.3.526-2.002.52-1.899 0-2.68-1.176-2.68-2.963 0-1.719.872-2.963 2.568-2.963 1.413 0 2.284.917 2.284 2.76v.418H43.85c0 1.357.554 1.956 1.718 1.956.611 0 1.176-.215 1.798-.588h-.001zm-3.494-2.126h2.59c-.057-1.187-.634-1.662-1.244-1.662-.69 0-1.221.532-1.346 1.662zm8.063-2.227h1.21l-2.047 5.654c-.566 1.56-1.256 2.374-2.555 2.374V17.4c.769 0 1.243-.612 1.515-1.448l-2.171-5.654h1.244l1.447 4.16h.067l1.29-4.16v-.001z"/></g></svg>