<svg width="132" height="60" viewBox="0 0 132 60" xmlns="http://www.w3.org/2000/svg"><path d="M17 40.189V20h19.573v20.189H17zm1.441-17.02c.874 4.104 1.657 8.23 2.498 12.342.154.492.059 1.142.532 1.472.853.138 1.729.104 2.59.044.468.015.58-.541.666-.898.588-2.928 1.227-5.845 1.812-8.772.046-.271.13-.535.256-.778.73 3.141 1.332 6.31 2.01 9.461.093.335.112.749.439.953a10.93 10.93 0 0 0 2.817-.007c.334-.2.351-.611.437-.95.86-4.287 1.663-8.59 2.573-12.867-.822.005-1.642.002-2.461.002-.654 3.73-1.178 7.485-1.9 11.202-.812-3.154-1.356-6.384-2.064-9.567-.16-.544-.087-1.337-.678-1.613a17.26 17.26 0 0 0-2.17 0c-.41.035-.503.525-.583.85-.654 3.156-1.34 6.305-1.978 9.461a5.768 5.768 0 0 1-.274.852 468.44 468.44 0 0 1-1.843-11.185c-.893-.002-1.786.003-2.679-.002zm23.098-.133c3.154-.008 6.305-.008 9.456 0 .012.824.012 1.652.003 2.479-1.115.007-2.23.002-3.344.002.005 3.05.005 6.104 0 9.154 1.114 0 2.229-.005 3.346.005.005.825.007 1.652-.005 2.477-3.151.007-6.302.007-9.454 0a93.344 93.344 0 0 1-.002-2.48c1.115-.007 2.23-.002 3.344-.002-.005-3.05-.005-6.103 0-9.154-1.115 0-2.23.005-3.344-.002-.01-.827-.01-1.652 0-2.48zm14.424 17.153V20h19.574v20.189H55.963zm4.422-17.018v13.847h2.713V31.6c1.47.005 2.941-.007 4.412.003.536-.052 1.175.334 1.163.93.068 1.497.195 2.99.288 4.484.861 0 1.72 0 2.58.002-.243-1.694.057-3.444-.417-5.104-.244-.869-1.195-1.063-1.936-1.28.551-.295 1.258-.323 1.658-.864.58-.744.622-1.736.625-2.642-.01-1.059.014-2.223-.651-3.112-.532-.739-1.527-.847-2.361-.847-2.69-.002-5.383 0-8.074 0zm2.713 2.275c1.741.027 3.485-.054 5.222.037.67.48.536 1.445.563 2.171-.034.66-.046 1.717-.917 1.768-1.62.084-3.246.013-4.868.035v-4.011zm15.936-2.408c3.864-.012 7.727-.012 11.593 0 .005 1.532 0 3.063.002 4.594h-2.51c-.002-.706-.002-1.41.003-2.115-1.512.003-3.022.003-4.534 0-.005 1.06-.003 2.118-.003 3.176h3.659v2.357h-3.659c.005 1.208-.012 2.42.013 3.629 1.55-.018 3.102-.005 4.653-.008a486.02 486.02 0 0 1 0-2.415c.851-.01 1.703-.01 2.554-.002 0 1.632.012 3.264-.007 4.897-3.922.012-7.842.012-11.764 0-.012-.825-.01-1.65-.002-2.475a94.025 94.025 0 0 1 1.863-.002c.012-3.053.012-6.106 0-9.159a67.34 67.34 0 0 1-1.866-.007 135.56 135.56 0 0 1 .005-2.47zm15.954 17.15V20h19.817v20.189H94.988zm4.422-17.017v13.847c2.28-.005 4.558.01 6.839-.008 1.405-.027 3.041-.29 3.888-1.56.987-1.596.839-3.549 1.012-5.348-.176-1.802-.02-3.762-1.012-5.363-.788-1.189-2.296-1.501-3.62-1.55-2.368-.04-4.739-.008-7.107-.018zm2.712 2.275c1.47.007 2.941-.01 4.412.005.656-.007 1.405.315 1.612.995.461 1.33.266 2.772.317 4.156-.039 1.105.076 2.272-.39 3.308-.312.67-1.12.847-1.785.835-1.39 0-2.778-.005-4.166-.002v-9.297z" fill="#8A8C98"/></svg>