<svg width="132" height="60" viewBox="0 0 132 60" xmlns="http://www.w3.org/2000/svg"><g fill="none"><path d="M107.731 31.689c-.885 0-1.326.675-1.326 1.4 0 .856.684 1.295 1.529 1.295.61 0 1.278-.372 1.278-1.38 0-.809-.634-1.315-1.48-1.315zm-4.59-7.945c0-5.978-3.286-8.689-7.748-8.689-3.619 0-7.681 1.955-7.681 8.56 0 6.374 3.665 8.735 7.688 8.735 3.766 0 7.741-2.108 7.741-8.606zm2.805 0c0 6.13-4.152 9.625-10.51 9.625-7.512 0-10.533-4.548-10.533-9.716 0-6.273 4.541-9.647 10.483-9.647 6.687 0 10.56 3.958 10.56 9.738zm-24.819-.021c0-5.193-2.68-7.678-6.328-7.678h-.156c-3.271.067-6.15 2.255-6.15 7.692 0 4.807 2.336 7.657 6.313 7.657 3.645 0 6.321-2.485 6.321-7.671zm2.777.042c0 4.896-2.994 8.585-9.124 8.585-5.67 0-9.088-3.274-9.088-8.641 0-4.904 3.13-8.687 9.097-8.687 5.54 0 9.115 3.285 9.115 8.743zm-54.286 1.497c2.345-4.114 6.216-10.826 7.279-12.262l-.002.001.001-.001c-1.013.23-1.927.237-2.834 0-.8 1.49-3.748 6.308-5.625 9.393-1.903-3.152-4.157-6.792-5.625-9.393-1.164.248-1.65.264-2.812 0 2.305 3.474 6 10.09 7.256 12.262l-.169 9.056s.81-.136 1.353-.136c.6 0 1.347.136 1.347.136l-.169-9.056zm14.406.737c-1.042-2.627-2.067-5.246-3-7.845-.611 1.76-1.77 4.747-2.991 7.843h.002a86.49 86.49 0 0 0 5.983 0l.006.002zm5.227 6.122a5.782 5.782 0 0 0-2.806.005c-.641-1.652-1.299-3.303-1.954-4.952a113.523 113.523 0 0 0-6.919 0l-.003-.002c-.682 1.723-1.363 3.436-1.962 4.948l-.003-.001.004.002c-.677-.183-1.7-.265-2.774 0l.01-.004-.02.007.01-.002-.01.004v-.002c2.347-4.783 4.957-11.198 7.222-16.881l.003.001c.687.23 1.258.244 1.958 0h-.002.002c2.156 5.458 5.55 13.719 7.241 16.876l.003.001zM62.068 15.25c.137 2.623.21 5.248.22 7.875-3.148.073-6.292.08-9.433 0 .01-2.627.082-5.252.219-7.875a5.933 5.933 0 0 1-2.813 0c.245 5.634.224 11.258 0 16.874a5.93 5.93 0 0 1 2.809 0l-.005-.003.009.003a159.5 159.5 0 0 1-.22-7.848h.001a343.96 343.96 0 0 1 9.433-.004 158.434 158.434 0 0 1-.22 7.852l.01-.003-.006.003a5.93 5.93 0 0 1 2.809 0c-.224-5.616-.245-11.24 0-16.874a5.933 5.933 0 0 1-2.813 0zm50.07-.709c0 .247-.101.594-.17.887-.473 2.087-2.321 9.46-3.1 14.383l.002.002c-.313-.126-.634-.234-1.049-.162h-.006l.003-.003c.686-4.846 1.103-9.94 1.503-15.018 0-1.013.67-1.408 1.345-1.408.118 0 .293.024.293.024v.001c.707.117 1.18.55 1.18 1.294z" fill="#421092"/><path d="M48 39.34h2.904v6.944h1.58v-6.943h2.904v-1.236H48v1.236zm11.488 3.385h3.548v-1.236h-3.548v-2.148h3.706v-1.236h-5.287v8.18h5.369v-1.236h-3.788v-2.324zm10.944 2.3a3.46 3.46 0 0 1-1.581-.354 2.594 2.594 0 0 1-1.089-1.004 2.82 2.82 0 0 1-.386-1.47c0-.534.13-1.02.389-1.457a2.64 2.64 0 0 1 1.092-1.016 3.4 3.4 0 0 1 1.575-.36 4.6 4.6 0 0 1 1.337.193c.428.13.893.338 1.397.627v-1.487a6.9 6.9 0 0 0-1.44-.539A5.897 5.897 0 0 0 70.36 38c-.878 0-1.667.178-2.368.533-.7.355-1.25.86-1.65 1.516-.4.656-.6 1.395-.6 2.219 0 .769.193 1.476.582 2.122a3.87 3.87 0 0 0 1.6 1.484c.68.344 1.45.515 2.314.515.593 0 1.112-.058 1.557-.175a7.139 7.139 0 0 0 1.463-.591v-1.487c-.62.335-1.134.567-1.542.696a4.24 4.24 0 0 1-1.285.193zm11.476-3.477h-4.244v-3.443h-1.581v8.18h1.58V42.83h4.245v3.454h1.58v-8.179h-1.58v3.443z" fill="#5B5A79"/></g></svg>