<svg width="54" height="24" viewBox="0 0 54 24" xmlns="http://www.w3.org/2000/svg"><title>global/logos/horizontal/yandex</title><g fill="none"><path d="M42.026 7.712a465.345 465.345 0 0 0 7.21-5.682c.018 2.72-.013 5.442.016 8.161.044.476.018.954.024 1.432 0 1.04-.001 2.08.003 3.12a.317.317 0 0 1-.143.304c-2.792 1.906-5.587 3.809-8.375 5.72 3.523-1.127 7.034-2.296 10.555-3.432.061-.034.164-.045.188-.123-.027-2.336.003-4.677-.013-7.015.807.015 1.615.007 2.422.005.047.668.009 1.341.022 2.011v9.773c-4.49.01-8.979 0-13.468.005-.345 0-.714-.017-1.006-.223-.285-.174-.491-.459-.615-.766-.103-.246-.07-.518-.074-.777v-8.71a2.59 2.59 0 0 1 .61-1.515c.731-.924 1.73-1.566 2.644-2.288z" fill="#FECB31"/><path d="M5.765 7.817c.198-.066.408-.046.612-.047.262.003.524-.01.785.02-.009.088-.016.178-.047.262-1.02 2.768-2.029 5.541-3.034 8.315-.039.099-.037.206-.038.311.006 1.41-.003 2.821.005 4.232a.998.998 0 0 1-.347.046c-.297-.005-.594.007-.89-.015-.021-1.495-.004-2.992-.01-4.487-.89-2.29-1.767-4.586-2.631-6.886-.07-.192-.177-.383-.15-.595.35-.042.704-.015 1.055-.025a.576.576 0 0 1 .327.074c.49 1.456 1.013 2.902 1.517 4.353.203.56.4 1.12.617 1.674.188-.787.398-1.57.656-2.337.518-1.634 1.056-3.261 1.574-4.895h-.001z" fill="#E92730"/><path d="M21.519 8.967c.362-.035.729-.015 1.093-.016.073-.012.153.05.13.13.001 3.934 0 7.867.002 11.8l-.114.073c-.218-.01-.443.026-.656-.024-.12-.118-.184-.28-.268-.422-.465.41-1.072.744-1.71.628-.507-.047-.95-.34-1.294-.699-.186-.202-.308-.453-.44-.692l-.144-.33-.057-.16-.048-.165c-.02-.072-.036-.145-.052-.216-.023-.088-.038-.177-.054-.265-.135-.598-.099-1.214-.1-1.822a6.667 6.667 0 0 1 .151-1.343c.017-.09.032-.178.054-.267a4.36 4.36 0 0 1 .11-.375l.081-.228c.056-.124.111-.248.17-.372.058-.107.117-.214.174-.323.212-.373.556-.64.905-.875.526-.27 1.345-.287 2.124-.018.028.01.066.82-.07 1.113-.323-.205-.754-.46-1.248-.291-1.42.442-1.732 5.91.085 6.262.029.01.681.116 1.168-.207-.02-.353-.001-6.385-.002-6.895.009-1.334-.01-2.668.01-4.002v.001zm23.713 1.117c.272-.366.662-.692 1.13-.74.198-.028.414.001.574.126.692.47-.049 1.756-.569 2.097-.256.2-.596.272-.914.24-.29-.04-.484-.31-.56-.573-.061-.41.102-.822.339-1.15z" fill="#020202"/><path d="M49.252 10.191c.746.007 1.493-.004 2.24.006.015 2.338-.015 4.679.012 7.015-.024.078-.127.089-.188.123-3.521 1.136-7.032 2.305-10.555 3.432 2.788-1.911 5.583-3.814 8.375-5.72a.317.317 0 0 0 .143-.305c-.004-1.04-.003-2.08-.003-3.12-.006-.477.02-.955-.024-1.43v-.001z" fill="#CCA74D"/><path d="M7.436 12.902c.354-.11.723-.135 1.09-.168.188.032.381.034.565.093.434.113.787.425 1.054.776l.078.175c.04.09.075.18.11.27l.068.208c.018.072.036.145.059.216l.029.222c.06.262.023.534.08.797.019 1.778.004 3.557.007 5.335.014.094-.1.134-.175.127a6.668 6.668 0 0 1-.605-.01 5.234 5.234 0 0 1-.113-.226l-.14-.343c-.34.366-.768.69-1.274.76-.461.086-.944-.074-1.296-.375-.352-.264-.543-.673-.721-1.063l-.08-.234c-.022-.07-.042-.14-.064-.208-.02-.09-.032-.18-.047-.271a4.266 4.266 0 0 1-.005-1.065c.034-.263.11-.516.198-.764.185-.432.409-.872.807-1.146.644-.518 1.58-.472 2.282-.1.001-.057.002 1.092.003 1.035.122.063-.916-.601-1.458-.177-.555.52-.553 1.518-.544 1.874.01.356.243 1.42.985 1.47.754.003 1.006-.457 1.006-.471 0-.115.009-4.303.003-4.417-.042-.196-.067-.395-.116-.588a6.719 6.719 0 0 1-.046-.171c-.089-.26-.245-.514-.493-.645-.276-.134-.59-.053-.856.061-.035.02-.07.042-.104.063a6.95 6.95 0 0 0-.167.083c-.192.083-.374.333-.593.196a6.692 6.692 0 0 0-.148-.344c-.085-.209-.23-.402-.249-.632l.132-.078c.227-.106.464-.19.707-.25l.031-.015zm17.931.22c.51-.395 1.24-.454 1.817-.175.244.157.467.35.646.581.148.209.248.446.353.679.069.174.122.354.176.533.015.089.03.179.054.266.015.108.03.217.058.322.09.628.075 1.263.074 1.897-.273-.005-2.68.055-3.294-.08-.069.001-.456-.546-.129-.742-.062-.137 1.848-.216 2.155-.158.02-2.338-.741-2.467-.878-2.467-.701-.079-1.062 1.217-1.071 2.552.176.104.167.434-.055.808.005.329-.032.66.028.987.016.09.029.18.048.27.021.07.04.14.062.21.016.055.034.11.052.164.046.112.093.222.138.334.179.414.552.74.985.857.552.143 1.115-.025 1.666-.083l.058.178c.013.074.026.147.043.22l.073.232c-.013.028-.04.083-.052.111-.459.249-.953.457-1.479.486a2.17 2.17 0 0 1-1.653-.443c-.374-.246-.611-.636-.817-1.023l-.051-.107a19.573 19.573 0 0 0-.113-.264c-.029-.094-.06-.187-.09-.281-.018-.071-.034-.144-.051-.214a4.929 4.929 0 0 1-.15-1.237c.008-.463-.028-.933.044-1.393a6.19 6.19 0 0 1 .165-.854 6.02 6.02 0 0 1 .108-.377c.033-.108.07-.216.109-.322a7.71 7.71 0 0 1 .215-.542c.18-.36.454-.663.756-.925zm-11.494-.015c.566-.27 1.235-.354 1.832-.138.58.2.923.854.873 1.45-.002 2.153-.002 4.306 0 6.458l-.113.077c-.372-.022-.756.049-1.12-.044v-6.39c-.103-.283-.313-.544-.62-.607-.483-.097-.986 0-1.398.27.005 2.03 0 4.062.002 6.093-.002.221.007.443-.011.664-.37.028-.741.009-1.112.013l-.11-.075c.004-2.626.003-5.253 0-7.88.073-.031.146-.072.23-.064.331.003.665-.014.996.015.008.15.007.299.008.448.148-.072.288-.16.436-.235l.107-.055zm15.515-.052c.154-.193.413-.104.624-.122.221.014.457-.044.665.057.058.156.121.311.177.468l.08.202c.052.143.106.286.163.428.059.167.128.331.187.5l.081.2c.026.077.054.153.081.23.026.067.051.134.078.2.061.18.123.358.201.53.05-.141.102-.281.15-.423l.074-.202c.018-.054.037-.106.057-.159.077-.221.16-.44.24-.659l.08-.202.082-.227c.026-.068.053-.135.081-.202l.083-.23.078-.202c.047-.116.072-.293.23-.302.318-.008.64-.022.959.007l.069.05c-.01.186-.124.343-.19.512-.078.176-.156.353-.237.529-.07.162-.142.322-.216.482-.087.201-.178.4-.269.598-.078.181-.162.36-.243.54-.08.177-.156.354-.24.529-.09.204-.174.412-.285.606.01.11.053.211.096.312.103.234.202.47.302.706.053.124.108.25.159.376.199.466.395.932.591 1.398.055.125.107.252.159.377l.133.313c.076.185.15.37.238.55l-.086.12c-.323.014-.648.01-.971.006-.088.003-.15-.068-.222-.105a10.347 10.347 0 0 0-.05-.185 4.571 4.571 0 0 1-.087-.229 18.02 18.02 0 0 1-.162-.429c-.058-.142-.11-.285-.164-.428-.036-.09-.07-.18-.102-.272-.028-.066-.054-.133-.08-.199l-.083-.23a5.182 5.182 0 0 1-.057-.158l-.074-.203c-.064-.197-.14-.39-.194-.59a4.21 4.21 0 0 1-.082.01c-.022.087-.049.173-.074.26-.125.375-.246.752-.376 1.126-.02.053-.04.106-.057.16l-.075.201-.08.233c-.02.053-.04.105-.058.159l-.076.2-.08.232c-.052.133-.101.268-.158.4-.336.1-.695.03-1.04.047l-.146-.087c.018-.092.047-.18.08-.267.069-.137.125-.28.187-.42.05-.128.108-.252.16-.378.045-.11.095-.219.139-.33.052-.126.11-.25.16-.377.054-.124.109-.249.159-.376.045-.104.09-.207.133-.311.045-.112.094-.222.139-.333.054-.126.107-.251.159-.377.055-.125.106-.252.158-.378.044-.105.09-.208.136-.312.076-.155.131-.33.038-.493-.185-.389-.349-.788-.525-1.182-.063-.14-.12-.283-.186-.42-.076-.186-.162-.366-.239-.55-.063-.14-.121-.282-.187-.42-.058-.149-.13-.291-.189-.439-.069-.148-.128-.302-.206-.446z" fill="#020202"/></g></svg>